<svg width="174" height="217" viewBox="0 0 174 217" fill="none" xmlns="http://www.w3.org/2000/svg">
<g opacity="0.1">
<path d="M83.5117 217C98.9674 217 111.497 213.908 111.497 210.094C111.497 206.28 98.9674 203.188 83.5117 203.188C68.0561 203.188 55.5268 206.28 55.5268 210.094C55.5268 213.908 68.0561 217 83.5117 217Z" fill="url(#paint0_linear)"/>
<path d="M88.5 205.467C135.72 205.467 174 200.214 174 193.734C174 187.253 135.72 182 88.5 182C41.2797 182 3 187.253 3 193.734C3 200.214 41.2797 205.467 88.5 205.467Z" fill="url(#paint1_linear)"/>
</g>
<path d="M28.3519 46.8764C29.8473 46.964 31.3299 47.2025 32.7773 47.5883C32.7342 46.7935 32.7044 45.9925 32.7098 45.1867C31.1416 26.5229 45.2911 14.7108 60.8016 15.158C65.2814 15.3039 69.6536 16.5681 73.5199 18.8355C78.5718 7.47681 93.2854 -0.208626 106.449 0.0109135C134.404 -0.523986 150.682 18.6658 150.329 43.8892C150.314 44.8853 150.269 45.8715 150.193 46.8479C163.297 51.5427 173.855 63.9339 173.63 83.1863C173.515 103.716 151.848 118.06 133.186 116.025L129.282 115.39L28.4227 102.991L28.4213 102.976C28.2187 102.96 28.0188 102.949 27.8162 102.928C14.4068 101.512 3.86657 88.1204 3.99587 72.9741C4.12555 57.8084 14.9047 46.1079 28.3519 46.8764Z" fill="url(#paint2_linear)"/>
<path d="M24.1873 50.0847C25.68 50.1736 28.1721 50.1711 29.5971 50.552C29.5513 49.7618 29.335 48.4136 29.3433 47.6107C29.508 30.7448 41.3653 17.7294 56.7142 18.1958C61.2191 18.3336 65.7455 20.0139 69.5562 22.2333C76.818 12.3302 88.4089 3.28095 101.425 3.523C128.367 4.2455 143.432 21.6715 143.076 46.639C143.061 47.6251 143.015 48.6016 142.941 49.5696C155.876 54.2303 166.58 65.5527 166.239 87.3204C166.374 107.301 146.001 116.511 129.648 115.643L128.673 115.516L24.1696 104.883V104.865C23.9695 104.849 23.7696 104.838 23.5698 104.815C10.297 103.398 -0.133731 90.1106 0.00114836 75.0932C0.133719 60.0561 10.8769 49.3031 24.1873 50.0847Z" fill="url(#paint3_linear)"/>
<g style="mix-blend-mode:multiply" opacity="0.81">
<g style="mix-blend-mode:multiply" opacity="0.1">
<path d="M159.497 88.7935C159.867 68.1808 148.542 59.9175 135.823 55.4719C135.897 54.5533 135.947 53.6248 135.962 52.6908C136.349 28.9905 125.966 10.266 101.663 10.7618C87.1564 11.0572 77.8467 20.2532 70.7134 29.4146C70.5337 29.6434 69.7514 29.8616 69.0175 29.4186C65.2417 27.2969 59.103 25.9374 54.6445 25.7948C39.4441 25.3115 34.1159 41.0446 33.9916 57.1592C33.9829 57.9221 33.8785 58.6259 33.9252 59.3819C33.9972 60.6072 32.7423 59.9813 32.5558 59.9297C31.0014 59.481 26.3323 59.7565 25.0041 59.7473C16.5635 59.6907 8.32642 63.8649 8.91866 76.5762C9.43143 87.6036 16.2768 96.7693 29.4555 98.0919C29.6535 98.1111 131.274 109.948 131.274 109.948C143.22 110.202 159.594 107.695 159.497 88.7935ZM170.029 87.8212C170.166 108.097 146.403 117.614 135.703 116.2C135.703 116.2 25.7724 106.464 25.566 106.445C11.7923 104.998 -0.0895893 91.0308 0.0347076 75.7897C0.159197 60.5237 12.8275 48.4632 22.0849 49.082C23.6367 49.1718 27.2088 52.0711 28.6884 52.4534C28.6416 51.6528 29.2827 51.2914 29.2914 50.4791C25.9694 35.4184 38.5935 18.418 56.1326 18.2379C60.8045 18.3807 64.5074 18.6941 68.4586 20.9445C75.9899 10.894 88.7611 1.7651 102.272 2.01388C130.23 2.75023 145.792 20.8368 145.424 46.1772C145.409 47.1796 145.473 48.4438 145.396 49.4245C158.814 54.1578 170.381 65.7333 170.029 87.8212V87.8212Z" fill="white"/>
</g>
<g style="mix-blend-mode:multiply" opacity="0.136364">
<path d="M101.611 10.4569C87.0358 10.6751 77.7479 19.9708 70.735 29.0687C70.5426 29.3188 69.8024 29.5597 69.1084 29.1984C65.3539 27.0894 59.1883 25.6823 54.7546 25.5411C44.6531 25.2213 38.7251 32.1248 36.0987 41.4628C35.8457 42.2975 35.6154 43.3509 35.4133 44.2235C34.9989 45.3764 34.4361 46.5003 34.1076 47.6894C32.9921 50.7817 32.2685 54.0016 31.9538 57.2739C31.8638 58.0354 31.6944 58.7522 31.6706 59.5241C31.6802 60.71 30.4892 60.2185 30.2754 60.2553C28.708 60.1379 24.3823 60.7452 23.1718 61.1435C15.4947 61.6335 8.20233 65.9058 9.05798 77.8333C9.92036 88.3231 16.7288 96.9579 29.3324 98.2234C29.5292 98.2426 131.561 109.97 131.561 109.97C143.799 110.27 159.833 107.382 159.735 88.5832C160.1 68.0843 148.662 59.6713 136.01 55.2513C136.084 54.3381 136.143 53.3801 136.158 52.4507C136.543 28.8828 126.115 10.0936 101.611 10.4569ZM102.18 2.32795C129.981 3.06141 145.461 21.1218 145.095 46.319C145.08 47.3159 145.143 48.5727 145.067 49.5479C158.409 54.2558 169.91 65.7663 169.561 87.7299C169.697 107.89 146.645 117.413 135.474 116.053C135.464 116.054 135.454 116.054 135.445 116.053C133.506 115.881 25.8069 106.189 25.5681 106.165C11.8706 104.727 0.143049 90.8787 0.266192 75.7222C0.388757 60.6226 12.7365 48.7001 22.2273 49.2038C22.8207 49.23 23.6663 49.6094 24.5747 50.0976C26.1303 50.9299 27.863 52.0794 28.837 52.3311C28.7904 51.5347 29.3707 51.1381 29.3792 50.33C26.4694 35.6149 38.1973 19.5865 54.7045 18.54C55.2525 18.5056 55.8053 18.4874 56.3627 18.4854C60.7689 18.6353 64.367 18.9843 68.0763 20.9586C68.2467 21.029 68.4177 21.1029 68.5892 21.1803C76.0832 11.0374 88.7613 2.08051 102.18 2.32795Z" fill="#F4F6F6"/>
</g>
<g style="mix-blend-mode:multiply" opacity="0.172727">
<path d="M101.559 10.1519C86.9155 10.293 77.6494 19.6885 70.7567 28.7229C70.5514 28.9952 69.8543 29.2578 69.1993 28.9783C65.4666 26.881 59.274 25.4271 54.8663 25.2873C44.3494 24.9557 38.1722 32.4849 35.7958 42.3956C35.5674 43.2183 35.3582 44.4555 35.1801 45.3114C34.6706 46.3633 33.8149 47.318 33.3812 48.3751C31.76 50.9324 30.6084 54.0081 29.9167 57.3884C29.7451 58.1488 29.5109 58.8782 29.4164 59.6663C29.3633 60.8125 28.2362 60.4552 27.9953 60.5799C26.4148 60.7936 22.4323 61.7326 21.34 62.5384C14.4263 63.5749 8.07854 67.9451 9.19779 79.089C10.41 89.0412 17.1813 97.1453 29.2096 98.3538C29.4055 98.3731 131.85 109.991 131.85 109.991C144.378 110.337 160.072 107.066 159.973 88.372C160.334 67.9863 148.782 59.4237 136.2 55.0294C136.273 54.1215 136.342 53.134 136.357 52.2097C136.738 28.7751 126.264 9.92141 101.559 10.1519ZM102.088 2.64176C129.731 3.37196 145.13 21.406 144.766 46.4618C144.751 47.4527 144.814 48.7022 144.738 49.6722C158.005 54.3537 169.439 65.799 169.091 87.6385C169.226 107.684 146.887 117.212 135.243 115.906C135.235 115.91 135.226 115.912 135.217 115.911C133.472 115.757 25.8422 105.916 25.5688 105.888C11.9477 104.459 0.374264 90.7292 0.496829 75.6571C0.61747 60.7242 12.6446 48.9398 22.3698 49.3281C22.9828 49.3474 23.824 49.6889 24.7228 50.1328C26.2688 50.8905 27.9705 51.9487 28.986 52.2108C28.9398 51.4187 29.4589 50.9861 29.467 50.1822C26.8631 35.3311 38.5923 19.6712 54.9442 18.7753C55.4898 18.7458 56.0395 18.7322 56.5934 18.7344C60.9444 18.8975 64.562 19.3039 68.2278 21.2671C68.3914 21.314 68.5556 21.3642 68.7204 21.4175C76.1769 11.1807 88.762 2.39586 102.088 2.64176V2.64176Z" fill="#E9ECEE"/>
</g>
<g style="mix-blend-mode:multiply" opacity="0.209091">
<path d="M101.507 9.84691C86.7944 9.91079 77.5503 19.4062 70.7778 28.376C70.5596 28.6702 69.9054 28.955 69.2897 28.757C65.5783 26.6732 59.3589 25.171 54.9765 25.0325C44.0448 24.6892 37.6177 32.8443 35.4912 43.3274C35.2876 44.1384 35.0998 45.5594 34.9472 46.3983C34.3427 47.3492 33.1942 48.1348 32.6551 49.0597C30.4989 51.2641 28.9044 54.1585 27.88 57.5021C27.5945 58.2553 27.3552 59.0252 27.1633 59.8075C27.0478 60.9143 25.9846 60.6926 25.7164 60.9042C24.123 61.4492 20.4828 62.7198 19.5092 63.933C13.3592 65.5163 7.95614 69.9831 9.33899 80.3455C10.9002 89.7602 17.6349 97.3336 29.0881 98.4848C29.2829 98.5041 132.139 110.013 132.139 110.013C144.958 110.404 160.312 106.752 160.212 88.1614C160.57 67.8893 148.903 59.177 136.392 54.8083C136.464 53.9057 136.543 52.8886 136.557 51.9691C136.932 28.6679 126.413 9.74916 101.507 9.84691ZM101.996 2.95574C129.481 3.68228 144.8 21.6903 144.436 46.6043C144.422 47.5897 144.484 48.8317 144.409 49.7964C157.6 54.4516 168.968 65.8319 168.621 87.5473C168.756 107.478 147.129 117.011 135.012 115.759C135.009 115.762 135.005 115.764 135.001 115.766C134.997 115.768 134.992 115.768 134.988 115.768C133.437 115.63 25.8772 105.641 25.5694 105.61C12.0237 104.189 0.605318 90.5781 0.727113 75.5909C0.84583 60.8244 12.5524 49.1782 22.5118 49.451C23.1444 49.4634 23.981 49.767 24.8703 50.1668C26.4063 50.8499 28.0774 51.8169 29.1341 52.0909C29.0883 51.3032 29.5467 50.835 29.5551 50.0354C27.2568 35.0484 38.9871 19.7568 55.1841 19.0116C55.7271 18.9871 56.2739 18.9779 56.8244 18.9841C61.1204 19.1607 64.7579 19.6242 68.3796 21.5764C68.5364 21.5999 68.6938 21.6263 68.852 21.6557C76.2698 11.3242 88.762 2.71177 101.996 2.95574Z" fill="#DEE3E5"/>
</g>
</g>
<path d="M166.484 86.1431C166.626 106.129 147.742 117.021 131.356 116.152L129.161 115.898L24.2506 104.887L24.2533 104.867C24.052 104.851 23.8507 104.84 23.6508 104.819C10.3536 103.401 -0.0989086 90.1115 0.0334695 75.0949C0.168156 60.0567 10.8588 48.4742 24.1938 49.2529C25.6906 49.3414 27.0249 49.2806 28.4515 49.6569C28.4082 48.868 28.5092 48.387 28.5163 47.5843C28.6852 30.723 40.7599 17.769 56.1318 18.2383C60.5057 18.3508 64.7793 19.5735 68.5509 21.7915C75.8722 9.27931 88.579 2.64232 101.619 2.88187C128.614 3.59937 143.644 21.4054 143.285 46.3711C143.273 47.358 143.333 48.6031 143.26 49.5713C156.225 54.2328 166.819 64.3705 166.484 86.1431ZM164.227 87.0536C164.555 66.7047 152.814 56.2597 140.481 51.8925C140.043 51.7365 140.134 51.1639 140.148 50.9699C140.192 50.2548 140.225 49.5369 140.236 48.8094C140.585 25.4546 127.947 5.86115 100.639 5.69144C86.6055 5.40052 76.1991 14.1698 69.7476 24.6912C69.6276 24.8924 69.3397 25.299 68.7483 24.9403C65.109 22.8623 59.5386 21.3317 55.243 21.198C40.587 20.7475 30.883 33.817 30.7398 49.6169C30.7315 50.2904 30.7086 51.4075 30.7315 52.2241C30.7293 52.3528 30.6764 52.4754 30.5844 52.5655C30.4924 52.6555 30.3686 52.7057 30.2399 52.7051C29.0211 52.3962 27.7769 52.1975 26.5225 52.1113C12.0918 50.7046 3.26017 60.9941 3.14858 75.072C3.04044 89.1283 13.3848 101.256 26.0767 102.579C26.2692 102.599 132.646 113.605 132.646 113.605C148.232 114.41 164.347 105.724 164.227 87.0536Z" fill="#4C49D1"/>
<path d="M86.2081 153.65L86.5747 157.652L133.28 168.963L133.029 165.001L86.2081 153.65Z" fill="#0E2869"/>
<path d="M133.03 165.001L133.281 168.963L161.467 149.193L162.526 144.65L133.03 165.001Z" fill="#0E2C76"/>
<path d="M115.368 131.784L86.2085 153.65L133.03 165.001L162.526 144.65L115.368 131.784Z" fill="#1F3D88"/>
<path d="M100.14 152.031L131.824 159.234L131.053 84.1769L99.3693 76.9741L100.14 152.031Z" fill="#D1D1F4"/>
<path d="M99.3701 76.9741L131.054 84.1769L151.299 70.0013L119.615 62.7985L99.3701 76.9741Z" fill="#BDBEFF"/>
<path d="M121.379 67.2905L129.291 79.6838L137 80.0134L151.299 70.0013L119.615 62.7985L121.379 67.2905Z" fill="url(#paint4_linear)"/>
<path d="M129.513 78.678L129.291 79.6837L141.797 72.7591L142.02 71.7532L129.513 78.678Z" fill="#3D3693"/>
<path d="M108.871 74.2164L108.817 75.2224L129.29 79.6838L129.513 78.678L108.871 74.2164Z" fill="#37388B"/>
<path d="M121.379 67.2905L108.871 74.2165L129.513 78.6781L142.02 71.7532L121.379 67.2905Z" fill="#CDCCF6"/>
<path d="M127.155 75.1084L127.064 75.52L132.182 72.6864L132.272 72.2746L127.155 75.1084Z" fill="#3D3693"/>
<path d="M118.708 73.2827L118.617 73.6942L127.064 75.52L127.155 75.1084L118.708 73.2827Z" fill="#37388B"/>
<path d="M123.826 70.4487L118.708 73.2827L127.155 75.1085L132.272 72.2746L123.826 70.4487Z" fill="#BDBEFF"/>
<path d="M151.298 70.0013L131.053 84.1769L131.824 159.234L152.069 145.059L151.298 70.0013Z" fill="#6C6CE5"/>
<path d="M133.824 93.92L149.636 82.2815V80.1317L133.824 91.8618V93.92Z" fill="#D1D1F4"/>
<path d="M133.824 105.59L149.636 93.9517V91.8019L133.824 103.532V105.59Z" fill="#D1D1F4"/>
<path d="M133.824 117.26L149.636 105.622V103.472L133.824 115.202V117.26Z" fill="#D1D1F4"/>
<path d="M133.824 128.931L149.636 117.292V115.142L133.824 126.873V128.931Z" fill="#D1D1F4"/>
<path d="M133.824 140.601L149.636 128.962V126.813L133.824 138.543V140.601Z" fill="#D1D1F4"/>
<path d="M133.824 152.271L149.636 140.633V138.483L133.824 150.213V152.271Z" fill="#D1D1F4"/>
<path d="M127.267 93.6502L127.173 91.6701L103.651 86.284L103.745 88.2639L127.267 93.6502Z" fill="#1F3D88"/>
<path d="M127.267 104.984L127.173 103.004L103.651 97.6176L103.745 99.5976L127.267 104.984Z" fill="#1F3D88"/>
<path d="M127.267 117.26L127.173 115.28L103.651 109.894L103.745 111.874L127.267 117.26Z" fill="#1F3D88"/>
<path d="M127.267 128.931L127.173 126.951L103.651 121.564L103.745 123.544L127.267 128.931Z" fill="#1F3D88"/>
<path d="M127.267 140.601L127.173 138.621L103.651 133.234L103.745 135.215L127.267 140.601Z" fill="#1F3D88"/>
<path d="M127.267 152.271L127.173 150.291L103.651 144.905L103.745 146.885L127.267 152.271Z" fill="#1F3D88"/>
<path d="M6.99935 153.65L7.36569 157.652L54.0713 168.963L53.8206 165.001L6.99935 153.65Z" fill="#0E2869"/>
<path d="M53.8207 165.001L54.0714 168.963L82.2582 149.193L83.3174 144.65L53.8207 165.001Z" fill="#0E2C76"/>
<path d="M36.1594 131.784L6.9995 153.65L53.8207 165.001L83.3174 144.65L36.1594 131.784Z" fill="#1F3D88"/>
<path d="M20.9322 152.031L52.6162 159.234L51.845 84.1769L20.1613 76.9741L20.9322 152.031Z" fill="#D1D1F4"/>
<path d="M20.1611 76.9741L51.8448 84.1769L72.0898 70.0013L40.4059 62.7985L20.1611 76.9741Z" fill="#BDBEFF"/>
<path d="M42.1703 67.2905L50.0818 79.6838L57.7911 80.0134L72.0898 70.0013L40.4059 62.7985L42.1703 67.2905Z" fill="url(#paint5_linear)"/>
<path d="M50.3041 78.678L50.0817 79.6837L62.5883 72.7591L62.8105 71.7532L50.3041 78.678Z" fill="#3D3693"/>
<path d="M29.6627 74.2164L29.6089 75.2224L50.0823 79.6838L50.3047 78.678L29.6627 74.2164Z" fill="#37388B"/>
<path d="M42.1701 67.2905L29.6621 74.2165L50.3041 78.6781L62.8105 71.7532L42.1701 67.2905Z" fill="#CDCCF6"/>
<path d="M47.9467 75.1084L47.8559 75.52L52.9734 72.6864L53.0645 72.2746L47.9467 75.1084Z" fill="#3D3693"/>
<path d="M39.4997 73.2827L39.4087 73.6942L47.8555 75.52L47.9463 75.1084L39.4997 73.2827Z" fill="#37388B"/>
<path d="M44.6184 70.4487L39.5001 73.2827L47.9467 75.1085L53.0645 72.2746L44.6184 70.4487Z" fill="#BDBEFF"/>
<path d="M72.0894 70.0013L51.8444 84.1769L52.6156 159.234L72.8604 145.059L72.0894 70.0013Z" fill="#6C6CE5"/>
<path d="M54.6149 93.92L70.4268 82.2815V80.1317L54.6149 91.8618V93.92Z" fill="#D1D1F4"/>
<path d="M54.6149 105.59L70.4268 93.9517V91.8019L54.6149 103.532V105.59Z" fill="#D1D1F4"/>
<path d="M54.6149 117.26L70.4268 105.622V103.472L54.6149 115.202V117.26Z" fill="#D1D1F4"/>
<path d="M54.6149 128.931L70.4268 117.292V115.142L54.6149 126.873V128.931Z" fill="#D1D1F4"/>
<path d="M54.6149 140.601L70.4268 128.962V126.813L54.6149 138.543V140.601Z" fill="#D1D1F4"/>
<path d="M54.6149 152.271L70.4268 140.633V138.483L54.6149 150.213V152.271Z" fill="#D1D1F4"/>
<path d="M48.0576 93.6502L47.9641 91.6701L24.4424 86.284L24.5359 88.2639L48.0576 93.6502Z" fill="#1F3D88"/>
<path d="M48.0576 104.984L47.9641 103.004L24.4424 97.6176L24.5359 99.5976L48.0576 104.984Z" fill="#1F3D88"/>
<path d="M48.0576 117.26L47.9641 115.28L24.4424 109.894L24.5359 111.874L48.0576 117.26Z" fill="#1F3D88"/>
<path d="M48.0576 128.931L47.9641 126.951L24.4424 121.564L24.5359 123.544L48.0576 128.931Z" fill="#1F3D88"/>
<path d="M48.0576 140.601L47.9641 138.621L24.4424 133.234L24.5359 135.215L48.0576 140.601Z" fill="#1F3D88"/>
<path d="M48.0576 152.271L47.9641 150.291L24.4424 144.905L24.5359 146.885L48.0576 152.271Z" fill="#1F3D88"/>
<path d="M48.0489 174.687L48.4153 178.689L95.1211 190L94.8702 186.038L48.0489 174.687Z" fill="#0E2869"/>
<path d="M94.8705 186.038L95.1215 190L123.308 170.23L124.367 165.687L94.8705 186.038Z" fill="#0E2C76"/>
<path d="M77.2092 152.821L48.0493 174.687L94.8705 186.038L124.367 165.687L77.2092 152.821Z" fill="#1F3D88"/>
<path d="M61.9821 173.068L93.666 180.271L92.895 105.214L61.2111 98.011L61.9821 173.068Z" fill="#D1D1F4"/>
<path d="M61.2109 98.011L92.8949 105.214L113.14 91.0383L81.4557 83.8354L61.2109 98.011Z" fill="#BDBEFF"/>
<path d="M83.2201 88.3274L91.1318 100.721L98.8409 101.05L113.14 91.0383L81.4557 83.8354L83.2201 88.3274Z" fill="url(#paint6_linear)"/>
<path d="M91.3539 99.715L91.1317 100.721L103.638 93.7961L103.86 92.7902L91.3539 99.715Z" fill="#3D3693"/>
<path d="M70.7116 95.2534L70.6577 96.2593L91.1313 100.721L91.3535 99.715L70.7116 95.2534Z" fill="#37388B"/>
<path d="M83.2199 88.3274L70.712 95.2534L91.3539 99.715L103.86 92.7901L83.2199 88.3274Z" fill="#CDCCF6"/>
<path d="M88.9956 96.1452L88.9048 96.557L94.0223 93.7233L94.1133 93.3116L88.9956 96.1452Z" fill="#3D3693"/>
<path d="M80.5495 94.3196L80.4585 94.7312L88.9053 96.5569L88.9961 96.1452L80.5495 94.3196Z" fill="#37388B"/>
<path d="M85.6673 91.4856L80.549 94.3196L88.9956 96.1452L94.1133 93.3116L85.6673 91.4856Z" fill="#BDBEFF"/>
<path d="M113.139 91.0383L92.8942 105.214L93.6652 180.271L113.91 166.096L113.139 91.0383Z" fill="#6C6CE5"/>
<path d="M95.6647 114.957L111.477 103.318V101.169L95.6647 112.899V114.957Z" fill="#D1D1F4"/>
<path d="M95.6647 126.627L111.477 114.989V112.839L95.6647 124.569V126.627Z" fill="#D1D1F4"/>
<path d="M95.6647 138.297L111.477 126.659V124.509L95.6647 136.239V138.297Z" fill="#D1D1F4"/>
<path d="M95.6647 149.968L111.477 138.329V136.179L95.6647 147.909V149.968Z" fill="#D1D1F4"/>
<path d="M95.6647 161.638L111.477 149.999V147.85L95.6647 159.58V161.638Z" fill="#D1D1F4"/>
<path d="M95.6647 173.308L111.477 161.67V159.52L95.6647 171.25V173.308Z" fill="#D1D1F4"/>
<path d="M89.1074 114.687L89.0139 112.707L65.4922 107.321L65.5857 109.301L89.1074 114.687Z" fill="#1F3D88"/>
<path d="M89.1074 126.021L89.0139 124.041L65.4922 118.654L65.5857 120.635L89.1074 126.021Z" fill="#1F3D88"/>
<path d="M89.1074 138.297L89.0139 136.317L65.4922 130.931L65.5857 132.911L89.1074 138.297Z" fill="#1F3D88"/>
<path d="M89.1074 149.968L89.0139 147.988L65.4922 142.601L65.5857 144.581L89.1074 149.968Z" fill="#1F3D88"/>
<path d="M89.1074 161.638L89.0139 159.658L65.4922 154.271L65.5857 156.252L89.1074 161.638Z" fill="#1F3D88"/>
<path d="M89.1074 173.308L89.0139 171.328L65.4922 165.942L65.5857 167.922L89.1074 173.308Z" fill="#1F3D88"/>
<defs>
<linearGradient id="paint0_linear" x1="128.698" y1="184.157" x2="124.192" y2="223.315" gradientUnits="userSpaceOnUse">
<stop stop-color="#B4B4FF"/>
<stop offset="1" stop-color="#1919C7"/>
</linearGradient>
<linearGradient id="paint1_linear" x1="128.698" y1="184.157" x2="124.192" y2="223.315" gradientUnits="userSpaceOnUse">
<stop stop-color="#B4B4FF"/>
<stop offset="1" stop-color="#1919C7"/>
</linearGradient>
<linearGradient id="paint2_linear" x1="43.165" y1="37.0664" x2="317.74" y2="157.661" gradientUnits="userSpaceOnUse">
<stop stop-color="#D1D1F4"/>
<stop offset="0.088" stop-color="#AEAEEB"/>
<stop offset="0.229" stop-color="#8C8CE3"/>
<stop offset="0.373" stop-color="#8C8CE3"/>
<stop offset="0.521" stop-color="#1919C7"/>
<stop offset="0.671" stop-color="#00A69C"/>
<stop offset="0.828" stop-color="#54A600"/>
<stop offset="1" stop-color="#393091"/>
</linearGradient>
<linearGradient id="paint3_linear" x1="44.0426" y1="10.4325" x2="86.2191" y2="121.599" gradientUnits="userSpaceOnUse">
<stop stop-color="#B4B4FF"/>
<stop offset="1" stop-color="#1919C7"/>
</linearGradient>
<linearGradient id="paint4_linear" x1="151.299" y1="71.4059" x2="119.615" y2="71.4059" gradientUnits="userSpaceOnUse">
<stop stop-color="#BEC0FD"/>
<stop offset="1" stop-color="#6C74DF"/>
</linearGradient>
<linearGradient id="paint5_linear" x1="72.0898" y1="71.4059" x2="40.4059" y2="71.4059" gradientUnits="userSpaceOnUse">
<stop stop-color="#BEC0FD"/>
<stop offset="1" stop-color="#6C74DF"/>
</linearGradient>
<linearGradient id="paint6_linear" x1="113.14" y1="92.4429" x2="81.4557" y2="92.4429" gradientUnits="userSpaceOnUse">
<stop stop-color="#BEC0FD"/>
<stop offset="1" stop-color="#6C74DF"/>
</linearGradient>
</defs>
</svg>
