<svg width="207" height="191" viewBox="0 0 207 191" fill="none" xmlns="http://www.w3.org/2000/svg">
<g opacity="0.1">
<path d="M103.512 191C118.967 191 131.497 187.908 131.497 184.094C131.497 180.28 118.967 177.188 103.512 177.188C88.0561 177.188 75.5268 180.28 75.5268 184.094C75.5268 187.908 88.0561 191 103.512 191Z" fill="url(#paint0_linear)"/>
<path d="M108.5 179.467C155.72 179.467 194 174.214 194 167.734C194 161.253 155.72 156 108.5 156C61.2797 156 23 161.253 23 167.734C23 174.214 61.2797 179.467 108.5 179.467Z" fill="url(#paint1_linear)"/>
</g>
<path d="M139.631 164H69.3462C68.2855 164.009 67.2344 163.799 66.2585 163.383C65.2826 162.967 64.4029 162.355 63.6743 161.584C62.9456 160.813 62.3837 159.901 62.0237 158.903C61.6636 157.905 61.5131 156.844 61.5815 155.785L69.676 8.21586C69.826 6.00862 70.8005 3.9385 72.4061 2.41652C74.0117 0.894554 76.131 0.0320494 78.3431 0.000266185H148.629C149.69 -0.00854366 150.741 0.201417 151.716 0.617039C152.692 1.03266 153.572 1.64502 154.301 2.41587C155.029 3.18672 155.591 4.09951 155.951 5.09723C156.311 6.09496 156.462 7.15619 156.393 8.21466L148.299 155.784C148.149 157.992 147.175 160.062 145.569 161.585C143.963 163.107 141.843 163.969 139.631 164Z" fill="url(#paint2_linear)"/>
<path opacity="0.8" d="M135.383 164H69.3462C68.2855 164.009 67.2344 163.799 66.2585 163.383C65.2826 162.967 64.4029 162.355 63.6743 161.584C62.9456 160.813 62.3837 159.901 62.0237 158.903C61.6636 157.905 61.5131 156.844 61.5815 155.785L69.676 8.21586C69.826 6.00862 70.8005 3.9385 72.4061 2.41652C74.0117 0.894553 76.131 0.032049 78.3431 0.00026583H144.38C145.44 -0.00853802 146.491 0.201423 147.467 0.617038C148.443 1.03265 149.323 1.645 150.052 2.41584C150.78 3.18668 151.342 4.09946 151.702 5.09719C152.062 6.09491 152.213 7.15616 152.144 8.21466L144.05 155.784C143.9 157.991 142.925 160.061 141.32 161.583C139.714 163.105 137.595 163.968 135.383 164Z" fill="white"/>
<path d="M102.654 26.7522H83.6887C83.2408 26.7559 82.7969 26.6671 82.3848 26.4916C81.9728 26.316 81.6013 26.0574 81.2936 25.7318C80.986 25.4063 80.7487 25.0208 80.5967 24.5995C80.4447 24.1781 80.3812 23.73 80.4101 23.283C80.4726 22.3511 80.8835 21.4768 81.5612 20.8341C82.2389 20.1914 83.1337 19.8273 84.0676 19.8143H103.03C103.478 19.8106 103.922 19.8993 104.334 20.0747C104.746 20.2502 105.118 20.5088 105.425 20.8343C105.733 21.1598 105.97 21.5453 106.122 21.9666C106.274 22.3879 106.338 22.836 106.309 23.283C106.247 24.2145 105.836 25.0885 105.159 25.7312C104.482 26.374 103.588 26.7385 102.654 26.7522Z" fill="white"/>
<path d="M106.314 23.283C106.205 24.9624 105.466 26.5388 104.245 27.6967C103.023 28.8545 101.41 29.5083 99.7271 29.5271C98.9202 29.5363 98.1201 29.3783 97.3772 29.0632C96.6343 28.7481 95.9647 28.2827 95.4104 27.6962C94.8561 27.1097 94.4292 26.4148 94.1565 25.6553C93.8838 24.8958 93.7713 24.0881 93.8259 23.283C93.9349 21.6038 94.674 20.0277 95.8952 18.8701C97.1165 17.7124 98.7298 17.0586 100.412 17.0395C101.219 17.0303 102.019 17.1881 102.762 17.5032C103.505 17.8182 104.175 18.2836 104.729 18.87C105.283 19.4565 105.71 20.1513 105.983 20.9108C106.256 21.6702 106.368 22.4779 106.314 23.283Z" fill="url(#paint3_linear)"/>
<path d="M101.437 48.9425H82.4748C82.0269 48.9463 81.5831 48.8576 81.171 48.6821C80.7589 48.5066 80.3875 48.2481 80.0798 47.9226C79.7721 47.5971 79.5349 47.2116 79.3829 46.7903C79.2308 46.369 79.1673 45.9209 79.1963 45.4739C79.2587 44.542 79.6696 43.6677 80.3473 43.025C81.025 42.3823 81.9198 42.0182 82.8538 42.0053H101.817C102.265 42.0015 102.709 42.0902 103.121 42.2657C103.533 42.4412 103.904 42.6997 104.212 43.0252C104.52 43.3507 104.757 43.7362 104.909 44.1575C105.061 44.5788 105.125 45.0269 105.096 45.4739C105.033 46.4059 104.622 47.2803 103.944 47.923C103.266 48.5657 102.372 48.9297 101.437 48.9425Z" fill="white"/>
<path d="M94.7111 49.8299C97.2514 47.3583 97.414 43.4053 95.0743 41.0005C92.7346 38.5957 88.7786 38.6499 86.2383 41.1214C83.698 43.593 83.5354 47.546 85.8751 49.9508C88.2147 52.3556 92.1708 52.3014 94.7111 49.8299Z" fill="#4C49D1"/>
<path opacity="0.3" d="M94.7111 49.8299C97.2514 47.3583 97.414 43.4053 95.0743 41.0005C92.7346 38.5957 88.7786 38.6499 86.2383 41.1214C83.698 43.593 83.5354 47.546 85.8751 49.9508C88.2147 52.3556 92.1708 52.3014 94.7111 49.8299Z" fill="url(#paint4_linear)"/>
<path d="M80.0394 93.3242H99.0021C99.936 93.3112 100.831 92.9471 101.509 92.3044C102.186 91.6617 102.597 90.7874 102.66 89.8555C102.689 89.4086 102.625 88.9604 102.473 88.5391C102.321 88.1178 102.084 87.7324 101.776 87.4069C101.468 87.0814 101.097 86.8228 100.685 86.6473C100.273 86.4718 99.8289 86.3832 99.381 86.3869H80.4202C79.4863 86.3999 78.5915 86.7639 77.9137 87.4066C77.236 88.0493 76.8251 88.9236 76.7627 89.8555C76.7337 90.3023 76.7972 90.7503 76.9491 91.1715C77.101 91.5927 77.3381 91.978 77.6456 92.3035C77.9531 92.629 78.3243 92.8876 78.7362 93.0632C79.1481 93.2388 79.5917 93.3276 80.0394 93.3242Z" fill="white"/>
<path d="M87.2412 94.2092C89.7816 91.7378 89.9443 87.7847 87.6047 85.3799C85.2651 82.975 81.3091 83.029 78.7687 85.5004C76.2283 87.9719 76.0656 91.9249 78.4052 94.3298C80.7448 96.7346 84.7008 96.6807 87.2412 94.2092Z" fill="#4C49D1"/>
<path opacity="0.7" d="M87.2412 94.2092C89.7816 91.7378 89.9443 87.7847 87.6047 85.3799C85.2651 82.975 81.3091 83.029 78.7687 85.5004C76.2283 87.9719 76.0656 91.9249 78.4052 94.3298C80.7448 96.7346 84.7008 96.6807 87.2412 94.2092Z" fill="#FAFAFA"/>
<path d="M97.7847 115.515H78.8215C78.3736 115.519 77.9298 115.43 77.5178 115.254C77.1057 115.079 76.7343 114.82 76.4266 114.495C76.119 114.169 75.8817 113.784 75.7297 113.363C75.5776 112.941 75.514 112.493 75.5429 112.046C75.606 111.115 76.0171 110.241 76.6947 109.598C77.3722 108.955 78.2667 108.591 79.2004 108.577H98.1637C98.6116 108.573 99.0554 108.662 99.4675 108.838C99.8796 109.013 100.251 109.272 100.559 109.598C100.866 109.923 101.104 110.309 101.256 110.73C101.408 111.151 101.471 111.599 101.442 112.046C101.38 112.978 100.969 113.853 100.291 114.495C99.6135 115.138 98.7186 115.502 97.7847 115.515Z" fill="white"/>
<path d="M101.444 112.046C101.335 113.726 100.596 115.302 99.3747 116.459C98.1535 117.617 96.5401 118.271 94.8575 118.29C94.0506 118.299 93.2506 118.141 92.5077 117.826C91.7648 117.511 91.0951 117.046 90.5408 116.459C89.9865 115.873 89.5595 115.178 89.2867 114.419C89.014 113.659 88.9012 112.851 88.9557 112.046C89.0647 110.367 89.8039 108.791 91.0252 107.633C92.2466 106.475 93.86 105.821 95.5428 105.802C96.3497 105.793 97.1497 105.951 97.8926 106.266C98.6355 106.581 99.3051 107.047 99.8594 107.633C100.414 108.22 100.841 108.915 101.113 109.674C101.386 110.434 101.499 111.241 101.444 112.046Z" fill="url(#paint5_linear)"/>
<path d="M81.2562 71.1334H100.219C101.153 71.1204 102.048 70.7563 102.726 70.1136C103.404 69.4709 103.815 68.5966 103.877 67.6647C103.906 67.2178 103.842 66.7696 103.69 66.3483C103.538 65.927 103.301 65.5416 102.993 65.2161C102.686 64.8906 102.314 64.632 101.902 64.4565C101.49 64.281 101.046 64.1923 100.598 64.1961H81.637C80.7031 64.2091 79.8082 64.5731 79.1305 65.2158C78.4528 65.8585 78.0419 66.7328 77.9795 67.6647C77.9505 68.1115 78.014 68.5595 78.1659 68.9807C78.3178 69.4019 78.5549 69.7872 78.8624 70.1127C79.1699 70.4382 79.5411 70.6968 79.953 70.8724C80.3649 71.048 80.8085 71.1368 81.2562 71.1334Z" fill="white"/>
<path d="M77.9773 67.6646C77.9227 68.4698 78.0353 69.2775 78.3081 70.037C78.5808 70.7965 79.0078 71.4914 79.5621 72.0778C80.1164 72.6643 80.7861 73.1298 81.5291 73.4449C82.272 73.76 83.0721 73.9179 83.879 73.9088C85.5614 73.889 87.1743 73.2349 88.3951 72.0772C89.616 70.9195 90.3548 69.3436 90.4637 67.6646C90.5182 66.8595 90.4055 66.0518 90.1327 65.2924C89.8599 64.5329 89.433 63.8381 88.8787 63.2516C88.3244 62.6652 87.6547 62.1997 86.9118 61.8846C86.1689 61.5695 85.3689 61.4115 84.562 61.4205C82.8796 61.4402 81.2667 62.0944 80.0459 63.2521C78.825 64.4098 78.0862 65.9857 77.9773 67.6646Z" fill="#4C49D1"/>
<path opacity="0.7" d="M77.9773 67.6646C77.9227 68.4698 78.0353 69.2775 78.3081 70.037C78.5808 70.7965 79.0078 71.4914 79.5621 72.0778C80.1164 72.6643 80.7861 73.1298 81.5291 73.4449C82.272 73.76 83.0721 73.9179 83.879 73.9088C85.5614 73.889 87.1743 73.2349 88.3951 72.0772C89.616 70.9195 90.3548 69.3436 90.4637 67.6646C90.5182 66.8595 90.4055 66.0518 90.1327 65.2924C89.8599 64.5329 89.433 63.8381 88.8787 63.2516C88.3244 62.6652 87.6547 62.1997 86.9118 61.8846C86.1689 61.5695 85.3689 61.4115 84.562 61.4205C82.8796 61.4402 81.2667 62.0944 80.0459 63.2521C78.825 64.4098 78.0862 65.9857 77.9773 67.6646Z" fill="#FAFAFA"/>
<path d="M144.195 22.245H116.086C115.907 22.2465 115.73 22.211 115.565 22.1408C115.4 22.0706 115.252 21.9671 115.129 21.8369C115.006 21.7067 114.911 21.5526 114.85 21.3841C114.789 21.2156 114.764 21.0364 114.775 20.8576C114.8 20.4847 114.965 20.1349 115.236 19.8778C115.507 19.6206 115.865 19.4749 116.239 19.4695H144.347C144.526 19.4681 144.704 19.5036 144.869 19.5739C145.033 19.6441 145.182 19.7476 145.305 19.8779C145.428 20.0081 145.523 20.1623 145.584 20.3309C145.645 20.4995 145.67 20.6788 145.658 20.8576C145.633 21.2304 145.469 21.58 145.197 21.837C144.926 22.0941 144.568 22.2397 144.195 22.245Z" fill="white"/>
<path d="M134.834 27.1018H115.821C115.642 27.1034 115.464 27.0679 115.299 26.9977C115.134 26.9276 114.986 26.8241 114.863 26.6939C114.74 26.5637 114.645 26.4095 114.584 26.241C114.523 26.0724 114.498 25.8932 114.51 25.7144C114.535 25.3416 114.699 24.9918 114.97 24.7348C115.242 24.4777 115.6 24.3321 115.973 24.3269H134.98C135.159 24.3254 135.337 24.3608 135.502 24.431C135.667 24.5012 135.815 24.6046 135.938 24.7348C136.061 24.865 136.156 25.0192 136.217 25.1878C136.278 25.3563 136.303 25.5356 136.292 25.7144C136.266 26.0862 136.103 26.435 135.833 26.692C135.563 26.9489 135.206 27.0952 134.834 27.1018Z" fill="white"/>
<path d="M135.774 111.006H111.217C111.038 111.007 110.861 110.972 110.696 110.901C110.531 110.831 110.382 110.728 110.259 110.598C110.136 110.467 110.041 110.313 109.981 110.145C109.92 109.976 109.894 109.797 109.906 109.618C109.931 109.245 110.096 108.896 110.367 108.638C110.638 108.381 110.996 108.236 111.37 108.231H135.926C136.105 108.229 136.283 108.265 136.447 108.335C136.612 108.405 136.761 108.509 136.884 108.639C137.007 108.769 137.102 108.923 137.163 109.092C137.223 109.26 137.249 109.439 137.237 109.618C137.212 109.991 137.047 110.34 136.776 110.598C136.505 110.855 136.147 111 135.774 111.006Z" fill="white"/>
<path d="M123.085 115.862H110.951C110.772 115.864 110.594 115.828 110.429 115.758C110.264 115.688 110.116 115.584 109.993 115.454C109.87 115.324 109.775 115.17 109.714 115.001C109.653 114.833 109.628 114.653 109.639 114.475C109.665 114.102 109.829 113.752 110.1 113.495C110.371 113.238 110.729 113.092 111.103 113.087H123.237C123.416 113.085 123.594 113.121 123.759 113.191C123.923 113.261 124.072 113.365 124.195 113.495C124.318 113.625 124.413 113.779 124.474 113.948C124.535 114.117 124.56 114.296 124.549 114.475C124.523 114.847 124.359 115.197 124.088 115.454C123.817 115.711 123.459 115.857 123.085 115.862Z" fill="white"/>
<path d="M142.864 46.5148H114.756C114.382 46.5199 114.024 46.6655 113.753 46.9226C113.482 47.1796 113.317 47.5293 113.292 47.9022C113.28 48.081 113.306 48.2603 113.367 48.4288C113.427 48.5974 113.522 48.7516 113.645 48.8818C113.769 49.012 113.917 49.1154 114.082 49.1856C114.247 49.2558 114.424 49.2912 114.604 49.2897H142.711C143.085 49.2845 143.443 49.1389 143.714 48.8818C143.985 48.6247 144.15 48.275 144.175 47.9022C144.187 47.7234 144.161 47.5442 144.1 47.3756C144.04 47.2071 143.945 47.0529 143.822 46.9227C143.699 46.7925 143.55 46.689 143.385 46.6188C143.22 46.5487 143.043 46.5132 142.864 46.5148Z" fill="white"/>
<path d="M134.033 41.658H115.023C114.649 41.6633 114.291 41.809 114.02 42.066C113.749 42.3231 113.584 42.6727 113.559 43.0455C113.548 43.2238 113.574 43.4026 113.634 43.5706C113.695 43.7386 113.79 43.8923 113.913 44.0222C114.036 44.152 114.184 44.2552 114.348 44.3254C114.512 44.3955 114.689 44.4311 114.868 44.4299H133.875C134.249 44.4248 134.607 44.2792 134.878 44.0221C135.149 43.765 135.314 43.4153 135.339 43.0425C135.35 42.8644 135.324 42.686 135.264 42.5182C135.203 42.3504 135.108 42.1969 134.986 42.0671C134.864 41.9373 134.716 41.834 134.552 41.7637C134.388 41.6933 134.211 41.6574 134.033 41.658Z" fill="white"/>
<path d="M128.068 66.6237H113.652C113.473 66.6252 113.296 66.5898 113.131 66.5196C112.966 66.4494 112.817 66.346 112.694 66.2158C112.571 66.0856 112.476 65.9314 112.415 65.7628C112.354 65.5943 112.329 65.415 112.341 65.2362C112.366 64.8635 112.531 64.5139 112.802 64.2569C113.073 63.9999 113.431 63.8542 113.804 63.8488H128.221C128.4 63.8473 128.577 63.8828 128.742 63.953C128.907 64.0232 129.056 64.1267 129.179 64.2569C129.302 64.3871 129.397 64.5412 129.457 64.7097C129.518 64.8782 129.544 65.0574 129.532 65.2362C129.507 65.609 129.342 65.9586 129.071 66.2157C128.8 66.4727 128.442 66.6184 128.068 66.6237Z" fill="white"/>
<path d="M141.76 66.6237H133.27C133.09 66.6255 132.912 66.5902 132.747 66.5201C132.582 66.45 132.433 66.3466 132.31 66.2163C132.187 66.086 132.092 65.9316 132.031 65.7629C131.97 65.5942 131.944 65.4147 131.956 65.2356C131.981 64.8629 132.146 64.5134 132.417 64.2564C132.688 63.9993 133.046 63.8536 133.419 63.8482H141.911C142.09 63.8467 142.268 63.8822 142.432 63.9525C142.597 64.0227 142.746 64.1261 142.869 64.2563C142.992 64.3865 143.087 64.5406 143.147 64.7091C143.208 64.8776 143.234 65.0569 143.222 65.2356C143.197 65.6083 143.033 65.9579 142.762 66.215C142.491 66.4722 142.134 66.6181 141.76 66.6237Z" fill="white"/>
<path d="M132.396 71.4805H113.389C113.21 71.482 113.033 71.4466 112.868 71.3764C112.703 71.3062 112.554 71.2028 112.431 71.0726C112.308 70.9423 112.213 70.7882 112.152 70.6196C112.092 70.4511 112.066 70.2718 112.078 70.093C112.103 69.7202 112.268 69.3705 112.539 69.1134C112.81 68.8563 113.168 68.7108 113.542 68.7056H132.549C132.728 68.704 132.905 68.7395 133.07 68.8097C133.235 68.8799 133.384 68.9833 133.507 69.1135C133.63 69.2437 133.725 69.3979 133.785 69.5664C133.846 69.735 133.872 69.9142 133.86 70.093C133.835 70.4658 133.67 70.8156 133.399 71.0726C133.128 71.3297 132.77 71.4753 132.396 71.4805Z" fill="white"/>
<path d="M108.571 135.328H76.2067C75.9561 135.33 75.7077 135.28 75.4771 135.182C75.2464 135.084 75.0385 134.939 74.8663 134.757C74.6941 134.575 74.5614 134.359 74.4763 134.124C74.3913 133.888 74.3557 133.637 74.372 133.387C74.4073 132.866 74.6375 132.376 75.0169 132.017C75.3962 131.657 75.897 131.454 76.4196 131.446H108.783C109.033 131.444 109.281 131.494 109.512 131.592C109.743 131.69 109.951 131.835 110.123 132.017C110.295 132.199 110.428 132.415 110.513 132.65C110.598 132.886 110.633 133.137 110.617 133.387C110.582 133.908 110.352 134.397 109.973 134.757C109.594 135.116 109.094 135.32 108.571 135.328Z" fill="white"/>
<path d="M137.438 135.328H117.566C117.315 135.33 117.067 135.28 116.836 135.182C116.605 135.084 116.398 134.939 116.225 134.757C116.053 134.575 115.921 134.359 115.836 134.124C115.751 133.888 115.715 133.637 115.731 133.387C115.767 132.866 115.997 132.376 116.376 132.017C116.755 131.657 117.256 131.454 117.778 131.446H137.652C137.902 131.444 138.151 131.494 138.381 131.592C138.612 131.69 138.82 131.835 138.992 132.017C139.164 132.199 139.297 132.415 139.382 132.65C139.467 132.886 139.503 133.137 139.487 133.387C139.451 133.909 139.221 134.398 138.841 134.758C138.462 135.117 137.961 135.321 137.438 135.328Z" fill="white"/>
<path d="M100.477 142.118H75.8341C75.5835 142.12 75.3351 142.071 75.1046 141.973C74.874 141.874 74.6662 141.73 74.4941 141.548C74.3219 141.365 74.1892 141.15 74.1042 140.914C74.0192 140.678 73.9837 140.427 73.9999 140.177C74.0351 139.656 74.2652 139.167 74.6444 138.807C75.0237 138.448 75.5244 138.244 76.0469 138.237H100.69C100.941 138.234 101.189 138.284 101.42 138.382C101.65 138.48 101.858 138.625 102.03 138.807C102.202 138.989 102.335 139.205 102.42 139.441C102.505 139.677 102.541 139.927 102.525 140.177C102.49 140.699 102.26 141.188 101.88 141.548C101.501 141.907 101 142.111 100.477 142.118Z" fill="white"/>
<path d="M127.235 148.912H75.4616C75.211 148.914 74.9626 148.864 74.732 148.766C74.5013 148.668 74.2934 148.523 74.1212 148.341C73.949 148.159 73.8163 147.943 73.7312 147.707C73.6461 147.472 73.6106 147.221 73.6269 146.971C73.6622 146.449 73.8924 145.96 74.2718 145.601C74.6511 145.241 75.1519 145.037 75.6745 145.03H127.448C127.699 145.028 127.947 145.077 128.177 145.176C128.408 145.274 128.616 145.418 128.788 145.601C128.96 145.783 129.093 145.998 129.178 146.234C129.263 146.47 129.298 146.721 129.282 146.971C129.247 147.492 129.017 147.981 128.638 148.341C128.258 148.701 127.758 148.904 127.235 148.912Z" fill="white"/>
<path d="M120.641 90.8982H112.321C111.947 90.9035 111.589 91.0493 111.318 91.3064C111.047 91.5636 110.882 91.9134 110.857 92.2863C110.846 92.4649 110.872 92.6439 110.933 92.8122C110.994 92.9804 111.089 93.1343 111.212 93.2642C111.335 93.3942 111.483 93.4974 111.648 93.5674C111.813 93.6375 111.99 93.6728 112.169 93.6713H120.489C120.863 93.666 121.221 93.5204 121.492 93.2633C121.763 93.0063 121.928 92.6566 121.953 92.2839C121.964 92.1052 121.939 91.9261 121.878 91.7578C121.817 91.5895 121.722 91.4355 121.599 91.3055C121.476 91.1755 121.327 91.0722 121.162 91.0022C120.998 90.9321 120.82 90.8967 120.641 90.8982Z" fill="white"/>
<path d="M135.49 90.8982H125.84C125.467 90.9035 125.109 91.0492 124.837 91.3064C124.566 91.5636 124.402 91.9134 124.377 92.2862C124.365 92.465 124.391 92.6442 124.451 92.8127C124.512 92.9812 124.607 93.1354 124.73 93.2656C124.853 93.3958 125.002 93.4992 125.167 93.5694C125.331 93.6396 125.509 93.6751 125.688 93.6737H135.335C135.709 93.6682 136.067 93.5226 136.338 93.2655C136.609 93.0085 136.774 92.659 136.799 92.2862C136.811 92.1076 136.785 91.9285 136.724 91.7601C136.664 91.5917 136.569 91.4376 136.446 91.3074C136.323 91.1771 136.175 91.0736 136.01 91.0032C135.846 90.9328 135.669 90.8971 135.49 90.8982Z" fill="white"/>
<path d="M131.596 86.0416H112.589C112.216 86.0467 111.858 86.1923 111.587 86.4494C111.315 86.7065 111.151 87.0562 111.126 87.429C111.114 87.6078 111.14 87.7871 111.2 87.9556C111.261 88.1241 111.356 88.2783 111.479 88.4085C111.602 88.5388 111.751 88.6422 111.916 88.7124C112.08 88.7826 112.258 88.818 112.437 88.8165H131.447C131.821 88.8113 132.179 88.6657 132.45 88.4086C132.721 88.1515 132.886 87.8018 132.911 87.429C132.922 87.25 132.897 87.0704 132.836 86.9017C132.775 86.733 132.68 86.5786 132.556 86.4484C132.433 86.3181 132.284 86.2147 132.119 86.1447C131.954 86.0747 131.776 86.0396 131.596 86.0416Z" fill="white"/>
<path d="M181 105.955C181 106.144 181.056 106.329 181.161 106.486C181.266 106.644 181.415 106.766 181.59 106.839C181.764 106.911 181.957 106.93 182.142 106.893C182.328 106.856 182.498 106.765 182.632 106.632C182.765 106.498 182.856 106.328 182.893 106.142C182.93 105.957 182.911 105.764 182.839 105.59C182.766 105.415 182.644 105.266 182.486 105.161C182.329 105.056 182.144 105 181.955 105C181.83 105 181.705 105.025 181.59 105.073C181.474 105.121 181.368 105.191 181.28 105.28C181.191 105.368 181.121 105.474 181.073 105.59C181.025 105.705 181 105.83 181 105.955Z" fill="#7676E3"/>
<path opacity="0.06" d="M191 57C191 52.5817 194.582 49 199 49C203.418 49 207 52.5817 207 57C207 61.4183 203.418 65 199 65C194.582 65 191 61.4183 191 57Z" fill="url(#paint6_linear)"/>
<path opacity="0.1" d="M0 109.5C0 98.7304 8.73047 90 19.5 90C30.2696 90 39 98.7304 39 109.5C39 120.27 30.2696 129 19.5 129C8.73047 129 0 120.27 0 109.5Z" fill="url(#paint7_linear)"/>
<defs>
<linearGradient id="paint0_linear" x1="148.698" y1="158.157" x2="144.192" y2="197.315" gradientUnits="userSpaceOnUse">
<stop stop-color="#B4B4FF"/>
<stop offset="1" stop-color="#1919C7"/>
</linearGradient>
<linearGradient id="paint1_linear" x1="148.698" y1="158.157" x2="144.192" y2="197.315" gradientUnits="userSpaceOnUse">
<stop stop-color="#B4B4FF"/>
<stop offset="1" stop-color="#1919C7"/>
</linearGradient>
<linearGradient id="paint2_linear" x1="131.283" y1="10.1082" x2="38.3644" y2="105.681" gradientUnits="userSpaceOnUse">
<stop stop-color="#B4B4FF"/>
<stop offset="1" stop-color="#1919C7"/>
</linearGradient>
<linearGradient id="paint3_linear" x1="103.012" y1="17.8088" x2="96.9704" y2="28.5761" gradientUnits="userSpaceOnUse">
<stop stop-color="#B4B4FF"/>
<stop offset="1" stop-color="#1919C7"/>
</linearGradient>
<linearGradient id="paint4_linear" x1="88.923" y1="39.5542" x2="92.313" y2="51.2304" gradientUnits="userSpaceOnUse">
<stop stop-color="#B4B4FF"/>
<stop offset="1" stop-color="#1919C7"/>
</linearGradient>
<linearGradient id="paint5_linear" x1="98.1419" y1="106.572" x2="92.1007" y2="117.339" gradientUnits="userSpaceOnUse">
<stop stop-color="#B4B4FF"/>
<stop offset="1" stop-color="#1919C7"/>
</linearGradient>
<linearGradient id="paint6_linear" x1="195.239" y1="49.9862" x2="202.987" y2="63.7672" gradientUnits="userSpaceOnUse">
<stop stop-color="#B4B4FF"/>
<stop offset="1" stop-color="#1919C7"/>
</linearGradient>
<linearGradient id="paint7_linear" x1="10.332" y1="92.4038" x2="29.2188" y2="125.995" gradientUnits="userSpaceOnUse">
<stop stop-color="#B4B4FF"/>
<stop offset="1" stop-color="#1919C7"/>
</linearGradient>
</defs>
</svg>
