<svg width="388" height="371" viewBox="0 0 388 371" fill="none" xmlns="http://www.w3.org/2000/svg">
<g opacity="0.15" filter="url(#filter0_f)">
<path d="M65.9722 335.709C73.1632 341.398 83.0961 342.126 91.0399 337.547L339.232 194.488C353.421 186.31 353.66 165.919 339.668 157.41C332.983 153.345 324.621 153.222 317.821 157.089L68.7951 298.692C54.9945 306.54 53.5212 325.86 65.9722 335.709Z" fill="#1F35DD"/>
</g>
<path d="M330.255 28.8838C320.733 23.3506 307.74 24.0481 293.462 32.2911C290.97 33.7429 288.559 35.3314 286.242 37.0493L327.385 60.9698C329.761 59.221 361.876 47.2788 371.395 52.8043L330.255 28.8838Z" fill="url(#paint0_linear)"/>
<path d="M274.967 25.8532C263.859 19.3951 248.683 20.1701 231.998 29.8132C227.064 32.7065 222.403 36.0431 218.074 39.7818L259.217 63.6919C263.686 59.8791 304.991 43.3027 316.109 49.7633L274.967 25.8532Z" fill="url(#paint1_linear)"/>
<path d="M207.154 30.3397C193.096 22.1691 173.923 23.1791 152.824 35.3615C112.009 58.9229 78.7609 115.655 76.0537 164.834L86.5751 182.671L117.196 188.744L248.296 54.2524L207.154 30.3397Z" fill="url(#paint2_linear)"/>
<path d="M96.113 176.49L76.0545 164.835C67.5935 164.899 59.3153 167.303 52.1366 171.781C23.2977 188.43 0.0824761 229.611 0.273633 263.818C0.369211 281.105 6.45265 293.267 16.1681 298.919L57.3107 322.829L117.21 188.745L96.113 176.49Z" fill="url(#paint3_linear)"/>
<path d="M334.604 56.198C332.107 57.6494 329.692 59.2388 327.371 60.9588C316.917 44.0957 296.515 40.2208 273.124 53.7258C268.19 56.6191 263.53 59.9557 259.201 63.6944C245.251 46.4412 221.204 43.5454 193.952 59.2745C153.137 82.8359 119.889 139.568 117.181 188.747C108.72 188.81 100.442 191.214 93.2635 195.693C64.4247 212.342 41.2094 253.521 41.4006 287.728C41.5892 321.883 65.148 336.057 93.9403 319.434L335.268 180.478C364.247 163.75 387.555 122.356 387.364 88.0927C387.268 70.9351 381.306 58.7889 371.753 53.0154C362.201 47.242 349.07 47.8465 334.604 56.198Z" fill="#B4B4FF"/>
<path d="M134.892 202.681L143.895 197.484L143.895 207.565C142.551 210.306 141.061 212.652 139.427 214.604C137.792 216.556 136.079 218.049 134.287 219.084C132.675 220.015 131.152 220.519 129.719 220.597C128.286 220.649 127.043 220.332 125.99 219.648C124.937 218.963 124.097 217.948 123.47 216.604C122.866 215.221 122.563 213.56 122.563 211.622C122.563 209.683 122.866 207.686 123.47 205.631C124.097 203.563 124.937 201.578 125.99 199.678C127.043 197.778 128.286 196.039 129.719 194.462C131.152 192.885 132.675 191.631 134.287 190.7C135.81 189.82 137.243 189.316 138.587 189.187C139.953 189.044 141.274 189.354 142.551 190.117L139.595 195.972C138.654 195.507 137.769 195.346 136.941 195.488C136.113 195.604 135.239 195.928 134.321 196.458C133.38 197.001 132.495 197.732 131.667 198.649C130.861 199.554 130.155 200.556 129.551 201.655C128.946 202.754 128.464 203.924 128.106 205.164C127.77 206.367 127.602 207.549 127.602 208.713C127.602 209.876 127.77 210.865 128.106 211.679C128.464 212.48 128.946 213.094 129.551 213.52C130.155 213.921 130.861 214.108 131.667 214.082C132.495 214.043 133.38 213.752 134.321 213.209C135.149 212.731 135.967 212.091 136.773 211.289C137.601 210.449 138.43 209.389 139.259 208.109L139.259 205.123L134.892 207.645L134.892 202.681ZM146.689 183.074L151.325 180.398L151.325 208.743L146.689 211.419L146.689 183.074ZM162.362 182.595C163.549 181.909 164.669 181.535 165.722 181.47C166.774 181.379 167.692 181.573 168.476 182.051C169.26 182.503 169.876 183.22 170.324 184.202C170.794 185.146 171.029 186.316 171.029 187.711C171.029 189.107 170.794 190.562 170.324 192.074C169.876 193.548 169.26 194.976 168.476 196.359C167.692 197.716 166.774 198.97 165.722 200.121C164.669 201.246 163.549 202.15 162.362 202.836C161.153 203.534 160.022 203.928 158.97 204.019C157.917 204.084 156.999 203.89 156.215 203.438C155.431 202.96 154.804 202.249 154.334 201.306C153.886 200.324 153.662 199.134 153.662 197.738C153.662 196.343 153.886 194.908 154.334 193.434C154.804 191.922 155.431 190.487 156.215 189.13C156.999 187.746 157.917 186.493 158.97 185.368C160.022 184.217 161.153 183.293 162.362 182.595ZM162.362 198.144C162.922 197.821 163.437 197.394 163.908 196.864C164.4 196.321 164.826 195.726 165.184 195.08C165.565 194.395 165.856 193.684 166.057 192.947C166.281 192.172 166.393 191.396 166.393 190.621C166.393 189.845 166.281 189.186 166.057 188.643C165.856 188.087 165.565 187.674 165.184 187.402C164.826 187.092 164.4 186.937 163.908 186.937C163.437 186.899 162.922 187.041 162.362 187.364C161.803 187.687 161.276 188.147 160.783 188.741C160.291 189.31 159.854 189.963 159.473 190.699C159.115 191.397 158.824 192.147 158.6 192.949C158.398 193.737 158.298 194.519 158.298 195.295C158.298 196.07 158.398 196.723 158.6 197.253C158.824 197.744 159.115 198.119 159.473 198.377C159.854 198.597 160.291 198.694 160.783 198.668C161.276 198.642 161.803 198.467 162.362 198.144ZM183.096 170.624C184.261 169.952 185.347 169.596 186.355 169.557C187.362 169.492 188.236 169.712 188.975 170.216C189.714 170.694 190.285 171.437 190.688 172.445C191.113 173.415 191.326 174.597 191.326 175.993C191.326 177.389 191.113 178.83 190.688 180.317C190.285 181.764 189.714 183.167 188.975 184.524C188.236 185.856 187.362 187.084 186.355 188.208C185.347 189.307 184.261 190.193 183.096 190.865C182.111 191.434 181.159 191.789 180.241 191.932C179.345 192.035 178.64 191.926 178.125 191.603L177.453 193.658L173.489 195.947L173.489 167.64L178.125 164.964L178.125 175.588C179.401 173.455 181.058 171.801 183.096 170.624ZM182.458 186.464C183.063 186.115 183.622 185.65 184.138 185.068C184.675 184.473 185.145 183.827 185.548 183.129C185.952 182.405 186.265 181.655 186.489 180.88C186.713 180.104 186.825 179.341 186.825 178.592C186.825 177.868 186.713 177.248 186.489 176.731C186.265 176.188 185.952 175.8 185.548 175.568C185.145 175.309 184.675 175.193 184.138 175.219C183.622 175.232 183.063 175.413 182.458 175.762C181.853 176.111 181.282 176.544 180.745 177.061C180.229 177.54 179.771 178.115 179.367 178.787C178.987 179.421 178.684 180.151 178.46 180.978C178.237 181.779 178.125 182.684 178.125 183.693C178.125 184.597 178.237 185.321 178.46 185.864C178.684 186.381 178.987 186.749 179.367 186.969C179.771 187.15 180.229 187.208 180.745 187.143C181.282 187.04 181.853 186.813 182.458 186.464ZM210.737 155.209L210.737 174.442L206.739 176.75L206.269 174.966C205.619 176.349 204.836 177.474 203.917 178.34C203.022 179.193 202.081 179.904 201.096 180.473C199.908 181.159 198.811 181.533 197.804 181.598C196.818 181.624 195.956 181.398 195.217 180.92C194.478 180.416 193.895 179.68 193.47 178.71C193.067 177.702 192.866 176.5 192.866 175.104C192.866 173.708 193.067 172.287 193.47 170.839C193.895 169.352 194.478 167.943 195.217 166.612C195.956 165.255 196.818 164.033 197.804 162.947C198.811 161.822 199.908 160.917 201.096 160.232C202.171 159.611 203.156 159.236 204.052 159.107C204.947 158.978 205.686 159.171 206.269 159.688L206.739 157.517L210.737 155.209ZM206.101 167.54C206.101 166.532 205.978 165.763 205.731 165.233C205.508 164.664 205.194 164.29 204.791 164.109C204.41 163.889 203.951 163.844 203.414 163.974C202.898 164.064 202.339 164.284 201.734 164.633C201.129 164.982 200.558 165.454 200.021 166.049C199.505 166.631 199.046 167.283 198.643 168.007C198.24 168.705 197.927 169.455 197.703 170.256C197.479 171.032 197.367 171.782 197.367 172.505C197.367 173.255 197.479 173.888 197.703 174.405C197.927 174.922 198.24 175.31 198.643 175.568C199.046 175.801 199.505 175.911 200.021 175.898C200.558 175.872 201.129 175.684 201.734 175.335C202.943 174.637 203.962 173.622 204.791 172.291C205.642 170.92 206.079 169.337 206.101 167.54ZM213.874 144.285L218.51 141.608L218.51 169.954L213.874 172.63L213.874 144.285ZM230.703 135.422L245.584 126.83L245.584 132.181L235.809 137.825L235.809 142.789L244.408 137.824L244.408 143.175L235.809 148.14L235.809 154.654L245.584 149.01L245.584 154.322L230.703 162.914L230.703 135.422ZM265.506 114.514L265.506 142.82L261.542 145.109L260.871 143.829C260.355 144.747 259.638 145.678 258.721 146.622C257.824 147.527 256.884 148.264 255.899 148.832C254.712 149.518 253.615 149.893 252.607 149.958C251.599 149.997 250.726 149.777 249.987 149.299C249.27 148.782 248.699 148.039 248.273 147.07C247.87 146.062 247.669 144.86 247.669 143.464C247.669 142.068 247.87 140.646 248.273 139.198C248.699 137.712 249.27 136.309 249.987 134.991C250.726 133.633 251.599 132.405 252.607 131.306C253.615 130.182 254.712 129.277 255.899 128.591C256.951 127.984 257.881 127.589 258.687 127.408C259.515 127.214 260.243 127.272 260.871 127.582L260.871 117.19L265.506 114.514ZM260.871 135.919C260.871 134.911 260.758 134.136 260.535 133.593C260.31 133.024 259.997 132.649 259.594 132.468C259.191 132.262 258.721 132.223 258.183 132.352C257.668 132.443 257.108 132.663 256.503 133.012C255.899 133.361 255.328 133.833 254.79 134.427C254.275 135.009 253.816 135.662 253.413 136.386C253.032 137.071 252.73 137.814 252.506 138.616C252.282 139.391 252.17 140.141 252.17 140.865C252.17 141.614 252.282 142.248 252.506 142.765C252.73 143.282 253.032 143.676 253.413 143.947C253.816 144.18 254.275 144.29 254.79 144.277C255.328 144.251 255.899 144.063 256.503 143.714C257.713 143.016 258.731 142.001 259.56 140.669C260.411 139.299 260.848 137.716 260.871 135.919ZM281.592 114.301L285.555 112.012L285.555 124.731C285.555 126.204 285.533 127.535 285.488 128.724C285.466 129.875 285.388 130.941 285.253 131.923C285.119 132.932 284.895 133.888 284.581 134.793C284.29 135.685 283.876 136.596 283.338 137.527C282.353 139.208 281.244 140.61 280.013 141.735C278.803 142.847 277.527 143.79 276.183 144.566C275.041 145.226 273.966 145.691 272.958 145.963C271.951 146.234 271.044 146.332 270.237 146.254L270.237 141.252C270.439 141.498 270.719 141.659 271.077 141.737C271.458 141.801 271.883 141.801 272.354 141.736C272.846 141.659 273.361 141.516 273.899 141.31C274.459 141.116 275.019 140.857 275.579 140.534C276.318 140.107 277.012 139.59 277.661 138.982C278.311 138.4 278.871 137.728 279.341 136.966C279.833 136.19 280.214 135.35 280.483 134.445C280.774 133.553 280.92 132.577 280.92 131.517L280.92 131.129C280.27 132.177 279.52 133.152 278.669 134.057C277.818 134.937 276.889 135.667 275.881 136.249C274.761 136.895 273.72 137.251 272.757 137.316C271.816 137.342 270.999 137.129 270.305 136.676C269.611 136.198 269.062 135.494 268.659 134.564C268.278 133.594 268.087 132.45 268.087 131.132C268.087 129.814 268.278 128.463 268.659 127.08C269.062 125.684 269.611 124.359 270.305 123.105C270.999 121.825 271.816 120.668 272.757 119.634C273.72 118.561 274.761 117.701 275.881 117.055C276.934 116.447 277.885 116.066 278.736 115.91C279.587 115.729 280.315 115.813 280.92 116.162L281.592 114.301ZM276.821 130.936C277.538 130.522 278.154 130.025 278.669 129.443C279.184 128.835 279.61 128.202 279.946 127.543C280.281 126.884 280.528 126.224 280.685 125.565C280.841 124.906 280.92 124.305 280.92 123.762C280.92 123.167 280.83 122.637 280.651 122.172C280.494 121.668 280.248 121.293 279.912 121.048C279.576 120.777 279.151 120.647 278.635 120.66C278.12 120.674 277.516 120.88 276.821 121.281C276.239 121.617 275.702 122.057 275.209 122.6C274.717 123.143 274.28 123.744 273.899 124.403C273.541 125.049 273.249 125.735 273.026 126.459C272.824 127.144 272.723 127.822 272.723 128.494C272.723 129.166 272.824 129.742 273.026 130.22C273.249 130.659 273.541 130.995 273.899 131.228C274.28 131.447 274.717 131.544 275.209 131.518C275.702 131.467 276.239 131.273 276.821 130.936ZM296.667 105.054C297.921 104.33 299.063 103.968 300.094 103.967C301.124 103.941 302.008 104.193 302.747 104.723C303.486 105.227 304.057 105.983 304.461 106.991C304.864 107.973 305.065 109.111 305.065 110.403C305.065 111.179 304.975 112.058 304.797 113.04L292.905 119.906C293.352 120.526 293.991 120.907 294.82 121.049C295.648 121.166 296.544 120.946 297.507 120.39C298.47 119.834 299.31 119.258 300.026 118.664C300.765 118.056 301.459 117.423 302.109 116.763L303.654 119.167C302.825 120.318 301.874 121.384 300.799 122.366C299.746 123.336 298.616 124.17 297.406 124.868C296.085 125.631 294.853 126.084 293.711 126.226C292.569 126.343 291.572 126.194 290.721 125.781C289.87 125.367 289.198 124.682 288.706 123.726C288.213 122.77 287.967 121.593 287.967 120.198C287.967 118.827 288.19 117.406 288.639 115.932C289.086 114.433 289.702 113.004 290.486 111.647C291.292 110.251 292.222 108.978 293.274 107.827C294.326 106.677 295.458 105.752 296.667 105.054ZM300.463 111.393C300.194 110.437 299.713 109.81 299.019 109.513C298.324 109.216 297.541 109.319 296.667 109.823C295.771 110.341 294.954 111.161 294.215 112.286C293.498 113.398 293.006 114.587 292.737 115.854L300.463 111.393Z" fill="#F5F6FA"/>
<path style="mix-blend-mode:screen" opacity="0.4" d="M371.769 53.0129C362.212 47.242 349.071 47.8465 334.605 56.198C332.107 57.6494 329.693 59.2388 327.372 60.9588C316.918 44.0957 296.516 40.2208 273.125 53.7258C268.191 56.6191 263.53 59.9557 259.201 63.6944C254.51 57.8067 248.202 53.4158 241.052 51.06L205.259 255.226L335.284 180.484C364.263 163.755 387.571 122.362 387.38 88.0979C387.284 70.9325 381.322 58.7863 371.769 53.0129Z" fill="url(#paint4_linear)"/>
<path style="mix-blend-mode:screen" d="M370.045 51.8918C355.22 43.9329 340.444 50.5666 327.386 60.9588C334.686 57.0323 355.478 43.6307 371.77 53.0129L370.045 51.8918Z" fill="url(#paint5_radial)"/>
<path style="mix-blend-mode:screen" d="M41.4703 281.915C41.4341 285.614 41.416 287.725 41.416 287.725C41.416 287.725 41.5478 285.622 41.7777 281.936C46.5049 231.132 90.2566 187.52 117.207 188.744C87.2885 185.781 44.2162 232.938 41.4703 281.915Z" fill="url(#paint6_radial)"/>
<path style="mix-blend-mode:screen" d="M252.294 56.7927C213.804 24.3296 125.081 90.0308 117.192 188.745C127.817 93.5259 211.611 26.2825 252.105 57.0356C254.056 58.4396 255.857 60.0401 257.481 61.8119L259.212 63.6925L257.54 61.7577C255.965 59.9282 254.207 58.2646 252.294 56.7927Z" fill="url(#paint7_radial)"/>
<path style="mix-blend-mode:screen" d="M259.217 63.6922C279.645 47.0873 307.944 37.7542 325.347 58.2674L327.385 60.954L325.597 58.0918C308.404 34.533 276.506 46.1651 259.217 63.6922Z" fill="url(#paint8_radial)"/>
<path opacity="0.8" d="M319.031 48.7591L319.318 49.2208L319.754 48.8974C322.06 47.1887 324.458 45.6097 326.939 44.1678C341.309 35.8721 354.235 35.3326 363.58 40.9802C372.931 46.6317 378.854 58.5765 378.949 75.6324C379.044 92.6579 373.297 111.487 363.904 128.152C354.51 144.819 341.496 159.274 327.103 167.582L85.7758 306.538L85.7753 306.538C71.4756 314.794 58.5913 315.341 49.2872 309.731C39.9771 304.118 34.0793 292.238 33.9855 275.262L33.4855 275.265L33.9855 275.262C33.8906 258.265 39.6137 239.503 48.9663 222.909C58.3194 206.313 71.2756 191.932 85.5985 183.663L85.6059 183.659L85.6132 183.654C92.7131 179.224 100.901 176.846 109.27 176.784L109.74 176.781L109.766 176.312C111.114 151.817 120.072 125.416 133.792 102.195C147.512 78.9735 165.972 58.9716 186.286 47.2445C199.849 39.4166 212.573 36.2472 223.609 37.1513C234.635 38.0546 244.008 43.0255 250.897 51.5456L251.222 51.9473L251.612 51.6097C255.918 47.8912 260.553 44.5724 265.461 41.6947C277.087 34.9826 287.921 32.6183 297.11 33.9857C306.288 35.3514 313.878 40.4457 319.031 48.7591Z" stroke="url(#paint9_linear)"/>
<path opacity="0.6" d="M311.101 37.3094L311.387 37.7711L311.823 37.4477C314.129 35.739 316.528 34.16 319.009 32.7181C333.378 24.4224 346.305 23.8829 355.649 29.5305C365 35.182 370.923 47.1268 371.018 64.1827C371.113 81.2082 365.367 100.037 355.973 116.703C346.579 133.369 333.565 147.824 319.172 156.133L77.8451 295.088L77.8446 295.088C63.5449 303.344 50.6606 303.891 41.3565 298.282C32.0465 292.669 26.1486 280.788 26.0549 263.812L25.5549 263.815L26.0549 263.812C25.9599 246.815 31.6831 228.054 41.0357 211.459C50.3887 194.864 63.345 180.482 77.6678 172.214L77.6752 172.209L77.6825 172.205C84.7824 167.774 92.9706 165.396 101.339 165.334L101.809 165.331L101.835 164.862C103.183 140.367 112.141 113.966 125.861 90.7458C139.582 67.5238 158.041 47.5219 178.356 35.7948C191.919 27.9669 204.643 24.7975 215.678 25.7016C226.704 26.6049 236.078 31.5758 242.966 40.0959L243.291 40.4976L243.682 40.16C247.987 36.4415 252.623 33.1227 257.53 30.245C269.156 23.5329 279.99 21.1686 289.18 22.536C298.358 23.9017 305.947 28.996 311.101 37.3094Z" stroke="url(#paint10_linear)"/>
<path opacity="0.4" d="M303.17 27.1126L303.456 27.5744L303.893 27.2509C306.198 25.5422 308.597 23.9632 311.078 22.5213C325.447 14.2256 338.374 13.6862 347.718 19.3337C357.069 24.9852 362.992 36.93 363.087 53.9859C363.182 71.0114 357.436 89.8405 348.043 106.506C338.649 123.172 325.634 137.627 311.242 145.936L69.9145 284.891L69.914 284.891C55.6142 293.147 42.7299 293.694 33.4258 288.085C24.1158 282.472 18.2179 270.591 18.1242 253.615L17.6242 253.618L18.1242 253.615C18.0292 236.618 23.7524 217.857 33.105 201.262C42.4581 184.667 55.4143 170.285 69.7371 162.017L69.7446 162.013L69.7519 162.008C76.8518 157.577 85.04 155.199 93.4087 155.138L93.8785 155.134L93.9043 154.665C95.2526 130.17 104.21 103.77 117.93 80.549C131.651 57.327 150.111 37.3251 170.425 25.598C183.988 17.7701 196.712 14.6007 207.748 15.5048C218.774 16.4081 228.147 21.3791 235.035 29.8991L235.36 30.3008L235.751 29.9632C240.057 26.2447 244.692 22.926 249.599 20.0482C261.226 13.3361 272.059 10.9718 281.249 12.3392C290.427 13.7049 298.016 18.7992 303.17 27.1126Z" stroke="url(#paint11_linear)"/>
<path opacity="0.2" d="M295.238 15.783L295.525 16.2448L295.961 15.9213C298.267 14.2126 300.665 12.6336 303.146 11.1918C317.516 2.89605 330.442 2.35657 339.787 8.00415C349.138 13.6556 355.061 25.6004 355.156 42.6563C355.251 59.6818 349.504 78.5109 340.111 95.1764C330.717 111.843 317.703 126.298 303.31 134.606L61.9828 273.561L61.9823 273.562C47.6826 281.818 34.7983 282.365 25.4942 276.755C16.1841 271.142 10.2863 259.262 10.1926 242.286L9.69258 242.289L10.1926 242.286C10.0976 225.289 15.8208 206.527 25.1734 189.933C34.5264 173.337 47.4827 158.956 61.8055 150.687L61.8129 150.683L61.8202 150.678C68.9201 146.248 77.1083 143.87 85.4771 143.808L85.9468 143.805L85.9726 143.335C87.321 118.841 96.2788 92.4401 109.999 69.2194C123.719 45.9974 142.179 25.9955 162.493 14.2684C176.056 6.44049 188.78 3.27112 199.816 4.17523C210.842 5.07854 220.215 10.0495 227.104 18.5696L227.429 18.9712L227.819 18.6336C232.125 14.9151 236.76 11.5964 241.668 8.71864C253.294 2.00651 264.128 -0.357807 273.317 1.00961C282.495 2.3753 290.085 7.4696 295.238 15.783Z" stroke="url(#paint12_linear)"/>
<defs>
<filter id="filter0_f" x="27.4736" y="124.273" width="352.546" height="246.266" filterUnits="userSpaceOnUse" color-interpolation-filters="sRGB">
<feFlood flood-opacity="0" result="BackgroundImageFix"/>
<feBlend mode="normal" in="SourceGraphic" in2="BackgroundImageFix" result="shape"/>
<feGaussianBlur stdDeviation="15" result="effect1_foregroundBlur"/>
</filter>
<linearGradient id="paint0_linear" x1="348.838" y1="27.5043" x2="339.818" y2="65.8088" gradientUnits="userSpaceOnUse">
<stop stop-color="#B4B4FF"/>
<stop offset="1" stop-color="#1919C7"/>
</linearGradient>
<linearGradient id="paint1_linear" x1="290.14" y1="24.2545" x2="279.286" y2="69.2815" gradientUnits="userSpaceOnUse">
<stop stop-color="#B4B4FF"/>
<stop offset="1" stop-color="#1919C7"/>
</linearGradient>
<linearGradient id="paint2_linear" x1="202.669" y1="35.1394" x2="125.536" y2="179.488" gradientUnits="userSpaceOnUse">
<stop stop-color="#B4B4FF"/>
<stop offset="1" stop-color="#1919C7"/>
</linearGradient>
<linearGradient id="paint3_linear" x1="86.2333" y1="174.573" x2="-0.0381512" y2="288.139" gradientUnits="userSpaceOnUse">
<stop stop-color="#B4B4FF"/>
<stop offset="1" stop-color="#1919C7"/>
</linearGradient>
<linearGradient id="paint4_linear" x1="222.011" y1="62.9117" x2="409.358" y2="315.172" gradientUnits="userSpaceOnUse">
<stop stop-color="#FFEC3D"/>
<stop offset="0.007" stop-color="#F6E33B"/>
<stop offset="0.048" stop-color="#C8B930"/>
<stop offset="0.093" stop-color="#9D9126"/>
<stop offset="0.142" stop-color="#776E1C"/>
<stop offset="0.195" stop-color="#575015"/>
<stop offset="0.254" stop-color="#3B370E"/>
<stop offset="0.32" stop-color="#252309"/>
<stop offset="0.397" stop-color="#141305"/>
<stop offset="0.493" stop-color="#090802"/>
<stop offset="0.627" stop-color="#020200"/>
<stop offset="1"/>
</linearGradient>
<radialGradient id="paint5_radial" cx="0" cy="0" r="1" gradientUnits="userSpaceOnUse" gradientTransform="translate(348.054 49.7244) scale(45.919)">
<stop stop-color="#FDC8CA"/>
<stop offset="0.083" stop-color="#D8ABAC"/>
<stop offset="0.222" stop-color="#9F7E7F"/>
<stop offset="0.361" stop-color="#6F5758"/>
<stop offset="0.498" stop-color="#473838"/>
<stop offset="0.632" stop-color="#281F20"/>
<stop offset="0.762" stop-color="#120E0E"/>
<stop offset="0.887" stop-color="#050404"/>
<stop offset="1"/>
</radialGradient>
<radialGradient id="paint6_radial" cx="0" cy="0" r="1" gradientUnits="userSpaceOnUse" gradientTransform="translate(12404.2 13899.8) scale(3971 5192.94)">
<stop stop-color="#FDC8CA"/>
<stop offset="0.083" stop-color="#D8ABAC"/>
<stop offset="0.222" stop-color="#9F7E7F"/>
<stop offset="0.361" stop-color="#6F5758"/>
<stop offset="0.498" stop-color="#473838"/>
<stop offset="0.632" stop-color="#281F20"/>
<stop offset="0.762" stop-color="#120E0E"/>
<stop offset="0.887" stop-color="#050404"/>
<stop offset="1"/>
</radialGradient>
<radialGradient id="paint7_radial" cx="0" cy="0" r="1" gradientUnits="userSpaceOnUse" gradientTransform="translate(29576.1 11285.6) scale(7714.63 7622.65)">
<stop stop-color="#FDC8CA"/>
<stop offset="0.083" stop-color="#D8ABAC"/>
<stop offset="0.222" stop-color="#9F7E7F"/>
<stop offset="0.361" stop-color="#6F5758"/>
<stop offset="0.498" stop-color="#473838"/>
<stop offset="0.632" stop-color="#281F20"/>
<stop offset="0.762" stop-color="#120E0E"/>
<stop offset="0.887" stop-color="#050404"/>
<stop offset="1"/>
</radialGradient>
<radialGradient id="paint8_radial" cx="0" cy="0" r="1" gradientUnits="userSpaceOnUse" gradientTransform="translate(17444.1 1404.89) scale(2800.48 774.581)">
<stop stop-color="#FDC8CA"/>
<stop offset="0.083" stop-color="#D8ABAC"/>
<stop offset="0.222" stop-color="#9F7E7F"/>
<stop offset="0.361" stop-color="#6F5758"/>
<stop offset="0.498" stop-color="#473838"/>
<stop offset="0.632" stop-color="#281F20"/>
<stop offset="0.762" stop-color="#120E0E"/>
<stop offset="0.887" stop-color="#050404"/>
<stop offset="1"/>
</radialGradient>
<linearGradient id="paint9_linear" x1="287.804" y1="50.4221" x2="167.566" y2="313.883" gradientUnits="userSpaceOnUse">
<stop stop-color="#B4B4FF"/>
<stop offset="1" stop-color="#1919C7"/>
</linearGradient>
<linearGradient id="paint10_linear" x1="279.873" y1="38.9724" x2="159.635" y2="302.433" gradientUnits="userSpaceOnUse">
<stop stop-color="#B4B4FF"/>
<stop offset="1" stop-color="#1919C7"/>
</linearGradient>
<linearGradient id="paint11_linear" x1="271.942" y1="28.7756" x2="151.705" y2="292.237" gradientUnits="userSpaceOnUse">
<stop stop-color="#B4B4FF"/>
<stop offset="1" stop-color="#1919C7"/>
</linearGradient>
<linearGradient id="paint12_linear" x1="264.011" y1="17.446" x2="143.773" y2="280.907" gradientUnits="userSpaceOnUse">
<stop stop-color="#B4B4FF"/>
<stop offset="1" stop-color="#1919C7"/>
</linearGradient>
</defs>
</svg>
