<svg width="201" height="275" viewBox="0 0 201 275" fill="none" xmlns="http://www.w3.org/2000/svg">
<path d="M39.0958 205.265L39.0961 205.266L39.1028 205.257C39.7082 204.475 40.1502 204.102 40.5347 203.92C40.9162 203.739 41.2562 203.737 41.6956 203.737H162.77C163.208 203.737 163.602 203.738 164.027 203.922C164.452 204.105 164.926 204.477 165.493 205.254L165.497 205.26L165.502 205.265L183.875 225.733C183.868 225.902 183.832 226.068 183.767 226.224C183.695 226.397 183.59 226.554 183.457 226.687C183.324 226.82 183.166 226.925 182.993 226.997C182.819 227.068 182.633 227.105 182.445 227.105H22.1522C21.9644 227.105 21.7783 227.068 21.6048 226.996C21.4313 226.925 21.2736 226.819 21.1408 226.687C21.0081 226.554 20.9028 226.397 20.8309 226.223C20.7663 226.068 20.7299 225.902 20.7234 225.733L39.0958 205.265Z" stroke="#7676E3" stroke-width="0.3"/>
<path d="M45.4531 227.135C45.4529 227.426 45.5392 227.711 45.701 227.953C45.8628 228.195 46.093 228.384 46.3623 228.496C46.6317 228.607 46.9281 228.636 47.2142 228.58C47.5002 228.523 47.763 228.383 47.9693 228.177C48.1756 227.971 48.3161 227.709 48.3731 227.424C48.43 227.138 48.4009 226.842 48.2894 226.573C48.1778 226.304 47.9889 226.074 47.7464 225.912C47.504 225.751 47.2189 225.664 46.9273 225.664C46.5366 225.664 46.1618 225.819 45.8854 226.095C45.6089 226.371 45.4534 226.745 45.4531 227.135V227.135Z" fill="#7676E3"/>
<path d="M101.472 227.135C101.471 227.426 101.558 227.711 101.72 227.953C101.881 228.195 102.112 228.384 102.381 228.496C102.65 228.607 102.947 228.636 103.233 228.58C103.519 228.523 103.782 228.383 103.988 228.177C104.194 227.971 104.335 227.709 104.392 227.424C104.449 227.138 104.419 226.842 104.308 226.573C104.196 226.304 104.007 226.074 103.765 225.912C103.523 225.751 103.237 225.664 102.946 225.664C102.555 225.664 102.18 225.819 101.904 226.095C101.627 226.371 101.472 226.745 101.472 227.135V227.135Z" fill="#7676E3"/>
<path d="M157.49 227.135C157.49 227.426 157.576 227.711 157.738 227.953C157.9 228.195 158.13 228.384 158.399 228.496C158.669 228.607 158.965 228.636 159.251 228.58C159.537 228.523 159.8 228.383 160.006 228.177C160.213 227.971 160.353 227.709 160.41 227.424C160.467 227.138 160.438 226.842 160.326 226.573C160.215 226.304 160.026 226.074 159.784 225.912C159.541 225.751 159.256 225.664 158.964 225.664C158.574 225.664 158.199 225.819 157.922 226.095C157.646 226.371 157.491 226.745 157.49 227.135V227.135Z" fill="#7676E3"/>
<path d="M72.9707 227.136C72.9706 227.233 72.9994 227.328 73.0533 227.408C73.1073 227.489 73.184 227.552 73.2738 227.589C73.3636 227.626 73.4624 227.636 73.5577 227.617C73.6531 227.598 73.7407 227.552 73.8094 227.483C73.8782 227.415 73.925 227.327 73.944 227.232C73.963 227.137 73.9533 227.038 73.9161 226.948C73.8789 226.859 73.816 226.782 73.7351 226.728C73.6543 226.674 73.5593 226.645 73.4621 226.645C73.3318 226.645 73.2069 226.697 73.1148 226.789C73.0226 226.881 72.9708 227.006 72.9707 227.136V227.136Z" fill="#7676E3"/>
<path d="M130.955 227.136C130.955 227.233 130.984 227.328 131.038 227.408C131.092 227.489 131.168 227.552 131.258 227.589C131.348 227.626 131.447 227.636 131.542 227.617C131.637 227.598 131.725 227.552 131.794 227.483C131.863 227.415 131.909 227.327 131.928 227.232C131.947 227.137 131.938 227.038 131.9 226.948C131.863 226.859 131.8 226.782 131.72 226.728C131.639 226.674 131.544 226.645 131.446 226.645C131.316 226.645 131.191 226.697 131.099 226.789C131.007 226.881 130.955 227.006 130.955 227.136V227.136Z" fill="#7676E3"/>
<path d="M27.5586 216.22V219.849C27.5585 220.056 27.5992 220.261 27.6786 220.453C27.758 220.644 27.8744 220.818 28.0212 220.965C28.1679 221.112 28.3422 221.228 28.534 221.307C28.7259 221.386 28.9315 221.427 29.1391 221.427H176.212C176.419 221.427 176.625 221.386 176.816 221.307C177.008 221.228 177.182 221.112 177.329 220.965C177.476 220.818 177.592 220.644 177.672 220.453C177.751 220.261 177.792 220.056 177.791 219.849V216.22H27.5586Z" fill="#23398E"/>
<path d="M177.791 215.893C177.792 216.101 177.751 216.306 177.672 216.497C177.592 216.689 177.476 216.863 177.329 217.009C177.182 217.156 177.008 217.272 176.816 217.352C176.625 217.431 176.419 217.472 176.212 217.472H29.1391C28.9315 217.472 28.7259 217.431 28.534 217.352C28.3422 217.272 28.1679 217.156 28.0212 217.01C27.8744 216.863 27.758 216.689 27.6786 216.497C27.5992 216.306 27.5585 216.101 27.5586 215.893L45.971 195.381C47.1935 193.803 47.8085 193.803 48.6824 193.803H156.536C157.409 193.803 158.228 193.803 159.381 195.381L177.791 215.893V215.893Z" fill="#D1D1F4"/>
<path d="M165.878 210.901C165.878 211.075 165.843 211.248 165.777 211.409C165.71 211.57 165.612 211.717 165.489 211.84C165.365 211.963 165.219 212.061 165.057 212.128C164.896 212.195 164.723 212.229 164.548 212.229H40.8025C40.6278 212.229 40.4548 212.195 40.2933 212.128C40.1319 212.061 39.9851 211.964 39.8615 211.84C39.7379 211.717 39.6399 211.571 39.573 211.409C39.5061 211.248 39.4717 211.076 39.4717 210.901L50.3183 197.288C51.3466 195.96 51.8647 195.96 52.6 195.96H151.769C152.504 195.96 153.193 195.96 154.162 197.288L165.878 210.901Z" fill="#D1D1F4"/>
<path d="M116.198 215.373C116.198 215.459 116.164 215.541 116.104 215.601C116.043 215.662 115.961 215.695 115.875 215.695H89.4733C89.3877 215.695 89.3056 215.661 89.2451 215.601C89.1846 215.54 89.1505 215.459 89.1504 215.373L92.9116 211.183C93.1612 210.86 93.2858 210.86 93.4653 210.86H111.856C111.974 210.851 112.092 210.876 112.195 210.934C112.299 210.991 112.383 211.078 112.437 211.183L116.198 215.373V215.373Z" fill="#6C6CB7"/>
<path d="M112.437 211.183C112.383 211.078 112.299 210.991 112.195 210.934C112.092 210.876 111.974 210.851 111.856 210.86H111.646L115.408 215.05C115.408 215.135 115.374 215.217 115.313 215.278C115.252 215.339 115.17 215.373 115.084 215.373H90.261C90.1753 215.372 90.0932 215.338 90.0326 215.278C89.9721 215.217 89.9381 215.135 89.9381 215.05L93.6998 210.86H93.4643C93.2848 210.86 93.1602 210.86 92.9106 211.183L89.1494 215.373C89.1496 215.459 89.1836 215.54 89.2441 215.601C89.3047 215.661 89.3867 215.695 89.4723 215.695H115.874C115.96 215.695 116.042 215.662 116.103 215.601C116.163 215.541 116.197 215.459 116.197 215.373L112.436 211.183H112.437Z" fill="#383597"/>
<path d="M159.38 189.736C159.38 189.943 159.34 190.149 159.26 190.34C159.181 190.532 159.064 190.706 158.917 190.853C158.771 190.999 158.596 191.116 158.404 191.195C158.213 191.275 158.007 191.315 157.799 191.315H47.5496C47.3421 191.315 47.1366 191.274 46.9449 191.195C46.7532 191.115 46.5791 190.999 46.4325 190.852C46.2859 190.705 46.1696 190.531 46.0904 190.34C46.0112 190.148 45.9705 189.943 45.9707 189.736V118.673C45.9706 118.466 46.0113 118.261 46.0906 118.07C46.1698 117.878 46.2861 117.704 46.4327 117.558C46.5793 117.411 46.7534 117.295 46.9451 117.215C47.1367 117.136 47.3421 117.095 47.5496 117.095H157.799C158.007 117.095 158.212 117.135 158.404 117.215C158.596 117.294 158.77 117.41 158.917 117.557C159.064 117.704 159.181 117.878 159.26 118.069C159.339 118.261 159.38 118.466 159.38 118.673V189.736" fill="#1F3D88"/>
<path d="M155.697 186.466H49.3623V121.943H155.697V186.466Z" fill="#4C49D1"/>
<path d="M148.808 200.47L148.819 200.493V201.187L148.826 201.271L150.556 202.905H149.415V202.142L149.409 202.061L147.772 200.47H148.808ZM101.192 205.823V205.792V205.788V205.723V205.719V205.653V205.649V205.584V205.58V205.514V205.51V205.445V205.441V205.375V205.371V205.306V205.302V205.237V205.233V205.167V205.163V205.098V205.094V205.029V205.024V204.959V204.955L101.132 203.322H103.255L103.251 203.331L103.255 203.392L103.251 203.401L103.255 203.461L103.251 203.47L103.255 203.531L103.251 203.54L103.255 203.599L103.251 203.609L103.255 203.67L103.251 203.679L103.255 203.739L103.251 203.748L103.255 203.809L103.251 203.817L103.255 203.878L103.251 203.887L103.255 203.947L103.251 203.956L103.255 204.017L103.251 204.026L103.255 204.086L103.251 204.095L103.255 204.155L103.251 204.165L103.383 205.823H101.192ZM100.355 200.469V200.505V200.571V200.638V200.705V200.709V200.775V200.778V200.845V200.911V200.978V200.981V201.048V201.051V201.117V201.184V201.251L100.389 202.885H98.3172L98.3517 201.251V201.183V201.116V201.049V201.046V200.98V200.977V200.91V200.843V200.776V200.709V200.641V200.574V200.507V200.471L100.355 200.469ZM123.852 202.119L123.857 202.06L123.055 200.469H124.707C124.775 200.469 124.843 200.461 124.909 200.444V200.444L124.906 200.505L124.909 200.513L124.906 200.574L124.909 200.582L124.906 200.643L124.909 200.652L124.906 200.713L124.909 200.722L124.906 200.783L124.909 200.791L124.906 200.852L124.909 200.86L124.906 200.921L124.909 200.93L124.906 200.991L124.909 200.999L124.906 201.06L124.909 201.069L124.906 201.129L124.909 201.137L124.906 201.199L124.909 201.207L124.906 201.268L125.799 202.902H123.863V202.897L123.857 202.886L123.863 202.828L123.857 202.817L123.863 202.758L123.857 202.748L123.863 202.688L123.857 202.678L123.863 202.619L123.857 202.609L123.863 202.55L123.857 202.539L123.863 202.48L123.857 202.47L123.863 202.411L123.857 202.4L123.863 202.342L123.857 202.331L123.863 202.272L123.857 202.262L123.863 202.203L123.857 202.192L123.863 202.133L123.857 202.122L123.852 202.119ZM115.331 202.099L115.341 202.06L114.817 200.469H116.66L116.726 200.464L116.718 200.507L116.726 200.53L116.718 200.576L116.726 200.6L116.718 200.645L116.726 200.669L116.718 200.715L116.726 200.739L116.718 200.785L116.726 200.808L116.718 200.854L116.726 200.878L116.718 200.923L116.726 200.947L116.718 200.993L116.726 201.016L116.718 201.062L116.726 201.086L116.718 201.131L116.726 201.155L116.718 201.201L116.726 201.225L116.718 201.27L117.325 202.904H115.337V202.893L115.327 202.863L115.337 202.825L115.327 202.793L115.337 202.755L115.327 202.724L115.337 202.685L115.327 202.655L115.337 202.616L115.327 202.585L115.337 202.546L115.327 202.515L115.337 202.477L115.327 202.446L115.337 202.407L115.327 202.377L115.337 202.338L115.327 202.308L115.337 202.269L115.327 202.238L115.337 202.2L115.327 202.168L115.337 202.13L115.327 202.099H115.331ZM106.816 202.078L106.823 202.06L106.579 200.469H108.541V200.483L108.532 200.507L108.541 200.552L108.532 200.576L108.54 200.621L108.532 200.645L108.541 200.69L108.532 200.715L108.541 200.76L108.532 200.785L108.541 200.83L108.532 200.854L108.541 200.899L108.532 200.923L108.541 200.969L108.532 200.993L108.541 201.038L108.532 201.062L108.541 201.107L108.532 201.131L108.541 201.177L108.532 201.201L108.541 201.246L108.532 201.27L108.854 202.904H106.817L106.822 202.893L106.814 202.841L106.822 202.824L106.814 202.771L106.822 202.753L106.814 202.701L106.822 202.682L106.814 202.63L106.822 202.611L106.814 202.559L106.822 202.541L106.814 202.489L106.822 202.471L106.814 202.419L106.822 202.4L106.814 202.348L106.822 202.33L106.814 202.278L106.822 202.259L106.814 202.207L106.822 202.189L106.814 202.137L106.822 202.119L106.814 202.066L106.816 202.078ZM91.8828 202.078L91.8749 202.13L91.8828 202.148L91.8749 202.2L91.8828 202.218L91.8749 202.27L91.8828 202.289L91.8749 202.341L91.8828 202.359L91.8749 202.411L91.8828 202.429L91.8749 202.481L91.8828 202.499L91.8749 202.551L91.8828 202.569L91.8749 202.621L91.8828 202.639L91.8749 202.691L91.8828 202.71L91.8749 202.762L91.8828 202.78L91.8749 202.832L91.8828 202.85L91.8749 202.902L91.8791 202.913H89.8481L90.1689 201.279L90.1605 201.256L90.1689 201.21L90.1605 201.186L90.1689 201.14L90.1605 201.116L90.1689 201.071L90.1605 201.047L90.1689 201.002L90.1605 200.978L90.1689 200.932L90.1605 200.908L90.1689 200.863L90.1605 200.839L90.1689 200.794L90.1605 200.769L90.1689 200.724L90.1605 200.7L90.1689 200.654L90.1605 200.63L90.1689 200.585L90.1605 200.561L90.1689 200.516L90.1605 200.492V200.478H92.1204L91.877 202.069L91.8849 202.087L91.8828 202.078ZM81.9761 201.225L81.985 201.2L81.9761 201.155L81.985 201.131L81.9761 201.086L81.985 201.062L81.9761 201.016L81.985 200.992L81.9761 200.947L81.985 200.922L81.9761 200.877L81.985 200.854L81.9761 200.808L81.985 200.784L81.9761 200.739L81.985 200.715L81.9761 200.669L81.985 200.644L81.9761 200.6L81.985 200.575L81.9761 200.53L81.985 200.506L81.9777 200.468H83.8873L83.364 202.06L83.3739 202.098L83.364 202.129L83.3739 202.168L83.364 202.199L83.3739 202.237L83.364 202.268L83.3739 202.307L83.364 202.338L83.3739 202.376L83.364 202.407L83.3739 202.446L83.364 202.476L83.3739 202.515L83.364 202.546L83.3739 202.584L83.364 202.615L83.3739 202.654L83.364 202.684L83.3739 202.724L83.364 202.754L83.3739 202.793L83.364 202.824L83.3739 202.862L83.364 202.893L83.3671 202.905H83.3446H81.379L81.985 201.27L81.9761 201.226V201.225ZM73.7959 201.209L73.8006 201.2L73.7959 201.139L73.8006 201.131L73.7959 201.07L73.8006 201.062L73.7959 201.001L73.8006 200.992L73.7959 200.931L73.8006 200.922L73.7959 200.862L73.8006 200.854L73.7959 200.792L73.8006 200.784L73.7959 200.724L73.8006 200.715L73.7959 200.653L73.8006 200.644L73.7959 200.584L73.8006 200.575L73.7959 200.514L73.8006 200.506V200.468H75.6506L74.8499 202.06L74.8546 202.118L74.8499 202.129L74.8546 202.188L74.8499 202.199L74.8546 202.258L74.8499 202.268L74.8546 202.327L74.8499 202.338L74.854 202.396L74.8499 202.407L74.8546 202.466L74.8499 202.476L74.8546 202.535L74.8499 202.546L74.8546 202.605L74.8499 202.615L74.8546 202.674L74.8499 202.684L74.8546 202.744L74.8499 202.754L74.8546 202.813L74.8499 202.824L74.854 202.882L74.8499 202.893V202.915C74.794 202.907 74.7377 202.903 74.6813 202.904H72.9078L73.7974 201.269L73.7927 201.209H73.7959ZM92.4265 204.148L92.4339 204.096L92.4265 204.079L92.4339 204.027L92.4265 204.011L92.4339 203.959L92.4265 203.943L92.4339 203.891L92.4265 203.875L92.4339 203.823L92.4265 203.806L92.4339 203.754L92.4265 203.738L92.4339 203.686L92.4265 203.67L92.4339 203.617L92.4265 203.602L92.4339 203.549L92.4265 203.533L92.4339 203.481L92.4265 203.465L92.4339 203.413L92.4265 203.397L92.4339 203.345L92.4297 203.335H94.534L94.377 204.968L94.3828 204.978L94.377 205.037L94.3828 205.048L94.377 205.107L94.3828 205.117L94.377 205.176L94.3828 205.187L94.377 205.246L94.3828 205.256L94.377 205.315L94.3828 205.326L94.377 205.384L94.3828 205.395L94.377 205.454L94.3828 205.464L94.377 205.523L94.3828 205.534L94.377 205.593L94.3828 205.604L94.377 205.662L94.3828 205.673L94.377 205.732L94.3828 205.742L94.377 205.801L94.3828 205.811V205.836H92.2057L92.437 204.178L92.4297 204.162L92.4265 204.148ZM111.95 204.135L111.94 204.164L112.361 205.822H110.211V205.811L110.221 205.788L110.211 205.741L110.221 205.718L110.211 205.672L110.221 205.649L110.211 205.602L110.221 205.58L110.211 205.533L110.221 205.51L110.211 205.464L110.221 205.441L110.211 205.394L110.221 205.371L110.211 205.325L110.221 205.302L110.211 205.255L110.221 205.232L110.211 205.186L110.221 205.163L110.211 205.117L110.221 205.093L110.211 205.047L110.221 205.024L110.211 204.978L110.221 204.954L109.877 203.322H111.948L111.945 203.331L111.955 203.371L111.945 203.4L111.956 203.44L111.945 203.469L111.956 203.51L111.945 203.539L111.955 203.579L111.945 203.608L111.955 203.649L111.945 203.678L111.956 203.719L111.945 203.748L111.955 203.788L111.945 203.817L111.956 203.857L111.945 203.886L111.955 203.926L111.945 203.956L111.956 203.996L111.945 204.025L111.955 204.065L111.945 204.095L111.955 204.135H111.95ZM66.3289 202.967C66.232 202.918 66.1234 202.896 66.0149 202.904H64.4402L65.6188 201.269V201.203V201.135V201.069V201.001V200.934V200.867V200.799V200.731V200.663V200.596V200.528L65.624 200.49H67.4112L66.3321 202.082V202.146V202.151V202.216V202.221V202.285V202.29V202.355V202.36V202.424V202.429V202.494V202.498V202.563V202.568V202.633V202.637V202.702V202.706V202.772V202.776V202.841V202.846V202.91V202.915V202.98V202.985V202.989L66.3289 202.967ZM158.713 207.951L158.709 207.873L156.637 205.972C156.444 205.863 156.223 205.811 156.002 205.822H155.346L155.336 205.798V205.66V205.59V205.52V205.451V205.382V205.313V205.243V205.173V205.103V205.034L155.33 204.954L153.557 203.322H157.011C157.235 203.322 157.341 203.265 157.283 203.19V202.149L157.27 202.06L155.006 200.159C154.825 200.054 154.618 200.002 154.408 200.009H149.107L149.096 199.988V199.294L149.087 199.207L147.021 197.307C146.854 197.202 146.66 197.149 146.464 197.156H141.469C141.264 197.156 141.155 197.217 141.213 197.294V198.335L141.218 198.417L142.736 200.009H141.559C141.333 200.009 141.209 200.073 141.271 200.153V201.194L141.274 201.269L142.739 202.904H140.898L140.895 202.896V202.06L139.534 200.468H140.79C141.01 200.468 141.132 200.405 141.07 200.327V199.282V199.205L139.337 197.304C139.181 197.197 138.994 197.144 138.805 197.153H133.813C133.6 197.153 133.477 197.22 133.535 197.301V197.996V198.065V198.134V198.204V198.273V198.343V198.414L134.776 200.006H133.403C133.17 200.006 133.03 200.074 133.089 200.156V200.225V200.292V200.294V200.361V200.429V200.496V200.564V200.631V200.699V200.767V200.835V200.902V200.969V201.037V201.104V201.171V201.238L134.268 202.872H132.377V202.861V202.857V202.793L132.374 202.788L132.377 202.723L132.374 202.719L132.377 202.653L132.374 202.649L132.377 202.584L132.374 202.58L132.377 202.514L132.374 202.51L132.377 202.445L132.374 202.441L132.377 202.375L132.374 202.372L132.377 202.306L132.374 202.302L132.377 202.237L132.374 202.232L132.377 202.168L132.374 202.163L132.377 202.098L132.374 202.094L132.377 202.028L131.295 200.437H132.75C132.98 200.437 133.117 200.37 133.053 200.287V199.971V199.901V199.833V199.624V199.554V199.485V199.347V199.209L131.654 197.308C131.51 197.198 131.331 197.145 131.15 197.158H126.154C125.937 197.158 125.8 197.225 125.85 197.308L125.853 197.313L125.85 197.377L125.853 197.382L125.85 197.446L125.853 197.452L125.85 197.516L125.853 197.521L125.85 197.586L125.853 197.591L125.85 197.655L125.853 197.659L125.85 197.724L125.853 197.729L125.85 197.794L125.853 197.799L125.85 197.863L125.853 197.868L125.85 197.932L125.853 197.938L125.85 198.002L125.853 198.007L125.85 198.071L125.853 198.076L125.85 198.141L125.853 198.146L125.85 198.21L125.853 198.216L125.85 198.28L125.853 198.285L125.85 198.349L125.853 198.354L125.85 198.418L126.812 200.01H125.242C125.172 200.01 125.101 200.019 125.033 200.037V200.037L125.037 199.975L125.033 199.968L125.037 199.905L125.033 199.898L125.037 199.836L125.033 199.829L125.037 199.767L125.033 199.759L125.037 199.697L125.033 199.69L125.037 199.628L125.033 199.62L125.037 199.558L125.033 199.551L125.037 199.488L125.033 199.481L125.037 199.419L125.031 199.411L125.037 199.349L125.033 199.342L125.037 199.281L125.033 199.273L125.037 199.211L123.97 197.31C123.904 197.254 123.828 197.212 123.746 197.186C123.663 197.16 123.577 197.151 123.491 197.16H118.495C118.279 197.16 118.129 197.227 118.166 197.31L118.172 197.324L118.166 197.379L118.172 197.393L118.166 197.448L118.172 197.462L118.166 197.515L118.172 197.529L118.166 197.584L118.172 197.598L118.166 197.654L118.172 197.668L118.166 197.723L118.172 197.737L118.166 197.793L118.172 197.807L118.166 197.862L118.172 197.875L118.166 197.931L118.172 197.946L118.166 198.001L118.172 198.014L118.166 198.07L118.172 198.084L118.166 198.14L118.172 198.154L118.166 198.206L118.172 198.22L118.166 198.277L118.172 198.29L118.166 198.346L118.172 198.359L118.166 198.415L118.849 200.007H117.085L117.013 200.013L117.019 199.969L117.011 199.947L117.019 199.899L117.011 199.878L117.019 199.83L117.014 199.814L117.022 199.766L117.014 199.745L117.022 199.697L117.014 199.676L117.022 199.627L117.014 199.605L117.022 199.557L117.014 199.536L117.022 199.487L117.014 199.467L117.022 199.418L117.014 199.396L117.022 199.347L117.014 199.326L117.022 199.278L117.014 199.257L117.022 199.209L116.289 197.308C116.258 197.225 116.056 197.158 115.838 197.158H110.839C110.622 197.158 110.463 197.225 110.483 197.308L110.491 197.344L110.483 197.377L110.491 197.414L110.483 197.446L110.491 197.483L110.483 197.516L110.491 197.552L110.483 197.586L110.491 197.622L110.483 197.655L110.491 197.691L110.483 197.724L110.491 197.761L110.483 197.794L110.491 197.831L110.483 197.863L110.491 197.9L110.483 197.932L110.491 197.969L110.483 198.002L110.491 198.039L110.483 198.071L110.491 198.108L110.483 198.141L110.491 198.177L110.483 198.21L110.491 198.247L110.483 198.28L110.491 198.316L110.483 198.349L110.491 198.386L110.483 198.418L110.888 200.01H108.998L108.995 199.999L109.004 199.973L108.995 199.929L109.004 199.903L108.995 199.86L109.004 199.834L108.995 199.79L109.004 199.765L108.995 199.721L109.004 199.695L108.995 199.652L109.004 199.626L108.995 199.582L109.004 199.556L108.995 199.513L109.004 199.486L108.995 199.443L109.004 199.417L108.995 199.374L109.004 199.347L108.995 199.305L109.004 199.278L108.995 199.235L109.004 199.209L108.603 197.308C108.586 197.225 108.393 197.158 108.177 197.158H103.181C102.963 197.158 102.794 197.225 102.8 197.308L102.803 197.367L102.8 197.377L102.803 197.437L102.8 197.446L102.803 197.506L102.8 197.516L102.803 197.575L102.8 197.586L102.803 197.645L102.8 197.655L102.803 197.714L102.8 197.724L102.803 197.784L102.8 197.794L102.803 197.853L102.8 197.863L102.803 197.922L102.8 197.932L102.803 197.991L102.8 198.002L102.803 198.061L102.8 198.071L102.803 198.13L102.8 198.141L102.803 198.201L102.8 198.21L102.803 198.269L102.8 198.28L102.803 198.338L102.8 198.349L102.803 198.408L102.8 198.418L102.926 200.01H100.989V199.977L100.992 199.973L100.989 199.908L100.992 199.903L100.989 199.838L100.992 199.834L100.989 199.769L100.992 199.765L100.989 199.7L100.992 199.695L100.989 199.63L100.992 199.626L100.989 199.561L100.992 199.556L100.989 199.491L100.992 199.486L100.989 199.422L100.992 199.417L100.989 199.353L100.992 199.347L100.989 199.283L100.992 199.278L100.989 199.213L100.992 199.209L100.924 197.308C100.921 197.225 100.742 197.158 100.525 197.158H95.5283C95.3117 197.158 95.128 197.225 95.1201 197.308L94.9364 199.209L94.9427 199.221L94.9364 199.278L94.9427 199.29L94.9364 199.347L94.9427 199.359L94.9364 199.417L94.9427 199.429L94.9364 199.486L94.9427 199.498L94.9364 199.556L94.9427 199.568L94.9364 199.626L94.9427 199.638L94.9364 199.695L94.9427 199.707L94.9364 199.765L94.9427 199.776L94.9364 199.834L94.9427 199.846L94.9364 199.903L94.9427 199.915L94.9364 199.973L94.9427 199.985V200.01H93.0216L93.2429 198.418L93.2356 198.4L93.2429 198.348L93.2356 198.33L93.2429 198.278L93.2356 198.26L93.2429 198.207L93.2356 198.19L93.2429 198.137L93.2356 198.118L93.2429 198.066L93.2356 198.048L93.2429 197.996L93.2356 197.977L93.2429 197.925L93.2356 197.907L93.2429 197.855L93.2356 197.836L93.2429 197.784L93.2356 197.765L93.2429 197.713L93.2356 197.695L93.2429 197.642L93.2356 197.624L93.2429 197.571L93.2356 197.554L93.2429 197.501L93.2356 197.484L93.2429 197.431L93.2356 197.414L93.2429 197.361L93.2356 197.343L93.2429 197.291C93.2539 197.208 93.0859 197.14 92.8693 197.14H87.8646C87.648 197.14 87.4533 197.208 87.4313 197.291L86.9148 199.192L86.9242 199.226L86.9148 199.261L86.9242 199.295L86.9148 199.33L86.9242 199.364L86.9148 199.4L86.9242 199.434L86.9148 199.469L86.9242 199.504L86.9148 199.539L86.9242 199.573L86.9148 199.609L86.9242 199.642L86.9148 199.678L86.9242 199.712L86.9148 199.748L86.9242 199.781L86.9148 199.817L86.9242 199.851L86.9148 199.886L86.9242 199.92L86.9148 199.956L86.9242 199.99V199.993H85.0507L85.5494 198.401L85.5405 198.36L85.5494 198.332L85.541 198.291L85.5494 198.263L85.5405 198.221L85.5494 198.193L85.5405 198.152L85.5494 198.124L85.5405 198.082L85.5494 198.054L85.541 198.013L85.5494 197.985L85.5405 197.944L85.5494 197.915L85.5405 197.875L85.5494 197.846L85.5405 197.805L85.5494 197.777L85.5405 197.735L85.5494 197.707L85.5405 197.665L85.5494 197.638L85.5405 197.596L85.5494 197.568L85.5405 197.528L85.5494 197.499L85.5405 197.458L85.5494 197.429L85.541 197.389L85.5494 197.36L85.5405 197.319L85.5494 197.291C85.5756 197.208 85.4196 197.14 85.2019 197.14H80.2072C79.99 197.14 79.7838 197.208 79.7467 197.291L78.8994 199.192L78.9041 199.248L78.8994 199.261L78.9041 199.317L78.8994 199.33L78.9041 199.387L78.8994 199.4L78.9041 199.456L78.8994 199.469L78.9041 199.526L78.8994 199.539L78.9041 199.595L78.8994 199.609L78.9041 199.664L78.8994 199.678L78.9041 199.734L78.8994 199.748L78.9041 199.803L78.8994 199.817L78.9041 199.873L78.8994 199.886L78.9041 199.942L78.8994 199.956L78.9026 199.993H77.0881L77.8664 198.401L77.8622 198.342L77.8664 198.332L77.8622 198.272L77.8664 198.263L77.8622 198.203L77.8664 198.193L77.8622 198.133L77.8664 198.124L77.8622 198.064L77.8664 198.054L77.8622 197.994L77.8664 197.985L77.8622 197.925L77.8664 197.915L77.8622 197.856L77.8664 197.846L77.8622 197.786L77.8664 197.777L77.8622 197.717L77.8664 197.707L77.8622 197.647L77.8664 197.638L77.8622 197.578L77.8664 197.568L77.8622 197.508L77.8664 197.499L77.8622 197.439L77.8664 197.429L77.8622 197.369L77.8664 197.36L77.8622 197.3L77.8664 197.291C77.9067 197.208 77.7617 197.14 77.5466 197.14H72.5498C72.3739 197.125 72.199 197.179 72.0626 197.291L70.8809 199.192L70.8851 199.255L70.8809 199.261L70.8851 199.325L70.8809 199.33L70.8851 199.395L70.8809 199.4L70.8851 199.464L70.8809 199.469L70.8851 199.533L70.8809 199.539L70.8851 199.603L70.8809 199.609L70.8851 199.672L70.8809 199.678L70.8851 199.741L70.8809 199.748L70.8851 199.811L70.8809 199.817L70.8851 199.881L70.8809 199.886L70.8851 199.95L70.8809 199.956V199.993H69.1241L70.1817 198.401V198.335V198.268V198.201V198.197V198.131V198.064V198.061V197.995V197.928V197.925V197.858V197.791V197.724V197.657V197.59V197.523V197.456V197.39V197.323C70.2341 197.24 70.1048 197.172 69.8871 197.172H64.8903C64.7071 197.161 64.5257 197.214 64.378 197.323L62.8639 199.224V199.989L62.8545 200.025H61.1605L62.4971 198.433V198.357V198.288V198.218V198.15V198.08V198.01V197.316C62.5541 197.236 62.4385 197.172 62.226 197.172H57.2318C57.0402 197.164 56.8508 197.216 56.6912 197.323L54.8439 199.224L54.8397 199.304V199.999L54.8287 200.025H51.8242C51.6216 200.016 51.4208 200.068 51.2486 200.175L49.2934 202.076L49.2882 202.156V203.201C49.2269 203.279 49.3473 203.34 49.5781 203.34H50.8445L49.2573 204.973V205.047V205.811L49.2484 205.841H49.0888C48.872 205.828 48.6562 205.88 48.4697 205.991L46.6296 207.892V209.006C46.5537 209.087 46.7086 209.153 46.9782 209.153H53.2126C53.4293 209.169 53.6456 209.117 53.8307 209.003L55.4185 207.102V206.684V206.475V206.336V206.267L55.4263 206.231H55.4823C55.6904 206.246 55.8977 206.194 56.0737 206.082L57.6709 204.181V203.053C57.7379 202.97 57.5961 202.905 57.3491 202.905H55.9669L57.4323 201.27V201.195V200.501L57.4422 200.469H59.1692L57.8085 202.061V203.174C57.7431 203.256 57.8823 203.323 58.1225 203.323H59.5837L58.2832 204.955V205.022V205.09V205.157V205.224V205.291V205.358V205.425V205.428V205.495V205.562V205.628V205.695V205.763L58.2785 205.797H58.2633C58.0552 205.781 57.8476 205.834 57.6725 205.947L56.1653 207.848L56.1684 207.914L56.1653 207.918L56.1684 207.983L56.1653 207.987L56.1684 208.053L56.1653 208.057L56.1684 208.122L56.1653 208.125L56.1684 208.192L56.1653 208.195L56.1684 208.261L56.1653 208.265L56.1684 208.331L56.1653 208.334L56.1684 208.4L56.1653 208.404L56.1684 208.47H56.1653L56.1684 208.536L56.1653 208.54L56.1684 208.606L56.1653 208.609L56.1684 208.675L56.1653 208.679L56.1684 208.745L56.1653 208.748L56.1684 208.814L56.1653 208.818L56.1684 208.883L56.1653 208.887L56.1684 208.953L56.1653 208.957C56.0999 209.039 56.2699 209.107 56.54 209.107H62.775C62.9837 209.126 63.1928 209.073 63.3669 208.957L64.6229 207.055L64.6182 206.993L64.6229 206.986L64.6182 206.924L64.6229 206.917L64.6182 206.854L64.6229 206.847L64.6182 206.785L64.6229 206.778L64.6182 206.716L64.6229 206.708L64.6182 206.646L64.6229 206.639L64.6182 206.576L64.6229 206.569L64.6182 206.507L64.6229 206.5L64.6182 206.438L64.6229 206.431L64.6182 206.368L64.6229 206.361L64.6182 206.299L64.6229 206.292L64.6182 206.229L64.6229 206.222V206.182C64.7926 206.19 64.9598 206.139 65.0965 206.038L66.3598 204.137L66.3567 204.072L66.3598 204.067V204.003V203.998L66.3567 203.934L66.3598 203.928L66.3567 203.864L66.3598 203.859L66.3567 203.794L66.3598 203.789V203.725V203.72L66.3567 203.656L66.3598 203.651L66.3567 203.587L66.3598 203.581L66.3567 203.517L66.3598 203.512L66.3567 203.448L66.3598 203.442L66.3567 203.377L66.3598 203.373L66.3567 203.309L66.3598 203.303L66.3567 203.239L66.3598 203.234V203.23C66.4535 203.279 66.5589 203.301 66.6644 203.294H68.3197L67.3055 204.927L67.3107 204.987L67.3055 204.996L67.3118 205.057L67.3055 205.066L67.3107 205.127L67.3055 205.135L67.3118 205.197L67.3055 205.205L67.3107 205.266L67.3055 205.274L67.3107 205.335L67.3055 205.343L67.3107 205.404L67.3055 205.413L67.3107 205.474L67.3055 205.482L67.3118 205.543L67.3055 205.552L67.3107 205.613L67.3055 205.621L67.3107 205.683L67.3055 205.691L67.3107 205.751L67.3055 205.76V205.803C67.1489 205.798 66.9957 205.848 66.8722 205.944L65.6967 207.845L65.7036 207.905L65.6967 207.915L65.7025 207.975L65.6967 207.984L65.7036 208.045L65.6967 208.054L65.7036 208.114L65.6967 208.123L65.7036 208.184L65.6967 208.193L65.7025 208.253L65.6967 208.262L65.7036 208.322L65.6967 208.332L65.7036 208.392L65.6967 208.401L65.7036 208.461L65.6967 208.47L65.7036 208.531L65.6967 208.54L65.7025 208.6L65.6967 208.609L65.7036 208.67L65.6967 208.679L65.7036 208.739L65.6967 208.748L65.7036 208.809L65.6967 208.818L65.7025 208.878L65.6967 208.887L65.7036 208.947L65.6967 208.957C65.6444 209.039 65.8255 209.107 66.0971 209.107H72.3342C72.6074 209.107 72.8575 209.039 72.8973 208.957L73.8205 207.055L73.8121 207.003L73.8205 206.987L73.8121 206.935L73.8205 206.919L73.8121 206.867L73.8205 206.852L73.8121 206.799L73.8205 206.784L73.8121 206.731L73.8205 206.715L73.8121 206.663L73.8205 206.648L73.8121 206.596L73.8205 206.579L73.8121 206.527L73.8205 206.511L73.8121 206.459L73.8205 206.443L73.8121 206.391L73.8205 206.374L73.8121 206.322L73.8205 206.307L73.8121 206.254L73.8205 206.239L73.8121 206.186C73.9691 206.161 74.091 206.114 74.1193 206.058L75.0477 204.157L75.0424 204.101L75.0477 204.088L75.0424 204.031L75.0477 204.018L75.0424 203.961L75.0477 203.949L75.0424 203.893L75.0477 203.879L75.0424 203.822L75.0477 203.81L75.0424 203.753L75.0477 203.741L75.0424 203.684L75.0477 203.671L75.0424 203.614L75.0477 203.601L75.0424 203.546L75.0477 203.532L75.0424 203.475L75.0477 203.462L75.0424 203.406L75.0477 203.393L75.0424 203.336L75.0477 203.324V203.303C75.0996 203.311 75.1521 203.314 75.2047 203.314H77.0562L76.3272 204.947L76.3366 204.999L76.3272 205.019L76.3366 205.069L76.3272 205.089L76.3366 205.138L76.3272 205.158L76.3366 205.21L76.3272 205.23L76.3366 205.279L76.3272 205.3L76.3366 205.348L76.3272 205.369L76.3366 205.418L76.3272 205.439L76.3366 205.488L76.3272 205.508L76.3366 205.557L76.3272 205.578L76.3366 205.627L76.3272 205.647L76.3366 205.699L76.3272 205.719L76.3366 205.768L76.3272 205.788L76.3366 205.837L76.3304 205.853C76.198 205.88 76.0949 205.922 76.0718 205.973L75.2314 207.874L75.2418 207.92L75.2314 207.944L75.2418 207.99L75.2314 208.013L75.2418 208.059L75.2314 208.083L75.2418 208.128L75.2314 208.151L75.2418 208.198L75.2314 208.221L75.2418 208.268L75.2314 208.291L75.2418 208.337L75.2314 208.36L75.2418 208.407L75.2314 208.429L75.2418 208.475L75.2314 208.498L75.2418 208.545L75.2314 208.568L75.2418 208.614L75.2314 208.637L75.2418 208.684L75.2314 208.707L75.2418 208.753L75.2314 208.776L75.2418 208.823L75.2314 208.846L75.2418 208.892L75.2314 208.915L75.2418 208.962L75.2314 208.985C75.1947 209.067 75.3884 209.135 75.6568 209.135H81.8986C82.1702 209.135 82.4125 209.067 82.4392 208.985L83.0285 207.084L83.0165 207.05L83.0285 207.015L83.0165 206.981L83.0285 206.945L83.0165 206.911L83.0285 206.876L83.0165 206.842L83.0285 206.806L83.0165 206.773L83.0285 206.737L83.0165 206.703L83.0285 206.668L83.0165 206.633L83.0285 206.598L83.0165 206.564L83.0285 206.528L83.0165 206.495L83.0285 206.459L83.0165 206.425L83.0285 206.389L83.0165 206.356L83.0285 206.32L83.0165 206.286L83.0285 206.251L83.0165 206.217L83.0285 206.182L83.0196 206.155C83.0861 206.129 83.1363 206.102 83.1473 206.066L83.745 204.165L83.7334 204.128L83.745 204.095L83.7334 204.059L83.745 204.026L83.7334 203.99L83.745 203.956L83.7334 203.92L83.745 203.887L83.7334 203.85L83.745 203.817L83.7334 203.781L83.745 203.748L83.7334 203.712L83.745 203.679L83.7334 203.642L83.745 203.609L83.7334 203.573L83.745 203.54L83.7334 203.503L83.745 203.47L83.7334 203.434L83.745 203.401L83.7334 203.364L83.745 203.331L83.7418 203.321H83.7554H85.799L85.3563 204.954L85.3668 204.984L85.3563 205.023L85.3668 205.054L85.3563 205.093L85.3668 205.122L85.3563 205.162L85.3668 205.193L85.3563 205.232L85.3668 205.262L85.3563 205.301L85.3668 205.331L85.3563 205.37L85.3668 205.401L85.3563 205.44L85.3668 205.47L85.3563 205.509L85.3668 205.54L85.3563 205.579L85.3668 205.609L85.3563 205.648L85.3668 205.679L85.3563 205.718L85.3668 205.748L85.3563 205.787L85.3668 205.817L85.3563 205.857L85.3668 205.886L85.3636 205.901L85.2809 205.972L84.7723 207.873L84.7843 207.901L84.7723 207.943L84.7833 207.971L84.7723 208.011L84.7843 208.04L84.7723 208.082L84.7833 208.109L84.7723 208.15L84.7833 208.179L84.7723 208.22L84.7833 208.248L84.7723 208.289L84.7843 208.318L84.7723 208.359L84.7833 208.388L84.7723 208.428L84.7833 208.457L84.7723 208.497L84.7843 208.526L84.7723 208.567L84.7833 208.595L84.7723 208.636L84.7843 208.665L84.7723 208.706L84.7833 208.735L84.7723 208.775L84.7843 208.804L84.7723 208.845L84.7833 208.873L84.7723 208.914L84.7843 208.943L84.7723 208.984C84.7503 209.066 84.9518 209.134 85.2234 209.134H120.513C120.784 209.134 120.979 209.066 120.946 208.984L120.935 208.956L120.946 208.914L120.935 208.887L120.946 208.845L120.935 208.817L120.946 208.775L120.935 208.748L120.946 208.706L120.935 208.678L120.946 208.636L120.935 208.609L120.946 208.567L120.935 208.54L120.946 208.497L120.935 208.469L120.946 208.428L120.935 208.4L120.946 208.359L120.935 208.331L120.946 208.289L120.935 208.261L120.946 208.22L120.935 208.192L120.946 208.15L120.935 208.123L120.946 208.082L120.935 208.053L120.946 208.011L120.935 207.984L120.946 207.943L120.935 207.914L120.946 207.873L120.191 205.972C120.159 205.889 119.92 205.822 119.66 205.822H119.231L119.24 205.787L119.231 205.761L119.24 205.718L119.231 205.691L119.24 205.648L119.231 205.622L119.24 205.579L119.231 205.552L119.24 205.509L119.231 205.483L119.24 205.44L119.231 205.413L119.24 205.37L119.231 205.343L119.24 205.301L119.231 205.274L119.24 205.232L119.231 205.205L119.24 205.162L119.231 205.136L119.24 205.093L119.231 205.066L119.24 205.023L119.231 204.996L119.24 204.954L118.612 203.321H120.638V203.33L120.646 203.35L120.638 203.4L120.646 203.42L120.638 203.469L120.646 203.489L120.638 203.542L120.646 203.561L120.638 203.61L120.646 203.63L120.638 203.683L120.646 203.702L120.638 203.754L120.646 203.773L120.638 203.826L120.646 203.846L120.638 203.898L120.646 203.918L120.638 203.967L120.646 203.987L120.638 204.039L120.646 204.059L120.638 204.112L120.646 204.131L120.638 204.181L121.454 206.082C121.489 206.164 121.725 206.231 121.982 206.231H122.097L122.089 206.267L122.1 206.289L122.089 206.336L122.1 206.358L122.089 206.405L122.1 206.428L122.089 206.475L122.1 206.498L122.089 206.544L122.1 206.567L122.089 206.614L122.1 206.636L122.089 206.684L122.1 206.706L122.089 206.753L122.1 206.775L122.089 206.822L122.1 206.845L122.089 206.892L122.1 206.914L122.089 206.961L122.1 206.983L122.089 207.031L122.1 207.053L122.089 207.1L122.913 209.001C122.949 209.084 123.198 209.151 123.47 209.151H129.7C129.971 209.151 130.155 209.084 130.109 209.001L130.102 208.99L130.109 208.931L130.102 208.921L130.109 208.862L130.102 208.851L130.109 208.793L130.102 208.782L130.109 208.724L130.102 208.713L130.109 208.653L130.102 208.643L130.109 208.584L130.102 208.574L130.109 208.514L130.102 208.504L130.109 208.446L130.102 208.435L130.109 208.376L130.102 208.365L130.109 208.307L130.102 208.296L130.109 208.237L130.102 208.226L130.109 208.167L130.102 208.157L130.109 208.099L130.102 208.087L130.109 208.029L130.102 208.018L130.109 207.96L130.102 207.949L130.109 207.89L129.033 205.989C128.987 205.906 128.737 205.839 128.476 205.839H128.261V205.804L128.256 205.794L128.261 205.735L128.255 205.725L128.261 205.665L128.255 205.656L128.261 205.597L128.255 205.586L128.261 205.526L128.255 205.517L128.261 205.458L128.255 205.447L128.261 205.387L128.255 205.378L128.261 205.319L128.256 205.308L128.261 205.249L128.255 205.239L128.261 205.18L128.255 205.17L128.261 205.11L128.255 205.1L128.261 205.041L128.255 205.031L128.261 204.971L127.344 203.338H129.32V203.348L129.325 203.355L129.32 203.417L129.325 203.424L129.32 203.486L129.325 203.494L129.32 203.556L129.325 203.563L129.32 203.625L129.325 203.633L129.32 203.695L129.325 203.702L129.32 203.765L129.325 203.772L129.32 203.834L129.325 203.841L129.32 203.903L129.325 203.911L129.32 203.973L129.325 203.98L129.32 204.042L129.325 204.05L129.32 204.112L129.325 204.119L129.32 204.181L130.471 206.082C130.632 206.198 130.829 206.251 131.027 206.231H131.288V206.267L131.295 206.275L131.288 206.336L131.295 206.345L131.288 206.405L131.295 206.414L131.288 206.475L131.295 206.484L131.288 206.544L131.295 206.553L131.288 206.614L131.295 206.622L131.288 206.684L131.295 206.692L131.288 206.753L131.295 206.761L131.288 206.822L131.295 206.831L131.288 206.892L131.295 206.901L131.288 206.961L131.295 206.97L131.288 207.031L131.295 207.039L131.288 207.1L132.445 209.001C132.616 209.119 132.823 209.172 133.03 209.151H139.265C139.537 209.151 139.707 209.084 139.645 209.001L139.641 208.995L139.645 208.931L139.641 208.927L139.645 208.862L139.641 208.857L139.645 208.793L139.641 208.787L139.645 208.724L139.641 208.718L139.645 208.653L139.641 208.648L139.645 208.584L139.641 208.579L139.645 208.514L139.641 208.51L139.645 208.446L139.641 208.44L139.645 208.376L139.641 208.371L139.645 208.307L139.641 208.301L139.645 208.237L139.641 208.231L139.645 208.167L139.641 208.163L139.645 208.099L139.641 208.093L139.645 208.029L139.641 208.024L139.645 207.96L139.641 207.954L139.645 207.89L138.238 205.989C138.066 205.874 137.861 205.821 137.655 205.839H137.291L137.288 205.804V205.8V205.735V205.731V205.665V205.662V205.597V205.592V205.526V205.522V205.458V205.453V205.387V205.383V205.319V205.314V205.249V205.245V205.18V205.175V205.11V205.106V205.041V205.036V204.971L136.084 203.338H138.012V203.348V204.181L139.494 206.082C139.665 206.195 139.87 206.247 140.074 206.231H140.481L140.485 206.267L140.488 206.27L140.485 206.336V206.339V206.405L140.488 206.409L140.485 206.475H140.488L140.485 206.542L140.488 206.545L140.485 206.611L140.488 206.614L140.485 206.681H140.488L140.485 206.748L140.488 206.751L140.485 206.818H140.488L140.485 206.884L140.488 206.888L140.485 206.954L140.488 206.957L140.485 207.023H140.488L140.485 207.09L141.975 208.991C142.156 209.105 142.37 209.158 142.584 209.141H148.823C149.094 209.141 149.254 209.074 149.178 208.991V207.88L147.437 205.979C147.254 205.867 147.041 205.815 146.827 205.829H146.321L146.312 205.796V205.032V204.961L144.824 203.328H146.702V203.331V203.4V203.47V203.54V203.609V203.678V203.747V203.817V203.887V203.956V204.025V204.095V204.171L148.517 206.072C148.7 206.182 148.912 206.234 149.125 206.221H149.678L149.688 206.252V207.017V207.09L151.509 208.991C151.7 209.102 151.921 209.155 152.142 209.141H158.381C158.642 209.141 158.783 209.078 158.712 209V207.958L158.713 207.951Z" fill="#383597"/>
<path d="M60.9018 199.209C60.7441 199.319 60.5539 199.371 60.3622 199.359H55.1153C54.8871 199.359 54.7667 199.292 54.8473 199.209L56.6947 197.308C56.8542 197.202 57.0436 197.149 57.2353 197.158H62.2295C62.4487 197.158 62.567 197.225 62.4984 197.308L60.9018 199.209V199.209Z" fill="#6C6CB7"/>
<path d="M68.92 199.209C68.7739 199.321 68.5908 199.375 68.4071 199.359H63.158C62.9314 199.359 62.798 199.292 62.865 199.209L64.379 197.308C64.5267 197.199 64.7081 197.146 64.8913 197.157H69.8871C70.1048 197.157 70.2356 197.225 70.1817 197.308L68.9179 199.209H68.92Z" fill="#6C6CB7"/>
<path d="M76.9358 199.209C76.8955 199.292 76.6773 199.359 76.4486 199.359H71.2011C70.9735 199.359 70.8295 199.292 70.8803 199.209L72.0599 197.306C72.1963 197.194 72.3713 197.14 72.5471 197.156H77.5439C77.7606 197.156 77.904 197.223 77.8637 197.306L76.9337 199.207L76.9358 199.209Z" fill="#6C6CB7"/>
<path d="M84.9521 199.209C84.927 199.292 84.7197 199.359 84.4905 199.359H79.2451C79.0164 199.359 78.8615 199.292 78.8992 199.209L79.7465 197.308C79.7836 197.225 79.9898 197.157 80.207 197.157H85.2017C85.4194 197.157 85.5754 197.225 85.5492 197.308L84.9521 199.209Z" fill="#6C6CB7"/>
<path d="M92.9689 199.209C92.9574 199.292 92.7632 199.359 92.5345 199.359H87.2886C87.061 199.359 86.894 199.292 86.916 199.209L87.4325 197.308C87.4545 197.225 87.6492 197.157 87.8659 197.157H92.8621C93.0809 197.157 93.2468 197.225 93.2358 197.308L92.971 199.209H92.9689Z" fill="#6C6CB7"/>
<path d="M100.987 199.209C100.987 199.292 100.806 199.359 100.579 199.359H95.3307C95.1031 199.359 94.9236 199.292 94.9309 199.209L95.1146 197.308C95.1224 197.225 95.3061 197.157 95.5228 197.157H100.519C100.737 197.157 100.915 197.225 100.918 197.308L100.987 199.209V199.209Z" fill="#6C6CB7"/>
<path d="M109.004 199.209C109.022 199.292 108.847 199.359 108.622 199.359H103.374C103.146 199.359 102.955 199.292 102.95 199.209L102.799 197.308C102.793 197.225 102.963 197.157 103.18 197.157H108.177C108.393 197.157 108.585 197.225 108.602 197.308L109.004 199.209Z" fill="#6C6CB7"/>
<path d="M117.02 199.209C117.051 199.292 116.893 199.359 116.664 199.359H111.415C111.187 199.359 110.985 199.292 110.964 199.209L110.481 197.308C110.461 197.225 110.62 197.157 110.837 197.157H115.832C116.05 197.157 116.251 197.225 116.284 197.308L117.017 199.209H117.02Z" fill="#6C6CB7"/>
<path d="M125.038 199.209C125.084 199.292 124.937 199.359 124.708 199.359H119.461C119.233 199.359 119.019 199.292 118.983 199.209L118.166 197.306C118.132 197.223 118.279 197.155 118.496 197.155H123.491C123.577 197.147 123.664 197.156 123.746 197.182C123.828 197.208 123.905 197.25 123.97 197.306L125.038 199.207L125.038 199.209Z" fill="#6C6CB7"/>
<path d="M133.053 199.209C133.114 199.292 132.979 199.359 132.75 199.359H127.504C127.322 199.376 127.142 199.322 126.999 199.209L125.848 197.308C125.796 197.225 125.935 197.158 126.152 197.158H131.148C131.329 197.145 131.508 197.198 131.652 197.308L133.051 199.209H133.053Z" fill="#6C6CB7"/>
<path d="M141.073 199.209C141.147 199.292 141.023 199.359 140.795 199.359H135.547C135.359 199.372 135.171 199.319 135.018 199.209L133.536 197.308C133.471 197.225 133.596 197.158 133.812 197.158H138.807C138.996 197.148 139.183 197.201 139.339 197.308L141.073 199.209Z" fill="#6C6CB7"/>
<path d="M149.087 199.209C149.178 199.292 149.064 199.359 148.836 199.359H143.59C143.393 199.369 143.198 199.317 143.033 199.209L141.218 197.308C141.14 197.225 141.252 197.158 141.469 197.158H146.464C146.661 197.151 146.855 197.203 147.021 197.308L149.087 199.209V199.209Z" fill="#6C6CB7"/>
<path d="M56.0775 204.956C55.9017 205.068 55.6942 205.12 55.4862 205.105H49.584C49.326 205.105 49.1826 205.039 49.2622 204.956L51.1111 203.055C51.2882 202.946 51.4949 202.893 51.703 202.905H57.3545C57.602 202.905 57.7449 202.972 57.6763 203.055L56.0791 204.956H56.0775Z" fill="#6C6CB7"/>
<path d="M65.0999 204.956C64.9361 205.071 64.7363 205.124 64.5368 205.105H58.6336C58.3766 205.105 58.2207 205.038 58.2866 204.956L59.8006 203.055C59.9668 202.942 60.1662 202.89 60.3663 202.905H66.0183C66.2648 202.905 66.4187 202.971 66.3637 203.055L65.1004 204.956H65.0999Z" fill="#6C6CB7"/>
<path d="M74.125 204.956C74.0836 205.039 73.8424 205.105 73.5849 205.105H67.6827C67.4247 205.105 67.2578 205.039 67.3091 204.956L68.4918 203.055C68.646 202.94 68.838 202.886 69.0298 202.905H74.6818C74.9283 202.905 75.0952 202.972 75.0534 203.055L74.125 204.956Z" fill="#6C6CB7"/>
<path d="M83.1465 204.956C83.1208 205.038 82.8911 205.105 82.6336 205.105H76.7309C76.4735 205.105 76.2945 205.038 76.3322 204.956L77.1815 203.055C77.2182 202.971 77.4474 202.905 77.6939 202.905H83.3459C83.5924 202.905 83.7708 202.971 83.7457 203.055L83.148 204.956H83.1465Z" fill="#6C6CB7"/>
<path d="M92.1722 204.956C92.1597 205.038 91.9425 205.105 91.6845 205.105H85.7807C85.5243 205.105 85.3338 205.038 85.3563 204.956L85.8723 203.055C85.8948 202.971 86.1125 202.905 86.3569 202.905H92.0089C92.2554 202.905 92.4459 202.971 92.4349 203.055L92.1733 204.956H92.1722Z" fill="#6C6CB7"/>
<path d="M101.194 204.956C101.194 205.038 100.99 205.105 100.733 205.105H94.8308C94.5728 205.105 94.3708 205.038 94.3781 204.956L94.5618 203.055C94.5691 202.971 94.7764 202.905 95.0224 202.905H100.674C100.92 202.905 101.123 202.971 101.125 203.055L101.194 204.956Z" fill="#6C6CB7"/>
<path d="M110.218 204.956C110.235 205.039 110.04 205.105 109.783 205.105H103.879C103.622 205.105 103.408 205.039 103.403 204.956L103.251 203.054C103.245 202.97 103.438 202.904 103.683 202.904H109.335C109.581 202.904 109.795 202.97 109.813 203.054L110.215 204.955L110.218 204.956Z" fill="#6C6CB7"/>
<path d="M119.241 204.956C119.273 205.038 119.09 205.105 118.832 205.105H112.928C112.672 205.105 112.447 205.038 112.427 204.956L111.943 203.055C111.923 202.971 112.105 202.905 112.35 202.905H118.002C118.248 202.905 118.473 202.971 118.506 203.055L119.238 204.956H119.241Z" fill="#6C6CB7"/>
<path d="M128.267 204.956C128.313 205.038 128.142 205.105 127.884 205.105H121.981C121.724 205.105 121.488 205.038 121.453 204.956L120.637 203.055C120.601 202.971 120.771 202.905 121.018 202.905H126.67C126.859 202.885 127.05 202.939 127.201 203.055L128.267 204.956H128.267Z" fill="#6C6CB7"/>
<path d="M137.285 204.956C137.347 205.038 137.188 205.105 136.931 205.105H131.027C130.83 205.125 130.632 205.072 130.472 204.956L129.321 203.055C129.271 202.971 129.43 202.905 129.678 202.905H135.331C135.528 202.889 135.725 202.942 135.887 203.055L137.287 204.956H137.285Z" fill="#6C6CB7"/>
<path d="M146.311 204.956C146.387 205.039 146.237 205.105 145.979 205.105H140.077C139.872 205.121 139.668 205.069 139.496 204.956L138.014 203.055C137.949 202.972 138.097 202.905 138.343 202.905H143.995C144.201 202.892 144.406 202.945 144.58 203.055L146.313 204.956H146.311Z" fill="#6C6CB7"/>
<path d="M155.332 204.956C155.422 205.038 155.285 205.105 155.029 205.105H149.126C148.913 205.118 148.701 205.066 148.518 204.956L146.703 203.055C146.624 202.971 146.76 202.905 147.006 202.905H152.658C152.871 202.895 153.083 202.947 153.267 203.055L155.332 204.956H155.332Z" fill="#6C6CB7"/>
<path d="M55.733 202.061C55.5622 202.171 55.3604 202.224 55.1574 202.211H49.5839C49.3411 202.211 49.2134 202.144 49.2992 202.061L51.2544 200.16C51.4266 200.053 51.6274 200 51.83 200.01H57.1513C57.3857 200.01 57.5124 200.077 57.4381 200.16L55.733 202.061Z" fill="#6C6CB7"/>
<path d="M64.2477 202.061C64.0884 202.174 63.8945 202.227 63.6998 202.211H58.1263C57.8845 202.211 57.7437 202.144 57.8123 202.061L59.4346 200.16C59.5956 200.051 59.7883 199.998 59.9825 200.01H65.3096C65.5403 200.01 65.6811 200.077 65.6236 200.16L64.2519 202.061H64.2477Z" fill="#6C6CB7"/>
<path d="M72.7642 202.061C72.6162 202.178 72.4283 202.232 72.2408 202.211H66.6705C66.4282 202.211 66.2769 202.144 66.3345 202.061L67.6229 200.16C67.7731 200.048 67.9593 199.994 68.1463 200.01H73.467C73.6988 200.01 73.849 200.078 73.804 200.16L72.7668 202.061H72.7642Z" fill="#6C6CB7"/>
<path d="M81.2809 202.06C81.2489 202.144 81.0255 202.211 80.7842 202.211H75.2102C74.9705 202.211 74.8067 202.144 74.8496 202.06L75.8052 200.16C75.8471 200.077 76.07 200.01 76.2998 200.01H81.621C81.8518 200.01 82.0172 200.077 81.9874 200.16L81.283 202.06H81.2809Z" fill="#6C6CB7"/>
<path d="M89.796 202.06C89.7803 202.144 89.5699 202.211 89.325 202.211H83.7552C83.5113 202.211 83.3365 202.144 83.3642 202.06L83.988 200.16C84.0152 200.077 84.2256 200.01 84.459 200.01H89.7787C90.0111 200.01 90.1859 200.077 90.1697 200.16L89.7965 202.06H89.796Z" fill="#6C6CB7"/>
<path d="M98.3124 202.06C98.3124 202.144 98.112 202.211 97.8697 202.211H92.2972C92.0538 202.211 91.866 202.144 91.8785 202.06L92.17 200.16C92.1821 200.077 92.3794 200.01 92.6138 200.01H97.9345C98.1664 200.01 98.3532 200.077 98.3532 200.16L98.3129 202.06H98.3124Z" fill="#6C6CB7"/>
<path d="M106.828 202.06C106.841 202.144 106.654 202.211 106.413 202.211H100.84C100.597 202.211 100.398 202.144 100.397 202.06L100.355 200.16C100.355 200.077 100.539 200.01 100.774 200.01H106.095C106.327 200.01 106.525 200.077 106.538 200.16L106.83 202.06H106.828Z" fill="#6C6CB7"/>
<path d="M115.346 202.06C115.374 202.144 115.199 202.211 114.957 202.211H109.383C109.14 202.211 108.93 202.144 108.912 202.06L108.537 200.16C108.522 200.077 108.697 200.01 108.929 200.01H114.25C114.482 200.01 114.691 200.077 114.718 200.16L115.346 202.06H115.346Z" fill="#6C6CB7"/>
<path d="M123.862 202.06C123.903 202.144 123.74 202.211 123.498 202.211H117.925C117.683 202.211 117.461 202.144 117.43 202.06L116.723 200.16C116.691 200.077 116.855 200.01 117.086 200.01H122.405C122.637 200.01 122.86 200.077 122.902 200.16L123.86 202.06H123.862Z" fill="#6C6CB7"/>
<path d="M132.377 202.061C132.434 202.144 132.283 202.211 132.04 202.211H126.468C126.226 202.211 125.991 202.144 125.945 202.061L124.905 200.16C124.859 200.077 125.009 200.01 125.241 200.01H130.563C130.75 199.994 130.936 200.047 131.086 200.16L132.377 202.061V202.061Z" fill="#6C6CB7"/>
<path d="M140.894 202.061C140.965 202.144 140.824 202.211 140.582 202.211H135.01C134.815 202.227 134.621 202.174 134.462 202.061L133.089 200.16C133.029 200.077 133.169 200.01 133.403 200.01H138.723C138.918 199.998 139.11 200.051 139.271 200.16L140.894 202.061V202.061Z" fill="#6C6CB7"/>
<path d="M149.409 202.061C149.496 202.144 149.371 202.211 149.126 202.211H143.553C143.35 202.224 143.148 202.171 142.978 202.061L141.273 200.16C141.197 200.077 141.325 200.01 141.557 200.01H146.879C147.081 200.001 147.28 200.053 147.452 200.16L149.409 202.061Z" fill="#6C6CB7"/>
<path d="M157.271 202.061C157.37 202.144 157.254 202.211 157.009 202.211H151.439C151.228 202.221 151.02 202.168 150.839 202.061L148.826 200.16C148.738 200.077 148.857 200.01 149.088 200.01H154.41C154.619 200.003 154.826 200.055 155.008 200.16L157.272 202.061H157.271Z" fill="#6C6CB7"/>
<path d="M63.3726 207.875C63.1987 207.992 62.9895 208.045 62.7807 208.025H56.5431C56.271 208.025 56.103 207.958 56.1684 207.875L57.6756 205.974C57.8508 205.861 58.0584 205.808 58.2665 205.824H64.2518C64.5135 205.824 64.6794 205.891 64.6255 205.974L63.3695 207.875H63.3726Z" fill="#6C6CB7"/>
<path d="M72.9024 207.874C72.8626 207.957 72.6124 208.024 72.3393 208.024H66.1022C65.8305 208.024 65.6516 207.957 65.7018 207.874L66.8772 205.974C67.0408 205.857 67.2413 205.804 67.4414 205.824H73.4267C73.6884 205.824 73.8648 205.89 73.8255 205.974L72.9024 207.874V207.874Z" fill="#6C6CB7"/>
<path d="M82.439 207.874C82.4123 207.957 82.17 208.024 81.8984 208.024H75.6624C75.3923 208.024 75.2003 207.957 75.2369 207.874L76.0774 205.974C76.1151 205.89 76.3568 205.824 76.6159 205.824H82.6018C82.8634 205.824 83.0534 205.89 83.0283 205.974L82.439 207.874Z" fill="#6C6CB7"/>
<path d="M120.946 207.874C120.979 207.957 120.784 208.024 120.513 208.024H85.223C84.9514 208.024 84.752 207.957 84.7719 207.874L85.2806 205.974C85.3031 205.89 85.5307 205.824 85.7903 205.824H119.659C119.921 205.824 120.158 205.89 120.191 205.974L120.946 207.874V207.874Z" fill="#6C6CB7"/>
<path d="M130.11 207.874C130.156 207.957 129.972 208.024 129.701 208.024H123.466C123.194 208.024 122.943 207.957 122.909 207.874L122.085 205.974C122.051 205.89 122.231 205.824 122.493 205.824H128.476C128.738 205.824 128.986 205.89 129.033 205.974L130.109 207.874H130.11Z" fill="#6C6CB7"/>
<path d="M139.643 207.875C139.704 207.958 139.535 208.025 139.263 208.025H133.029C132.822 208.046 132.615 207.993 132.444 207.875L131.287 205.974C131.237 205.891 131.408 205.824 131.67 205.824H137.654C137.859 205.806 138.065 205.859 138.236 205.974L139.644 207.875H139.643Z" fill="#6C6CB7"/>
<path d="M149.179 207.875C149.256 207.958 149.095 208.025 148.824 208.025H142.586C142.372 208.042 142.159 207.99 141.977 207.875L140.488 205.974C140.423 205.891 140.584 205.824 140.843 205.824H146.828C147.042 205.81 147.255 205.862 147.438 205.974L149.179 207.875V207.875Z" fill="#6C6CB7"/>
<path d="M158.711 207.874C158.803 207.957 158.656 208.024 158.384 208.024H152.145C151.924 208.038 151.703 207.986 151.512 207.874L149.691 205.974C149.61 205.89 149.758 205.824 150.016 205.824H156.003C156.225 205.813 156.445 205.865 156.639 205.974L158.711 207.874H158.711Z" fill="#6C6CB7"/>
<path d="M155.861 179.477H155.842V125.048H155.861V179.477Z" fill="#636CA9"/>
<path d="M2.02042 179.477H2V123.697H2.02042V179.477Z" fill="#636CA9"/>
<path d="M93.9882 148.933L93.4648 148.615C93.645 148.711 93.8197 148.817 93.9882 148.933" fill="#967EB8"/>
<path d="M115.17 109.08C115.17 109.531 114.99 109.963 114.671 110.282C114.352 110.601 113.919 110.78 113.468 110.78H92.1648C91.7133 110.78 91.2802 110.601 90.9609 110.282C90.6415 109.963 90.4621 109.531 90.4619 109.08V105.334C90.4621 104.883 90.6415 104.451 90.9609 104.132C91.2802 103.814 91.7133 103.635 92.1648 103.635H113.468C113.919 103.635 114.352 103.814 114.671 104.133C114.99 104.451 115.17 104.884 115.17 105.334V109.08Z" fill="#7676E3"/>
<path d="M72.7184 120.42C72.7184 120.42 75.142 104.771 88.6801 106.341L89.0653 72.4875C89.0653 72.4875 66.2479 75.2499 72.7205 120.42H72.7184Z" fill="#4E4EE3"/>
<path d="M116.568 72.4875L116.954 106.341C130.49 104.773 132.916 120.42 132.916 120.42C139.389 75.2499 116.57 72.4875 116.57 72.4875H116.568Z" fill="#4E4EE3"/>
<path d="M80.9935 79.8616C80.9479 79.9113 79.0613 81.9579 77.1841 86.0919C75.3069 90.2259 73.4428 96.4458 73.4434 104.815C73.4434 106.32 73.5035 107.897 73.6349 109.542C73.6431 109.645 73.6715 109.745 73.7184 109.836C73.7653 109.928 73.8299 110.01 73.9084 110.076C73.9868 110.143 74.0777 110.194 74.1758 110.226C74.2739 110.257 74.3773 110.269 74.4801 110.261C74.5829 110.253 74.683 110.225 74.7748 110.178C74.8666 110.131 74.9483 110.067 75.0152 109.988C75.082 109.91 75.1328 109.819 75.1645 109.721C75.1963 109.623 75.2084 109.52 75.2002 109.417C75.072 107.813 75.0134 106.279 75.0134 104.815C75.0134 96.6788 76.8204 90.6904 78.6139 86.7388C79.302 85.2015 80.1236 83.7272 81.0694 82.3331C81.4017 81.8503 81.6764 81.4924 81.8654 81.2583C81.9596 81.1412 82.0328 81.0555 82.0804 81.0002L82.1328 80.9406L82.1443 80.9281L81.9161 80.7191L82.1438 80.9281L81.9156 80.7191L82.1432 80.9281C82.2807 80.775 82.3524 80.5741 82.3429 80.3687C82.3334 80.1633 82.2434 79.9698 82.0923 79.8301C81.9413 79.6903 81.7413 79.6154 81.5354 79.6215C81.3296 79.6276 81.1344 79.7142 80.9919 79.8627L80.9935 79.8616Z" fill="white"/>
<path d="M123.488 80.9261L123.907 80.5415L123.488 80.9256L123.907 80.541L123.488 80.925L123.505 80.9444C123.896 81.3869 130.618 89.1199 130.623 104.813C130.623 106.276 130.564 107.812 130.436 109.417C130.428 109.52 130.44 109.623 130.472 109.721C130.504 109.819 130.555 109.909 130.622 109.988C130.689 110.066 130.77 110.13 130.862 110.177C130.954 110.224 131.054 110.252 131.157 110.26C131.26 110.268 131.363 110.256 131.461 110.224C131.559 110.193 131.65 110.142 131.728 110.075C131.887 109.94 131.985 109.748 132.002 109.541C132.132 107.895 132.193 106.32 132.193 104.813C132.193 96.4449 130.329 90.2234 128.452 86.091C126.576 81.9585 124.688 79.9103 124.643 79.8607C124.573 79.7832 124.489 79.7204 124.395 79.6758C124.301 79.6312 124.199 79.6057 124.095 79.6009C123.991 79.5961 123.887 79.6121 123.789 79.6478C123.691 79.6835 123.601 79.7383 123.525 79.809C123.448 79.8797 123.387 79.9649 123.344 80.0596C123.301 80.1543 123.277 80.2566 123.274 80.3606C123.271 80.4646 123.288 80.5681 123.326 80.6652C123.363 80.7623 123.42 80.851 123.492 80.9261H123.488Z" fill="white"/>
<path d="M110.397 110.78H95.2354C95.2354 110.78 82.9439 132.192 102.809 144.733V144.743L102.817 144.738L102.824 144.743V144.733C122.689 132.193 110.397 110.78 110.397 110.78V110.78Z" fill="#FFBF80"/>
<path d="M106.345 110.78H99.4963C99.4963 110.78 87.087 127.671 102.759 137.564V137.572L102.764 137.568L102.77 137.572V137.564C118.441 127.671 106.345 110.78 106.345 110.78V110.78Z" fill="#FF8000"/>
<path d="M103.598 110.78H102.028C102.028 110.78 94.1453 123.105 102.82 131.011V131.017H102.825H102.829V131.011C111.481 121.984 103.598 110.78 103.598 110.78Z" fill="#FFA040"/>
<path d="M102.817 23C102.817 23 84.1505 40.1824 87.9875 98.9365H117.646C121.483 40.1824 102.817 23 102.817 23Z" fill="url(#paint0_linear)"/>
<path d="M102.817 23C102.541 23.2676 102.279 23.549 102.032 23.8433V98.9365H103.602V23.8433C103.106 23.2686 102.817 23 102.817 23Z" fill="#4E4EE3"/>
<path d="M112.642 41.81C108.242 27.9993 102.817 23 102.817 23C102.817 23 97.3919 27.9998 92.9922 41.81H112.642Z" fill="#4E4EE3"/>
<path d="M114.33 70.0251C114.33 72.2986 113.655 74.521 112.39 76.4114C111.125 78.3017 109.327 79.7751 107.223 80.6451C105.119 81.5151 102.804 81.7428 100.571 81.2992C98.3375 80.8557 96.2861 79.7609 94.6759 78.1533C93.0657 76.5457 91.9692 74.4975 91.5249 72.2677C91.0807 70.0378 91.3087 67.7266 92.1801 65.6261C93.0515 63.5257 94.5272 61.7304 96.4206 60.4673C98.3139 59.2043 100.54 58.5301 102.817 58.5301C105.871 58.5301 108.799 59.7412 110.958 61.8969C113.117 64.0526 114.33 66.9764 114.33 70.0251Z" fill="#4E4EE3"/>
<path d="M111.484 70.0253C111.484 71.7369 110.976 73.4101 110.024 74.8333C109.071 76.2565 107.717 77.3657 106.133 78.0207C104.549 78.6757 102.807 78.8471 101.125 78.5131C99.4437 78.1791 97.8993 77.3549 96.6871 76.1445C95.4748 74.9341 94.6493 73.3921 94.3149 71.7133C93.9805 70.0345 94.1523 68.2944 94.8084 66.7131C95.4645 65.1318 96.5756 63.7802 98.0011 62.8293C99.4266 61.8785 101.103 61.371 102.817 61.3711C103.955 61.3711 105.082 61.5949 106.134 62.0299C107.186 62.4648 108.141 63.1023 108.946 63.9059C109.751 64.7095 110.389 65.6635 110.825 66.7135C111.26 67.7635 111.484 68.8888 111.484 70.0253" fill="#D1D1F4"/>
<path d="M118.165 104.341C118.165 104.901 117.943 105.438 117.546 105.834C117.149 106.23 116.611 106.453 116.05 106.453H89.5831C89.3053 106.453 89.0302 106.398 88.7735 106.292C88.5168 106.186 88.2836 106.03 88.0872 105.834C87.8907 105.638 87.7349 105.405 87.6287 105.149C87.5224 104.893 87.4677 104.618 87.4678 104.341V99.6873C87.4678 99.1271 87.6906 98.59 88.0873 98.1939C88.484 97.7978 89.0221 97.5753 89.5831 97.5753H116.05C116.611 97.5753 117.149 97.7978 117.546 98.1939C117.943 98.59 118.165 99.1271 118.165 99.6873V104.341Z" fill="#4E4EE3"/>
<path d="M104.71 118.53C104.702 119.026 104.499 119.499 104.145 119.846C103.79 120.194 103.314 120.389 102.817 120.389C102.32 120.389 101.843 120.194 101.489 119.846C101.135 119.499 100.932 119.026 100.924 118.53V86.947C100.932 86.4511 101.135 85.9784 101.489 85.6306C101.843 85.2829 102.32 85.088 102.817 85.088C103.314 85.088 103.79 85.2829 104.145 85.6306C104.499 85.9784 104.702 86.4511 104.71 86.947V118.53Z" fill="#4E4EE3"/>
<path d="M105.059 69.5897C104.493 69.5677 103.938 69.4247 103.432 69.1703C102.926 68.9159 102.48 68.5561 102.125 68.1152C100.821 66.5801 100.76 64.4921 101.988 63.4518C102.451 63.0674 103.037 62.8619 103.64 62.8729C104.206 62.895 104.761 63.038 105.267 63.2924C105.773 63.5467 106.219 63.9065 106.574 64.3474C107.879 65.8825 107.94 67.9704 106.712 69.0107C106.248 69.395 105.662 69.6005 105.059 69.5897" fill="#C3E5F4"/>
<path d="M107.856 71.8997C107.647 71.8917 107.442 71.839 107.255 71.7451C107.068 71.6513 106.903 71.5185 106.772 71.3558C106.54 71.1322 106.404 70.8265 106.394 70.5043C106.384 70.182 106.501 69.8687 106.72 69.6315C106.891 69.4897 107.107 69.4139 107.33 69.4178C107.539 69.426 107.743 69.4788 107.93 69.5726C108.117 69.6665 108.282 69.7991 108.413 69.9617C108.646 70.1853 108.781 70.4909 108.791 70.8132C108.801 71.1355 108.684 71.4487 108.465 71.686C108.294 71.8279 108.078 71.9038 107.856 71.8997" fill="#C3E5F4"/>
<path d="M105.466 110.264H113.447C113.655 110.264 113.854 110.181 114.002 110.034C114.149 109.887 114.232 109.688 114.232 109.48C114.232 109.272 114.149 109.073 114.002 108.926C113.854 108.779 113.655 108.696 113.447 108.696H105.466C105.257 108.696 105.058 108.779 104.911 108.926C104.763 109.073 104.681 109.272 104.681 109.48C104.681 109.688 104.763 109.887 104.911 110.034C105.058 110.181 105.257 110.264 105.466 110.264" fill="white"/>
<ellipse cx="151.649" cy="125.917" rx="1.58585" ry="1.58333" fill="#7676E3"/>
<path d="M146.742 125.917C146.742 126.708 146.1 127.35 145.307 127.35C144.513 127.35 143.871 126.708 143.871 125.917C143.871 125.125 144.513 124.483 145.307 124.483C146.1 124.483 146.742 125.125 146.742 125.917Z" stroke="#7676E3" stroke-width="0.3"/>
<path d="M140.399 125.917C140.399 126.708 139.756 127.35 138.963 127.35C138.17 127.35 137.527 126.708 137.527 125.917C137.527 125.125 138.17 124.483 138.963 124.483C139.756 124.483 140.399 125.125 140.399 125.917Z" stroke="#7676E3" stroke-width="0.3"/>
<rect x="76.9498" y="160.693" width="56.7" height="7.7" rx="3.85" stroke="#7676E3" stroke-width="0.3"/>
<defs>
<linearGradient id="paint0_linear" x1="111.077" y1="47.2192" x2="52.6699" y2="54.3238" gradientUnits="userSpaceOnUse">
<stop stop-color="#D1D1F4"/>
<stop offset="0.088" stop-color="#AEAEEB"/>
<stop offset="0.229" stop-color="#8C8CE3"/>
<stop offset="0.373" stop-color="#8C8CE3"/>
<stop offset="0.521" stop-color="#1919C7"/>
<stop offset="0.671" stop-color="#00A69C"/>
<stop offset="0.828" stop-color="#54A600"/>
<stop offset="1" stop-color="#393091"/>
</linearGradient>
</defs>
</svg>
