<svg width="157" height="275" viewBox="0 0 157 275" fill="none" xmlns="http://www.w3.org/2000/svg">
<path d="M17.5732 194.243V219.85C17.5732 227.287 23.2606 234.725 34.6334 240.399C57.383 251.748 94.2652 251.748 117.013 240.399C128.388 234.725 134.075 227.287 134.075 219.85V194.243H17.5732Z" fill="#1919C7"/>
<path d="M17.5732 192.708V218.317C17.5732 225.755 23.2606 233.191 34.6334 238.867C57.383 250.216 94.2652 250.216 117.013 238.867C128.388 233.191 134.075 225.755 134.075 218.317V192.708H17.5732Z" fill="#D1D1F4"/>
<path d="M75.8231 222.368C107.995 222.368 134.075 209.224 134.075 193.008C134.075 176.793 107.995 163.648 75.8231 163.648C43.6515 163.648 17.5713 176.793 17.5713 193.008C17.5713 209.224 43.6515 222.368 75.8231 222.368Z" fill="#1919C7"/>
<path d="M117.014 171.137C139.763 182.486 137.906 201.696 116.803 212.25C94.0647 223.62 57.3877 223.585 34.6342 212.236C11.8807 200.887 11.8866 182.486 34.6342 171.137C57.3819 159.788 94.266 159.782 117.014 171.137Z" fill="#E8EEFF"/>
<path d="M115.54 170.431C138.287 181.78 139.665 200.846 116.908 212.191C94.1504 223.536 57.3738 223.585 34.6262 212.236C11.8785 200.887 11.8785 182.486 34.6262 171.137C57.3738 159.788 92.7901 159.082 115.54 170.431Z" fill="url(#paint0_linear)"/>
<path d="M75.8232 213.478C99.9468 213.478 119.503 203.722 119.503 191.686C119.503 179.651 99.9468 169.895 75.8232 169.895C51.6996 169.895 32.1436 179.651 32.1436 191.686C32.1436 203.722 51.6996 213.478 75.8232 213.478Z" fill="white"/>
<g style="mix-blend-mode:hard-light" opacity="0.4">
<path d="M17.001 51.868L17.5873 191.967C17.5873 199.405 23.1691 206.258 34.2 212.022C56.3456 223.591 93.5952 223.585 116.441 212.431C127.825 206.872 133.503 199.318 133.503 191.882L136.434 105.17L17.001 51.868Z" fill="url(#paint1_linear)"/>
</g>
<path d="M52.6748 31.5872C55.3479 33.1839 57.7436 35.2045 59.7684 37.5699C62.7418 28.0187 71.8102 25.0571 82.5443 31.2514C91.4203 36.376 99.1567 46.4598 103.249 57.1366C104.832 57.2328 106.366 57.7184 107.716 58.5502C113.509 61.8946 118.205 70.0278 118.205 76.7165C118.205 76.8635 118.191 76.992 118.186 77.1324C120.1 77.3176 121.946 77.9357 123.585 78.9397C130.994 83.2172 137 93.6199 137 102.174C137 110.728 130.994 114.196 123.585 109.919L52.6748 68.9837C43.732 63.8202 36.4819 51.2641 36.4819 40.9378C36.4819 30.6115 43.732 26.4273 52.6748 31.5872Z" fill="url(#paint2_linear)"/>
<path d="M52.6746 31.5868C54.1977 32.4794 55.6256 33.5255 56.9359 34.7086L64.8648 30.1277C69.2209 27.0647 75.5262 27.1984 82.5433 31.2496C91.4193 36.3742 99.1558 46.458 103.248 57.1348C104.831 57.231 106.365 57.7166 107.715 58.5483C113.508 61.8927 118.204 70.0259 118.204 76.714C118.204 76.8609 118.19 76.9902 118.185 77.1305C120.099 77.3158 121.945 77.9338 123.584 78.9379C130.993 83.2154 136.999 93.6181 136.999 102.172C136.999 106.412 135.521 109.397 133.131 110.815H133.137L133.076 110.851L133.064 110.857L113.642 122.131L109.401 101.726L52.6746 68.9834C43.7317 63.8199 36.4817 51.2637 36.4817 40.9374C36.4817 30.6111 43.7317 26.427 52.6746 31.5868Z" fill="url(#paint3_radial)"/>
<path d="M21.4601 41.9392L41.1377 30.5064V30.5108C44.0766 28.7615 48.1579 28.9812 52.6726 31.5894C54.1958 32.482 55.6236 33.528 56.9339 34.7111L64.8629 30.1302C69.219 27.0673 75.5242 27.201 82.5414 31.2521C91.4174 36.3767 99.1538 46.4606 103.246 57.1373C104.829 57.2335 106.363 57.7191 107.713 58.5509C113.506 61.8953 118.202 70.0285 118.202 76.7165C118.202 76.8634 118.188 76.9928 118.183 77.1331C120.097 77.3183 121.943 77.9364 123.582 78.9405C130.991 83.2179 136.997 93.6206 136.997 102.175C136.997 106.415 135.519 109.4 133.129 110.817H133.135L133.074 110.853L133.062 110.86L113.64 122.134L109.399 101.728L52.6748 68.983C45.4255 64.7952 39.2907 55.7583 37.2262 46.9785L21.4601 41.9392Z" fill="url(#paint4_linear)"/>
<path d="M33.1931 42.9006C35.866 44.4976 38.2618 46.5181 40.2867 48.8833C43.2593 39.3322 52.3286 36.3706 63.0582 42.5649C71.9349 47.6894 79.6714 57.7733 83.7637 68.45C85.3464 68.5463 86.8808 69.0318 88.2307 69.8636C94.0239 73.2073 98.7194 81.3412 98.7194 88.0292C98.7194 88.1762 98.7054 88.3055 98.701 88.4458C100.614 88.6311 102.46 89.2491 104.1 90.2532C111.508 94.5306 117.515 104.933 117.515 113.488C117.515 122.042 111.508 125.51 104.1 121.232L33.1931 80.2942C24.2503 75.1307 17.0002 62.5739 17.0002 52.2483C17.0002 41.9227 24.2488 37.7349 33.1931 42.9006Z" fill="url(#paint5_linear)"/>
<path d="M33.1931 42.9006C35.866 44.4976 38.2618 46.5181 40.2867 48.8833C43.2593 39.3322 52.3286 36.3706 63.0582 42.5649C71.9349 47.6894 79.6714 57.7733 83.7637 68.45C85.3464 68.5463 86.8808 69.0318 88.2307 69.8636C94.0239 73.2073 98.7194 81.3412 98.7194 88.0292C98.7194 88.1762 98.7054 88.3055 98.701 88.4458C100.614 88.6311 102.46 89.2491 104.1 90.2532C111.508 94.5306 117.515 104.933 117.515 113.488C117.515 122.042 111.508 125.51 104.1 121.232L33.1931 80.2942C24.2503 75.1307 17.0002 62.5739 17.0002 52.2483C17.0002 41.9227 24.2488 37.7349 33.1931 42.9006Z" fill="url(#paint6_linear)"/>
<path opacity="0.5" d="M33.1931 42.9006C35.866 44.4976 38.2618 46.5181 40.2867 48.8833C43.2593 39.3322 52.3286 36.3706 63.0582 42.5649C71.9349 47.6894 79.6714 57.7733 83.7637 68.45C85.3464 68.5463 86.8808 69.0318 88.2307 69.8636C94.0239 73.2073 98.7194 81.3412 98.7194 88.0292C98.7194 88.1762 98.7054 88.3055 98.701 88.4458C100.614 88.6311 102.46 89.2491 104.1 90.2532C111.508 94.5306 117.515 104.933 117.515 113.488C117.515 122.042 111.508 125.51 104.1 121.232L33.1931 80.2942C24.2503 75.1307 17.0002 62.5739 17.0002 52.2483C17.0002 41.9227 24.2488 37.7349 33.1931 42.9006Z" fill="#080881"/>
<path d="M41.2415 49.1805L40.7038 50.9082L39.5271 49.5337C37.5742 47.2526 35.264 45.3037 32.6866 43.7629C28.3994 41.2888 24.753 41.1817 22.2426 42.6312C19.7309 44.0816 18.0002 47.2958 18.0002 52.2483C18.0002 57.1942 19.7432 62.7434 22.6091 67.707C25.475 72.6706 29.4095 76.9549 33.6931 79.4282L104.6 120.366C108.122 122.4 111.076 122.466 113.085 121.306C115.095 120.146 116.515 117.555 116.515 113.488C116.515 109.427 115.083 104.859 112.719 100.766C110.356 96.6735 107.116 93.1495 103.6 91.1192L103.588 91.1127L103.577 91.1059C102.067 90.1811 100.367 89.6118 98.6047 89.4412L97.6721 89.3509L97.7015 88.4144C97.7057 88.2798 97.7102 88.2233 97.7137 88.1802C97.7171 88.1376 97.7194 88.1082 97.7194 88.0292C97.7194 84.902 96.615 81.368 94.7815 78.1923C92.948 75.0166 90.4395 72.2931 87.7308 70.7297L87.7184 70.7225L87.7061 70.715C86.4964 69.9696 85.1213 69.5344 83.703 69.4482L83.0604 69.4091L82.8299 68.8079C78.7997 58.2931 71.1928 48.4157 62.5583 43.4309C57.3453 40.4215 52.6809 39.7194 49.0434 40.7796C45.4396 41.83 42.6463 44.667 41.2415 49.1805Z" fill="url(#paint7_linear)" stroke="#4C49D1" stroke-width="2"/>
<path d="M33.1929 42.9008C35.8661 44.4976 38.2619 46.5182 40.2867 48.8837C40.4197 48.4561 40.5806 48.0579 40.7363 47.6567C38.79 45.444 36.5113 43.5476 33.982 42.0353C28.1946 38.6931 23.1302 39.2867 20.267 42.9067C23.2206 40.0824 27.9029 39.8451 33.1929 42.9008Z" fill="white"/>
<path d="M104.888 89.386C103.249 88.3819 101.402 87.7638 99.4889 87.5786C99.4933 87.4382 99.5072 87.3067 99.5072 87.1627C99.5072 80.4769 94.8117 72.3408 89.0193 68.9964C87.6692 68.1651 86.1349 67.6796 84.5523 67.5828C80.4592 56.9031 72.7235 46.823 63.8468 41.6976C55.4866 36.8714 48.1498 37.6244 43.9039 42.7005C48.2387 38.4186 55.1964 38.0248 63.0577 42.5639C71.9337 47.6884 79.6702 57.7723 83.7625 68.449C85.345 68.5454 86.8794 69.0307 88.2295 69.8619C94.0227 73.2063 98.7182 81.3395 98.7182 88.0282C98.7182 88.1752 98.7042 88.3045 98.6998 88.4448C100.613 88.63 102.459 89.2481 104.098 90.2522C111.507 94.5289 117.513 104.932 117.513 113.487C117.513 116.466 116.772 118.81 115.51 120.443C117.254 118.837 118.302 116.176 118.302 112.621C118.302 104.066 112.297 93.6634 104.888 89.386Z" fill="white"/>
<path d="M62.45 64.6377C62.4586 64.7986 62.5051 64.9551 62.5857 65.0947C62.6663 65.2342 62.7786 65.3528 62.9136 65.4407C63.17 65.5877 63.3779 65.4686 63.3779 65.1733C63.3689 65.0123 63.3222 64.8557 63.2416 64.716C63.1609 64.5764 63.0486 64.4577 62.9136 64.3695C62.6535 64.2218 62.45 64.3416 62.45 64.6377Z" fill="#7676E3"/>
<path d="M60.8318 63.705C60.8409 63.8658 60.8877 64.0223 60.9683 64.1618C61.049 64.3013 61.1613 64.4199 61.2962 64.508C61.5526 64.655 61.7598 64.5367 61.7598 64.2406C61.7509 64.0796 61.7043 63.923 61.6238 63.7834C61.5432 63.6438 61.431 63.5251 61.2962 63.4368C61.0368 63.2891 60.8318 63.4089 60.8318 63.705Z" fill="#7676E3"/>
<path d="M59.2176 62.7708C59.2265 62.9318 59.2732 63.0884 59.3539 63.228C59.4346 63.3676 59.5469 63.4863 59.6819 63.5745C59.9383 63.7215 60.1455 63.6025 60.1455 63.3064C60.1366 63.1454 60.09 62.9889 60.0095 62.8492C59.9289 62.7096 59.8167 62.5909 59.6819 62.5026C59.4233 62.3549 59.2176 62.4747 59.2176 62.7708Z" fill="#7676E3"/>
<path d="M62.45 79.4516C62.4585 79.6126 62.505 79.7693 62.5855 79.909C62.6661 80.0486 62.7785 80.1673 62.9136 80.2554C63.17 80.4023 63.3779 80.2833 63.3779 79.9879C63.3689 79.8269 63.3222 79.6703 63.2416 79.5307C63.1609 79.391 63.0486 79.2723 62.9136 79.1841C62.6535 79.0364 62.45 79.1562 62.45 79.4516Z" fill="#7676E3"/>
<path d="M60.8318 78.5196C60.8409 78.6804 60.8877 78.8369 60.9683 78.9764C61.049 79.1159 61.1613 79.2345 61.2962 79.3226C61.5526 79.4696 61.7598 79.3505 61.7598 79.0552C61.7512 78.8942 61.7048 78.7375 61.6242 78.5978C61.5436 78.4581 61.4313 78.3394 61.2962 78.2514C61.0368 78.1037 60.8318 78.2235 60.8318 78.5196Z" fill="#7676E3"/>
<path d="M59.2176 77.5854C59.2266 77.7463 59.2734 77.9028 59.3541 78.0423C59.4347 78.1818 59.547 78.3004 59.6819 78.3885C59.9383 78.5354 60.1455 78.4171 60.1455 78.1211C60.1366 77.9601 60.09 77.8035 60.0095 77.6639C59.9289 77.5243 59.8167 77.4056 59.6819 77.3173C59.4233 77.1696 59.2176 77.2893 59.2176 77.5854Z" fill="#7676E3"/>
<path d="M32.3377 54.7938C32.3466 54.9548 32.3932 55.1114 32.4737 55.251C32.5542 55.3906 32.6664 55.5093 32.8013 55.5976C33.0577 55.7446 33.2656 55.6255 33.2656 55.3294C33.2566 55.1685 33.2099 55.0118 33.1293 54.8722C33.0486 54.7326 32.9363 54.6139 32.8013 54.5257C32.5449 54.378 32.3377 54.4977 32.3377 54.7938Z" fill="#7676E3"/>
<path d="M30.7205 53.8596C30.729 54.0206 30.7755 54.1773 30.856 54.317C30.9366 54.4567 31.049 54.5753 31.1841 54.6634C31.4405 54.8103 31.6484 54.6913 31.6484 54.3952C31.6395 54.2342 31.5927 54.0776 31.5121 53.9379C31.4314 53.7983 31.3191 53.6796 31.1841 53.5914C30.9277 53.4437 30.7205 53.5635 30.7205 53.8596Z" fill="#7676E3"/>
<path d="M29.1033 52.9264C29.1123 53.0874 29.159 53.2441 29.2396 53.3837C29.3203 53.5233 29.4326 53.642 29.5676 53.7302C29.824 53.8772 30.0312 53.7581 30.0312 53.462C30.0226 53.3011 29.9761 53.1446 29.8955 53.005C29.815 52.8655 29.7026 52.7469 29.5676 52.659C29.3112 52.5106 29.1033 52.6311 29.1033 52.9264Z" fill="#7676E3"/>
<path d="M92.8845 104.255C92.8934 104.416 92.94 104.572 93.0206 104.712C93.1011 104.852 93.2133 104.97 93.3482 105.059C93.6046 105.206 93.8125 105.087 93.8125 104.791C93.8035 104.63 93.7568 104.473 93.6762 104.333C93.5955 104.194 93.4831 104.075 93.3482 103.987C93.0917 103.839 92.8845 103.956 92.8845 104.255Z" fill="#7676E3"/>
<path d="M91.2664 103.32C91.2753 103.481 91.3219 103.638 91.4024 103.777C91.4829 103.917 91.5951 104.036 91.73 104.124C91.9864 104.271 92.1943 104.152 92.1943 103.856C92.1854 103.695 92.1386 103.538 92.058 103.399C91.9773 103.259 91.865 103.14 91.73 103.052C91.4736 102.904 91.2664 103.024 91.2664 103.32Z" fill="#7676E3"/>
<path d="M89.6492 102.387C89.6582 102.548 89.7049 102.704 89.7855 102.844C89.8662 102.984 89.9785 103.102 90.1135 103.191C90.3699 103.338 90.5771 103.218 90.5771 102.922C90.5685 102.762 90.522 102.605 90.4414 102.465C90.3609 102.326 90.2485 102.207 90.1135 102.119C89.8571 101.972 89.6492 102.091 89.6492 102.387Z" fill="#7676E3"/>
<g style="mix-blend-mode:color-dodge">
<path d="M65.2818 60.5616L49.5615 67.3392L56.4869 70.7994V88.8281L56.4941 88.8317L73.7021 98.7374L74.075 79.5877L81.0004 83.0479L65.2818 60.5616Z" fill="#C4C4C4"/>
</g>
<defs>
<linearGradient id="paint0_linear" x1="42355.5" y1="9601.54" x2="49209" y2="9601.54" gradientUnits="userSpaceOnUse">
<stop stop-color="#DBEBF0"/>
<stop offset="1" stop-color="#F0FAFB"/>
</linearGradient>
<linearGradient id="paint1_linear" x1="104.794" y1="62.277" x2="11.5363" y2="179.578" gradientUnits="userSpaceOnUse">
<stop stop-color="#B4B4FF"/>
<stop offset="1" stop-color="#1919C7"/>
</linearGradient>
<linearGradient id="paint2_linear" x1="63.1091" y1="33.1633" x2="99.5804" y2="111.017" gradientUnits="userSpaceOnUse">
<stop stop-color="#B4B4FF"/>
<stop offset="1" stop-color="#1919C7"/>
</linearGradient>
<radialGradient id="paint3_radial" cx="0" cy="0" r="1" gradientUnits="userSpaceOnUse" gradientTransform="translate(113.375 60.0111) rotate(180) scale(47.9469)">
<stop stop-color="#2B3AA5"/>
<stop offset="1" stop-color="#182484"/>
</radialGradient>
<linearGradient id="paint4_linear" x1="48.138" y1="58.0248" x2="244.443" y2="130.523" gradientUnits="userSpaceOnUse">
<stop stop-color="#D1D1F4"/>
<stop offset="0.088" stop-color="#AEAEEB"/>
<stop offset="0.229" stop-color="#8C8CE3"/>
<stop offset="0.373" stop-color="#8C8CE3"/>
<stop offset="0.521" stop-color="#1919C7"/>
<stop offset="0.671" stop-color="#00A69C"/>
<stop offset="0.828" stop-color="#54A600"/>
<stop offset="1" stop-color="#393091"/>
</linearGradient>
<linearGradient id="paint5_linear" x1="117.514" y1="101.432" x2="16.9992" y2="101.432" gradientUnits="userSpaceOnUse">
<stop stop-color="#706EC4"/>
<stop offset="0.022" stop-color="#6D6BC2"/>
<stop offset="0.251" stop-color="#5651AC"/>
<stop offset="0.486" stop-color="#463F9D"/>
<stop offset="0.731" stop-color="#3C3494"/>
<stop offset="1" stop-color="#393091"/>
</linearGradient>
<linearGradient id="paint6_linear" x1="388.17" y1="80.9033" x2="157.156" y2="144.12" gradientUnits="userSpaceOnUse">
<stop stop-color="#BCBEFF"/>
<stop offset="0.227" stop-color="#AAADF8"/>
<stop offset="0.68" stop-color="#7C83E5"/>
<stop offset="1" stop-color="#5761D7"/>
</linearGradient>
<linearGradient id="paint7_linear" x1="43.6265" y1="44.4768" x2="80.0987" y2="122.329" gradientUnits="userSpaceOnUse">
<stop stop-color="#B4B4FF"/>
<stop offset="1" stop-color="#1919C7"/>
</linearGradient>
</defs>
</svg>
