<svg width="66" height="70" viewBox="0 0 66 70" fill="none" xmlns="http://www.w3.org/2000/svg">
<path d="M8.81221e-08 41.6179C3.94537e-08 39.4088 1.55093 36.7225 3.4641 35.6179L61.6921 1.99996C63.6053 0.895393 65.1562 1.79082 65.1562 3.99996L65.1562 21.6687C65.1562 23.8778 63.6053 26.5641 61.6921 27.6687L38.3729 41.1321C36.9564 41.9499 35.6931 43.6866 34.9803 45.5115C34.6649 46.319 34.2855 47.2134 33.8521 48.0959C32.9843 49.8632 31.4053 50.7749 30.5375 50.0096C30.1042 49.6275 29.7248 49.1712 29.4094 48.7279C28.6966 47.726 27.4333 47.448 26.0168 48.2658L3.4641 61.2866C1.55093 62.3912 5.26042e-07 61.4958 4.77373e-07 59.2866L8.81221e-08 41.6179Z" fill="#C2C2C2"/>
<path d="M16.579 36.535L16.579 42.979L17.1194 42.667L17.1194 43.699L14.9474 44.953L14.9474 43.921L15.4982 43.603L15.4982 37.159L14.9474 37.477L14.9474 36.445L17.1194 35.191L17.1194 36.223L16.579 36.535ZM19.6507 42.2376L18.6427 42.8196L18.6427 37.0716L19.4429 36.6096L19.6507 36.9936C19.817 36.7136 20.0179 36.4456 20.2535 36.1896C20.489 35.9336 20.7454 35.7256 21.0225 35.5656C21.2026 35.4616 21.407 35.3756 21.6357 35.3076C21.8643 35.2396 22.0756 35.2376 22.2696 35.3016C22.4705 35.3616 22.6368 35.5096 22.7684 35.7456C22.907 35.9776 22.9763 36.3416 22.9763 36.8376L22.9763 40.3176L22.0202 40.8696L22.0202 37.3776C22.0202 37.1296 21.9855 36.9416 21.9162 36.8136C21.8539 36.6736 21.7673 36.5836 21.6564 36.5436C21.5525 36.4996 21.4313 36.4976 21.2927 36.5376C21.1611 36.5656 21.0225 36.6216 20.877 36.7056C20.7662 36.7696 20.638 36.8676 20.4925 36.9996C20.3539 37.1276 20.2223 37.2836 20.0976 37.4676C19.9729 37.6436 19.8655 37.8416 19.7754 38.0616C19.6923 38.2696 19.6507 38.4936 19.6507 38.7336L19.6507 42.2376ZM26.9168 38.0305C26.6328 38.3065 26.3522 38.5365 26.075 38.7205C25.7979 38.9045 25.5485 39.0005 25.3268 39.0085C25.1051 39.0245 24.925 38.9285 24.7864 38.7205C24.6478 38.5045 24.5785 38.1325 24.5785 37.6045L24.5785 34.6885L23.8511 35.1085L23.8511 34.3045L24.5785 33.6445L24.5785 32.1085L25.5866 31.5265L25.5866 33.0625L26.9376 32.2825L26.9376 33.3265L25.5866 34.1065L25.5866 37.2025C25.5866 37.3945 25.6039 37.5365 25.6386 37.6285C25.6801 37.7165 25.7459 37.7625 25.836 37.7665C25.9261 37.7705 26.0439 37.7305 26.1893 37.6465C26.3348 37.5625 26.5115 37.4445 26.7194 37.2925L26.9168 38.0305ZM30.1259 36.3337C29.7657 36.5417 29.4262 36.6617 29.1075 36.6937C28.7957 36.7137 28.522 36.6557 28.2865 36.5197C28.0509 36.3837 27.8639 36.1717 27.7253 35.8837C27.5937 35.5917 27.5278 35.2377 27.5278 34.8217C27.5278 34.4057 27.5902 33.9777 27.7149 33.5377C27.8465 33.0937 28.0197 32.6737 28.2345 32.2777C28.4562 31.8777 28.7126 31.5177 29.0036 31.1977C29.2945 30.8697 29.6063 30.6097 29.9389 30.4177C30.2783 30.2217 30.5901 30.1097 30.8742 30.0817C31.1652 30.0497 31.4146 30.1177 31.6224 30.2857C31.8372 30.4497 32.0035 30.7217 32.1212 31.1017C32.239 31.4737 32.2979 31.9677 32.2979 32.5837L28.5983 34.7197C28.6467 34.8997 28.723 35.0517 28.8269 35.1757C28.9308 35.2917 29.052 35.3777 29.1906 35.4337C29.3361 35.4777 29.4955 35.4857 29.6687 35.4577C29.8488 35.4257 30.0359 35.3537 30.2298 35.2417C30.4931 35.0897 30.7356 34.8937 30.9573 34.6537C31.1859 34.4097 31.3799 34.1497 31.5393 33.8737L32.1628 34.2337C31.9203 34.6537 31.6224 35.0497 31.2691 35.4217C30.9227 35.7897 30.5416 36.0937 30.1259 36.3337ZM29.9389 31.4737C29.7795 31.5657 29.6271 31.6897 29.4816 31.8457C29.343 31.9977 29.2114 32.1737 29.0867 32.3737C28.9689 32.5697 28.865 32.7817 28.7749 33.0097C28.6918 33.2337 28.6294 33.4617 28.5879 33.6937L31.2171 32.1757C31.2033 31.9917 31.1652 31.8297 31.1028 31.6897C31.0404 31.5497 30.9538 31.4477 30.843 31.3837C30.7321 31.3117 30.6005 31.2837 30.4481 31.2997C30.3026 31.3037 30.1328 31.3617 29.9389 31.4737ZM36.281 27.9561C36.2325 27.9601 36.184 27.9641 36.1355 27.9681C36.0939 27.9761 36.0454 27.9881 35.99 28.0041C35.9346 28.0201 35.8757 28.0461 35.8134 28.0821C35.6124 28.1981 35.4254 28.3461 35.2522 28.5261C35.079 28.6981 34.93 28.8841 34.8053 29.0841C34.6806 29.2841 34.5801 29.4941 34.5039 29.7141C34.4346 29.9221 34.4 30.1221 34.4 30.3141L34.3896 33.7281L33.3816 34.3101L33.3816 28.5621L34.1818 28.1001L34.3896 28.6161C34.5282 28.3041 34.7083 28.0161 34.93 27.7521C35.1586 27.4761 35.4427 27.2401 35.7822 27.0441C36.0039 26.9161 36.2568 26.8061 36.5408 26.7141L36.281 27.9561ZM38.1925 31.5325L37.1844 32.1145L37.1844 26.3665L37.9846 25.9045L38.1925 26.2885C38.3587 26.0085 38.5597 25.7405 38.7952 25.4845C39.0308 25.2285 39.2871 25.0205 39.5642 24.8605C39.7444 24.7565 39.9488 24.6705 40.1774 24.6025C40.406 24.5345 40.6173 24.5325 40.8113 24.5965C41.0122 24.6565 41.1785 24.8045 41.3102 25.0405C41.4487 25.2725 41.518 25.6365 41.518 26.1325L41.518 29.6125L40.5619 30.1645L40.5619 26.6725C40.5619 26.4245 40.5273 26.2365 40.458 26.1085C40.3956 25.9685 40.309 25.8785 40.1982 25.8385C40.0943 25.7945 39.973 25.7925 39.8344 25.8325C39.7028 25.8605 39.5642 25.9165 39.4188 26.0005C39.3079 26.0645 39.1797 26.1625 39.0342 26.2945C38.8957 26.4225 38.764 26.5785 38.6393 26.7625C38.5146 26.9385 38.4072 27.1365 38.3172 27.3565C38.234 27.5645 38.1925 27.7885 38.1925 28.0285L38.1925 31.5325ZM45.1156 27.6794C44.7553 27.8874 44.4159 28.0074 44.0972 28.0394C43.7854 28.0594 43.5117 28.0014 43.2762 27.8654C43.0406 27.7294 42.8535 27.5174 42.715 27.2294C42.5833 26.9374 42.5175 26.5834 42.5175 26.1674C42.5175 25.7514 42.5799 25.3234 42.7046 24.8834C42.8362 24.4394 43.0094 24.0194 43.2242 23.6234C43.4459 23.2234 43.7022 22.8634 43.9932 22.5434C44.2842 22.2154 44.596 21.9554 44.9285 21.7634C45.268 21.5674 45.5798 21.4554 45.8638 21.4274C46.1548 21.3954 46.4042 21.4634 46.6121 21.6314C46.8269 21.7954 46.9931 22.0674 47.1109 22.4474C47.2287 22.8194 47.2876 23.3134 47.2876 23.9294L43.5879 26.0654C43.6364 26.2454 43.7126 26.3974 43.8166 26.5214C43.9205 26.6374 44.0417 26.7234 44.1803 26.7794C44.3258 26.8234 44.4851 26.8314 44.6583 26.8034C44.8385 26.7714 45.0255 26.6994 45.2195 26.5874C45.4828 26.4354 45.7253 26.2394 45.947 25.9994C46.1756 25.7554 46.3696 25.4954 46.529 25.2194L47.1525 25.5794C46.91 25.9994 46.6121 26.3954 46.2588 26.7674C45.9123 27.1354 45.5313 27.4394 45.1156 27.6794ZM44.9285 22.8194C44.7692 22.9114 44.6168 23.0354 44.4713 23.1914C44.3327 23.3434 44.2011 23.5194 44.0764 23.7194C43.9586 23.9154 43.8547 24.1274 43.7646 24.3554C43.6815 24.5794 43.6191 24.8074 43.5775 25.0394L46.2068 23.5214C46.1929 23.3374 46.1548 23.1754 46.0925 23.0354C46.0301 22.8954 45.9435 22.7934 45.8327 22.7294C45.7218 22.6574 45.5902 22.6294 45.4378 22.6454C45.2923 22.6494 45.1225 22.7074 44.9285 22.8194ZM50.9693 24.1438C50.6853 24.4198 50.4047 24.6498 50.1275 24.8338C49.8504 25.0178 49.601 25.1138 49.3793 25.1218C49.1576 25.1378 48.9775 25.0418 48.8389 24.8338C48.7003 24.6178 48.631 24.2458 48.631 23.7178L48.631 20.8018L47.9036 21.2218L47.9036 20.4178L48.631 19.7578L48.631 18.2218L49.6391 17.6398L49.6391 19.1758L50.9901 18.3958L50.9901 19.4398L49.6391 20.2198L49.6391 23.3158C49.6391 23.5078 49.6564 23.6498 49.6911 23.7418C49.7326 23.8298 49.7984 23.8758 49.8885 23.8798C49.9786 23.8838 50.0964 23.8438 50.2419 23.7598C50.3873 23.6758 50.564 23.5578 50.7719 23.4058L50.9693 24.1438Z" fill="#EFEFF8"/>
</svg>
