<svg width="66" height="70" viewBox="0 0 66 70" fill="none" xmlns="http://www.w3.org/2000/svg">
<path d="M8.81221e-08 41.6179C3.94537e-08 39.4088 1.55093 36.7225 3.4641 35.6179L61.6921 1.99996C63.6053 0.895393 65.1562 1.79082 65.1562 3.99996L65.1562 21.6687C65.1562 23.8778 63.6053 26.5641 61.6921 27.6687L38.3729 41.1321C36.9564 41.9499 35.6931 43.6866 34.9803 45.5115C34.6649 46.319 34.2855 47.2134 33.8521 48.0959C32.9843 49.8632 31.4053 50.7749 30.5375 50.0096C30.1042 49.6275 29.7248 49.1712 29.4094 48.7279C28.6966 47.726 27.4333 47.448 26.0168 48.2658L3.4641 61.2866C1.55093 62.3912 5.26042e-07 61.4958 4.77373e-07 59.2866L8.81221e-08 41.6179Z" fill="#FFBF80"/>
<path d="M9.53753 48.6123L8.35281 49.2963L11.4185 39.0183L12.6137 38.3283L15.6794 45.0663L14.5051 45.7443L13.5386 43.6383L10.4936 45.3963L9.53753 48.6123ZM10.9093 44.0043L13.1229 42.7263L12.0213 40.2903L10.9093 44.0043ZM18.7183 43.4558C18.3719 43.6558 18.0463 43.7678 17.7414 43.7918C17.4435 43.8038 17.1803 43.7398 16.9516 43.5998C16.7299 43.4558 16.5533 43.2378 16.4216 42.9458C16.29 42.6538 16.2242 42.2998 16.2242 41.8838C16.2242 41.4678 16.29 41.0378 16.4216 40.5938C16.5533 40.1498 16.7299 39.7278 16.9516 39.3278C17.1803 38.9238 17.4435 38.5598 17.7414 38.2358C18.0463 37.8998 18.3719 37.6318 18.7183 37.4318C19.1202 37.1998 19.4908 37.0898 19.8303 37.1018C20.1698 37.1138 20.4538 37.2338 20.6825 37.4618L19.9758 38.5058C19.8372 38.3538 19.6606 38.2758 19.4458 38.2718C19.2379 38.2558 19.0128 38.3178 18.7703 38.4578C18.5624 38.5778 18.365 38.7438 18.1779 38.9558C17.9909 39.1598 17.828 39.3898 17.6895 39.6458C17.5509 39.9018 17.4401 40.1738 17.3569 40.4618C17.2807 40.7458 17.2426 41.0238 17.2426 41.2958C17.2426 41.5678 17.2807 41.8018 17.3569 41.9978C17.4401 42.1898 17.5509 42.3378 17.6895 42.4418C17.828 42.5378 17.9909 42.5838 18.1779 42.5798C18.365 42.5758 18.5624 42.5138 18.7703 42.3938C19.0405 42.2378 19.2864 42.0118 19.5081 41.7158C19.7298 41.4198 19.91 41.0918 20.0485 40.7318L20.7344 41.0318C20.5127 41.5438 20.2252 42.0178 19.8719 42.4538C19.5185 42.8818 19.134 43.2158 18.7183 43.4558ZM24.4114 40.0129C24.1273 40.2889 23.8467 40.5189 23.5696 40.7029C23.2925 40.8869 23.043 40.9829 22.8213 40.9909C22.5996 41.0069 22.4195 40.9109 22.2809 40.7029C22.1424 40.4869 22.0731 40.1149 22.0731 39.5869L22.0731 36.6709L21.3456 37.0909L21.3456 36.2869L22.0731 35.6269L22.0731 34.0909L23.0811 33.5089L23.0811 35.0449L24.4321 34.2649L24.4321 35.3089L23.0811 36.0889L23.0811 39.1849C23.0811 39.3769 23.0985 39.5189 23.1331 39.6109C23.1747 39.6989 23.2405 39.7449 23.3306 39.7489C23.4206 39.7529 23.5384 39.7129 23.6839 39.6289C23.8294 39.5449 24.0061 39.4269 24.2139 39.2749L24.4114 40.0129ZM26.311 38.9281L25.303 39.5101L25.303 33.7621L26.3006 33.1861L26.311 38.9281ZM25.8018 32.2261C25.6217 32.3301 25.4693 32.3461 25.3446 32.2741C25.2198 32.1941 25.1575 32.0501 25.1575 31.8421C25.1575 31.6341 25.2198 31.4221 25.3446 31.2061C25.4693 30.9901 25.6217 30.8301 25.8018 30.7261C25.9819 30.6221 26.1344 30.6061 26.2591 30.6781C26.3838 30.7501 26.4461 30.8901 26.4461 31.0981C26.4461 31.3061 26.3838 31.5221 26.2591 31.7461C26.1344 31.9621 25.9819 32.1221 25.8018 32.2261ZM30.3844 36.5764L29.0438 37.3504L26.9861 32.7904L28.0773 32.1604L29.7193 35.7844L31.3613 30.2644L32.4525 29.6344L30.3844 36.5764ZM35.5365 33.7458C35.1762 33.9538 34.8367 34.0738 34.518 34.1058C34.2063 34.1258 33.9326 34.0678 33.697 33.9318C33.4615 33.7958 33.2744 33.5838 33.1359 33.2958C33.0042 33.0038 32.9384 32.6498 32.9384 32.2338C32.9384 31.8178 33.0008 31.3898 33.1255 30.9498C33.2571 30.5058 33.4303 30.0858 33.6451 29.6898C33.8668 29.2898 34.1231 28.9298 34.4141 28.6098C34.7051 28.2818 35.0169 28.0218 35.3494 27.8298C35.6889 27.6338 36.0007 27.5218 36.2847 27.4938C36.5757 27.4618 36.8251 27.5298 37.033 27.6978C37.2477 27.8618 37.414 28.1338 37.5318 28.5138C37.6496 28.8858 37.7085 29.3798 37.7085 29.9958L34.0088 32.1318C34.0573 32.3118 34.1335 32.4638 34.2374 32.5878C34.3414 32.7038 34.4626 32.7898 34.6012 32.8458C34.7467 32.8898 34.906 32.8978 35.0792 32.8698C35.2594 32.8378 35.4464 32.7658 35.6404 32.6538C35.9037 32.5018 36.1462 32.3058 36.3679 32.0658C36.5965 31.8218 36.7905 31.5618 36.9498 31.2858L37.5734 31.6458C37.3309 32.0658 37.033 32.4618 36.6796 32.8338C36.3332 33.2018 35.9522 33.5058 35.5365 33.7458ZM35.3494 28.8858C35.1901 28.9778 35.0377 29.1018 34.8922 29.2578C34.7536 29.4098 34.622 29.5858 34.4973 29.7858C34.3795 29.9818 34.2755 30.1938 34.1855 30.4218C34.1023 30.6458 34.04 30.8738 33.9984 31.1058L36.6277 29.5878C36.6138 29.4038 36.5757 29.2418 36.5134 29.1018C36.451 28.9618 36.3644 28.8598 36.2536 28.7958C36.1427 28.7238 36.0111 28.6958 35.8586 28.7118C35.7132 28.7158 35.5434 28.7738 35.3494 28.8858ZM41.6604 21.5582C41.9514 21.3902 42.225 21.2962 42.4814 21.2762C42.7377 21.2562 42.9594 21.3002 43.1465 21.4082C43.3405 21.5122 43.4929 21.6802 43.6038 21.9122C43.7146 22.1362 43.77 22.4162 43.77 22.7522C43.77 23.0882 43.7146 23.4362 43.6038 23.7962C43.4929 24.1562 43.3405 24.5002 43.1465 24.8282C42.9594 25.1522 42.7377 25.4522 42.4814 25.7282C42.225 25.9962 41.9514 26.2142 41.6604 26.3822L39.7482 27.4982L39.7482 31.1702L38.6674 31.7942L38.6674 23.2862L41.6604 21.5582ZM41.6604 25.2182C41.8059 25.1342 41.941 25.0242 42.0657 24.8882C42.1973 24.7402 42.3116 24.5822 42.4086 24.4142C42.5056 24.2462 42.5818 24.0702 42.6373 23.8862C42.6927 23.6942 42.7204 23.5102 42.7204 23.3342C42.7204 23.1582 42.6927 23.0102 42.6373 22.8902C42.5818 22.7702 42.5056 22.6822 42.4086 22.6262C42.3116 22.5622 42.1973 22.5362 42.0657 22.5482C41.941 22.5482 41.8059 22.5902 41.6604 22.6742L39.7482 23.7782L39.7482 26.3222L41.6604 25.2182ZM46.9192 27.174C46.5728 27.374 46.2472 27.486 45.9423 27.51C45.6444 27.522 45.3812 27.458 45.1525 27.318C44.9308 27.174 44.7542 26.956 44.6225 26.664C44.4909 26.372 44.4251 26.018 44.4251 25.602C44.4251 25.186 44.4909 24.756 44.6225 24.312C44.7542 23.868 44.9308 23.446 45.1525 23.046C45.3812 22.642 45.6444 22.278 45.9423 21.954C46.2472 21.618 46.5728 21.35 46.9192 21.15C47.2587 20.954 47.5809 20.848 47.8857 20.832C48.1905 20.808 48.4538 20.868 48.6755 21.012C48.9042 21.152 49.0843 21.368 49.2159 21.66C49.3476 21.952 49.4134 22.306 49.4134 22.722C49.4134 23.138 49.3476 23.568 49.2159 24.012C49.0843 24.456 48.9042 24.88 48.6755 25.284C48.4538 25.684 48.1905 26.052 47.8857 26.388C47.5809 26.716 47.2587 26.978 46.9192 27.174ZM46.9192 22.194C46.7183 22.31 46.5278 22.472 46.3476 22.68C46.1675 22.888 46.0082 23.12 45.8696 23.376C45.738 23.628 45.634 23.896 45.5578 24.18C45.4816 24.464 45.4435 24.742 45.4435 25.014C45.4435 25.286 45.4816 25.52 45.5578 25.716C45.634 25.912 45.738 26.064 45.8696 26.172C46.0082 26.268 46.1675 26.316 46.3476 26.316C46.5278 26.316 46.7183 26.258 46.9192 26.142C47.1201 26.026 47.3107 25.864 47.4908 25.656C47.6709 25.448 47.8268 25.218 47.9585 24.966C48.0901 24.706 48.194 24.434 48.2702 24.15C48.3464 23.866 48.3845 23.588 48.3845 23.316C48.3845 23.044 48.3464 22.81 48.2702 22.614C48.194 22.418 48.0901 22.27 47.9585 22.17C47.8268 22.07 47.6709 22.02 47.4908 22.02C47.3107 22.02 47.1201 22.078 46.9192 22.194ZM53.2307 18.7061C53.1822 18.7101 53.1337 18.7141 53.0852 18.7181C53.0436 18.7261 52.9951 18.7381 52.9397 18.7541C52.8843 18.7701 52.8254 18.7961 52.763 18.8321C52.5621 18.9481 52.375 19.0961 52.2018 19.2761C52.0286 19.4481 51.8797 19.6341 51.755 19.8341C51.6303 20.0341 51.5298 20.2441 51.4536 20.4641C51.3843 20.6721 51.3497 20.8721 51.3497 21.0641L51.3393 24.4781L50.3312 25.0601L50.3312 19.3121L51.1314 18.8501L51.3393 19.3661C51.4778 19.0541 51.658 18.7661 51.8797 18.5021C52.1083 18.2261 52.3924 17.9901 52.7318 17.7941C52.9536 17.6661 53.2064 17.5561 53.4905 17.4641L53.2307 18.7061ZM56.8569 21.2805C56.5728 21.5565 56.2922 21.7865 56.0151 21.9705C55.738 22.1545 55.4885 22.2505 55.2668 22.2585C55.0451 22.2745 54.865 22.1785 54.7264 21.9705C54.5879 21.7545 54.5186 21.3825 54.5186 20.8545L54.5186 17.9385L53.7911 18.3585L53.7911 17.5545L54.5186 16.8945L54.5186 15.3585L55.5266 14.7765L55.5266 16.3125L56.8776 15.5325L56.8776 16.5765L55.5266 17.3565L55.5266 20.4525C55.5266 20.6445 55.544 20.7865 55.5786 20.8785C55.6202 20.9665 55.686 21.0125 55.7761 21.0165C55.8661 21.0205 55.9839 20.9805 56.1294 20.8965C56.2749 20.8125 56.4516 20.6945 56.6594 20.5425L56.8569 21.2805Z" fill="#EFEFF8"/>
</svg>
