<svg width="66" height="70" viewBox="0 0 66 70" fill="none" xmlns="http://www.w3.org/2000/svg">
<path d="M8.81221e-08 41.6179C3.94537e-08 39.4088 1.55093 36.7225 3.4641 35.6179L61.6921 1.99996C63.6053 0.895393 65.1562 1.79082 65.1562 3.99996L65.1562 21.6687C65.1562 23.8778 63.6053 26.5641 61.6921 27.6687L38.3729 41.1321C36.9564 41.9499 35.6931 43.6866 34.9803 45.5115C34.6649 46.319 34.2855 47.2134 33.8521 48.0959C32.9843 49.8632 31.4053 50.7749 30.5375 50.0096C30.1042 49.6275 29.7248 49.1712 29.4094 48.7279C28.6966 47.726 27.4333 47.448 26.0168 48.2658L3.4641 61.2866C1.55093 62.3912 5.26042e-07 61.4958 4.77373e-07 59.2866L8.81221e-08 41.6179Z" fill="#C2C2C2"/>
<path d="M26.0823 31.393L27.1735 30.763L27.1735 39.271L26.0927 39.895L26.0927 33.367L23.9415 38.029L23.0997 38.515L20.9381 36.343L20.9381 42.871L19.8469 43.501L19.8469 34.993L20.9381 34.363L23.5154 36.967L26.0823 31.393ZM31.3532 28.3498C31.6442 28.1818 31.9179 28.0878 32.1742 28.0678C32.4306 28.0478 32.6523 28.0918 32.8393 28.1998C33.0333 28.3038 33.1858 28.4718 33.2966 28.7038C33.4075 28.9278 33.4629 29.2078 33.4629 29.5438C33.4629 29.8798 33.4075 30.2278 33.2966 30.5878C33.1858 30.9478 33.0333 31.2918 32.8393 31.6198C32.6523 31.9438 32.4306 32.2438 32.1742 32.5198C31.9179 32.7878 31.6442 33.0058 31.3532 33.1738L29.4411 34.2898L29.4411 37.9618L28.3603 38.5858L28.3603 30.0778L31.3532 28.3498ZM31.3532 32.0098C31.4987 31.9258 31.6338 31.8158 31.7585 31.6798C31.8902 31.5318 32.0045 31.3738 32.1015 31.2058C32.1985 31.0378 32.2747 30.8618 32.3301 30.6778C32.3856 30.4858 32.4133 30.3018 32.4133 30.1258C32.4133 29.9498 32.3856 29.8018 32.3301 29.6818C32.2747 29.5618 32.1985 29.4738 32.1015 29.4178C32.0045 29.3538 31.8902 29.3278 31.7585 29.3398C31.6338 29.3398 31.4987 29.3818 31.3532 29.4658L29.4411 30.5698L29.4411 33.1138L31.3532 32.0098ZM34.4609 35.0637L34.4609 26.5557L35.5521 25.9257L35.5521 33.2697L38.9607 31.3017L38.9607 32.4657L34.4609 35.0637ZM44.6733 26.7795C44.6733 27.1395 44.611 27.5115 44.4863 27.8955C44.3616 28.2715 44.178 28.6455 43.9355 29.0175C43.4574 29.7575 42.8443 30.3435 42.0961 30.7755C41.5141 31.1115 40.9875 31.2795 40.5164 31.2795C40.0453 31.2715 39.6989 31.0995 39.4772 30.7635L40.4021 29.6775C40.5407 29.8855 40.7589 29.9835 41.0568 29.9715C41.3617 29.9475 41.7081 29.8235 42.0961 29.5995C43.1006 29.0195 43.6029 28.2855 43.6029 27.3975C43.6029 27.2295 43.5752 27.1015 43.5198 27.0135C43.4713 26.9215 43.3951 26.8535 43.2912 26.8095C43.0418 26.7135 42.5949 26.7555 41.9506 26.9355C41.5626 27.0475 41.2335 27.1135 40.9633 27.1335C40.6931 27.1535 40.4679 27.1235 40.2878 27.0435C39.8513 26.8875 39.6331 26.4735 39.6331 25.8015C39.6331 25.4655 39.6885 25.1215 39.7994 24.7695C39.9171 24.4055 40.0799 24.0555 40.2878 23.7195C40.5026 23.3795 40.752 23.0755 41.036 22.8075C41.327 22.5275 41.6457 22.2875 41.9921 22.0875C42.4979 21.7955 42.9621 21.6395 43.3847 21.6195C43.8142 21.5955 44.1399 21.7235 44.3616 22.0035L43.5198 23.0895C43.3189 22.9255 43.0868 22.8635 42.8235 22.9035C42.5602 22.9355 42.2831 23.0355 41.9921 23.2035C41.7843 23.3235 41.5938 23.4735 41.4206 23.6535C41.2473 23.8335 41.1019 24.0135 40.9841 24.1935C40.8871 24.3455 40.8143 24.5075 40.7658 24.6795C40.7243 24.8395 40.7035 24.9995 40.7035 25.1595C40.7035 25.2635 40.7173 25.3635 40.7451 25.4595C40.7728 25.5475 40.8386 25.6215 40.9425 25.6815C41.0464 25.7335 41.1988 25.7575 41.3998 25.7535C41.6007 25.7415 41.8743 25.6875 42.2208 25.5915C42.6365 25.4715 42.9863 25.4015 43.2704 25.3815C43.5544 25.3535 43.7935 25.3795 43.9875 25.4595C44.4447 25.6275 44.6733 26.0675 44.6733 26.7795Z" fill="#EFEFF8"/>
</svg>
