<svg width="66" height="70" viewBox="0 0 66 70" fill="none" xmlns="http://www.w3.org/2000/svg">
<path d="M8.81221e-08 41.6179C3.94537e-08 39.4088 1.55093 36.7225 3.4641 35.6179L61.6921 1.99996C63.6053 0.895393 65.1562 1.79082 65.1562 3.99996L65.1562 21.6687C65.1562 23.8778 63.6053 26.5641 61.6921 27.6687L38.3729 41.1321C36.9564 41.9499 35.6931 43.6866 34.9803 45.5115C34.6649 46.319 34.2855 47.2134 33.8521 48.0959C32.9843 49.8632 31.4053 50.7749 30.5375 50.0096C30.1042 49.6275 29.7248 49.1712 29.4094 48.7279C28.6966 47.726 27.4333 47.448 26.0168 48.2658L3.4641 61.2866C1.55093 62.3912 5.26042e-07 61.4958 4.77373e-07 59.2866L8.81221e-08 41.6179Z" fill="#C2C2C2"/>
<path d="M15.8976 43.6438L15.5546 43.2298L19.4102 34.6678L20.2727 34.1698L20.2727 39.9898L21.4574 39.3058L21.4574 40.4338L20.2727 41.1178L20.2727 42.6778L19.1815 43.3078L19.1815 41.7478L15.8976 43.6438ZM17.1135 41.8138L19.1607 40.6318L19.1607 37.2118L17.1135 41.8138ZM26.4728 34.5502L28.4785 33.3922L28.4785 36.5122C28.1459 37.1602 27.7441 37.7642 27.273 38.3242C26.8019 38.8842 26.2892 39.3242 25.7349 39.6442C25.2361 39.9322 24.765 40.0882 24.3216 40.1122C23.8782 40.1362 23.4937 40.0462 23.168 39.8422C22.8424 39.6302 22.5826 39.3162 22.3886 38.9002C22.2015 38.4802 22.108 37.9702 22.108 37.3702C22.108 36.7782 22.2015 36.1642 22.3886 35.5282C22.5826 34.8802 22.8424 34.2662 23.168 33.6862C23.4937 33.0982 23.8782 32.5602 24.3216 32.0722C24.765 31.5842 25.2361 31.1962 25.7349 30.9082C26.1922 30.6442 26.6252 30.4982 27.034 30.4702C27.4427 30.4422 27.8099 30.5022 28.1355 30.6502L27.4912 31.9702C27.2626 31.8222 26.9959 31.7522 26.691 31.7602C26.3931 31.7562 26.0744 31.8522 25.7349 32.0482C25.3816 32.2522 25.049 32.5322 24.7373 32.8882C24.4324 33.2322 24.1657 33.6182 23.9371 34.0462C23.7084 34.4742 23.5283 34.9222 23.3967 35.3902C23.265 35.8502 23.1992 36.3002 23.1992 36.7402C23.1992 37.1802 23.265 37.5582 23.3967 37.8742C23.5283 38.1822 23.7084 38.4182 23.9371 38.5822C24.1657 38.7382 24.4324 38.8122 24.7373 38.8042C25.049 38.7922 25.3816 38.6842 25.7349 38.4802C26.0606 38.2922 26.3654 38.0442 26.6494 37.7362C26.9335 37.4202 27.1864 37.0742 27.4081 36.6982L27.4081 35.1742L26.4728 35.7142L26.4728 34.5502ZM33.695 26.0965L34.2874 26.1625L29.8083 37.4725L29.2159 37.4065L33.695 26.0965ZM36.8751 32.0125C37.0829 31.8925 37.2769 31.7365 37.457 31.5445C37.6441 31.3405 37.8069 31.1185 37.9455 30.8785C38.084 30.6385 38.1914 30.3925 38.2676 30.1405C38.3508 29.8765 38.3923 29.6245 38.3923 29.3845C38.3923 29.0805 38.3335 28.8345 38.2157 28.6465C38.1048 28.4465 37.9489 28.3245 37.748 28.2805C37.6649 28.2565 37.561 28.2565 37.4363 28.2805C37.3185 28.2925 37.1868 28.3325 37.0413 28.4005C36.9028 28.4645 36.7573 28.5485 36.6049 28.6525C36.4594 28.7525 36.3173 28.8785 36.1788 29.0305C36.0264 29.1985 35.8947 29.3785 35.7839 29.5705L35.1603 29.4505L35.5449 25.3525L38.7665 23.4925L38.7665 24.6205L36.449 25.9585L36.2827 27.8785C36.6499 27.5305 37.0206 27.2765 37.3947 27.1165C37.7688 26.9565 38.084 26.9105 38.3404 26.9785C38.6799 27.0545 38.9431 27.2545 39.1302 27.5785C39.3173 27.8945 39.4108 28.3005 39.4108 28.7965C39.4108 29.2045 39.345 29.6265 39.2133 30.0625C39.0817 30.4905 38.9016 30.9065 38.6729 31.3105C38.4443 31.7065 38.1741 32.0745 37.8623 32.4145C37.5575 32.7425 37.2284 33.0085 36.8751 33.2125C36.4732 33.4445 36.0991 33.5565 35.7527 33.5485C35.4132 33.5365 35.1257 33.4305 34.8901 33.2305C34.7516 33.1265 34.6373 32.9725 34.5472 32.7685L35.4409 31.6645C35.4894 31.8205 35.5691 31.9425 35.68 32.0305C35.8185 32.1585 35.9917 32.2225 36.1996 32.2225C36.4074 32.2225 36.6326 32.1525 36.8751 32.0125ZM44.639 24.062L46.6447 22.904L46.6447 26.024C46.3122 26.672 45.9103 27.276 45.4392 27.836C44.9681 28.396 44.4554 28.836 43.9012 29.156C43.4023 29.444 42.9312 29.6 42.4878 29.624C42.0444 29.648 41.6599 29.558 41.3343 29.354C41.0086 29.142 40.7488 28.828 40.5548 28.412C40.3678 27.992 40.2742 27.482 40.2742 26.882C40.2742 26.29 40.3678 25.676 40.5548 25.04C40.7488 24.392 41.0086 23.778 41.3343 23.198C41.6599 22.61 42.0444 22.072 42.4878 21.584C42.9312 21.096 43.4023 20.708 43.9012 20.42C44.3584 20.156 44.7914 20.01 45.2002 19.982C45.609 19.954 45.9762 20.014 46.3018 20.162L45.6575 21.482C45.4288 21.334 45.1621 21.264 44.8573 21.272C44.5593 21.268 44.2406 21.364 43.9012 21.56C43.5478 21.764 43.2153 22.044 42.9035 22.4C42.5987 22.744 42.3319 23.13 42.1033 23.558C41.8747 23.986 41.6945 24.434 41.5629 24.902C41.4313 25.362 41.3654 25.812 41.3654 26.252C41.3654 26.692 41.4313 27.07 41.5629 27.386C41.6945 27.694 41.8747 27.93 42.1033 28.094C42.3319 28.25 42.5987 28.324 42.9035 28.316C43.2153 28.304 43.5478 28.196 43.9012 27.992C44.2268 27.804 44.5316 27.556 44.8157 27.248C45.0997 26.932 45.3526 26.586 45.5743 26.21L45.5743 24.686L44.639 25.226L44.639 24.062Z" fill="#EFEFF8"/>
</svg>
