<svg width="272" height="120" viewBox="0 0 272 120" fill="none" xmlns="http://www.w3.org/2000/svg">
<path opacity="0.4" d="M2.48111 118.693C2.37423 119.235 1.84835 119.588 1.30649 119.481C0.764653 119.374 0.412026 118.848 0.518885 118.307L2.48111 118.693ZM270.719 28.4521C271.157 28.7887 271.239 29.4166 270.902 29.8544C270.566 30.2922 269.938 30.3743 269.5 30.0376L270.719 28.4521ZM267.885 28.8169C267.442 28.4874 267.35 27.861 267.68 27.4178C268.009 26.9746 268.636 26.8824 269.079 27.212L267.885 28.8169ZM263.231 23.1137C263.692 23.4178 263.819 24.0381 263.515 24.4991C263.211 24.9601 262.591 25.0873 262.13 24.7831L263.231 23.1137ZM258.741 22.6247C258.27 22.3355 258.123 21.7196 258.412 21.2491C258.702 20.7786 259.318 20.6316 259.788 20.9208L258.741 22.6247ZM253.605 17.3547C254.091 17.6172 254.272 18.2239 254.009 18.7098C253.747 19.1958 253.14 19.3769 252.654 19.1145L253.605 17.3547ZM249.087 17.2602C248.593 17.0133 248.393 16.4126 248.639 15.9186C248.886 15.4246 249.487 15.2243 249.981 15.4713L249.087 17.2602ZM243.513 12.4569C244.02 12.6765 244.252 13.2653 244.033 13.772C243.813 14.2788 243.224 14.5116 242.718 14.2921L243.513 12.4569ZM239.003 12.7505C238.49 12.5467 238.239 11.9653 238.443 11.452C238.647 10.9388 239.228 10.6879 239.742 10.8917L239.003 12.7505ZM233.042 8.43463C233.565 8.6111 233.846 9.1784 233.67 9.70174C233.493 10.2251 232.926 10.5063 232.403 10.3298L233.042 8.43463ZM228.574 9.10161C228.046 8.94067 227.748 8.38192 227.909 7.8536C228.07 7.32529 228.629 7.02747 229.157 7.18841L228.574 9.10161ZM222.279 5.28234C222.815 5.41646 223.141 5.95949 223.007 6.49525C222.872 7.031 222.329 7.35659 221.794 7.22248L222.279 5.28234ZM217.881 6.3013C217.342 6.18225 217.001 5.64855 217.12 5.10925C217.239 4.56995 217.773 4.22927 218.312 4.34831L217.881 6.3013ZM211.309 2.97785C211.854 3.07103 212.219 3.58788 212.126 4.13224C212.033 4.67661 211.516 5.04236 210.972 4.94917L211.309 2.97785ZM207 4.32342C206.454 4.24465 206.074 3.73766 206.153 3.19102C206.232 2.64438 206.739 2.2651 207.286 2.34386L207 4.32342ZM200.204 1.48635C200.753 1.54049 201.155 2.02994 201.101 2.57956C201.047 3.12919 200.557 3.53086 200.008 3.47672L200.204 1.48635ZM196 3.1324C195.449 3.09194 195.036 2.61263 195.076 2.06182C195.117 1.51102 195.596 1.09731 196.147 1.13777L196 3.1324ZM189.026 0.766548C189.578 0.783731 190.011 1.24516 189.994 1.79718C189.977 2.34919 189.515 2.78277 188.963 2.76558L189.026 0.766548ZM184.939 2.68752C184.387 2.68323 183.943 2.23205 183.947 1.67978C183.951 1.12751 184.403 0.683286 184.955 0.687574L184.939 2.68752ZM177.828 0.774515C178.38 0.756899 178.841 1.19011 178.859 1.74211C178.877 2.29412 178.443 2.75588 177.891 2.7735L177.828 0.774515ZM173.868 2.94635C173.316 2.9761 172.845 2.55315 172.816 2.00167C172.786 1.45018 173.209 0.979 173.76 0.949257L173.868 2.94635ZM166.654 1.46671C167.204 1.41638 167.691 1.82143 167.741 2.37142C167.791 2.9214 167.386 3.40806 166.836 3.45839L166.654 1.46671ZM162.828 3.86738C162.279 3.92912 161.784 3.53426 161.722 2.98544C161.66 2.43662 162.055 1.94166 162.604 1.87992L162.828 3.86738ZM155.541 2.80198C156.087 2.72086 156.596 3.09797 156.677 3.64426C156.758 4.19055 156.381 4.69917 155.835 4.78029L155.541 2.80198ZM151.854 5.41168C151.309 5.50356 150.793 5.13655 150.701 4.59196C150.61 4.04737 150.977 3.53142 151.521 3.43955L151.854 5.41168ZM144.52 4.74281C145.061 4.63264 145.589 4.98206 145.7 5.52324C145.81 6.06443 145.46 6.59245 144.919 6.70262L144.52 4.74281ZM140.976 7.54406C140.437 7.66439 139.903 7.32499 139.782 6.78598C139.662 6.24696 140.001 5.71245 140.54 5.59212L140.976 7.54406ZM133.617 7.25605C134.152 7.11836 134.697 7.44032 134.835 7.97517C134.973 8.51001 134.651 9.05521 134.116 9.1929L133.617 7.25605ZM130.22 10.2336C129.688 10.3809 129.137 10.0689 128.99 9.53665C128.842 9.0044 129.155 8.45345 129.687 8.30608L130.22 10.2336ZM122.856 10.3133C123.383 10.1493 123.943 10.444 124.107 10.9714C124.271 11.4988 123.977 12.0592 123.449 12.2231L122.856 10.3133ZM119.61 13.4538C119.086 13.627 118.52 13.3423 118.347 12.8178C118.174 12.2934 118.458 11.7279 118.983 11.5547L119.61 13.4538ZM112.257 13.8909C112.775 13.7017 113.349 13.969 113.539 14.4879C113.728 15.0068 113.46 15.5808 112.941 15.7699L112.257 13.8909ZM109.167 17.1829C108.651 17.381 108.073 17.1236 107.874 16.6081C107.676 16.0925 107.934 15.514 108.449 15.316L109.167 17.1829ZM101.841 17.97C102.35 17.7564 102.936 17.9963 103.15 18.5056C103.363 19.015 103.123 19.6009 102.614 19.8145L101.841 17.97ZM98.912 21.4037C98.4064 21.6259 97.8164 21.3962 97.5941 20.8906C97.3719 20.385 97.6017 19.7949 98.1073 19.5727L98.912 21.4037ZM91.6295 22.5365C92.1282 22.2992 92.7249 22.5111 92.9622 23.0098C93.1995 23.5085 92.9876 24.1052 92.4889 24.3425L91.6295 22.5365ZM88.8687 26.1033C88.3741 26.3492 87.7739 26.1476 87.5281 25.653C87.2822 25.1584 87.4839 24.5582 87.9784 24.3124L88.8687 26.1033ZM81.6455 27.581C82.1324 27.3203 82.7384 27.5036 82.9992 27.9905C83.2599 28.4773 83.0766 29.0834 82.5897 29.3441L81.6455 27.581ZM79.0614 31.2733C78.5792 31.5425 77.97 31.3698 77.7009 30.8876C77.4317 30.4053 77.6044 29.7962 78.0866 29.527L79.0614 31.2733ZM71.9146 33.0987C72.3882 32.8147 73.0024 32.9684 73.2865 33.442C73.5705 33.9157 73.4168 34.5299 72.9431 34.8139L71.9146 33.0987ZM69.516 36.9111C69.0475 37.2036 68.4306 37.0609 68.1381 36.5924C67.8456 36.124 67.9883 35.5071 68.4567 35.2146L69.516 36.9111ZM62.467 39.0892C62.9258 38.7818 63.5469 38.9045 63.8544 39.3633C64.1618 39.8221 64.0391 40.4432 63.5803 40.7507L62.467 39.0892ZM60.2598 43.021C59.8069 43.337 59.1835 43.226 58.8675 42.773C58.5515 42.32 58.6625 41.6967 59.1155 41.3807L60.2598 43.021ZM53.3394 45.5567C53.7814 45.2255 54.4081 45.3153 54.7393 45.7573C55.0705 46.1993 54.9806 46.8261 54.5387 47.1572L53.3394 45.5567ZM51.3371 49.6061C50.9019 49.946 50.2734 49.8687 49.9335 49.4335C49.5936 48.9982 49.6709 48.3697 50.1062 48.0298L51.3371 49.6061ZM44.5774 52.5095C45.0001 52.154 45.6309 52.2085 45.9863 52.6312C46.3418 53.0539 46.2873 53.6847 45.8645 54.0402L44.5774 52.5095ZM42.798 56.6757C42.3831 57.0402 41.7512 56.9993 41.3867 56.5844C41.0222 56.1695 41.0631 55.5376 41.478 55.1731L42.798 56.6757ZM36.2309 59.9667C36.6312 59.5862 37.2642 59.6022 37.6447 60.0025C38.0252 60.4028 38.0092 61.0357 37.6089 61.4163L36.2309 59.9667ZM34.7062 64.2418C34.3151 64.6317 33.682 64.6308 33.292 64.2397C32.9021 63.8485 32.903 63.2154 33.2941 62.8254L34.7062 64.2418ZM28.3601 67.9614C28.7338 67.5548 29.3664 67.5281 29.773 67.9019C30.1796 68.2756 30.2063 68.9082 29.8325 69.3148L28.3601 67.9614ZM27.144 72.318C26.7812 72.7344 26.1495 72.7777 25.7332 72.4149C25.3168 72.052 25.2734 71.4204 25.6363 71.004L27.144 72.318ZM21.0779 76.4987C21.4198 76.065 22.0485 75.9905 22.4823 76.3324C22.916 76.6743 22.9904 77.3031 22.6485 77.7368L21.0779 76.4987ZM20.2177 80.9164C19.889 81.3602 19.2627 81.4534 18.8189 81.1246C18.3752 80.7959 18.2819 80.1696 18.6107 79.7258L20.2177 80.9164ZM14.5117 85.594C14.8148 85.1323 15.4348 85.0038 15.8964 85.3069C16.3581 85.61 16.4867 86.23 16.1836 86.6917L14.5117 85.594ZM14.0447 90.0748C13.7578 90.5468 13.1426 90.6967 12.6707 90.4098C12.1988 90.1229 12.0488 89.5078 12.3357 89.0359L14.0447 90.0748ZM8.82613 95.2532C9.08138 94.7634 9.68533 94.5733 10.1751 94.8285C10.6649 95.0838 10.855 95.6877 10.5997 96.1775L8.82613 95.2532ZM8.80729 99.7946C8.57239 100.294 7.97677 100.509 7.47693 100.274C6.97709 100.039 6.7623 99.4438 6.99719 98.9439L8.80729 99.7946ZM4.20183 105.534C4.39727 105.018 4.97444 104.757 5.49099 104.953C6.00754 105.148 6.26788 105.725 6.07244 106.242L4.20183 105.534ZM4.74901 110.008C4.57864 110.534 4.01465 110.822 3.48929 110.651C2.96395 110.481 2.67619 109.917 2.84656 109.391L4.74901 110.008ZM0.940457 116.314C1.0622 115.776 1.5976 115.438 2.13629 115.559C2.67499 115.681 3.01302 116.217 2.89128 116.755L0.940457 116.314ZM269.5 30.0376C268.964 29.6256 268.426 29.2188 267.885 28.8169L269.079 27.212C269.628 27.6202 270.175 28.0336 270.719 28.4521L269.5 30.0376ZM262.13 24.7831C261.009 24.0435 259.879 23.3241 258.741 22.6247L259.788 20.9208C260.944 21.6314 262.092 22.3623 263.231 23.1137L262.13 24.7831ZM252.654 19.1145C251.473 18.4764 250.284 17.8584 249.087 17.2602L249.981 15.4713C251.197 16.0789 252.405 16.7066 253.605 17.3547L252.654 19.1145ZM242.718 14.2921C241.487 13.7587 240.248 13.2449 239.003 12.7505L239.742 10.8917C241.005 11.3936 242.263 11.9153 243.513 12.4569L242.718 14.2921ZM232.403 10.3298C231.132 9.90146 229.856 9.49215 228.574 9.10161L229.157 7.18841C230.458 7.58464 231.753 7.99996 233.042 8.43463L232.403 10.3298ZM221.794 7.22248C220.494 6.89723 219.19 6.59025 217.881 6.3013L218.312 4.34831C219.639 4.64126 220.962 4.95251 222.279 5.28234L221.794 7.22248ZM210.972 4.94917C209.652 4.72321 208.328 4.51471 207 4.32342L207.286 2.34386C208.63 2.53765 209.972 2.74888 211.309 2.97785L210.972 4.94917ZM200.008 3.47672C198.675 3.34542 197.339 3.23073 196 3.1324L196.147 1.13777C197.502 1.2373 198.854 1.35341 200.204 1.48635L200.008 3.47672ZM188.963 2.76558C187.624 2.72388 186.282 2.69794 184.939 2.68752L184.955 0.687574C186.313 0.69812 187.67 0.72436 189.026 0.766548L188.963 2.76558ZM177.891 2.7735C176.551 2.81628 175.21 2.87397 173.868 2.94635L173.76 0.949257C175.117 0.876089 176.473 0.817763 177.828 0.774515L177.891 2.7735ZM166.836 3.45839C165.5 3.58068 164.164 3.71709 162.828 3.86738L162.604 1.87992C163.954 1.7281 165.304 1.59028 166.654 1.46671L166.836 3.45839ZM155.835 4.78029C154.507 4.97748 153.18 5.18803 151.854 5.41168L151.521 3.43955C152.86 3.21372 154.2 3.00112 155.541 2.80198L155.835 4.78029ZM144.919 6.70262C143.603 6.97055 142.288 7.25111 140.976 7.54406L140.54 5.59212C141.865 5.29645 143.191 5.01326 144.52 4.74281L144.919 6.70262ZM134.116 9.1929C132.814 9.52793 131.516 9.87489 130.22 10.2336L129.687 8.30608C130.994 7.9442 132.304 7.59411 133.617 7.25605L134.116 9.1929ZM123.449 12.2231C122.166 12.6221 120.886 13.0324 119.61 13.4538L118.983 11.5547C120.27 11.1297 121.561 10.7158 122.856 10.3133L123.449 12.2231ZM112.941 15.7699C111.678 16.2303 110.42 16.7014 109.167 17.1829L108.449 15.316C109.713 14.8303 110.983 14.3552 112.257 13.8909L112.941 15.7699ZM102.614 19.8145C101.374 20.3342 100.14 20.864 98.912 21.4037L98.1073 19.5727C99.3458 19.0284 100.59 18.4941 101.841 17.97L102.614 19.8145ZM92.4889 24.3425C91.2753 24.9199 90.0684 25.507 88.8687 26.1033L87.9784 24.3124C89.1884 23.7109 90.4056 23.1189 91.6295 22.5365L92.4889 24.3425ZM82.5897 29.3441C81.4056 29.9782 80.2294 30.6214 79.0614 31.2733L78.0866 29.527C79.2648 28.8693 80.4512 28.2206 81.6455 27.581L82.5897 29.3441ZM72.9431 34.8139C71.7916 35.5045 70.649 36.2036 69.516 36.9111L68.4567 35.2146C69.6 34.5008 70.7528 33.7954 71.9146 33.0987L72.9431 34.8139ZM63.5803 40.7507C62.4629 41.4994 61.3559 42.2563 60.2598 43.021L59.1155 41.3807C60.2219 40.6088 61.3392 39.8449 62.467 39.0892L63.5803 40.7507ZM54.5387 47.1572C53.4593 47.966 52.392 48.7824 51.3371 49.6061L50.1062 48.0298C51.1716 47.1978 52.2495 46.3733 53.3394 45.5567L54.5387 47.1572ZM45.8645 54.0402C44.8283 54.9116 43.8059 55.7902 42.798 56.6757L41.478 55.1731C42.4969 54.278 43.5302 53.39 44.5774 52.5095L45.8645 54.0402ZM37.6089 61.4163C36.6251 62.3516 35.6574 63.2935 34.7062 64.2418L33.2941 62.8254C34.2567 61.8658 35.2357 60.9128 36.2309 59.9667L37.6089 61.4163ZM29.8325 69.3148C28.9178 70.31 28.0214 71.3112 27.144 72.318L25.6363 71.004C26.5254 69.9837 27.4336 68.9693 28.3601 67.9614L29.8325 69.3148ZM22.6485 77.7368C21.817 78.7916 21.0066 79.8516 20.2177 80.9164L18.6107 79.7258C19.4116 78.6447 20.2342 77.5689 21.0779 76.4987L22.6485 77.7368ZM16.1836 86.6917C15.4459 87.8152 14.7327 88.9431 14.0447 90.0748L12.3357 89.0359C13.036 87.8839 13.7616 86.7365 14.5117 85.594L16.1836 86.6917ZM10.5997 96.1775C9.97298 97.3801 9.37527 98.5859 8.80729 99.7946L6.99719 98.9439C7.57709 97.7099 8.18701 96.4795 8.82613 95.2532L10.5997 96.1775ZM6.07244 106.242C5.59811 107.496 5.1567 108.751 4.74901 110.008L2.84656 109.391C3.26435 108.103 3.71642 106.817 4.20183 105.534L6.07244 106.242ZM2.89128 116.755C2.74529 117.401 2.60852 118.047 2.48111 118.693L0.518885 118.307C0.649916 117.642 0.79048 116.978 0.940457 116.314L2.89128 116.755Z" fill="url(#paint0_linear)"/>
<defs>
<linearGradient id="paint0_linear" x1="197.428" y1="-42.5511" x2="177.207" y2="163.968" gradientUnits="userSpaceOnUse">
<stop stop-color="#B4B4FF"/>
<stop offset="1" stop-color="#1919C7"/>
</linearGradient>
</defs>
</svg>
