<svg width="154" height="118" viewBox="0 0 154 118" fill="none" xmlns="http://www.w3.org/2000/svg">
<path d="M125 1.217C125 1.45798 125.071 1.69361 125.205 1.89406C125.339 2.09451 125.529 2.25078 125.751 2.34309C125.974 2.43541 126.219 2.45961 126.455 2.41264C126.692 2.36568 126.909 2.24966 127.079 2.07925C127.25 1.90885 127.366 1.69173 127.413 1.45537C127.46 1.21901 127.435 0.974036 127.343 0.751435C127.251 0.528834 127.095 0.338609 126.894 0.20485C126.694 0.0710902 126.458 -0.00019736 126.217 4.10385e-07C126.057 4.10385e-07 125.899 0.0314765 125.751 0.0926365C125.604 0.153796 125.469 0.243437 125.356 0.356446C125.243 0.469455 125.154 0.603629 125.093 0.751282C125.031 0.898935 125 1.05718 125 1.217Z" fill="#7676E3"/>
<path opacity="0.1" d="M140 28C140 24.134 143.134 21 147 21C150.866 21 154 24.134 154 28C154 31.866 150.866 35 147 35C143.134 35 140 31.866 140 28Z" fill="url(#paint0_linear)"/>
<path opacity="0.1" d="M0 61C0 54.9249 4.92488 50 11 50C17.0751 50 22 54.9249 22 61C22 67.0751 17.0751 72 11 72C4.92488 72 0 67.0751 0 61Z" fill="url(#paint1_linear)"/>
<path d="M115.343 76.6623V104.382C115.343 109.122 111.465 113 106.725 113H71.9648V100.672C72.9665 101.189 74.0845 101.44 75.2112 101.4C76.3378 101.361 77.4354 101.032 78.3982 100.446C79.3611 99.8591 80.1569 99.0349 80.7091 98.052C81.2613 97.0691 81.5513 95.9607 81.5513 94.8333C81.5513 93.7059 81.2613 92.5975 80.7091 91.6146C80.1569 90.6317 79.3611 89.8074 78.3982 89.221C77.4354 88.6346 76.3378 88.3058 75.2112 88.2661C74.0845 88.2265 72.9665 88.4774 71.9648 88.9947V76.6623H87.8176C87.331 75.7315 87.0782 74.6963 87.0808 73.646C87.081 72.6509 87.3071 71.6688 87.7421 70.7737C88.1772 69.8787 88.8097 69.0941 89.5922 68.4791C90.3746 67.8642 91.2864 67.4349 92.2589 67.2236C93.2313 67.0124 94.2391 67.0247 95.2061 67.2597C96.1731 67.4946 97.0742 67.9461 97.8413 68.58C98.6085 69.2139 99.2217 70.0137 99.6347 70.9191C100.048 71.8245 100.25 72.8119 100.226 73.8068C100.201 74.8016 99.9517 75.778 99.4952 76.6623H115.343Z" fill="#FFD3A6"/>
<path d="M123.783 17.2573L131.372 43.9183L116.129 48.2571C116.354 47.151 116.29 46.0056 115.944 44.9311C115.598 43.8567 114.981 42.8894 114.153 42.1223C113.325 41.3553 112.313 40.8144 111.216 40.5517C110.118 40.2889 108.971 40.3132 107.885 40.6222C106.799 40.9312 105.812 41.5145 105.017 42.3159C104.222 43.1173 103.647 44.1098 103.346 45.198C103.046 46.2861 103.031 47.4332 103.303 48.5288C103.575 49.6244 104.124 50.6317 104.897 51.4536L89.6502 55.7932L86.2754 43.9361C85.4536 44.7097 84.4464 45.2588 83.3508 45.5304C82.2553 45.802 81.1082 45.787 80.0202 45.4869C78.9321 45.1867 77.9396 44.6115 77.1382 43.8167C76.3368 43.0218 75.7536 42.034 75.4446 40.9484C75.1355 39.8628 75.1112 38.716 75.3739 37.6182C75.6365 36.5205 76.1774 35.5089 76.9443 34.6807C77.7112 33.8526 78.6784 33.2358 79.7528 32.8897C80.8271 32.5437 81.9725 32.4801 83.0786 32.7049L79.7026 20.8439L113.135 11.3279C117.694 10.0309 122.486 12.6992 123.783 17.2573Z" fill="url(#paint2_linear)"/>
<path d="M81.561 94.8328C81.5602 95.9605 81.2695 97.069 80.7168 98.0518C80.164 99.0347 79.3677 99.8589 78.4045 100.445C77.4413 101.032 76.3434 101.36 75.2165 101.4C74.0895 101.44 72.9713 101.189 71.9693 100.671V113H37.2088C32.4689 113 28.5908 109.122 28.5908 104.382V76.6619H44.4436C43.9262 77.6636 43.6753 78.7815 43.7149 79.9082C43.7545 81.0349 44.0834 82.1325 44.6698 83.0954C45.2562 84.0583 46.0805 84.8541 47.0634 85.4063C48.0463 85.9586 49.1547 86.2486 50.2821 86.2486C51.4096 86.2486 52.518 85.9586 53.5009 85.4063C54.4838 84.8541 55.3081 84.0583 55.8945 83.0954C56.4809 82.1325 56.8098 81.0349 56.8494 79.9082C56.889 78.7815 56.6381 77.6636 56.1207 76.6619H71.9693V88.9943C72.9713 88.477 74.0895 88.2261 75.2165 88.2657C76.3434 88.3053 77.4412 88.6341 78.4045 89.2204C79.3677 89.8068 80.1639 90.6309 80.7167 91.6138C81.2695 92.5967 81.5602 93.7052 81.561 94.8328Z" fill="url(#paint3_linear)"/>
<path d="M62.3818 58.4952C62.382 59.6226 62.6721 60.731 63.2245 61.7139C63.7768 62.6968 64.5727 63.521 65.5356 64.1074C66.4985 64.6939 67.5961 65.0227 68.7228 65.0623C69.8496 65.102 70.9676 64.8511 71.9693 64.3338V76.6619H56.1207C56.6381 77.6635 56.8889 78.7815 56.8493 79.9082C56.8097 81.0348 56.4808 82.1324 55.8944 83.0952C55.308 84.0581 54.4837 84.8539 53.5008 85.4061C52.518 85.9583 51.4095 86.2484 50.2821 86.2484C49.1548 86.2484 48.0463 85.9583 47.0635 85.4061C46.0806 84.8539 45.2563 84.0581 44.6699 83.0952C44.0835 82.1324 43.7546 81.0348 43.715 79.9082C43.6754 78.7815 43.9262 77.6635 44.4436 76.6619H28.5908V48.9422C28.5908 44.2023 32.4689 40.3242 37.2088 40.3242H71.9693V52.6566C71.0385 52.1699 70.0033 51.917 68.953 51.9198C68.0897 51.9196 67.2348 52.0896 66.4372 52.4201C65.6396 52.7505 64.915 53.2349 64.3047 53.8456C63.6944 54.4562 63.2105 55.1812 62.8805 55.979C62.5506 56.7768 62.3811 57.6318 62.3818 58.4952Z" fill="#FFD3A6"/>
<path d="M127.798 68.4486C127.127 68.0644 126.425 67.7358 125.7 67.4659L127.215 64.2036L119.439 63.0005L117.924 66.2644C116.168 66.3119 114.425 66.5814 112.736 67.0663L108.599 64.6776L102.907 67.9641L107.044 70.3528C106.273 71.1769 105.786 72.2266 105.655 73.3477L100.002 74.2224L102.085 78.712L107.736 77.8374C108.261 78.2976 108.831 78.7038 109.438 79.0499C110.109 79.4341 110.81 79.7628 111.535 80.0326L110.021 83.2954L117.796 84.498L119.311 81.2341C121.068 81.1865 122.811 80.9171 124.499 80.4322L128.637 82.8208L134.329 79.5343L130.192 77.1457C130.963 76.3216 131.45 75.2719 131.58 74.1507L137.234 73.2761L135.15 68.7864L129.501 69.6611C128.975 69.2007 128.405 68.7945 127.798 68.4486ZM123.231 76.4115C120.683 77.8825 116.552 77.8825 114.005 76.4115C111.458 74.9405 111.458 72.5563 114.005 71.0853C116.552 69.6142 120.683 69.6142 123.231 71.0853C125.778 72.5563 125.778 74.9405 123.231 76.4115Z" fill="url(#paint4_linear)"/>
<path d="M123.96 75.9083C125.747 74.4389 125.504 72.398 123.231 71.0852C120.683 69.6142 116.552 69.6142 114.005 71.0852C111.974 72.258 111.564 74.0112 112.772 75.4194C113.124 75.0216 113.541 74.6862 114.005 74.4273C116.552 72.9569 120.683 72.9569 123.231 74.4273C123.695 74.6862 124.111 75.0216 124.464 75.4194C124.31 75.5966 124.142 75.7602 123.96 75.9083Z" fill="url(#paint5_linear)"/>
<path d="M109.439 79.0482C108.833 78.7021 108.263 78.2959 107.738 77.8356L102.087 78.7103L100.014 74.2532H100L100.014 74.284H100L100.014 74.3149H100L100.014 74.3458H100L100.014 74.3766H100L100.014 74.4075H100L100.014 74.4384H100L100.014 74.4692H100L100.014 74.5001H100L100.014 74.531H100L100.014 74.5618H100L100.014 74.5927H100L100.014 74.6235H100L100.014 74.6544H100L100.014 74.6853H100L100.014 74.7161H100L100.014 74.747H100L100.014 74.7779H100L100.014 74.8087H100L100.014 74.8396H100L100.014 74.8705H100L100.014 74.9013H100L100.014 74.9322H100L100.014 74.9631H100L100.014 74.9939H100L100.014 75.0248H100L100.014 75.0556H100L100.014 75.0871H100L100.014 75.1174H100L100.014 75.1488H100L100.014 75.1802H100L100.014 75.2105L100 75.2133L100.014 75.2441H100L100.014 75.275H100L100.014 75.3059H100L100.014 75.3367H100L100.014 75.3676H100L100.014 75.3985H100L100.014 75.4293H100L100.014 75.4602H100L100.014 75.491H100L100.014 75.5219H100L100.014 75.5528H100L100.014 75.5836H100L100.014 75.6145H100L100.014 75.6454H100L100.014 75.6762H100L100.014 75.7071H100L100.014 75.738H100L100.014 75.7688H100L100.014 75.7997H100L100.014 75.8306H100L100.014 75.8614H100L100.014 75.8923H100L100.014 75.9231H100L100.014 75.954H100L100.014 75.9849H100L100.014 76.0157H100L100.014 76.0466H100L100.014 76.0775H100L100.014 76.1083H100L100.014 76.1392H100L100.014 76.1701H100L100.014 76.2009H100L100.014 76.2318H100L100.014 76.2627H100L100.014 76.2935H100L100.014 76.3244H100L100.014 76.3552H100L100.014 76.3861H100L100.014 76.417H100L100.014 76.6055H100L100.014 76.6363H100L100.014 76.6672H100L100.014 76.6981H100L100.014 76.7295H100L100.014 76.7603H100L100.014 76.7912H100L100.014 76.8221H100L100.014 76.8529H100L100.014 76.8838H100L100.014 76.9147H100L100.014 76.9455H100L100.014 76.9764H100L100.014 77.0073H100L100.014 77.0381H100L100.014 77.069H100L100.014 77.0998H100L100.014 77.1307H100L100.014 77.1616H100L100.014 77.1924H100L100.014 77.2233H100L100.014 77.2542H100L100.014 77.285H100L100.014 77.3159H100L100.014 77.3468H100L100.014 77.3776H100L100.014 77.4079H100L100.014 77.4388H100L100.014 77.4702H100L100.014 77.5005L100 77.5033L102.083 81.9924L107.736 81.18C108.261 81.6399 108.831 82.0461 109.437 82.3925C109.697 82.5424 109.967 82.6824 110.242 82.8163L110.022 83.2953L111.537 80.0325C110.812 79.7622 110.11 79.433 109.439 79.0482Z" fill="url(#paint6_linear)"/>
<path d="M128.638 82.8191L124.5 80.4304C122.811 80.9154 121.068 81.1848 119.312 81.2323L117.797 84.4962L110.021 83.2936H110.036L110.021 83.3239L110.036 83.3267L110.021 83.3576H110.036L110.021 83.3884H110.036L110.021 83.4193H110.036L110.021 83.4502H110.036L110.021 83.481H110.036L110.021 83.5119H110.036L110.021 83.5428H110.036L110.021 83.5736H110.036L110.021 83.6045H110.036L110.021 83.6353H110.036L110.021 83.6662H110.036L110.021 83.6971H110.036L110.021 83.7279H110.036L110.021 83.7588H110.036L110.021 83.7897H110.036L110.021 83.8205H110.036L110.021 83.8514H110.036L110.021 83.8823H110.036L110.021 83.9131H110.036L110.021 83.944H110.036L110.021 83.9749H110.036L110.021 84.0057H110.036L110.021 84.0366L110.036 84.0393L110.021 84.0702H110.036L110.021 84.1011H110.036L110.021 84.1319H110.036L110.021 84.1628H110.036L110.021 84.1937H110.036L110.021 84.2245H110.036L110.021 84.2554H110.036L110.021 84.2863H110.036L110.021 84.3171H110.036L110.021 84.348H110.036L110.021 84.3788H110.036L110.021 84.4097H110.036L110.021 84.4406H110.036L110.021 84.4714H110.036L110.021 84.5023H110.036L110.021 84.5332H110.036L110.021 84.564H110.036L110.021 84.5949H110.036L110.021 84.6258H110.036L110.021 84.6566H110.036L110.021 84.6875H110.036L110.021 84.7183H110.036L110.021 84.7492L110.036 84.752L110.021 84.7828H110.036L110.021 84.8137H110.036L110.021 84.8446H110.036L110.021 84.8754H110.036L110.021 84.9063H110.036L110.021 84.9372H110.036L110.021 84.968H110.036L110.021 84.9989H110.036L110.021 85.0297H110.036L110.021 85.0606H110.036L110.021 85.0915H110.036L110.021 85.1223H110.036L110.021 85.1532H110.036L110.021 85.1841H110.036L110.021 85.2149H110.036L110.021 85.2458H110.036L110.021 85.2767H110.036L110.021 85.3075H110.036L110.021 85.3384H110.036L110.021 85.3693H110.036L110.021 85.4001H110.036L110.021 85.431L110.036 85.4337L110.021 85.464L110.036 85.4668L110.021 85.4977H110.036L110.021 85.5285H110.036L110.021 85.5594H110.036L110.021 85.5903H110.036L110.021 85.6211H110.036L110.021 85.652H110.036L110.021 85.6829H110.036L110.021 85.7137H110.036L110.021 85.7446H110.036L110.021 85.7754H110.036L110.021 85.8063H110.036L110.021 85.8372H110.036L110.021 85.868H110.036L110.021 85.8989H110.036L110.021 85.9298H110.036L110.021 85.9606H110.036L110.021 85.9915H110.036L110.021 86.0224H110.036L110.021 86.0532H110.036L110.021 86.0841H110.036L110.021 86.1155H110.036L110.021 86.1464H110.036L110.021 86.1772L110.036 86.18L110.021 86.2108H110.036L110.021 86.2417H110.036L110.021 86.2726H110.036L110.021 86.3034H110.036L110.021 86.3343H110.036L110.021 86.3652H110.036L110.021 86.396H110.036L110.021 86.4269L117.797 87.6295L119.312 84.3656C121.068 84.3185 122.812 84.0493 124.5 83.5643L128.638 85.9529L134.33 82.6664L134.301 82.6499L134.33 82.6334L134.301 82.6168L134.33 82.6003L134.301 82.5838L134.33 82.5672L134.301 82.5507L134.33 82.5342L134.301 82.5176L134.33 82.5011L134.301 82.4846L134.33 82.468L134.301 82.4509L134.33 82.4349L134.301 82.4179L134.33 82.4013L134.301 82.3848L134.33 82.3683L134.301 82.3517L134.33 82.3352L134.301 82.3187L134.33 82.3021L134.301 82.2856L134.33 82.2691L134.301 82.2525L134.33 82.236L134.301 82.2195L134.33 82.2029L134.301 82.1864L134.33 82.1698L134.301 82.1533L134.33 82.1368L134.301 82.1202L134.33 82.1037L134.301 82.0872L134.33 82.0706L134.301 82.0541L134.33 82.0376L134.301 82.021L134.33 82.0045L134.301 81.988L134.33 81.9714L134.301 81.9549L134.33 81.9384L134.301 81.9218L134.33 81.9053L134.301 81.8888L134.33 81.8722L134.301 81.8557L134.33 81.8392L134.301 81.8226L134.33 81.8061L134.301 81.7896L134.33 81.773L134.301 81.7565L134.33 81.7399L134.301 81.7234L134.33 81.7069L134.301 81.6898L134.33 81.6733L134.301 81.6567L134.33 81.6402L134.301 81.6237L134.33 81.6071L134.301 81.5906L134.33 81.5741L134.301 81.5575L134.33 81.541L134.301 81.5245L134.33 81.5079L134.301 81.4914L134.33 81.4749L134.301 81.4583L134.33 81.4418L134.301 81.4252L134.33 81.4087L134.301 81.3922L134.33 81.3756L134.301 81.3591L134.33 81.3426L134.301 81.326L134.33 81.3095L134.301 81.293L134.33 81.2764L134.301 81.2599L134.33 81.2434L134.301 81.2268L134.33 81.2103L134.301 81.1938L134.33 81.1772L134.301 81.1607L134.33 81.1442L134.301 81.1276L134.33 81.1111L134.301 81.0946L134.33 81.078L134.301 81.0615L134.33 81.045L134.301 81.0284L134.33 81.0119L134.301 80.9948L134.33 80.9788L134.301 80.9623L134.33 80.9458L134.301 80.9292L134.33 80.9121L134.301 80.8956L134.33 80.8791L134.301 80.8625L134.33 80.846L134.301 80.8295L134.33 80.8129L134.301 80.7964L134.33 80.7799L134.301 80.7633L134.33 80.7468L134.301 80.7302L134.33 80.7137L134.301 80.6972L134.33 80.6806L134.301 80.6641L134.33 80.6476L134.301 80.631L134.33 80.6145L134.301 80.598L134.33 80.5814L134.301 80.5649L134.33 80.5484L134.301 80.5318L134.33 80.5153L134.301 80.4988L134.33 80.4822L134.301 80.4657L134.33 80.4492L134.301 80.4326L134.33 80.4161L134.301 80.3996L134.33 80.383L134.301 80.3665L134.33 80.35L134.301 80.3334L134.33 80.3169L134.301 80.3004L134.33 80.2838L134.301 80.2673L134.33 80.2508L134.301 80.2342L134.33 80.2177L134.301 80.2012L134.33 80.1841L134.301 80.1675L134.33 80.1516L134.301 80.1345L134.33 80.1179L134.301 80.1014L134.33 80.0849L134.301 80.0683L134.33 80.0518L134.301 80.0353L134.33 80.0187L134.301 80.0022L134.33 79.9857L134.301 79.9691L134.33 79.9526L134.301 79.936L134.33 79.9195L134.301 79.903L134.33 79.8864L134.301 79.8699L134.33 79.8534L134.301 79.8368L134.33 79.8203L134.301 79.8038L134.33 79.7872L134.301 79.7707L134.33 79.7542L134.301 79.7376L134.33 79.7211L134.301 79.7046L134.33 79.688L134.301 79.6715L134.33 79.655L134.301 79.6384L134.33 79.6219L134.301 79.6054L134.33 79.5888L134.301 79.5723L134.33 79.5558L134.301 79.5392L134.33 79.5227L134.301 79.5062L134.33 79.4891L134.301 79.4731L134.33 79.4566L134.301 79.44L134.33 79.4235L134.301 79.4064L134.33 79.3899L134.301 79.3733L134.33 79.3568L134.301 79.3403L134.33 79.3237L128.638 82.8191Z" fill="url(#paint7_linear)"/>
<path d="M137.216 73.2766H137.23L131.577 74.1513C131.446 75.2724 130.96 76.3222 130.188 77.1462L131.517 77.9129C131.543 77.7734 131.564 77.6334 131.577 77.4934L137.23 76.6188L137.216 76.5879H137.23L137.216 76.557H137.23L137.216 76.5262H137.23L137.216 76.4953H137.23L137.216 76.4645H137.23L137.216 76.4336H137.23L137.216 76.4027H137.23L137.216 76.3719H137.23L137.216 76.341H137.23L137.216 76.3101H137.23L137.216 76.2793H137.23L137.216 76.2484H137.23L137.216 76.2175H137.23L137.216 76.1867H137.23L137.216 76.1558H137.23L137.216 76.1244H137.23L137.216 76.0544H137.23L137.216 76.0235H137.23L137.216 75.9927H137.23L137.216 75.9618H137.23L137.216 75.9309H137.23L137.216 75.9001H137.23L137.216 75.8692H137.23L137.216 75.8383H137.23L137.216 75.8075H137.23L137.216 75.7766H137.23L137.216 75.7458H137.23L137.216 75.7149H137.23L137.216 75.684H137.23L137.216 75.6532H137.23L137.216 75.6223H137.23L137.216 75.5914H137.23L137.216 75.5606H137.23L137.216 75.5297H137.23L137.216 75.4988H137.23L137.216 75.468H137.23L137.216 75.4371H137.23L137.216 75.4062H137.23L137.216 75.3748H137.23L137.216 75.344H137.23L137.216 75.3137H137.23L137.216 75.2828H137.23L137.216 75.2519H137.23L137.216 75.2211H137.23L137.216 75.1902H137.23L137.216 75.1593H137.23L137.216 75.1285H137.23L137.216 75.0976H137.23L137.216 75.0667H137.23L137.216 75.0359H137.23L137.216 75.005H137.23L137.216 74.9741H137.23L137.216 74.9433H137.23L137.216 74.9124H137.23L137.216 74.8816H137.23L137.216 74.8507H137.23L137.216 74.8198H137.23L137.216 74.789H137.23L137.216 74.7581H137.23L137.216 74.7278H137.23L137.216 74.6964H137.23L137.216 74.665H137.23L137.216 74.6346H137.23L137.216 74.6032H137.23L137.216 74.5724H137.23L137.216 74.5415H137.23L137.216 74.401H137.23L137.216 74.3701H137.23L137.216 74.3392H137.23L137.216 74.3084H137.23L137.216 74.2775H137.23L137.216 74.2466H137.23L137.216 74.2158H137.23L137.216 74.1849H137.23L137.216 74.154H137.23L137.216 74.1232H137.23L137.216 74.0923H137.23L137.216 74.0614H137.23L137.216 74.0306H137.23L137.216 73.9997H137.23L137.216 73.9689H137.23L137.216 73.938H137.23L137.216 73.9071H137.23L137.216 73.8763H137.23L137.216 73.8454H137.23L137.216 73.8145H137.23L137.216 73.7837H137.23L137.216 73.7528H137.23L137.216 73.7219H137.23L137.216 73.6911H137.23L137.216 73.6602H137.23L137.216 73.6293H137.23L137.216 73.5985H137.23L137.216 73.5676H137.23L137.216 73.5368H137.23L137.216 73.5059H137.23L137.216 73.475H137.23L137.216 73.4442H137.23L137.216 73.4133H137.23L137.216 73.3824H137.23L137.216 73.2766Z" fill="url(#paint8_linear)"/>
<path d="M126.992 68.0244L127.213 67.546H127.198L127.213 67.5151H127.198L127.213 67.4842H127.198L127.213 67.4534H127.198L127.213 67.4225H127.198L127.213 67.3917H127.198L127.213 67.3608H127.198L127.213 67.3299H127.198L127.213 67.2991H127.198L127.213 67.2682H127.198L127.213 67.2373L127.198 67.2346L127.213 67.2037H127.198L127.213 67.1723H127.198L127.213 67.1414H127.198L127.213 67.1106H127.198L127.213 67.0797H127.198L127.213 67.0488H127.198L127.213 67.018H127.198L127.213 66.9871H127.198L127.213 66.9562H127.198L127.213 66.9254H127.198L127.213 66.8945H127.198L127.213 66.8637H127.198L127.213 66.8328H127.198L127.213 66.8019H127.198L127.213 66.7711H127.198L127.213 66.7402H127.198L127.213 66.7093H127.198L127.213 66.6785H127.198L127.213 66.6476H127.198L127.213 66.6167H127.198L127.213 66.5859H127.198L127.213 66.555H127.198L127.213 66.5242H127.198L127.213 66.4927H127.198L127.213 66.4624H127.198L127.213 66.4316H127.198L127.213 66.4007H127.198L127.213 66.3698H127.198L127.213 66.339H127.198L127.213 66.3081H127.198L127.213 66.2772H127.198L127.213 66.2464H127.198L127.213 66.2155H127.198L127.213 66.1846H127.198L127.213 66.1538H127.198L127.213 66.1229H127.198L127.213 66.0921H127.198L127.213 66.0612H127.198L127.213 66.0303H127.198L127.213 65.9995H127.198L127.213 65.9686H127.198L127.213 65.9377H127.198L127.213 65.9069H127.198L127.213 65.876H127.198L127.213 65.8451H127.198L127.213 65.8143L127.198 65.8115L127.213 65.7807H127.198L127.213 65.7498H127.198L127.213 65.7189H127.198L127.213 65.6881H127.198L127.213 65.6572H127.198L127.213 65.6263H127.198L127.213 65.5955H127.198L127.213 65.5646H127.198L127.213 65.5337H127.198L127.213 65.5029H127.198L127.213 65.472H127.198L127.213 65.4411H127.198L127.213 65.4103H127.198L127.213 65.3794H127.198L127.213 65.3486H127.198L127.213 65.3177H127.198L127.213 65.2868H127.198L127.213 65.256H127.198L127.213 65.2251H127.198L127.213 65.1942H127.198L127.213 65.1634H127.198L127.213 65.1325H127.198L127.213 65.1011H127.198L127.213 65.0702H127.198L127.213 65.0388H127.198L127.213 65.0079H127.198L127.213 64.9771H127.198L127.213 64.9462H127.198L127.213 64.9154H127.198L127.213 64.8845H127.198L127.213 64.8536H127.198L127.213 64.8228H127.198L127.213 64.7919H127.198L127.213 64.761H127.198L127.213 64.7302H127.198L127.213 64.6993H127.198L127.213 64.6684H127.198L127.213 64.6376H127.198L127.213 64.6067H127.198L127.213 64.5758H127.198L127.213 64.545H127.198L127.213 64.5141H127.198L127.213 64.4833H127.198L127.213 64.4524H127.198L125.698 67.6838C126.145 67.8491 126.575 68.0398 126.991 68.2426L126.992 68.0244Z" fill="url(#paint9_linear)"/>
<path d="M105.716 72.9283C105.919 71.9658 106.378 71.0759 107.045 70.3528L102.907 67.9641L102.936 67.9806L102.907 67.9972L102.936 68.0137L102.907 68.0303L102.936 68.0468L102.907 68.0633L102.936 68.0799L102.907 68.0964L102.936 68.1129L102.907 68.1295L102.936 68.146L102.907 68.1625L102.936 68.1791L102.907 68.1956L102.936 68.2121L102.907 68.2287L102.936 68.2452L102.907 68.2617L102.936 68.2783L102.907 68.2948L102.936 68.3113L102.907 68.3279L102.936 68.3444L102.907 68.3609L102.936 68.3775L102.907 68.394L102.936 68.4105L102.907 68.4271L102.936 68.4436L102.907 68.4601L102.936 68.4767L102.907 68.4932L102.936 68.5097L102.907 68.5263L102.936 68.5428L102.907 68.5593L102.936 68.5759L102.907 68.5924L102.936 68.6095L102.907 68.6255L102.936 68.6426L102.907 68.6591L102.936 68.6751L102.907 68.6922L102.936 68.7087L102.907 68.7252L102.936 68.7418L102.907 68.7583L102.936 68.7748L102.907 68.7914L102.936 68.8079L102.907 68.8245L102.936 68.841L102.907 68.8575L102.936 68.8741L102.907 68.8906L102.936 68.9071L102.907 68.9237L102.936 68.9402L102.907 68.9567L102.936 68.9733L102.907 68.9898L102.936 69.0063L102.907 69.0229L102.936 69.0394L102.907 69.0559L102.936 69.0725L102.907 69.089L102.936 69.1055L102.907 69.1221L102.936 69.1386L102.907 69.1551L102.936 69.1717L102.907 69.1882L102.936 69.2047L102.907 69.2213L102.936 69.2378L102.907 69.2543L102.936 69.2709L102.907 69.2874L102.936 69.3039L102.907 69.3205L102.936 69.3376L102.907 69.3536L102.936 69.3701L102.907 69.3866L102.936 69.4037L102.907 69.4202L102.936 69.4368L102.907 69.4533L102.936 69.4698L102.907 69.4864L102.936 69.5029L102.907 69.5194L102.936 69.536L102.907 69.5525L102.936 69.569L102.907 69.5856L102.936 69.6021L102.907 69.6187L102.936 69.6352L102.907 69.6517L102.936 69.6683L102.907 69.6848L102.936 69.7013L102.907 69.7179L102.936 69.7344L102.907 69.7509L102.936 69.7675L102.907 69.784L102.936 69.8005L102.907 69.8171L102.936 69.8336L102.907 69.8501L102.936 69.8667L102.907 69.8832L102.936 69.8997L102.907 69.9163L102.936 69.9328L102.907 69.9493L102.936 69.9659L102.907 69.9824L102.936 69.9989L102.907 70.0155L102.936 70.032L102.907 70.0485L102.936 70.0651L102.907 70.0816L102.936 70.0981L102.907 70.1152L102.936 70.1312L102.907 70.1477L102.936 70.1648L102.907 70.1808L102.936 70.1979L102.907 70.2144L102.936 70.231L102.907 70.2475L102.936 70.264L102.907 70.2806L102.936 70.2971L102.907 70.3136L102.936 70.3302L102.907 70.3467L102.936 70.3633L102.907 70.3798L102.936 70.3963L102.907 70.4129L102.936 70.4294L102.907 70.4459L102.936 70.4625L102.907 70.479L102.936 70.4955L102.907 70.5121L102.936 70.5286L102.907 70.5451L102.936 70.5617L102.907 70.5782L102.936 70.5947L102.907 70.6113L102.936 70.6278L102.907 70.6443L102.936 70.6609L102.907 70.6774L102.936 70.6939L102.907 70.7105L102.936 70.727L102.907 70.7435L102.936 70.7601L102.907 70.7766L102.936 70.7931L102.907 70.8097L102.936 70.8262L102.907 70.8427L102.936 70.8593L102.907 70.8758L102.936 70.8929L102.907 70.9089L102.936 70.926L102.907 70.9425L102.936 70.959L102.907 70.9756L102.936 70.9921L102.907 71.0086L102.936 71.0252L102.907 71.0417L102.936 71.0582L102.907 71.0748L102.936 71.0913L102.907 71.1078L102.936 71.1244L102.907 71.1409L102.936 71.1574L102.907 71.174L102.936 71.1905L102.907 71.2071L102.936 71.2236L102.907 71.2401L102.936 71.2567L102.907 71.2732L102.936 71.2897L102.907 71.3063L105.716 72.9283Z" fill="url(#paint10_linear)"/>
<path d="M17.4774 108.444C17.1758 108.272 16.8606 108.125 16.535 108.004L17.2148 106.539L13.7264 106L13.0463 107.465C12.258 107.486 11.4754 107.607 10.7174 107.825L8.86026 106.753L6.30483 108.228L8.16227 109.3C7.81611 109.67 7.5976 110.142 7.53877 110.645L5.00098 111.038L5.93639 113.053L8.47296 112.66C8.70888 112.867 8.9648 113.049 9.23692 113.204C9.53847 113.376 9.85366 113.524 10.1793 113.645L9.49957 115.109L12.9901 115.649L13.6701 114.184C14.4584 114.163 15.2408 114.042 15.9988 113.824L17.8562 114.897L20.4114 113.421L18.5542 112.349C18.9004 111.979 19.1188 111.508 19.1774 111.004L21.7152 110.612L20.7792 108.596L18.2423 108.989C18.0063 108.782 17.75 108.6 17.4774 108.444ZM15.4288 112.02C14.7871 112.346 14.0777 112.515 13.3581 112.515C12.6385 112.515 11.9291 112.346 11.2874 112.02C10.1437 111.36 10.1437 110.289 11.2874 109.629C11.9291 109.304 12.6385 109.134 13.3581 109.134C14.0777 109.134 14.7871 109.304 15.4288 109.629C16.5709 110.289 16.5709 111.36 15.4288 112.02Z" fill="url(#paint11_linear)"/>
<path d="M15.7554 111.794C16.5573 111.135 16.4485 110.219 15.4276 109.629C14.7859 109.304 14.0765 109.134 13.3569 109.134C12.6374 109.134 11.928 109.304 11.2863 109.629C10.3743 110.156 10.1919 110.943 10.7327 111.575C10.8908 111.396 11.078 111.246 11.2863 111.129C11.928 110.804 12.6374 110.634 13.3569 110.634C14.0765 110.634 14.7859 110.804 15.4276 111.129C15.6359 111.246 15.823 111.396 15.9812 111.575C15.9123 111.654 15.8367 111.728 15.7554 111.794Z" fill="url(#paint12_linear)"/>
<path d="M9.23594 113.204C8.96382 113.049 8.7079 112.867 8.47198 112.66L5.93541 113.053L5.00639 111.051H5L5.00639 111.065H5L5.00639 111.079H5L5.00639 111.093H5L5.00639 111.107H5L5.00639 111.121H5L5.00639 111.135H5L5.00639 111.148H5L5.00639 111.162H5L5.00639 111.176H5L5.00639 111.19H5L5.00639 111.204H5L5.00639 111.218H5L5.00639 111.232H5L5.00639 111.245H5L5.00639 111.259H5L5.00639 111.273H5L5.00639 111.287H5L5.00639 111.301H5L5.00639 111.315H5L5.00639 111.329H5L5.00639 111.342H5L5.00639 111.356H5L5.00639 111.37H5L5.00639 111.384H5L5.00639 111.398H5L5.00639 111.412H5L5.00639 111.425H5L5.00639 111.439H5L5.00639 111.453H5L5.00639 111.467H5L5.00639 111.481H5L5.00639 111.495H5L5.00639 111.509H5L5.00639 111.523H5L5.00639 111.536H5L5.00639 111.55H5L5.00639 111.564H5L5.00639 111.578H5L5.00639 111.592H5L5.00639 111.606H5L5.00639 111.62H5L5.00639 111.634H5L5.00639 111.647H5L5.00639 111.661H5L5.00639 111.675H5L5.00639 111.689H5L5.00639 111.703H5L5.00639 111.717H5L5.00639 111.731H5L5.00639 111.744H5L5.00639 111.758H5L5.00639 111.772H5L5.00639 111.786H5L5.00639 111.8H5L5.00639 111.814H5L5.00639 111.828H5L5.00639 111.842H5L5.00639 111.855H5L5.00639 111.869H5L5.00639 111.883H5L5.00639 111.896H5L5.00639 111.91H5L5.00639 111.924H5L5.00639 111.938H5L5.00639 111.952H5L5.00639 111.966H5L5.00639 111.98H5L5.00639 111.994H5L5.00639 112.008H5L5.00639 112.022H5L5.00639 112.036H5L5.00639 112.05H5L5.00639 112.063H5L5.00639 112.077H5L5.00639 112.091H5L5.00639 112.105H5L5.00639 112.119H5L5.00639 112.133H5L5.00639 112.147H5L5.00639 112.16H5L5.00639 112.174H5L5.00639 112.188H5L5.00639 112.202H5L5.00639 112.216H5L5.00639 112.23H5L5.00639 112.244H5L5.00639 112.258H5L5.00639 112.271H5L5.00639 112.285H5L5.00639 112.299H5L5.00639 112.313H5L5.00639 112.327H5L5.00639 112.341H5L5.00639 112.355H5L5.00639 112.368H5L5.00639 112.382H5L5.00639 112.396H5L5.00639 112.409H5L5.00639 112.423H5L5.00639 112.437H5L5.93541 114.452L8.47198 114.16C8.70774 114.366 8.96369 114.548 9.23594 114.703C9.35237 114.771 9.47366 114.833 9.59739 114.894L9.49768 115.108L10.1774 113.644C9.85211 113.523 9.53723 113.376 9.23594 113.204Z" fill="url(#paint13_linear)"/>
<path d="M17.8547 114.897L15.9973 113.824C15.2393 114.042 14.4569 114.163 13.6686 114.184L12.9886 115.649L9.49805 115.109H9.50443L9.49805 115.123H9.50443L9.49805 115.137H9.50443L9.49805 115.151H9.50443L9.49805 115.165H9.50443L9.49805 115.179H9.50443L9.49805 115.193H9.50443L9.49805 115.206H9.50443L9.49805 115.22H9.50443L9.49805 115.234H9.50443L9.49805 115.248H9.50443L9.49805 115.262H9.50443L9.49805 115.276H9.50443L9.49805 115.29H9.50443L9.49805 115.303H9.50443L9.49805 115.317H9.50443L9.49805 115.331H9.50443L9.49805 115.345H9.50443L9.49805 115.359H9.50443L9.49805 115.373H9.50443L9.49805 115.387H9.50443L9.49805 115.401H9.50443L9.49805 115.414H9.50443L9.49805 115.428H9.50443L9.49805 115.442H9.50443L9.49805 115.456H9.50443L9.49805 115.47H9.50443L9.49805 115.484H9.50443L9.49805 115.498H9.50443L9.49805 115.511H9.50443L9.49805 115.525H9.50443L9.49805 115.539H9.50443L9.49805 115.553H9.50443L9.49805 115.567H9.50443L9.49805 115.581H9.50443L9.49805 115.595H9.50443L9.49805 115.609H9.50443L9.49805 115.622H9.50443L9.49805 115.636H9.50443L9.49805 115.65H9.50443L9.49805 115.664H9.50443L9.49805 115.678H9.50443L9.49805 115.692H9.50443L9.49805 115.706H9.50443L9.49805 115.719H9.50443L9.49805 115.733H9.50443L9.49805 115.747H9.50443L9.49805 115.761H9.50443L9.49805 115.775H9.50443L9.49805 115.789H9.50443L9.49805 115.803H9.50443L9.49805 115.817H9.50443L9.49805 115.831H9.50443L9.49805 115.844H9.50443L9.49805 115.858H9.50443L9.49805 115.872H9.50443L9.49805 115.886H9.50443L9.49805 115.9H9.50443L9.49805 115.914H9.50443L9.49805 115.927H9.50443L9.49805 115.941H9.50443L9.49805 115.955H9.50443L9.49805 115.969H9.50443L9.49805 115.983H9.50443L9.49805 115.997H9.50443L9.49805 116.011H9.50443L9.49805 116.025H9.50443L9.49805 116.039H9.50443L9.49805 116.053H9.50443L9.49805 116.067H9.50443L9.49805 116.081H9.50443L9.49805 116.095H9.50443L9.49805 116.108H9.50443L9.49805 116.122H9.50443L9.49805 116.136H9.50443L9.49805 116.15H9.50443L9.49805 116.164H9.50443L9.49805 116.178H9.50443L9.49805 116.192H9.50443L9.49805 116.206H9.50443L9.49805 116.219H9.50443L9.49805 116.233H9.50443L9.49805 116.247H9.50443L9.49805 116.26H9.50443L9.49805 116.274H9.50443L9.49805 116.288H9.50443L9.49805 116.302H9.50443L9.49805 116.316H9.50443L9.49805 116.33H9.50443L9.49805 116.344H9.50443L9.49805 116.358H9.50443L9.49805 116.372H9.50443L9.49805 116.386H9.50443L9.49805 116.4H9.50443L9.49805 116.414H9.50443L9.49805 116.427H9.50443L9.49805 116.441H9.50443L9.49805 116.455H9.50443L9.49805 116.469H9.50443L9.49805 116.483H9.50443L9.49805 116.497H9.50443L9.49805 116.511L12.9886 117.05L13.6686 115.585C14.4569 115.564 15.2394 115.443 15.9973 115.225L17.8547 116.298L20.4098 114.822L20.3971 114.815L20.4098 114.808L20.3971 114.8L20.4098 114.793L20.3971 114.785L20.4098 114.778L20.3971 114.77L20.4098 114.763L20.3971 114.756L20.4098 114.748L20.3971 114.741L20.4098 114.733L20.3971 114.726L20.4098 114.718L20.3971 114.711L20.4098 114.704L20.3971 114.696L20.4098 114.689L20.3971 114.681L20.4098 114.674L20.3971 114.666L20.4098 114.659L20.3971 114.652L20.4098 114.644L20.3971 114.637L20.4098 114.629L20.3971 114.622L20.4098 114.615L20.3971 114.607L20.4098 114.6L20.3971 114.592L20.4098 114.585L20.3971 114.577L20.4098 114.57L20.3971 114.562L20.4098 114.555L20.3971 114.548L20.4098 114.54L20.3971 114.533L20.4098 114.525L20.3971 114.518L20.4098 114.51L20.3971 114.503L20.4098 114.496L20.3971 114.488L20.4098 114.481L20.3971 114.473L20.4098 114.466L20.3971 114.458L20.4098 114.451L20.3971 114.444L20.4098 114.436L20.3971 114.429L20.4098 114.421L20.3971 114.414L20.4098 114.406L20.3971 114.399L20.4098 114.392L20.3971 114.384L20.4098 114.377L20.3971 114.369L20.4098 114.362L20.3971 114.354L20.4098 114.347L20.3971 114.339L20.4098 114.332L20.3971 114.325L20.4098 114.317L20.3971 114.31L20.4098 114.302L20.3971 114.295L20.4098 114.287L20.3971 114.28L20.4098 114.273L20.3971 114.265L20.4098 114.258L20.3971 114.25L20.4098 114.243L20.3971 114.236L20.4098 114.228L20.3971 114.221L20.4098 114.213L20.3971 114.206L20.4098 114.198L20.3971 114.191L20.4098 114.183L20.3971 114.176L20.4098 114.169L20.3971 114.161L20.4098 114.154L20.3971 114.146L20.4098 114.139L20.3971 114.131L20.4098 114.124L20.3971 114.117L20.4098 114.109L20.3971 114.102L20.4098 114.094L20.3971 114.087L20.4098 114.079L20.3971 114.072L20.4098 114.065L20.3971 114.057L20.4098 114.05L20.3971 114.042L20.4098 114.035L20.3971 114.027L20.4098 114.02L20.3971 114.013L20.4098 114.005L20.3971 113.998L20.4098 113.99L20.3971 113.983L20.4098 113.975L20.3971 113.968L20.4098 113.961L20.3971 113.953L20.4098 113.946L20.3971 113.938L20.4098 113.931L20.3971 113.924L20.4098 113.916L20.3971 113.909L20.4098 113.901L20.3971 113.894L20.4098 113.886L20.3971 113.879L20.4098 113.872L20.3971 113.864L20.4098 113.857L20.3971 113.849L20.4098 113.842L20.3971 113.834L20.4098 113.827L20.3971 113.82L20.4098 113.812L20.3971 113.805L20.4098 113.797L20.3971 113.79L20.4098 113.782L20.3971 113.775L20.4098 113.768L20.3971 113.76L20.4098 113.753L20.3971 113.745L20.4098 113.738L20.3971 113.73L20.4098 113.723L20.3971 113.716L20.4098 113.708L20.3971 113.701L20.4098 113.693L20.3971 113.686L20.4098 113.678L20.3971 113.671L20.4098 113.664L20.3971 113.656L20.4098 113.649L20.3971 113.641L20.4098 113.634L20.3971 113.627L20.4098 113.619L20.3971 113.612L20.4098 113.604L20.3971 113.597L20.4098 113.589L20.3971 113.582L20.4098 113.575L20.3971 113.567L20.4098 113.56L20.3971 113.552L20.4098 113.545L20.3971 113.537L20.4098 113.53L20.3971 113.523L20.4098 113.515L20.3971 113.508L20.4098 113.5L20.3971 113.493L20.4098 113.485L20.3971 113.478L20.4098 113.471L20.3971 113.463L20.4098 113.456L20.3971 113.448L20.4098 113.441L20.3971 113.433L20.4098 113.426L20.3971 113.419L20.4098 113.411L20.3971 113.404L20.4098 113.396L20.3971 113.389L20.4098 113.381L20.3971 113.374L20.4098 113.367L20.3971 113.359L20.4098 113.352L20.3971 113.344L20.4098 113.337L20.3971 113.329L20.4098 113.322L17.8547 114.897Z" fill="url(#paint14_linear)"/>
<path d="M21.7073 110.613H21.7137L19.1759 111.006C19.1173 111.509 18.8989 111.98 18.5527 112.35L19.1489 112.694C19.1607 112.632 19.1702 112.569 19.1759 112.506L21.7137 112.113L21.7073 112.099H21.7137L21.7073 112.085H21.7137L21.7073 112.072H21.7137L21.7073 112.058H21.7137L21.7073 112.044H21.7137L21.7073 112.03H21.7137L21.7073 112.016H21.7137L21.7073 112.003H21.7137L21.7073 111.989H21.7137L21.7073 111.975H21.7137L21.7073 111.961H21.7137L21.7073 111.947H21.7137L21.7073 111.934H21.7137L21.7073 111.92H21.7137L21.7073 111.906H21.7137L21.7073 111.892H21.7137L21.7073 111.878H21.7137L21.7073 111.864H21.7137L21.7073 111.851H21.7137L21.7073 111.837H21.7137L21.7073 111.823H21.7137L21.7073 111.809H21.7137L21.7073 111.795H21.7137L21.7073 111.781H21.7137L21.7073 111.768H21.7137L21.7073 111.754H21.7137L21.7073 111.74H21.7137L21.7073 111.726H21.7137L21.7073 111.712H21.7137L21.7073 111.699H21.7137L21.7073 111.685H21.7137L21.7073 111.671H21.7137L21.7073 111.657H21.7137L21.7073 111.643H21.7137L21.7073 111.629H21.7137L21.7073 111.615H21.7137L21.7073 111.601H21.7137L21.7073 111.587H21.7137L21.7073 111.573H21.7137L21.7073 111.559H21.7137L21.7073 111.546H21.7137L21.7073 111.532H21.7137L21.7073 111.518H21.7137L21.7073 111.504H21.7137L21.7073 111.49H21.7137L21.7073 111.476H21.7137L21.7073 111.462H21.7137L21.7073 111.449H21.7137L21.7073 111.435H21.7137L21.7073 111.421H21.7137L21.7073 111.407H21.7137L21.7073 111.393H21.7137L21.7073 111.379H21.7137L21.7073 111.365H21.7137L21.7073 111.352H21.7137L21.7073 111.338H21.7137L21.7073 111.324H21.7137L21.7073 111.311H21.7137L21.7073 111.297H21.7137L21.7073 111.283H21.7137L21.7073 111.269H21.7137L21.7073 111.255H21.7137L21.7073 111.241H21.7137L21.7073 111.227H21.7137L21.7073 111.214H21.7137L21.7073 111.2H21.7137L21.7073 111.186H21.7137L21.7073 111.172H21.7137L21.7073 111.158H21.7137L21.7073 111.144H21.7137L21.7073 111.13H21.7137L21.7073 111.117H21.7137L21.7073 111.103H21.7137L21.7073 111.089H21.7137L21.7073 111.075H21.7137L21.7073 111.061H21.7137L21.7073 111.047H21.7137L21.7073 111.033H21.7137L21.7073 111.02H21.7137L21.7073 111.006H21.7137L21.7073 110.992H21.7137L21.7073 110.978H21.7137L21.7073 110.964H21.7137L21.7073 110.95H21.7137L21.7073 110.936H21.7137L21.7073 110.923H21.7137L21.7073 110.909H21.7137L21.7073 110.895H21.7137L21.7073 110.881H21.7137L21.7073 110.867H21.7137L21.7073 110.853H21.7137L21.7073 110.839H21.7137L21.7073 110.826H21.7137L21.7073 110.812H21.7137L21.7073 110.798H21.7137L21.7073 110.784H21.7137L21.7073 110.77H21.7137L21.7073 110.756H21.7137L21.7073 110.742H21.7137L21.7073 110.729H21.7137L21.7073 110.613Z" fill="url(#paint15_linear)"/>
<path d="M17.1162 108.255L17.2159 108.04H17.2095L17.2159 108.026H17.2095L17.2159 108.013H17.2095L17.2159 107.999H17.2095L17.2159 107.985H17.2095L17.2159 107.971H17.2095L17.2159 107.957H17.2095L17.2159 107.944H17.2095L17.2159 107.93H17.2095L17.2159 107.916H17.2095L17.2159 107.902H17.2095L17.2159 107.888H17.2095L17.2159 107.874H17.2095L17.2159 107.861H17.2095L17.2159 107.847H17.2095L17.2159 107.833H17.2095L17.2159 107.819H17.2095L17.2159 107.805H17.2095L17.2159 107.791H17.2095L17.2159 107.777H17.2095L17.2159 107.763H17.2095L17.2159 107.749H17.2095L17.2159 107.735H17.2095L17.2159 107.721H17.2095L17.2159 107.708H17.2095L17.2159 107.694H17.2095L17.2159 107.68H17.2095L17.2159 107.666H17.2095L17.2159 107.652H17.2095L17.2159 107.638H17.2095L17.2159 107.624H17.2095L17.2159 107.611H17.2095L17.2159 107.597H17.2095L17.2159 107.583H17.2095L17.2159 107.569H17.2095L17.2159 107.555H17.2095L17.2159 107.541H17.2095L17.2159 107.527H17.2095L17.2159 107.514H17.2095L17.2159 107.5H17.2095L17.2159 107.486H17.2095L17.2159 107.473H17.2095L17.2159 107.459H17.2095L17.2159 107.445H17.2095L17.2159 107.431H17.2095L17.2159 107.417H17.2095L17.2159 107.403H17.2095L17.2159 107.389H17.2095L17.2159 107.376H17.2095L17.2159 107.362H17.2095L17.2159 107.348H17.2095L17.2159 107.334H17.2095L17.2159 107.32H17.2095L17.2159 107.306H17.2095L17.2159 107.292H17.2095L17.2159 107.279H17.2095L17.2159 107.265H17.2095L17.2159 107.251H17.2095L17.2159 107.237H17.2095L17.2159 107.223H17.2095L17.2159 107.209H17.2095L17.2159 107.195H17.2095L17.2159 107.182H17.2095L17.2159 107.168H17.2095L17.2159 107.154H17.2095L17.2159 107.14H17.2095L17.2159 107.126H17.2095L17.2159 107.112H17.2095L17.2159 107.098H17.2095L17.2159 107.085H17.2095L17.2159 107.071H17.2095L17.2159 107.057H17.2095L17.2159 107.043H17.2095L17.2159 107.029H17.2095L17.2159 107.015H17.2095L17.2159 107.001H17.2095L17.2159 106.987H17.2095L17.2159 106.974H17.2095L17.2159 106.96H17.2095L17.2159 106.946H17.2095L17.2159 106.932H17.2095L17.2159 106.918H17.2095L17.2159 106.904H17.2095L17.2159 106.89H17.2095L17.2159 106.877H17.2095L17.2159 106.863H17.2095L17.2159 106.849H17.2095L17.2159 106.835H17.2095L17.2159 106.821H17.2095L17.2159 106.807H17.2095L17.2159 106.793H17.2095L17.2159 106.78H17.2095L17.2159 106.766H17.2095L17.2159 106.752H17.2095L17.2159 106.738H17.2095L17.2159 106.724H17.2095L17.2159 106.71H17.2095L17.2159 106.696H17.2095L17.2159 106.683H17.2095L17.2159 106.669H17.2095L17.2159 106.655H17.2095L16.5361 108.106C16.7365 108.182 16.9313 108.266 17.1165 108.357L17.1162 108.255Z" fill="url(#paint16_linear)"/>
<path d="M7.56501 110.456C7.65601 110.025 7.86198 109.626 8.16116 109.301L6.30371 108.229L6.31678 108.236L6.30371 108.244L6.31678 108.251L6.30371 108.259L6.31678 108.266L6.30371 108.274L6.31678 108.281L6.30371 108.288L6.31678 108.296L6.30371 108.303L6.31678 108.311L6.30371 108.318L6.31678 108.325L6.30371 108.333L6.31678 108.34L6.30371 108.348L6.31678 108.355L6.30371 108.363L6.31678 108.37L6.30371 108.377L6.31678 108.385L6.30371 108.392L6.31678 108.4L6.30371 108.407L6.31678 108.415L6.30371 108.422L6.31678 108.43L6.30371 108.437L6.31678 108.444L6.30371 108.452L6.31678 108.459L6.30371 108.467L6.31678 108.474L6.30371 108.482L6.31678 108.489L6.30371 108.496L6.31678 108.504L6.30371 108.511L6.31678 108.519L6.30371 108.526L6.31678 108.534L6.30371 108.541L6.31678 108.548L6.30371 108.556L6.31678 108.563L6.30371 108.571L6.31678 108.578L6.30371 108.586L6.31678 108.593L6.30371 108.6L6.31678 108.608L6.30371 108.615L6.31678 108.623L6.30371 108.63L6.31678 108.638L6.30371 108.645L6.31678 108.652L6.30371 108.66L6.31678 108.667L6.30371 108.675L6.31678 108.682L6.30371 108.69L6.31678 108.697L6.30371 108.704L6.31678 108.712L6.30371 108.719L6.31678 108.727L6.30371 108.734L6.31678 108.742L6.30371 108.749L6.31678 108.756L6.30371 108.764L6.31678 108.771L6.30371 108.779L6.31678 108.786L6.30371 108.794L6.31678 108.801L6.30371 108.808L6.31678 108.816L6.30371 108.823L6.31678 108.831L6.30371 108.838L6.31678 108.846L6.30371 108.853L6.31678 108.86L6.30371 108.868L6.31678 108.875L6.30371 108.883L6.31678 108.89L6.30371 108.898L6.31678 108.905L6.30371 108.912L6.31678 108.92L6.30371 108.927L6.31678 108.935L6.30371 108.942L6.31678 108.949L6.30371 108.957L6.31678 108.964L6.30371 108.972L6.31678 108.979L6.30371 108.987L6.31678 108.994L6.30371 109.001L6.31678 109.009L6.30371 109.016L6.31678 109.024L6.30371 109.031L6.31678 109.039L6.30371 109.046L6.31678 109.053L6.30371 109.061L6.31678 109.068L6.30371 109.076L6.31678 109.083L6.30371 109.091L6.31678 109.098L6.30371 109.105L6.31678 109.113L6.30371 109.12L6.31678 109.128L6.30371 109.135L6.31678 109.143L6.30371 109.15L6.31678 109.157L6.30371 109.165L6.31678 109.172L6.30371 109.18L6.31678 109.187L6.30371 109.195L6.31678 109.202L6.30371 109.209L6.31678 109.217L6.30371 109.224L6.31678 109.232L6.30371 109.239L6.31678 109.246L6.30371 109.254L6.31678 109.261L6.30371 109.269L6.31678 109.276L6.30371 109.284L6.31678 109.291L6.30371 109.298L6.31678 109.306L6.30371 109.313L6.31678 109.321L6.30371 109.328L6.31678 109.336L6.30371 109.343L6.31678 109.35L6.30371 109.358L6.31678 109.365L6.30371 109.373L6.31678 109.38L6.30371 109.388L6.31678 109.395L6.30371 109.402L6.31678 109.41L6.30371 109.417L6.31678 109.425L6.30371 109.432L6.31678 109.44L6.30371 109.447L6.31678 109.454L6.30371 109.462L6.31678 109.469L6.30371 109.477L6.31678 109.484L6.30371 109.492L6.31678 109.499L6.30371 109.506L6.31678 109.514L6.30371 109.521L6.31678 109.529L6.30371 109.536L6.31678 109.544L6.30371 109.551L6.31678 109.558L6.30371 109.566L6.31678 109.573L6.30371 109.581L6.31678 109.588L6.30371 109.596L6.31678 109.603L6.30371 109.61L6.31678 109.618L6.30371 109.625L6.31678 109.633L6.30371 109.64L6.31678 109.648L6.30371 109.655L6.31678 109.662L6.30371 109.67L6.31678 109.677L6.30371 109.685L6.31678 109.692L6.30371 109.7L6.31678 109.707L6.30371 109.714L6.31678 109.722L6.30371 109.729L7.56501 110.456Z" fill="url(#paint17_linear)"/>
<defs>
<linearGradient id="paint0_linear" x1="143.709" y1="21.8629" x2="150.489" y2="33.9213" gradientUnits="userSpaceOnUse">
<stop stop-color="#B4B4FF"/>
<stop offset="1" stop-color="#1919C7"/>
</linearGradient>
<linearGradient id="paint1_linear" x1="5.82831" y1="51.356" x2="16.4824" y2="70.305" gradientUnits="userSpaceOnUse">
<stop stop-color="#B4B4FF"/>
<stop offset="1" stop-color="#1919C7"/>
</linearGradient>
<linearGradient id="paint2_linear" x1="116.489" y1="13.7608" x2="97.5341" y2="56.0411" gradientUnits="userSpaceOnUse">
<stop stop-color="#B4B4FF"/>
<stop offset="1" stop-color="#1919C7"/>
</linearGradient>
<linearGradient id="paint3_linear" x1="67.528" y1="78.9015" x2="53.6973" y2="114.759" gradientUnits="userSpaceOnUse">
<stop stop-color="#B4B4FF"/>
<stop offset="1" stop-color="#1919C7"/>
</linearGradient>
<linearGradient id="paint4_linear" x1="13910.9" y1="2754.36" x2="11616.6" y2="2831.1" gradientUnits="userSpaceOnUse">
<stop stop-color="#E8E9FF"/>
<stop offset="1" stop-color="#C0C0F6"/>
</linearGradient>
<linearGradient id="paint5_linear" x1="4357.76" y1="806.977" x2="4622.9" y2="806.977" gradientUnits="userSpaceOnUse">
<stop stop-color="#B6B9FE"/>
<stop offset="1" stop-color="#5861D6"/>
</linearGradient>
<linearGradient id="paint6_linear" x1="3906.83" y1="1336.39" x2="3682.41" y2="1264.8" gradientUnits="userSpaceOnUse">
<stop stop-color="#B6B9FE"/>
<stop offset="1" stop-color="#5861D6"/>
</linearGradient>
<linearGradient id="paint7_linear" x1="9015.52" y1="1271.82" x2="8034.55" y2="1327.22" gradientUnits="userSpaceOnUse">
<stop stop-color="#B6B9FE"/>
<stop offset="1" stop-color="#5861D6"/>
</linearGradient>
<linearGradient id="paint8_linear" x1="2769.95" y1="663.193" x2="2632.6" y2="708.004" gradientUnits="userSpaceOnUse">
<stop stop-color="#B6B9FE"/>
<stop offset="1" stop-color="#5861D6"/>
</linearGradient>
<linearGradient id="paint9_linear" x1="662.373" y1="488.913" x2="658.419" y2="488.943" gradientUnits="userSpaceOnUse">
<stop stop-color="#E8E9FF"/>
<stop offset="1" stop-color="#C0C0F6"/>
</linearGradient>
<linearGradient id="paint10_linear" x1="1349.4" y1="633.885" x2="1414.79" y2="661.416" gradientUnits="userSpaceOnUse">
<stop stop-color="#B6B9FE"/>
<stop offset="1" stop-color="#5861D6"/>
</linearGradient>
<linearGradient id="paint11_linear" x1="2603.76" y1="1896.17" x2="1765.52" y2="1924.2" gradientUnits="userSpaceOnUse">
<stop stop-color="#E8E9FF"/>
<stop offset="1" stop-color="#C0C0F6"/>
</linearGradient>
<linearGradient id="paint12_linear" x1="704.172" y1="600.879" x2="801.028" y2="600.879" gradientUnits="userSpaceOnUse">
<stop stop-color="#B6B9FE"/>
<stop offset="1" stop-color="#5861D6"/>
</linearGradient>
<linearGradient id="paint13_linear" x1="637.381" y1="911.264" x2="555.418" y2="885.116" gradientUnits="userSpaceOnUse">
<stop stop-color="#B6B9FE"/>
<stop offset="1" stop-color="#5861D6"/>
</linearGradient>
<linearGradient id="paint14_linear" x1="1665.34" y1="860.831" x2="1306.96" y2="881.084" gradientUnits="userSpaceOnUse">
<stop stop-color="#B6B9FE"/>
<stop offset="1" stop-color="#5861D6"/>
</linearGradient>
<linearGradient id="paint15_linear" x1="520.104" y1="500.243" x2="469.923" y2="516.614" gradientUnits="userSpaceOnUse">
<stop stop-color="#B6B9FE"/>
<stop offset="1" stop-color="#5861D6"/>
</linearGradient>
<linearGradient id="paint16_linear" x1="113.044" y1="404.035" x2="111.6" y2="404.046" gradientUnits="userSpaceOnUse">
<stop stop-color="#E8E9FF"/>
<stop offset="1" stop-color="#C0C0F6"/>
</linearGradient>
<linearGradient id="paint17_linear" x1="189.775" y1="501.177" x2="213.662" y2="511.239" gradientUnits="userSpaceOnUse">
<stop stop-color="#B6B9FE"/>
<stop offset="1" stop-color="#5861D6"/>
</linearGradient>
</defs>
</svg>
