<svg width="72" height="102" viewBox="0 0 72 102" fill="none" xmlns="http://www.w3.org/2000/svg">
<path d="M33.1998 51.6201L30.9623 55.7056C30.7779 56.0608 30.4998 56.3588 30.1583 56.5674C29.8167 56.776 29.4246 56.8873 29.0244 56.8892L7.49214 56.9023C6.10267 56.9033 5.08889 58.1759 5.22818 59.7449L8.01975 91.2132C8.15903 92.7823 9.39804 94.0535 10.7879 94.0525L62.0459 94.0224C63.4354 94.0214 64.4492 92.7488 64.3099 91.1798L60.947 53.2618C60.8077 51.6928 59.5684 50.4216 58.179 50.4222L35.1373 50.4365C34.7372 50.4384 34.3452 50.5497 34.0037 50.7584C33.6622 50.967 33.3842 51.265 33.1998 51.6201Z" fill="#4E4EE3"/>
<path opacity="0.3" d="M33.1998 51.6201L30.9623 55.7056C30.7779 56.0608 30.4998 56.3588 30.1583 56.5674C29.8167 56.776 29.4246 56.8873 29.0244 56.8892L7.49214 56.9023C6.10267 56.9033 5.08889 58.1759 5.22818 59.7449L8.01975 91.2132C8.15903 92.7823 9.39804 94.0535 10.7879 94.0525L62.0459 94.0224C63.4354 94.0214 64.4492 92.7488 64.3099 91.1798L60.947 53.2618C60.8077 51.6928 59.5684 50.4216 58.179 50.4222L35.1373 50.4365C34.7372 50.4384 34.3452 50.5497 34.0037 50.7584C33.6622 50.967 33.3842 51.265 33.1998 51.6201Z" fill="black"/>
<path d="M19.1971 7.37395C19.696 7.37415 20.1946 7.40015 20.6909 7.45185C22.5814 4.83316 25.1428 2.77237 28.1054 1.48625C31.0681 0.200137 34.3227 -0.263766 37.5267 0.143337C40.7308 0.550441 43.7659 1.8135 46.3128 3.79967C48.8597 5.78583 50.8243 8.42168 51.9999 11.4299C55.049 11.9538 57.7905 13.6029 59.682 16.0511C61.5735 18.4993 62.4773 21.5682 62.2145 24.6508C61.9518 27.7334 60.5417 30.6051 58.2632 32.6979C55.9847 34.7907 53.0037 35.9521 49.9099 35.9524H19.1971C15.4077 35.9524 11.7735 34.4471 9.09402 31.7676C6.41451 29.088 4.90918 25.4539 4.90918 21.6645C4.90918 17.8751 6.41451 14.2409 9.09402 11.5614C11.7735 8.88186 15.4077 7.37653 19.1971 7.37653V7.37395Z" fill="#4E4EE3"/>
<path d="M20.5225 30.955V66.5788H46.6487V38.7096L38.8941 30.955H20.5225Z" fill="#4E4EE3"/>
<path opacity="0.6" d="M20.5225 30.955V66.5788H46.6487V38.7096L38.8941 30.955H20.5225Z" fill="white"/>
<path opacity="0.4" d="M38.8936 38.7096V30.955L46.6482 38.7096H38.8936Z" fill="#4E4EE3"/>
<path d="M41.8905 56.4695L38.9071 60.0892C38.6464 60.4107 38.3185 60.6711 37.9464 60.8523C37.5743 61.0334 37.167 61.1308 36.7532 61.1376L15.221 61.1507C14.5321 61.1662 13.8719 61.4292 13.361 61.8915C12.8501 62.3537 12.5226 62.9844 12.4385 63.6683L9.48489 91.5383C9.44221 91.8561 9.46886 92.1793 9.56303 92.4858C9.65719 92.7922 9.81663 93.0746 10.0304 93.3136C10.2441 93.5526 10.5071 93.7424 10.8012 93.87C11.0953 93.9976 11.4136 94.06 11.7341 94.0529L62.9941 94.0197C63.683 94.0042 64.3432 93.7413 64.8542 93.279C65.3651 92.8167 65.6925 92.186 65.7766 91.5021L69.3352 57.9211C69.378 57.6033 69.3514 57.2801 69.2572 56.9736C69.1631 56.6671 69.0037 56.3846 68.7899 56.1457C68.5761 55.9067 68.3131 55.7169 68.019 55.5893C67.7249 55.4617 67.4066 55.3993 67.086 55.4065L44.0445 55.4204C43.6306 55.4275 43.2233 55.525 42.8512 55.7063C42.4791 55.8875 42.1512 56.148 41.8905 56.4695Z" fill="url(#paint0_linear)"/>
<path d="M40.1831 25.7888C40.0924 25.7887 40.0038 25.7618 39.9284 25.7114C39.8531 25.6611 39.7943 25.5895 39.7596 25.5057C39.7249 25.4219 39.7159 25.3298 39.7335 25.2408C39.7512 25.1519 39.7949 25.0702 39.859 25.0061C41.0995 23.7655 41.9443 22.185 42.2866 20.4643C42.6288 18.7436 42.4532 16.9601 41.7818 15.3393C41.1104 13.7184 39.9735 12.3331 38.5148 11.3584C37.056 10.3837 35.3411 9.86349 33.5867 9.86349C31.8323 9.86349 30.1173 10.3837 28.6586 11.3584C27.1999 12.3331 26.0629 13.7184 25.3916 15.3393C24.7202 16.9601 24.5445 18.7436 24.8868 20.4643C25.229 22.185 26.0738 23.7655 27.3144 25.0061C27.4004 25.092 27.4487 25.2086 27.4487 25.3301C27.4487 25.4517 27.4005 25.5682 27.3146 25.6542C27.2286 25.7402 27.1121 25.7885 26.9905 25.7885C26.869 25.7886 26.7524 25.7403 26.6664 25.6544C25.2977 24.2857 24.3655 22.5418 23.9879 20.6433C23.6102 18.7448 23.804 16.7769 24.5448 14.9885C25.2855 13.2002 26.54 11.6716 28.1494 10.5962C29.7589 9.52078 31.6512 8.94678 33.5869 8.94678C35.5226 8.94678 37.4148 9.52078 39.0243 10.5962C40.6337 11.6716 41.8882 13.2002 42.6289 14.9885C43.3697 16.7769 43.5635 18.7448 43.1858 20.6433C42.8082 22.5418 41.876 24.2857 40.5073 25.6544C40.4648 25.6971 40.4143 25.7309 40.3586 25.754C40.303 25.7771 40.2433 25.7889 40.1831 25.7888Z" fill="white"/>
<path d="M36.249 24.172V16.3074C36.249 15.9671 36.115 15.6408 35.8765 15.4001C35.638 15.1595 35.3145 15.0242 34.9772 15.0242H31.5291C31.1917 15.0242 30.8681 15.1594 30.6296 15.4C30.391 15.6407 30.257 15.967 30.257 16.3074V24.172H28.9609L33.2534 27.902L37.5462 24.172H36.249Z" fill="white"/>
<defs>
<linearGradient id="paint0_linear" x1="55.8037" y1="56.572" x2="29.5069" y2="96.6422" gradientUnits="userSpaceOnUse">
<stop stop-color="#B4B4FF"/>
<stop offset="1" stop-color="#1919C7"/>
</linearGradient>
</defs>
</svg>
