<svg width="113" height="103" viewBox="0 0 113 103" fill="none" xmlns="http://www.w3.org/2000/svg">
<path d="M100.719 1.2711C100.719 1.52279 100.793 1.76889 100.933 1.97826C101.072 2.18762 101.271 2.35084 101.504 2.44725C101.736 2.54367 101.992 2.56895 102.239 2.5199C102.486 2.47084 102.712 2.34966 102.89 2.17169C103.068 1.99371 103.19 1.76693 103.239 1.52007C103.288 1.2732 103.262 1.01734 103.166 0.784839C103.07 0.552342 102.906 0.353662 102.697 0.213956C102.488 0.0742504 102.242 -0.000206133 101.99 4.28628e-07C101.823 4.28628e-07 101.658 0.0328758 101.503 0.0967546C101.349 0.160633 101.209 0.254259 101.091 0.372291C100.973 0.490324 100.879 0.630463 100.816 0.78468C100.752 0.938897 100.719 1.10417 100.719 1.2711Z" fill="#7676E3"/>
<path d="M21.626 72.8659C21.6258 73.1176 21.7002 73.3637 21.8399 73.5731C21.9796 73.7825 22.1783 73.9457 22.4108 74.0421C22.6433 74.1385 22.8992 74.1638 23.146 74.1147C23.3929 74.0657 23.6197 73.9445 23.7977 73.7665C23.9756 73.5886 24.0968 73.3618 24.1459 73.1149C24.1949 72.868 24.1696 72.6122 24.0732 72.3797C23.9768 72.1472 23.8136 71.9485 23.6042 71.8088C23.3949 71.6691 23.1488 71.5946 22.8971 71.5948C22.7301 71.5948 22.5649 71.6277 22.4106 71.6916C22.2564 71.7555 22.1163 71.8491 21.9983 71.9671C21.8802 72.0852 21.7866 72.2253 21.7227 72.3795C21.6589 72.5337 21.626 72.699 21.626 72.8659Z" fill="#7676E3"/>
<path opacity="0.1" d="M100.718 74.7992C100.718 71.6266 103.29 69.0547 106.463 69.0547C109.635 69.0547 112.207 71.6266 112.207 74.7992C112.207 77.9718 109.635 80.5437 106.463 80.5437C103.29 80.5437 100.718 77.9718 100.718 74.7992Z" fill="url(#paint0_linear)"/>
<path opacity="0.1" d="M-0.000448227 38.774C-0.000448227 32.4288 5.14336 27.285 11.4886 27.285C17.8338 27.285 22.9775 32.4288 22.9775 38.774C22.9775 45.1192 17.8338 50.263 11.4886 50.263C5.14336 50.263 -0.000448227 45.1192 -0.000448227 38.774Z" fill="url(#paint1_linear)"/>
<path d="M60.0666 56.634V36.9224H58.8418V57.3964C59.2498 57.1412 59.6581 56.887 60.0666 56.634Z" fill="#D6D6FF"/>
<path d="M71.774 50.4868L71.7919 30.5938H70.5667L70.5488 51.0645C70.9569 50.8704 71.3652 50.6778 71.774 50.4868Z" fill="#D6D6FF"/>
<path d="M64.1897 54.268V35.2501H62.9648V54.9248C63.3705 54.7013 63.7818 54.4871 64.1897 54.268Z" fill="#D6D6FF"/>
<path d="M67.9918 52.3009V30.5468H66.7666V52.9204C67.1752 52.7132 67.5813 52.5043 67.9918 52.3009Z" fill="#D6D6FF"/>
<path d="M78.6692 12.6101C79.8444 13.4285 81.3969 13.9327 82.7743 14.285C83.3252 14.4259 83.887 14.5199 84.4537 14.566C84.6099 13.8304 84.7081 13.0837 84.7474 12.3328C87.3019 12.3459 86.791 8.79234 86.791 8.79234L80.365 5.3C80.1957 5.1847 80.0181 5.08216 79.8336 4.99324L79.8145 4.98242C78.4293 4.31739 76.6312 4.39875 74.6432 5.35113C73.6065 7.36674 76.9383 11.4039 78.6692 12.6101Z" fill="url(#paint2_linear)"/>
<path d="M44.8173 44.8488L66.4113 32.3815C64.5584 30.6231 62.775 28.794 60.8881 27.068C58.4534 24.8389 55.9004 22.7173 53.6247 20.3215C52.0528 18.6663 48.5354 15.8372 47.0255 14.1265C44.7251 16.834 43.154 20.5032 43.154 23.688C43.149 24.3191 43.2206 24.9484 43.3671 25.5622C43.1432 25.6693 42.9193 25.7861 42.6894 25.9178C38.3772 28.4074 34.8818 34.4367 34.8818 39.3849C34.8818 41.824 35.7323 43.5433 37.1102 44.3632H37.1064L37.1576 44.3927L37.177 44.4039L43.8676 48.0586L44.9125 45.0995L44.287 45.1301C44.4643 45.0436 44.6401 44.9514 44.8173 44.8488Z" fill="url(#paint3_linear)"/>
<path d="M67.2357 31.9057L67.5474 31.7258C66.5771 30.9526 65.6091 30.1759 64.6436 29.3956C65.5038 30.2379 66.3625 31.0784 67.2357 31.9057Z" fill="#52A5EA"/>
<path d="M82.0755 15.0269C80.4607 14.5418 78.6481 13.9446 77.4155 12.7426C76.6826 11.9945 76.1389 11.0823 75.8295 10.0818C75.5201 9.0813 75.4541 8.02139 75.6369 6.99021C75.4943 7.08027 75.3527 7.17307 75.2122 7.26861C75.1596 6.63371 75.0471 6.0052 74.8763 5.39145C75.5623 5.165 76.1934 4.79778 76.7292 4.3133L70.1256 0.707146C70.1017 0.692965 70.0778 0.678784 70.0535 0.665349L70.0308 0.651916C68.1499 -0.393022 65.5681 -0.215756 62.7162 1.43039C59.4795 3.29934 56.5873 6.66292 54.6762 10.4243C53.4734 10.0832 51.9787 10.3325 50.3591 11.2677C49.3522 11.8641 48.435 12.6001 47.6348 13.4539C49.2999 15.3337 52.9468 18.3539 54.7138 20.1434C55.0574 20.4917 55.4057 20.8345 55.7588 21.1719C55.8587 21.177 55.9544 21.2139 56.032 21.2771C60.1654 24.5769 64.2422 27.9513 68.3846 31.2414L75.2607 27.2713V27.2318C75.51 27.1124 75.7615 26.9825 76.016 26.8354C79.805 24.6478 83.032 20.0206 84.2464 15.4531C83.5104 15.3833 82.7833 15.2406 82.0755 15.0269Z" fill="url(#paint4_linear)"/>
<path d="M50.3571 11.2677C46.38 13.5639 43.1545 19.1249 43.1545 23.6886C43.1496 24.3197 43.2211 24.949 43.3676 25.5628L49.9627 29.1656C66.9493 31.669 61.2674 14.0259 61.2674 14.0259L54.6731 10.4243C53.4714 10.0832 51.9768 10.3325 50.3571 11.2677Z" fill="url(#paint5_linear)"/>
<path d="M89.2317 14.3377C89.2317 19.8825 85.3158 26.6377 80.4845 29.4269C80.3102 29.5273 80.1396 29.6199 79.9691 29.705C79.8896 29.746 79.8079 29.7848 79.728 29.8236V29.861L68.4878 36.3511L63.7046 39.1128L49.286 47.4376C48.865 47.6832 48.425 47.8947 47.9701 48.0697C44.286 49.48 41.4766 47.4193 41.4766 42.9861C41.4766 38.038 44.9737 32.009 49.2845 29.5184C49.5144 29.3866 49.7387 29.2698 49.963 29.1642C49.8162 28.5501 49.7446 27.9203 49.7499 27.2889C49.7499 23.1002 52.4667 18.0711 55.9878 15.4979C56.2979 15.2713 56.6197 15.061 56.9517 14.868C58.5714 13.935 60.0653 13.6838 61.2677 14.0245C63.1784 10.2643 66.0714 6.90068 69.3074 5.03062C70.269 4.45977 71.3121 4.03919 72.4007 3.78341C73.7403 3.43583 75.1589 3.56349 76.4148 4.14466C78.2255 5.03621 79.4321 7.00816 79.6784 9.85674C79.9433 9.67686 80.2105 9.50631 80.483 9.34882C82.2433 8.3315 83.8835 7.98294 85.2568 8.22029C87.6509 8.63006 89.2317 10.8143 89.2317 14.3377Z" fill="#DCFFFF"/>
<path d="M88.1759 14.3354C88.1759 16.8358 87.3154 19.6937 85.7565 22.3882C84.2794 24.9348 82.3605 27.0131 80.3169 28.2965C80.1949 28.3712 80.0773 28.4458 79.9553 28.5156C79.7926 28.6071 79.6398 28.6886 79.497 28.76C79.4408 28.7919 79.383 28.8208 79.3238 28.8466L78.6719 29.1623V29.2541L68.8364 34.933L64.0536 37.6946L48.7583 46.5258C48.6004 46.6173 48.4426 46.7039 48.2899 46.7804C48.0626 46.8941 47.8297 46.9961 47.592 47.086C47.0153 47.3194 46.4008 47.4459 45.7787 47.4592C43.7467 47.4592 42.5342 45.7884 42.5342 42.9872C42.5385 42.1992 42.6261 41.4139 42.7954 40.6443C43.1011 39.2305 43.6017 37.866 44.283 36.59C44.405 36.3455 44.5442 36.1011 44.68 35.8615C46.0608 33.4779 47.8895 31.5474 49.814 30.4319C50.0129 30.32 50.2115 30.2181 50.4152 30.1214L51.1945 29.7546L50.9907 28.9142C50.8641 28.3837 50.8026 27.8398 50.8075 27.2945C50.8075 25.1501 51.5968 22.7207 52.8753 20.5815C53.6076 19.3361 54.515 18.2023 55.5698 17.215C55.9 16.9067 56.249 16.6192 56.6147 16.354C56.8946 16.1485 57.1852 15.958 57.4854 15.7834C58.2975 15.2739 59.2274 14.9827 60.185 14.9381C60.4549 14.937 60.7238 14.9713 60.9848 15.04L61.82 15.2792L62.2122 14.5052C64.1069 10.7733 66.8879 7.6493 69.8369 5.94829C70.5551 5.52575 71.3212 5.19061 72.119 4.95001C72.2921 4.89888 72.4601 4.85297 72.6284 4.81752C73.0743 4.71451 73.5303 4.66157 73.9879 4.65966C74.6662 4.65098 75.3374 4.79913 75.9491 5.09256C76.0203 5.12802 76.0916 5.16384 76.1577 5.20452C77.1002 5.78035 77.8078 6.67193 78.1546 7.72058C78.4135 8.43941 78.5745 9.18978 78.6334 9.95153L78.7861 11.7395L79.4429 11.2917L80.2732 10.7319C80.5382 10.5539 80.7826 10.4008 81.0118 10.2635C81.2784 10.1082 81.5539 9.9688 81.8369 9.84591C82.639 9.45221 83.5162 9.2351 84.4093 9.20925C84.6093 9.20628 84.8092 9.22152 85.0064 9.25478C85.0316 9.25578 85.0566 9.25928 85.0811 9.26522C87.0504 9.60035 88.1759 11.4477 88.1759 14.3354Z" fill="url(#paint6_linear)"/>
<path d="M75.4872 5.05859C75.5577 5.09367 75.6286 5.13061 75.6962 5.17055C77.0987 5.97104 77.9727 7.64481 78.1693 9.91643L78.2996 11.4245L78.7825 11.7398L78.6272 9.94852C78.4302 7.6769 77.5569 6.00314 76.1541 5.20264C76.0869 5.16271 76.016 5.12576 75.9455 5.09068C75.3765 4.81565 74.754 4.66889 74.1221 4.66077C74.5965 4.71421 75.0583 4.84877 75.4872 5.05859Z" fill="#1919C7"/>
<path d="M85.0768 9.26153C85.0526 9.25705 85.0283 9.25295 85.0022 9.25071C84.8224 9.22251 84.6408 9.20766 84.4588 9.2063C84.4872 9.2104 84.5159 9.21376 84.5439 9.21824C84.5719 9.22272 84.5935 9.22458 84.6185 9.22906C86.5886 9.56494 87.7161 11.4141 87.7161 14.3045C87.7161 16.8049 86.8577 19.6624 85.2966 22.3539C83.8199 24.8998 81.9006 26.9814 79.8536 28.2652C79.7342 28.3399 79.6152 28.4115 79.4961 28.4813C79.3315 28.575 79.1797 28.6574 79.036 28.7291C78.974 28.7608 78.9192 28.7869 78.8654 28.8134L78.2123 29.1321V29.2206L68.3757 34.8998L63.594 37.6615L48.2973 46.493C48.1401 46.5837 47.983 46.6692 47.8267 46.7461C47.5938 46.8633 47.3617 46.9655 47.1329 47.0532C46.5561 47.2858 45.9417 47.4112 45.3199 47.4234H45.3076C45.4635 47.4451 45.6208 47.4561 45.7782 47.4563C46.4 47.4441 47.0144 47.3186 47.5912 47.086C47.8199 46.9983 48.0521 46.8961 48.2849 46.7789C48.4409 46.702 48.5984 46.6166 48.7555 46.5259L64.0523 37.6943L68.834 34.9327L78.6706 29.2534V29.165L79.3237 28.8463C79.3774 28.8202 79.4323 28.7937 79.4943 28.7619C79.6379 28.6903 79.7898 28.6078 79.9544 28.5141C80.0734 28.4444 80.1925 28.3727 80.3115 28.2981C82.3578 27.0154 84.2782 24.9326 85.7549 22.3867C87.3145 19.6952 88.1743 16.837 88.1743 14.3373C88.1754 11.4466 87.0469 9.59666 85.0768 9.26153Z" fill="#1919C7"/>
<path d="M60.5218 15.0082L61.3559 15.2445L61.3992 15.1594L60.9797 15.0407C60.7204 14.9694 60.4526 14.934 60.1837 14.9355H60.1729C60.2906 14.9523 60.4071 14.9766 60.5218 15.0082Z" fill="#428BD0"/>
<path d="M49.2864 30.6935C49.5163 30.5617 49.7406 30.4449 49.9649 30.3393C49.8787 29.9821 49.82 29.6188 49.7895 29.2526C49.6231 29.3354 49.4566 29.4224 49.2864 29.5198C44.9757 32.0105 41.4785 38.0394 41.4785 42.9875C41.4785 43.1849 41.486 43.376 41.4972 43.5641C41.7607 38.7372 45.1474 33.0849 49.2864 30.6935Z" fill="#DCFFFF"/>
<path d="M55.9894 16.6733C56.2994 16.4465 56.6212 16.2361 56.9533 16.043C58.573 15.11 60.0669 14.8589 61.2693 15.2C63.1801 11.4393 66.073 8.07574 69.309 6.20605C70.2706 5.63521 71.3138 5.21462 72.4024 4.95884C73.7419 4.61119 75.1606 4.73899 76.4164 5.32046C78.2272 6.21165 79.4337 8.1836 79.68 11.0303C79.945 10.8504 80.2122 10.6799 80.4846 10.5224C82.2449 9.50507 83.8851 9.15651 85.2585 9.39386C87.5182 9.77899 89.052 11.7509 89.2143 14.9365C89.224 14.735 89.2304 14.5346 89.2304 14.336C89.2304 10.8127 87.6495 8.6262 85.257 8.22017C83.8836 7.98282 82.2435 8.33212 80.4831 9.3487C80.2107 9.50619 79.9435 9.67673 79.6785 9.85661C79.4322 7.00804 78.2257 5.03609 76.4149 4.14454C75.159 3.56337 73.7404 3.43571 72.4009 3.78329C71.3123 4.03906 70.2691 4.45965 69.3075 5.03049C66.0716 6.90056 63.1786 10.2641 61.2678 14.0244C60.0654 13.6837 58.5715 13.9337 56.9519 14.8678C56.6198 15.0609 56.298 15.2712 55.9879 15.4978C52.4668 18.0702 49.75 23.1001 49.75 27.2907C49.75 27.4884 49.7575 27.6795 49.7698 27.8669C50.0109 23.8065 52.634 19.1245 55.9894 16.6733Z" fill="#DCFFFF"/>
<path d="M85.2628 8.22254C83.8857 7.98146 82.2421 8.3345 80.4859 9.34995C80.2109 9.50483 79.944 9.67687 79.6772 9.8575C79.4361 7.00929 78.2217 5.03846 76.4159 4.14392C75.161 3.56436 73.7443 3.4366 72.4059 3.7823C71.3158 4.03762 70.2712 4.45836 69.3084 5.02988C66.0728 6.90592 63.1817 10.262 61.2714 14.0238C60.0663 13.6879 58.5691 13.938 56.9517 14.8672C56.6193 15.0623 56.2976 15.2748 55.9877 15.5039C52.4685 18.0789 49.7491 23.1021 49.7491 27.293C49.7452 27.9246 49.8174 28.5544 49.964 29.1687C49.7401 29.2721 49.5162 29.3926 49.2844 29.5217C44.9733 32.0087 41.4795 38.0406 41.4795 42.9887C41.4795 47.4204 44.2848 49.4856 47.9678 48.0742C48.4245 47.901 48.8651 47.6879 49.2844 47.4376L51.3153 46.2672L52.339 45.6821L54.3878 44.4938L59.1647 41.74L62.2368 39.9588L63.7083 39.1158L67.004 37.2125L68.028 36.6187L68.493 36.3519L69.0528 36.0336L70.0765 35.4398L79.7298 29.8647V29.8218C79.8071 29.7874 79.8933 29.7445 79.9705 29.7012C80.1478 29.6195 80.3201 29.5276 80.4866 29.4258C85.3143 26.6377 89.2298 19.8829 89.2298 14.341C89.2298 10.8129 87.6549 8.62708 85.2628 8.22254ZM80.3146 28.3003C80.1944 28.3775 80.0825 28.4466 79.9534 28.5152C79.7899 28.61 79.6436 28.6873 79.4973 28.7649C79.4369 28.7992 79.3768 28.825 79.3253 28.8507L78.6714 29.1605V29.2553L70.0746 34.2206L69.0509 34.8143L68.8356 34.9345L68.0265 35.3995L67.0025 35.9933L64.0513 37.6969L62.2353 38.7467L60.1876 39.9342L59.1632 40.5193L54.3863 43.2731L51.3142 45.0544L48.7582 46.5259C48.6034 46.6203 48.4399 46.7065 48.285 46.7837C48.0525 46.8957 47.8204 46.9991 47.5879 47.0849C47.0143 47.3222 46.4015 47.4507 45.7809 47.4637C43.7414 47.4637 42.5367 45.7843 42.5367 42.9891C42.5404 42.202 42.6269 41.4174 42.795 40.6485C43.0979 39.2314 43.5991 37.8642 44.2837 36.587C44.4042 36.3459 44.5419 36.1048 44.6796 35.8641C46.0563 33.4802 47.8891 31.5441 49.808 30.4342C50.0148 30.3222 50.2126 30.2192 50.4104 30.1244L51.1941 29.7546L50.9873 28.9112C50.8622 28.3812 50.8015 27.838 50.8067 27.2934C50.8067 25.1505 51.5986 22.724 52.8719 20.5812C53.6056 19.3365 54.5127 18.2025 55.566 17.2135C55.8978 16.9052 56.2484 16.6178 56.6158 16.3529C56.8998 16.1465 57.1924 15.9484 57.485 15.7763C58.2985 15.2682 59.2291 14.9778 60.1872 14.9329C60.4546 14.9311 60.7209 14.9658 60.9788 15.0363L61.8218 15.2774L62.2092 14.5026C64.1024 10.7681 66.8819 7.64447 69.8335 5.94905C70.5489 5.52239 71.3149 5.18713 72.1137 4.95114C72.2947 4.89926 72.4582 4.84776 72.6302 4.81343C73.0763 4.71285 73.5321 4.66093 73.9894 4.65856C74.6651 4.64908 75.3338 4.79636 75.943 5.08885C76.0173 5.12083 76.0892 5.15825 76.158 5.2008C77.1006 5.77881 77.808 6.67208 78.1546 7.72209C78.4114 8.44044 78.5706 9.19005 78.6278 9.95079L78.7827 11.7421L79.4451 11.2861L80.2713 10.7263C80.5382 10.5542 80.7792 10.3994 81.0114 10.2617C81.2868 10.1068 81.5622 9.96049 81.8376 9.83995C82.6404 9.4479 83.5174 9.23088 84.4104 9.20329C84.6094 9.20338 84.8081 9.22061 85.0041 9.25479C85.0303 9.25341 85.0565 9.25631 85.0818 9.26337C87.0522 9.59925 88.1793 11.4492 88.1793 14.3317C88.1793 16.8358 87.3187 19.693 85.7535 22.3863C84.2816 24.9337 82.3631 27.0161 80.3146 28.2973V28.3003Z" fill="#B4B4FF"/>
<path d="M61.9482 89.9067C62.6099 88.5105 63.3462 87.1509 64.154 85.8338C64.2678 85.6504 64.4876 85.6358 64.7162 85.7669C64.8265 85.834 64.9248 85.9189 65.0071 86.0183C65.3148 86.3831 65.4324 86.8903 65.269 87.1499C64.4566 88.4839 63.7159 89.8604 63.0504 91.2734C62.0183 93.4943 61.7539 94.4711 61.683 95.2379C61.624 95.5639 61.6661 95.9002 61.8039 96.2016C61.9416 96.503 62.1683 96.7551 62.4536 96.9241C63.1727 97.3359 70.0051 101.28 70.3652 101.488C70.4445 101.535 70.5172 101.592 70.5814 101.658C70.5594 101.637 70.5367 101.614 70.5247 101.603L80.9992 95.5382C81.0236 95.5605 81.1441 95.6898 81.1615 95.711C81.1789 95.7323 81.2618 95.8594 81.2724 95.8771C81.2831 95.8949 81.293 95.9126 81.3022 95.9303C81.3114 95.948 81.3454 96.0209 81.355 96.0387C81.3645 96.0564 81.3709 96.0762 81.3784 96.0957C81.3858 96.1151 81.4312 96.266 81.4369 96.2919C81.4436 96.3205 81.4484 96.3494 81.4514 96.3786C81.4571 96.4195 81.4599 96.4607 81.4599 96.5019C81.4673 96.5793 81.4542 96.6572 81.4218 96.7279C81.3893 96.7985 81.3388 96.8594 81.2752 96.9042L70.8125 102.982C70.6613 103.017 70.5026 103.001 70.3613 102.937L61.7249 97.9557C61.2102 97.6423 60.8151 97.166 60.6024 96.6025C60.2133 95.6402 60.0205 94.0139 61.9482 89.9067Z" fill="#B7C0EB"/>
<path d="M80.9996 95.1818C81.0241 95.2037 81.0871 95.2657 81.1095 95.2908C81.1318 95.316 81.1449 95.333 81.1619 95.3553C81.179 95.3776 81.1885 95.3907 81.203 95.4123C81.2176 95.4339 81.2282 95.4477 81.2385 95.4669C81.2505 95.484 81.2615 95.5019 81.2714 95.5203C81.2821 95.5385 81.292 95.5562 81.3012 95.5735C81.3112 95.5905 81.3201 95.6081 81.3278 95.6262C81.3366 95.6454 81.3445 95.6641 81.354 95.6822C81.3636 95.7003 81.37 95.7176 81.3774 95.7381C81.3848 95.7587 81.3905 95.7778 81.3979 95.798C81.4054 95.8182 81.4121 95.8398 81.4175 95.8625C81.4228 95.8851 81.4302 95.9092 81.4359 95.9333C81.4426 95.962 81.4474 95.9911 81.4504 96.0204C81.456 96.0614 81.4589 96.1027 81.4589 96.144C81.4664 96.2213 81.4532 96.2992 81.4208 96.3697C81.3884 96.4403 81.3378 96.501 81.2743 96.5456L70.8115 102.623C70.8753 102.578 70.9259 102.517 70.9581 102.446C70.9903 102.375 71.003 102.297 70.9948 102.219C70.9948 102.179 70.9926 102.138 70.988 102.098C70.9841 102.07 70.9799 102.039 70.9742 102.011C70.9685 101.989 70.9629 101.963 70.9558 101.938C70.9487 101.914 70.9441 101.897 70.9363 101.874C70.9285 101.852 70.9228 101.835 70.9143 101.816C70.9058 101.797 70.8991 101.778 70.8916 101.758C70.8842 101.739 70.875 101.723 70.8672 101.704C70.8594 101.685 70.8487 101.668 70.8391 101.651C70.8296 101.634 70.82 101.616 70.809 101.598C70.7991 101.579 70.788 101.561 70.7761 101.543C70.7644 101.526 70.7523 101.507 70.7406 101.489C70.7289 101.471 70.7126 101.451 70.6984 101.431C70.6843 101.41 70.663 101.388 70.647 101.368C70.6236 101.343 70.5507 101.271 70.5259 101.247L80.9996 95.1818Z" fill="#EFF1FE"/>
<path d="M72.1403 89.2539C72.1471 89.3042 72.1651 89.431 72.174 89.4791C72.1811 89.5124 72.1903 89.5464 72.1985 89.5804C72.2059 89.6067 72.2151 89.6322 72.2229 89.6584C72.2307 89.6846 72.2385 89.7037 72.247 89.726C72.2555 89.7483 72.2626 89.765 72.2722 89.7844C72.2791 89.803 72.2873 89.8211 72.2967 89.8386C72.3045 89.856 72.3133 89.874 72.3225 89.89C72.3317 89.9059 72.3395 89.9254 72.3502 89.9406C72.3608 89.9559 72.3689 89.9729 72.3803 89.9906C72.3916 90.0083 72.4026 90.0235 72.4136 90.0398C72.4246 90.0561 72.4405 90.0777 72.455 90.0961C72.4696 90.1145 72.4884 90.1379 72.5075 90.1577C72.5313 90.1868 72.6543 90.2994 72.6826 90.3267L62.2035 96.3924C62.177 96.3658 62.0671 96.2628 62.0437 96.2359L61.9916 96.1735C61.9774 96.1537 61.9632 96.1356 61.9505 96.1169L61.9172 96.0666C61.9058 96.0503 61.8959 96.0336 61.8856 96.0177C61.8754 96.0018 61.8676 95.9823 61.8598 95.9674C61.8497 95.9504 61.8407 95.9328 61.8328 95.9146C61.8243 95.8991 61.8161 95.8792 61.8076 95.8615C61.7991 95.8438 61.7921 95.8226 61.7843 95.8024C61.7765 95.7822 61.7665 95.7577 61.7598 95.7354C61.753 95.7131 61.7442 95.6827 61.735 95.6565C61.7265 95.6232 61.719 95.5895 61.7112 95.5562C61.7006 95.5067 61.684 95.3855 61.679 95.3349L72.1403 89.2539Z" fill="url(#paint7_linear)"/>
<path d="M61.6859 95.4092L72.149 89.3325C72.1279 89.1561 72.1261 88.978 72.1437 88.8012C72.2146 88.0362 72.4815 87.0584 73.5132 84.8389C74.1781 83.4259 74.9186 82.0496 75.7314 80.7161L65.268 86.7914C64.4554 88.1256 63.7148 89.5023 63.0493 90.9156C62.0173 93.1358 61.7529 94.113 61.682 94.879C61.6633 95.0547 61.6646 95.232 61.6859 95.4074V95.4092Z" fill="#EFF1FE"/>
<path d="M64.7137 85.4102C64.4851 85.2791 64.2654 85.2937 64.1516 85.4771C63.3438 86.7943 62.6074 88.1538 61.9457 89.55C60.018 93.6583 60.2122 95.2853 60.5989 96.2436C60.8108 96.8078 61.2061 97.2846 61.7214 97.5976L70.3578 102.578C70.7058 102.78 70.9915 102.62 70.9922 102.219C70.9805 102.001 70.9173 101.788 70.8077 101.599C70.6981 101.409 70.5453 101.249 70.3617 101.13C70.0016 100.923 63.1691 96.9778 62.45 96.5656C62.1648 96.3966 61.9381 96.1446 61.8004 95.8432C61.6626 95.5417 61.6205 95.2055 61.6795 94.8794C61.7504 94.1134 62.0148 93.1362 63.0469 90.916C63.7124 89.5027 64.453 88.126 65.2655 86.7918C65.4307 86.5322 65.3113 86.0257 65.0036 85.6584C64.9209 85.5607 64.823 85.4769 64.7137 85.4102Z" fill="#E4E7FB"/>
<path d="M85.9188 42.1988C85.9542 42.1776 85.9925 42.1577 86.029 42.1383C86.0559 42.1248 86.0822 42.1135 86.1073 42.1004C86.1162 42.0975 86.1222 42.0926 86.1297 42.0908L86.1407 42.0848C86.1761 42.0678 86.2144 42.0511 86.2523 42.0373C86.2704 42.0287 86.2895 42.0219 86.309 42.0171C86.3192 42.0124 86.3296 42.0083 86.3402 42.0047C86.3486 42.001 86.3572 41.9979 86.3661 41.9955C86.404 41.9809 86.443 41.969 86.4827 41.9601C86.4921 41.956 86.502 41.953 86.5121 41.9513C86.5248 41.9477 86.5365 41.9438 86.5475 41.941L86.6007 41.9282C86.6421 41.9197 86.6829 41.9123 86.7247 41.9066H86.7268C86.7316 41.9045 86.7369 41.9035 86.7421 41.9038C86.7804 41.8973 86.8189 41.8926 86.8576 41.89C86.8718 41.89 86.8853 41.89 86.8991 41.8875C86.9183 41.8875 86.9378 41.8875 86.9562 41.8843C86.9746 41.8811 86.9852 41.8815 86.998 41.8815C87.0281 41.8815 87.0579 41.8843 87.0873 41.8843C87.1029 41.8843 87.1195 41.8843 87.1344 41.8843H87.1507C87.1862 41.8868 87.2195 41.8925 87.2539 41.8971C87.2769 41.9003 87.3006 41.902 87.323 41.9063H87.3269C87.3859 41.9158 87.4444 41.9286 87.502 41.9449C87.9733 42.0719 88.4444 42.1996 88.915 42.3281C88.8559 42.3109 88.7956 42.2979 88.7346 42.2891C88.7144 42.2859 88.6942 42.2849 88.6744 42.281C88.6322 42.2764 88.5908 42.2714 88.5493 42.2682C88.5326 42.2682 88.5174 42.2682 88.5007 42.2682C88.4557 42.2654 88.4121 42.2654 88.3674 42.2682C88.3497 42.2682 88.3342 42.2707 88.315 42.2718C88.2595 42.2742 88.2041 42.2798 88.1491 42.2884H88.1445C88.0825 42.2976 88.0219 42.3104 87.9627 42.3238C87.9503 42.3274 87.9386 42.3288 87.9273 42.3334C87.8723 42.349 87.8146 42.3656 87.7579 42.3851C87.7437 42.3897 87.7306 42.3954 87.7178 42.4007C87.659 42.4219 87.6015 42.445 87.5448 42.4715C87.5356 42.4751 87.5282 42.4793 87.5183 42.4843C87.4555 42.5144 87.3946 42.5459 87.3322 42.5813L45.0856 65.0302L43.6719 64.6467L85.9188 42.1988Z" fill="url(#paint8_linear)"/>
<path d="M43.2171 69.6707L44.0277 99.1696C44.0538 99.294 44.0864 99.417 44.1255 99.5379C44.1276 99.5465 44.1303 99.5549 44.1336 99.5631C44.17 99.6754 44.2128 99.7855 44.2619 99.8928C44.2637 99.8992 44.2687 99.9063 44.2712 99.9137C44.3174 100.012 44.3687 100.107 44.425 100.2C44.4317 100.211 44.4395 100.219 44.4455 100.23C44.4902 100.301 44.5398 100.368 44.5898 100.433C44.6089 100.456 44.6277 100.481 44.6479 100.504C44.6869 100.551 44.7294 100.593 44.7723 100.636C44.8035 100.667 44.8354 100.699 44.8676 100.728C44.9123 100.767 44.9598 100.801 45.0051 100.836C45.0381 100.86 45.0697 100.888 45.104 100.909C45.1557 100.942 45.2094 100.972 45.2646 100.999C45.2972 101.016 45.3259 101.034 45.3585 101.048C45.4458 101.088 45.5362 101.121 45.6289 101.147L44.2141 100.763C44.1214 100.737 44.0309 100.705 43.9436 100.665C43.9164 100.653 43.8894 100.636 43.8611 100.621C43.8026 100.591 43.7459 100.561 43.6888 100.525C43.6569 100.504 43.6275 100.48 43.5974 100.456C43.5478 100.421 43.4982 100.385 43.4521 100.345C43.4212 100.317 43.3922 100.286 43.3631 100.254C43.3341 100.223 43.2951 100.193 43.2628 100.157C43.2525 100.145 43.2441 100.131 43.2338 100.119C43.2143 100.098 43.1983 100.073 43.1785 100.05C43.1547 100.02 43.1288 99.993 43.1055 99.9605C43.0821 99.9279 43.058 99.8868 43.0346 99.8482C43.0268 99.8365 43.0179 99.8259 43.0101 99.8128C43.0055 99.806 43.0016 99.8007 42.9977 99.794C42.9669 99.7437 42.9385 99.6924 42.9112 99.6396C42.8928 99.6042 42.8758 99.5666 42.8588 99.5298L42.8471 99.5075C42.8442 99.5018 42.8428 99.4986 42.8382 99.4908C42.8187 99.4462 42.7996 99.3984 42.7811 99.3492C42.7627 99.2999 42.7457 99.2582 42.7294 99.211C42.7266 99.2015 42.7244 99.1909 42.7198 99.1792C42.7172 99.1696 42.7139 99.1603 42.7099 99.1512C42.7028 99.1246 42.6933 99.0988 42.6855 99.0726C42.6731 99.0276 42.661 98.9808 42.65 98.9352C42.639 98.8895 42.6284 98.8427 42.6174 98.7935V98.7846L41.8058 69.2854L43.2171 69.6707Z" fill="#E4E7FB"/>
<path d="M45.0874 65.0315C43.6988 65.8344 42.8546 67.919 43.2182 69.671L44.0287 99.1699C44.3924 100.922 45.8246 101.695 47.2146 100.895L89.1273 76.7118C90.5169 75.9096 91.3601 73.8243 90.9965 72.0723L90.5184 44.3059C90.1554 42.5557 88.7236 41.7801 87.3332 42.5819L45.0874 65.0315Z" fill="#EFF1FE"/>
<path d="M89.2067 71.7111C89.3993 71.498 89.5425 71.2452 89.6262 70.9705C89.7098 70.6958 89.7319 70.4061 89.6908 70.122C89.6908 70.122 89.6908 45.2052 89.5594 44.6049C89.2322 43.1121 87.3645 43.7057 87.3645 43.7057L45.7756 65.8026C44.5706 66.6119 44.2414 67.1612 44.2414 69.2893C44.2414 69.2893 44.5147 93.4676 44.7649 94.5804C45.265 96.7982 47.0431 96.0371 47.0431 96.0371L89.2067 71.7111Z" fill="url(#paint9_linear)"/>
<path d="M41.7237 68.5711C41.7208 68.5191 41.7208 68.4649 41.7208 68.4146C41.7208 68.3714 41.7208 68.3275 41.724 68.2857V68.2503C41.7279 68.1932 41.7315 68.1366 41.7364 68.0764C41.7386 68.036 41.7431 67.9938 41.7481 67.9531C41.7483 67.9443 41.7492 67.9355 41.751 67.9269C41.7515 67.9166 41.7515 67.9064 41.751 67.8961C41.7598 67.8299 41.7687 67.7643 41.78 67.6978C41.7839 67.674 41.7878 67.6517 41.7928 67.6269C41.7977 67.6021 41.8009 67.583 41.8045 67.56C41.8102 67.5317 41.8147 67.5016 41.8208 67.4732C41.8324 67.4201 41.8445 67.367 41.859 67.3138C41.864 67.2887 41.8693 67.2653 41.8753 67.243C41.8782 67.2331 41.8796 67.2207 41.8824 67.2101C41.892 67.1768 41.9026 67.1446 41.9126 67.1098C41.9367 67.0341 41.959 66.9554 41.9834 66.8793C41.9887 66.8637 41.993 66.8481 41.9983 66.8347C42.0083 66.8039 42.0214 66.7776 42.0306 66.749C42.0596 66.6721 42.0898 66.5953 42.122 66.5216C42.1408 66.4752 42.161 66.4302 42.1812 66.3863C42.2149 66.3119 42.2521 66.2397 42.2896 66.1678C42.3042 66.1398 42.3166 66.1108 42.3304 66.0856C42.3368 66.0739 42.3442 66.0629 42.3513 66.0523C42.4063 65.9524 42.4676 65.8551 42.5285 65.7598C42.5344 65.7497 42.5408 65.7399 42.5477 65.7304C42.5994 65.6535 42.654 65.5777 42.7103 65.5051C42.7181 65.4952 42.7259 65.4867 42.7327 65.4772C42.7394 65.4676 42.7557 65.4506 42.7681 65.4368C42.7965 65.4014 42.8234 65.366 42.8528 65.3334C42.8822 65.3008 42.9085 65.2732 42.9357 65.2424C42.9453 65.2331 42.9531 65.2243 42.962 65.2161C42.9709 65.208 42.9755 65.2002 42.9822 65.1931C43.0223 65.1506 43.0648 65.1113 43.1059 65.0709C43.1254 65.0525 43.1449 65.0355 43.1651 65.0182C43.1722 65.0114 43.1817 65.0037 43.1902 64.9969C43.1987 64.9902 43.2108 64.9771 43.2225 64.9675C43.2604 64.9356 43.298 64.9034 43.3366 64.8726C43.359 64.8556 43.3841 64.8372 43.4075 64.8209C43.4135 64.8177 43.4185 64.8124 43.4248 64.8085C43.4329 64.8022 43.4413 64.7962 43.45 64.7908C43.4855 64.7653 43.5209 64.7412 43.5595 64.7157C43.5982 64.6902 43.6326 64.67 43.6712 64.6481L45.085 65.0316C45.0834 65.0323 45.0819 65.0333 45.0807 65.0345C44.9984 65.0823 44.9187 65.1343 44.8418 65.1903C44.834 65.196 44.8259 65.2009 44.8163 65.2076C44.7454 65.2604 44.6745 65.3178 44.6037 65.378C44.5936 65.3862 44.584 65.3949 44.5749 65.4042C44.5071 65.4642 44.4415 65.5276 44.3779 65.5944C44.3655 65.6071 44.3541 65.6199 44.3424 65.6333C44.2868 65.69 44.2329 65.7541 44.1819 65.8168C44.1684 65.8345 44.1564 65.8469 44.1436 65.8636C44.0894 65.9316 44.0373 66.0027 43.988 66.0739C43.9784 66.0881 43.9682 66.1008 43.959 66.1147C43.8881 66.2156 43.8246 66.325 43.7626 66.4359C43.7413 66.4713 43.7233 66.5092 43.7042 66.546C43.6652 66.6208 43.6262 66.6948 43.5915 66.7734C43.572 66.8141 43.5538 66.857 43.5358 66.8995C43.5035 66.9763 43.4723 67.0521 43.4433 67.1322C43.4277 67.175 43.4107 67.2182 43.3965 67.2611C43.3685 67.3425 43.3458 67.4222 43.3221 67.5023C43.3115 67.5412 43.2994 67.5812 43.2891 67.6216C43.2799 67.6517 43.2735 67.6822 43.2668 67.7123C43.2487 67.7877 43.2314 67.8639 43.2172 67.9386C43.2129 67.9637 43.209 67.9882 43.2044 68.0133C43.1867 68.1107 43.1722 68.207 43.1612 68.3059C43.1612 68.3186 43.1612 68.331 43.1576 68.3413C43.1467 68.445 43.1399 68.5485 43.136 68.6512C43.1369 68.6592 43.1369 68.6672 43.136 68.6752C43.1328 68.7815 43.1328 68.8835 43.136 68.9883V69.0156C43.141 69.118 43.1498 69.2207 43.1605 69.3216C43.1605 69.3304 43.1633 69.34 43.1644 69.3506C43.1771 69.459 43.1934 69.5631 43.2157 69.6694L41.802 69.2862C41.7938 69.2423 41.7853 69.198 41.7772 69.1548C41.769 69.1116 41.7619 69.0599 41.7559 69.0131C41.7534 68.9997 41.7513 68.983 41.7492 68.9681C41.749 68.9585 41.7482 68.949 41.747 68.9394C41.7445 68.9161 41.7403 68.8927 41.7385 68.8686C41.7336 68.8183 41.7307 68.7695 41.7268 68.7216C41.7251 68.6926 41.7244 68.6618 41.7226 68.6324C41.7226 68.6239 41.7226 68.615 41.7226 68.6065C41.7226 68.598 41.7237 68.5832 41.7237 68.5711Z" fill="url(#paint10_linear)"/>
<path d="M70.5759 101.293L81.0391 95.2182C80.9757 95.1544 80.9042 95.0991 80.8264 95.0539C80.4663 94.8474 73.6342 90.9038 72.9165 90.4898C72.7956 90.4207 72.6838 90.3368 72.5837 90.2401L62.1192 96.3172C62.2196 96.413 62.3314 96.4963 62.452 96.5651C63.1711 96.9773 70.0035 100.921 70.3636 101.129C70.4413 101.174 70.5128 101.228 70.5763 101.291L70.5759 101.293Z" fill="url(#paint11_linear)"/>
<defs>
<linearGradient id="paint0_linear" x1="103.762" y1="69.7628" x2="109.326" y2="79.6585" gradientUnits="userSpaceOnUse">
<stop stop-color="#B4B4FF"/>
<stop offset="1" stop-color="#1919C7"/>
</linearGradient>
<linearGradient id="paint1_linear" x1="6.08695" y1="28.7013" x2="17.2146" y2="48.4926" gradientUnits="userSpaceOnUse">
<stop stop-color="#B4B4FF"/>
<stop offset="1" stop-color="#1919C7"/>
</linearGradient>
<linearGradient id="paint2_linear" x1="83.9729" y1="7.74346" x2="62.9662" y2="15.5583" gradientUnits="userSpaceOnUse">
<stop stop-color="#D1D1F4"/>
<stop offset="0.088" stop-color="#AEAEEB"/>
<stop offset="0.229" stop-color="#8C8CE3"/>
<stop offset="0.373" stop-color="#8C8CE3"/>
<stop offset="0.521" stop-color="#1919C7"/>
<stop offset="0.671" stop-color="#00A69C"/>
<stop offset="0.828" stop-color="#54A600"/>
<stop offset="1" stop-color="#393091"/>
</linearGradient>
<linearGradient id="paint3_linear" x1="59.1311" y1="24.9488" x2="2.66738" y2="40.7354" gradientUnits="userSpaceOnUse">
<stop stop-color="#D1D1F4"/>
<stop offset="0.088" stop-color="#AEAEEB"/>
<stop offset="0.229" stop-color="#8C8CE3"/>
<stop offset="0.373" stop-color="#8C8CE3"/>
<stop offset="0.521" stop-color="#1919C7"/>
<stop offset="0.671" stop-color="#00A69C"/>
<stop offset="0.828" stop-color="#54A600"/>
<stop offset="1" stop-color="#393091"/>
</linearGradient>
<linearGradient id="paint4_linear" x1="75.7926" y1="9.96414" x2="12.92" y2="32.134" gradientUnits="userSpaceOnUse">
<stop stop-color="#D1D1F4"/>
<stop offset="0.088" stop-color="#AEAEEB"/>
<stop offset="0.229" stop-color="#8C8CE3"/>
<stop offset="0.373" stop-color="#8C8CE3"/>
<stop offset="0.521" stop-color="#1919C7"/>
<stop offset="0.671" stop-color="#00A69C"/>
<stop offset="0.828" stop-color="#54A600"/>
<stop offset="1" stop-color="#393091"/>
</linearGradient>
<linearGradient id="paint5_linear" x1="57.7871" y1="16.3801" x2="24.071" y2="26.4698" gradientUnits="userSpaceOnUse">
<stop stop-color="#D1D1F4"/>
<stop offset="0.088" stop-color="#AEAEEB"/>
<stop offset="0.229" stop-color="#8C8CE3"/>
<stop offset="0.373" stop-color="#8C8CE3"/>
<stop offset="0.521" stop-color="#1919C7"/>
<stop offset="0.671" stop-color="#00A69C"/>
<stop offset="0.828" stop-color="#54A600"/>
<stop offset="1" stop-color="#393091"/>
</linearGradient>
<linearGradient id="paint6_linear" x1="76.0844" y1="7.29728" x2="56.0679" y2="45.2618" gradientUnits="userSpaceOnUse">
<stop stop-color="#B4B4FF"/>
<stop offset="1" stop-color="#1919C7"/>
</linearGradient>
<linearGradient id="paint7_linear" x1="-14365.5" y1="6215.43" x2="-14317" y2="6010.22" gradientUnits="userSpaceOnUse">
<stop stop-color="#F1F4FE"/>
<stop offset="0.58" stop-color="#F7F9FE"/>
<stop offset="1" stop-color="white"/>
</linearGradient>
<linearGradient id="paint8_linear" x1="-53045.1" y1="3876.64" x2="-58820.7" y2="3876.64" gradientUnits="userSpaceOnUse">
<stop stop-color="#F1F4FE"/>
<stop offset="0.58" stop-color="#F7F9FE"/>
<stop offset="1" stop-color="white"/>
</linearGradient>
<linearGradient id="paint9_linear" x1="56.2873" y1="46.8296" x2="83.5218" y2="88.7224" gradientUnits="userSpaceOnUse">
<stop stop-color="#B4B4FF"/>
<stop offset="1" stop-color="#1919C7"/>
</linearGradient>
<linearGradient id="paint10_linear" x1="44.7672" y1="64.6384" x2="42.1058" y2="69.251" gradientUnits="userSpaceOnUse">
<stop stop-color="white"/>
<stop offset="0.728" stop-color="#ECEEFC"/>
<stop offset="1" stop-color="#E4E7FB"/>
</linearGradient>
<linearGradient id="paint11_linear" x1="-23569.1" y1="3241.72" x2="-22559.2" y2="3241.72" gradientUnits="userSpaceOnUse">
<stop stop-color="#F1F4FE"/>
<stop offset="0.58" stop-color="#F7F9FE"/>
<stop offset="1" stop-color="white"/>
</linearGradient>
</defs>
</svg>
