<svg width="172" height="554" viewBox="0 0 172 554" fill="none" xmlns="http://www.w3.org/2000/svg">
<g opacity="0.06" clip-path="url(#clip0)">
<path fill-rule="evenodd" clip-rule="evenodd" d="M134.319 390.315C122.395 386.488 106.055 385.444 87.249 388.438L86.9824 386.741C105.977 383.717 122.596 384.751 134.837 388.679C147.033 392.594 155.111 399.474 156.498 408.295C157.543 414.947 153.928 421.687 147.269 427.743L146.124 426.468C152.608 420.572 155.725 414.371 154.812 408.563C153.577 400.704 146.285 394.156 134.319 390.315Z" fill="white"/>
<path fill-rule="evenodd" clip-rule="evenodd" d="M20.1691 430.853C21.192 437.361 26.6763 442.251 37.3093 445.617L36.7976 447.255C25.9676 443.828 19.6621 438.618 18.4839 431.121C17.8089 426.827 19.575 422.327 23.0107 417.977C26.4538 413.616 31.65 409.302 38.0682 405.325C50.909 397.367 68.7892 390.667 87.789 387.642L88.0556 389.338C69.2543 392.332 51.5918 398.961 38.9627 406.787C32.6458 410.701 27.6252 414.893 24.3464 419.046C21.0602 423.207 19.5993 427.227 20.1691 430.853Z" fill="white"/>
<path fill-rule="evenodd" clip-rule="evenodd" d="M126.906 528.451C128.229 523.61 128.229 521.55 128.229 517.305L128.229 517.292L129.936 517.292C129.936 521.619 129.935 523.853 128.544 528.929L128.537 528.952L128.53 528.974C127.032 533.482 125.203 537.185 123.059 539.857C120.911 542.532 118.398 544.225 115.542 544.568L115.341 542.863C117.618 542.589 119.763 541.228 121.732 538.777C123.699 536.326 125.444 532.838 126.906 528.451Z" fill="white"/>
<path d="M158.939 463.197C158.939 427.036 129.816 397.723 93.8903 397.723C57.965 397.723 28.8418 427.036 28.8418 463.197C28.8418 499.357 57.965 528.671 93.8903 528.671C129.816 528.671 158.939 499.357 158.939 463.197Z" fill="white"/>
<path fill-rule="evenodd" clip-rule="evenodd" d="M102.873 390.481C105.727 392.135 108.619 395.207 111.41 400.58C111.628 401 112.143 401.163 112.561 400.943C112.978 400.724 113.14 400.205 112.922 399.784C110.036 394.229 106.949 390.862 103.725 388.993C100.486 387.114 97.2008 386.8 94.0324 387.18C93.5646 387.237 93.2306 387.663 93.2864 388.134C93.3423 388.605 93.7667 388.942 94.2345 388.885C97.1399 388.537 100.033 388.833 102.873 390.481Z" fill="white"/>
<path fill-rule="evenodd" clip-rule="evenodd" d="M41.1162 443.41C54.4059 417.385 72.5893 397.05 91.6649 388.851L90.9949 387.272C71.4036 395.692 52.9786 416.424 39.5988 442.625C33.8029 453.974 28.1712 465.736 24.9032 476.775C21.64 487.797 20.6866 498.251 24.4329 506.902L25.9971 506.216C22.4921 498.122 23.3151 488.153 26.5384 477.265C29.757 466.393 35.3222 454.756 41.1162 443.41Z" fill="white"/>
<path fill-rule="evenodd" clip-rule="evenodd" d="M35.9344 510.683C32.3846 510.318 29.5278 509.24 27.9534 507.411L26.6641 508.536C28.6627 510.857 32.0525 512.01 35.7607 512.392C39.5008 512.777 45.7789 511.367 49.6616 510.458L49.2752 508.785C45.5387 509.66 39.4524 511.046 35.9344 510.683Z" fill="white"/>
<path fill-rule="evenodd" clip-rule="evenodd" d="M86.4203 395.391C88.6166 391.211 91.2701 388.937 94.3036 388.573L94.1016 386.868C90.2658 387.328 87.2278 390.182 84.9121 394.588C82.5915 399.004 80.9064 405.135 79.8239 412.509C77.6572 427.271 77.8733 447.242 80.4556 469.032C83.04 490.84 88.1751 510.283 94.4108 524.093C97.5265 530.994 100.938 536.534 104.478 540.258C108.006 543.97 111.789 546.002 115.612 545.543L115.41 543.838C112.363 544.204 109.08 542.615 105.711 539.071C102.355 535.541 99.0388 530.192 95.9641 523.383C89.819 509.773 84.7192 490.511 82.1497 468.829C79.578 447.127 79.3748 427.32 81.5118 412.76C82.5812 405.475 84.2289 399.561 86.4203 395.391Z" fill="white"/>
<path d="M11.7812 430.565L11.7812 430.565C11.7812 434.951 15.3142 438.507 19.6724 438.507L19.6724 438.507C24.0306 438.507 27.5635 434.951 27.5635 430.565L27.5635 430.565C27.5635 426.178 24.0306 422.622 19.6724 422.622L19.6724 422.622C15.3142 422.622 11.7812 426.178 11.7812 430.565Z" fill="white"/>
<path d="M103.487 542.193L103.487 542.193C103.487 548.714 108.739 554 115.217 554L115.217 554C121.696 554 126.947 548.714 126.947 542.193L126.947 542.193C126.947 535.672 121.696 530.386 115.217 530.386L115.217 530.386C108.739 530.386 103.487 535.672 103.487 542.193Z" fill="white"/>
<path d="M155.1 401.585C152.273 401.585 149.981 403.891 149.981 406.737C149.981 409.582 152.273 411.889 155.1 411.889C157.927 411.889 160.219 409.582 160.219 406.737C160.219 403.891 157.927 401.585 155.1 401.585Z" fill="white"/>
<path d="M25.8588 502.051C23.0319 502.051 20.7402 504.357 20.7402 507.203C20.7402 510.048 23.0319 512.355 25.8588 512.355C28.6857 512.355 30.9774 510.048 30.9774 507.203C30.9774 504.357 28.6857 502.051 25.8588 502.051Z" fill="white"/>
<path d="M91.1207 381.406C87.3514 381.406 84.2959 384.481 84.2959 388.275C84.2959 392.069 87.3514 395.144 91.1207 395.144C94.8899 395.144 97.9454 392.069 97.9454 388.275C97.9454 384.481 94.8899 381.406 91.1207 381.406Z" fill="white"/>
<path d="M57.2697 335.25L57.2697 319.251L72.6904 319.251C75.6954 321.639 77.969 324.286 79.5111 327.191C81.0531 330.096 81.8242 333.14 81.8242 336.324C81.8242 339.19 81.2509 341.897 80.1042 344.443C78.918 346.99 77.3364 349.199 75.3593 351.07C73.3823 352.941 71.089 354.433 68.4793 355.547C65.8302 356.622 63.0228 357.159 60.0573 357.159C57.0918 357.159 54.3042 356.622 51.6945 355.547C49.0849 354.433 46.7916 352.941 44.8145 351.07C42.8375 349.199 41.2757 346.99 40.129 344.443C38.9823 341.897 38.409 339.19 38.409 336.324C38.409 333.618 38.9033 331.071 39.8917 328.683C40.8802 326.256 42.5212 323.907 44.8145 321.639L51.1607 326.892C49.6186 328.564 48.5906 330.136 48.0766 331.608C47.523 333.08 47.2462 334.633 47.2462 336.265C47.2462 337.936 47.5823 339.509 48.2545 340.981C48.9267 342.414 49.8361 343.667 50.9828 344.742C52.1295 345.817 53.4936 346.673 55.0752 347.309C56.6173 347.906 58.278 348.204 60.0573 348.204C61.8366 348.204 63.4973 347.906 65.0393 347.309C66.5814 346.673 67.9455 345.817 69.1318 344.742C70.2785 343.667 71.1878 342.414 71.86 340.981C72.5323 339.509 72.8683 337.936 72.8683 336.265C72.8683 334.793 72.6113 333.34 72.0973 331.907C71.5437 330.435 70.654 328.961 69.4283 327.489L64.8614 327.489L64.8614 335.25L57.2697 335.25ZM37.6973 314.284L37.6973 306.046L81.0531 306.046L81.0531 314.284L37.6973 314.284ZM50.8049 286.431C50.8049 284.321 51.22 282.332 52.0504 280.461C52.8412 278.59 53.9483 276.959 55.3717 275.566C56.7557 274.173 58.3966 273.079 60.2945 272.283C62.1529 271.447 64.1497 271.029 66.2849 271.029C68.42 271.029 70.4366 271.447 72.3345 272.283C74.1929 273.079 75.8338 274.173 77.2573 275.566C78.6412 276.959 79.7483 278.59 80.5786 280.461C81.3695 282.332 81.7649 284.321 81.7649 286.431C81.7649 288.58 81.3695 290.59 80.5786 292.461C79.7483 294.332 78.6412 295.962 77.2573 297.356C75.8338 298.749 74.1929 299.863 72.3345 300.699C70.4366 301.495 68.42 301.893 66.2849 301.893C64.1497 301.893 62.1529 301.495 60.2945 300.699C58.3966 299.863 56.7557 298.749 55.3717 297.356C53.9483 295.962 52.8412 294.332 52.0504 292.461C51.22 290.59 50.8049 288.58 50.8049 286.431ZM74.5883 286.431C74.5883 285.436 74.3906 284.521 73.9952 283.685C73.5998 282.81 73.066 282.053 72.3938 281.416C71.6821 280.739 70.8517 280.222 69.9028 279.864C68.9143 279.467 67.8269 279.267 66.6407 279.267C65.4545 279.267 64.3474 279.467 63.3193 279.864C62.2912 280.222 61.4016 280.739 60.6504 281.416C59.8595 282.053 59.2467 282.81 58.8117 283.685C58.3373 284.521 58.1 285.436 58.1 286.431C58.1 287.426 58.3373 288.362 58.8117 289.237C59.2467 290.112 59.8595 290.888 60.6504 291.565C61.4016 292.201 62.2912 292.72 63.3193 293.117C64.3474 293.475 65.4545 293.655 66.6407 293.655C67.8269 293.655 68.9143 293.475 69.9028 293.117C70.8518 292.72 71.6821 292.201 72.3938 291.565C73.066 290.888 73.5998 290.112 73.9952 289.237C74.3906 288.362 74.5883 287.426 74.5883 286.431ZM50.8048 249.584C50.8048 247.515 51.22 245.584 52.0504 243.793C52.8412 242.002 53.9483 240.45 55.3717 239.137C56.7557 237.824 58.3966 236.809 60.2945 236.092C62.1529 235.337 64.1497 234.958 66.2849 234.958C68.42 234.958 70.4366 235.337 72.3345 236.092C74.1929 236.809 75.8338 237.824 77.2573 239.137C78.6412 240.45 79.7483 242.002 80.5786 243.793C81.3695 245.584 81.7649 247.515 81.7649 249.584C81.7649 251.336 81.4683 253.026 80.8752 254.658C80.2426 256.25 79.4518 257.504 78.5028 258.419L81.0531 259.613L81.0531 266.658L37.7566 266.658L37.7566 258.419L54.0076 258.419C51.8724 256.151 50.8048 253.205 50.8048 249.584ZM74.4697 250.718C74.4697 249.644 74.2523 248.649 73.8173 247.733C73.3823 246.778 72.809 245.942 72.0973 245.226C71.346 244.51 70.4761 243.952 69.4876 243.555C68.4991 243.157 67.4316 242.958 66.2849 242.958C65.1778 242.958 64.1299 243.157 63.1414 243.555C62.1133 243.952 61.2435 244.51 60.5317 245.226C59.7805 245.942 59.1874 246.778 58.7524 247.733C58.3175 248.649 58.1 249.644 58.1 250.718C58.1 251.793 58.2581 252.808 58.5745 253.763C58.8512 254.679 59.3257 255.494 59.998 256.211C60.6306 256.888 61.4807 257.425 62.5483 257.822C63.5764 258.22 64.8614 258.419 66.4035 258.419C67.7874 258.419 68.9933 258.22 70.0214 257.822C71.0099 257.425 71.8402 256.888 72.5124 256.211C73.145 255.494 73.6393 254.679 73.9952 253.763C74.3116 252.808 74.4697 251.793 74.4697 250.718ZM51.6352 200.463L81.0531 200.463L81.0531 207.567L77.9097 208.403C79.4517 209.558 80.4798 210.95 80.9938 212.582C81.5078 214.173 81.7649 215.845 81.7649 217.597C81.7649 219.706 81.3695 221.656 80.5786 223.447C79.7483 225.199 78.6412 226.73 77.2573 228.044C75.8338 229.357 74.1929 230.392 72.3345 231.148C70.4366 231.864 68.42 232.223 66.2849 232.223C64.1497 232.223 62.1529 231.864 60.2945 231.148C58.3966 230.392 56.7557 229.357 55.3717 228.044C53.9483 226.73 52.8412 225.199 52.0504 223.447C51.22 221.656 50.8048 219.706 50.8048 217.597C50.8048 215.686 51.1014 213.935 51.6945 212.343C52.2876 210.752 53.2366 209.438 54.5414 208.403L51.6352 207.567L51.6352 200.463ZM66.4035 208.702C64.8614 208.702 63.5764 208.92 62.5483 209.358C61.4807 209.756 60.6306 210.313 59.998 211.03C59.3257 211.707 58.8512 212.522 58.5745 213.477C58.2581 214.393 58.1 215.388 58.1 216.462C58.1 217.537 58.3175 218.552 58.7524 219.507C59.1874 220.423 59.7805 221.238 60.5317 221.955C61.2435 222.671 62.1133 223.228 63.1414 223.626C64.1299 224.024 65.1778 224.223 66.2849 224.223C67.4316 224.223 68.4991 224.024 69.4876 223.626C70.4761 223.228 71.346 222.671 72.0973 221.955C72.809 221.238 73.3823 220.423 73.8173 219.507C74.2523 218.552 74.4697 217.537 74.4697 216.462C74.4697 214.313 73.8173 212.502 72.5124 211.03C71.1681 209.517 69.1317 208.741 66.4035 208.702ZM37.6973 194.887L37.6973 186.649L81.0531 186.649L81.0531 194.887L37.6973 194.887ZM39.0021 164.981L39.0021 138.535L47.1869 138.535L47.1869 155.907L54.7786 155.907L54.7786 140.624L62.9635 140.624L62.9635 155.907L72.9276 155.907L72.9276 138.535L81.0531 138.535L81.0531 164.981L39.0021 164.981ZM37.7566 103.13L81.0531 103.13L81.0531 110.174L78.5028 111.368C79.4517 112.284 80.2426 113.558 80.8752 115.189C81.4683 116.782 81.7648 118.453 81.7648 120.204C81.7648 122.313 81.3695 124.263 80.5786 126.054C79.7483 127.845 78.6412 129.397 77.2573 130.71C75.8338 131.984 74.1929 132.999 72.3345 133.755C70.4366 134.471 68.42 134.83 66.2848 134.83C64.1497 134.83 62.1529 134.471 60.2945 133.755C58.3966 132.999 56.7557 131.984 55.3717 130.71C53.9483 129.397 52.8412 127.845 52.0504 126.054C51.22 124.263 50.8048 122.313 50.8048 120.204C50.8048 118.334 51.0223 116.681 51.4573 115.249C51.8922 113.776 52.6237 112.483 53.6517 111.368L37.7566 111.368L37.7566 103.13ZM66.4035 111.368C64.8614 111.368 63.5764 111.568 62.5483 111.965C61.4807 112.364 60.6306 112.92 59.9979 113.637C59.3257 114.353 58.8512 115.189 58.5745 116.144C58.2581 117.06 58.1 118.054 58.1 119.129C58.1 120.204 58.3175 121.218 58.7524 122.174C59.1874 123.089 59.7805 123.905 60.5317 124.621C61.2435 125.298 62.1133 125.836 63.1414 126.233C64.1299 126.632 65.1778 126.83 66.2848 126.83C67.4316 126.83 68.4991 126.632 69.4876 126.233C70.4761 125.836 71.346 125.298 72.0973 124.621C72.809 123.905 73.3823 123.089 73.8173 122.174C74.2522 121.218 74.4697 120.204 74.4697 119.129C74.4697 116.98 73.8173 115.17 72.5124 113.696C71.1681 112.185 69.1317 111.409 66.4035 111.368ZM51.6352 74.5439L51.6352 67.4996L71.089 67.4996C73.3428 67.4996 75.3593 67.539 77.1386 67.619C78.8784 67.6584 80.4402 67.798 81.8242 68.0368C83.2476 68.2756 84.5129 68.6732 85.62 69.2308C86.7271 69.7478 87.7552 70.4845 88.7042 71.4396C90.4043 73.1912 91.5709 75.1612 92.2035 77.3498C92.8361 79.4989 93.1524 81.7674 93.1524 84.1554C93.1524 86.1851 92.9152 88.0955 92.4407 89.8864C91.9662 91.6774 91.3138 93.2892 90.4835 94.722L82.8324 94.722C83.386 94.3638 83.8802 93.8659 84.3152 93.2295C84.7502 92.5525 85.1257 91.7968 85.4421 90.961C85.7584 90.0858 85.9957 89.17 86.1538 88.2149C86.3516 87.2203 86.4504 86.2245 86.4504 85.2299C86.4504 83.9166 86.2724 82.6832 85.9166 81.5287C85.6002 80.3741 85.0664 79.3795 84.3152 78.5437C83.564 77.6685 82.615 76.9916 81.4683 76.514C80.3612 75.997 78.9971 75.7379 77.3759 75.7379L76.7828 75.7379C77.8109 76.8925 78.6412 78.2249 79.2738 79.7377C79.8669 81.2505 80.1635 82.9017 80.1635 84.6927C80.1635 86.683 79.7878 88.5336 79.0366 90.2446C78.2457 91.9161 77.198 93.3692 75.8931 94.6026C74.5488 95.8359 72.9869 96.8114 71.2076 97.5278C69.3888 98.2048 67.4711 98.5427 65.4545 98.5427C63.4379 98.5427 61.54 98.2048 59.7607 97.5278C57.9814 96.8114 56.4393 95.8359 55.1345 94.6026C53.7902 93.3692 52.7423 91.9161 51.991 90.2446C51.2002 88.5336 50.8048 86.683 50.8048 84.6927C50.8048 82.8217 51.0619 81.131 51.5759 79.6183C52.0504 78.1056 52.8214 76.8125 53.889 75.7379L51.6352 74.5439ZM72.8683 83.0211C72.8683 81.7472 72.6509 80.6535 72.2159 79.7377C71.7414 78.8219 71.1483 78.0662 70.4366 77.4692C69.7248 76.8722 68.934 76.434 68.0642 76.1558C67.1943 75.8776 66.3442 75.7379 65.5138 75.7379C64.6043 75.7379 63.7147 75.8967 62.8448 76.2155C61.9354 76.4937 61.1447 76.9319 60.4724 77.5289C59.7607 78.1259 59.1874 78.8816 58.7524 79.7974C58.3174 80.7132 58.1 81.7877 58.1 83.0211C58.1 84.0563 58.2978 85.0114 58.6931 85.8866C59.0885 86.7618 59.6223 87.5379 60.2945 88.2149C60.9667 88.8513 61.7574 89.3694 62.6669 89.767C63.5368 90.1252 64.4857 90.3043 65.5138 90.3043C66.5419 90.3043 67.5106 90.1252 68.42 89.767C69.2899 89.3694 70.0609 88.8513 70.7331 88.2149C71.4053 87.5379 71.9391 86.7618 72.3345 85.8866C72.6904 85.0114 72.8683 84.0563 72.8683 83.0211ZM50.8048 47.7526C50.8048 45.5246 51.2595 43.4949 52.169 41.6633C53.0388 39.833 54.2053 38.2605 55.6683 36.9471C57.0917 35.6338 58.7524 34.6189 60.6504 33.9026C62.5088 33.1862 64.4264 32.828 66.4035 32.828C67.5897 32.828 68.855 32.988 70.1993 33.3056L70.1993 54.4388C71.5437 53.6436 72.6904 52.5093 73.6393 51.036C74.5488 49.5638 75.0035 47.9723 75.0035 46.2601C75.0035 44.5492 74.865 43.0567 74.5883 41.7827C74.3116 40.4694 73.9557 39.236 73.5207 38.0814L78.5621 35.3353C79.5902 36.8087 80.3809 38.4993 80.9345 40.4097C81.4881 42.2806 81.7648 44.29 81.7648 46.4392C81.7648 48.7877 81.3695 50.9763 80.5786 53.006C79.7483 55.0357 78.6412 56.8076 77.2573 58.3192C75.8733 59.8319 74.2324 61.0259 72.3345 61.9011C70.4366 62.7774 68.42 63.2144 66.2848 63.2144C64.1892 63.2144 62.2122 62.8168 60.3538 62.0204C58.4559 61.2252 56.815 60.1304 55.4311 58.737C54.0076 57.3043 52.8807 55.653 52.0504 53.7821C51.22 51.9123 50.8048 49.9017 50.8048 47.7526ZM63.8531 41.0067C62.1529 41.4843 60.769 42.3403 59.7014 43.5737C58.6338 44.8082 58.1 46.2004 58.1 47.7526C58.1 49.3453 58.6338 50.7972 59.7014 52.1105C60.769 53.3845 62.1529 54.2597 63.8531 54.7373L63.8531 41.0067Z" fill="white"/>
<path d="M98.958 33.4523L98.958 355.96C98.958 356.622 99.4525 357.159 100.062 357.159L133.196 357.159C133.806 357.159 134.3 356.622 134.3 355.96L134.3 33.4523C134.3 32.7905 133.806 32.2534 133.196 32.2534L100.062 32.2534C99.4525 32.2534 98.958 32.7905 98.958 33.4523Z" fill="white"/>
<g filter="url(#filter0_dddddd)">
<path d="M111.373 333.718L111.373 330.241L127.232 337.449L127.232 340.927L120.994 338.094L111.373 342.93L111.373 339.384L117.292 336.413L111.373 333.718ZM111.054 309.496C111.054 308.682 111.213 307.914 111.533 307.193C111.838 306.471 112.265 305.841 112.813 305.305C113.346 304.767 113.978 304.344 114.71 304.038C115.426 303.716 116.195 303.554 117.018 303.554C117.84 303.554 118.617 303.716 119.348 304.038C120.065 304.344 120.697 304.767 121.245 305.305C121.779 305.841 122.205 306.471 122.525 307.193C122.83 307.914 122.982 308.682 122.982 309.496C122.982 310.325 122.83 311.1 122.525 311.822C122.205 312.543 121.779 313.173 121.245 313.71C120.697 314.247 120.065 314.678 119.348 315C118.617 315.306 117.84 315.461 117.018 315.461C116.195 315.461 115.426 315.306 114.71 315C113.978 314.678 113.346 314.247 112.813 313.71C112.265 313.173 111.838 312.543 111.533 311.822C111.213 311.1 111.054 310.325 111.054 309.496ZM120.217 309.496C120.217 309.111 120.14 308.759 119.988 308.437C119.836 308.098 119.631 307.807 119.371 307.562C119.097 307.3 118.777 307.101 118.411 306.963C118.031 306.808 117.612 306.732 117.155 306.732C116.698 306.732 116.271 306.808 115.875 306.963C115.479 307.101 115.136 307.3 114.847 307.562C114.542 307.807 114.306 308.098 114.138 308.437C113.956 308.759 113.864 309.111 113.864 309.496C113.864 309.879 113.956 310.24 114.138 310.578C114.306 310.916 114.542 311.215 114.847 311.477C115.136 311.722 115.479 311.921 115.875 312.075C116.271 312.213 116.698 312.283 117.155 312.283C117.612 312.283 118.031 312.213 118.411 312.075C118.777 311.921 119.097 311.722 119.371 311.477C119.631 311.215 119.836 310.916 119.988 310.578C120.14 310.24 120.217 309.879 120.217 309.496ZM111.373 280.842L111.373 277.664L122.707 277.664L122.707 280.381L121.839 280.842C122.098 281.21 122.311 281.633 122.479 282.108C122.631 282.569 122.707 283.069 122.707 283.605C122.707 284.02 122.647 284.496 122.525 285.033C122.402 285.556 122.174 286.046 121.839 286.507C121.504 286.967 121.039 287.359 120.445 287.681C119.851 287.989 119.082 288.142 118.137 288.142L111.373 288.142L111.373 284.941L118.023 284.941C118.374 284.941 118.671 284.888 118.914 284.78C119.158 284.658 119.356 284.503 119.508 284.319C119.645 284.12 119.752 283.898 119.828 283.651C119.889 283.406 119.92 283.153 119.92 282.891C119.92 282.692 119.889 282.477 119.828 282.246C119.752 282.001 119.637 281.779 119.485 281.579C119.333 281.364 119.135 281.187 118.891 281.049C118.648 280.911 118.358 280.842 118.023 280.842L111.373 280.842ZM112.95 258.619C112.706 258.466 112.478 258.289 112.265 258.09C112.036 257.89 111.838 257.652 111.67 257.376C111.488 257.099 111.343 256.785 111.236 256.431C111.13 256.078 111.076 255.68 111.076 255.234C111.076 254.712 111.168 254.106 111.351 253.415L114.161 253.714C114.13 253.883 114.093 254.051 114.047 254.221C114.016 254.359 113.993 254.512 113.978 254.681C113.948 254.851 113.933 255.004 113.933 255.142C113.933 255.634 114.001 256.094 114.138 256.524C114.275 256.938 114.466 257.299 114.71 257.606C114.953 257.913 115.25 258.159 115.601 258.343C115.936 258.527 116.301 258.619 116.698 258.619L122.707 258.619L122.707 261.797L111.373 261.797L111.373 258.919L112.95 258.619ZM111.373 212.342C111.373 211.912 111.434 211.435 111.556 210.914C111.678 210.392 111.907 209.9 112.242 209.44C112.577 208.979 113.042 208.596 113.636 208.288C114.23 207.966 114.999 207.805 115.944 207.805L122.707 207.805L122.707 211.006L116.058 211.006C115.707 211.006 115.41 211.067 115.167 211.19C114.923 211.297 114.732 211.451 114.595 211.651C114.443 211.835 114.336 212.05 114.275 212.296C114.199 212.541 114.161 212.787 114.161 213.032C114.161 213.232 114.199 213.455 114.275 213.7C114.336 213.931 114.443 214.153 114.595 214.368C114.747 214.567 114.946 214.737 115.189 214.875C115.433 215.013 115.723 215.082 116.058 215.082L122.707 215.082L122.707 218.26L111.373 218.26L111.373 215.543L112.242 215.082C111.983 214.714 111.777 214.299 111.625 213.838C111.457 213.378 111.373 212.879 111.373 212.342ZM111.054 186.364C111.054 185.504 111.229 184.721 111.579 184.015C111.914 183.308 112.364 182.703 112.927 182.196C113.476 181.689 114.116 181.298 114.847 181.021C115.563 180.745 116.301 180.607 117.063 180.607C117.52 180.607 118.008 180.668 118.526 180.791L118.526 188.944C119.043 188.636 119.485 188.199 119.851 187.631C120.202 187.062 120.377 186.448 120.377 185.789C120.377 185.128 120.323 184.552 120.217 184.061C120.11 183.555 119.973 183.078 119.805 182.634L121.748 181.574C122.144 182.142 122.448 182.795 122.662 183.532C122.875 184.253 122.982 185.029 122.982 185.858C122.982 186.763 122.83 187.608 122.525 188.391C122.205 189.174 121.779 189.857 121.245 190.441C120.711 191.023 120.08 191.484 119.348 191.822C118.617 192.16 117.84 192.329 117.018 192.329C116.21 192.329 115.449 192.175 114.732 191.868C114.001 191.561 113.369 191.138 112.836 190.602C112.287 190.049 111.853 189.411 111.533 188.69C111.213 187.968 111.054 187.193 111.054 186.364ZM116.081 183.762C115.426 183.946 114.892 184.276 114.481 184.752C114.07 185.228 113.864 185.766 113.864 186.364C113.864 186.978 114.07 187.539 114.481 188.046C114.892 188.536 115.426 188.875 116.081 189.059L116.081 183.762ZM118.64 160.278C119.174 160.278 119.585 160.117 119.874 159.794C120.163 159.457 120.308 159.019 120.308 158.481C120.308 158.052 120.225 157.622 120.057 157.192L122.707 157.192C122.83 157.576 122.928 157.983 123.004 158.412C123.096 158.843 123.142 159.272 123.142 159.702C123.142 160.194 123.081 160.662 122.959 161.107C122.836 161.552 122.631 161.952 122.342 162.304C122.037 162.658 121.641 162.942 121.154 163.156C120.651 163.357 120.034 163.456 119.303 163.456L114.184 163.456L114.184 165.091L112.059 165.091L111.373 163.456L108.837 163.456L108.837 160.278L111.373 160.278L111.373 157.192L114.184 157.192L114.184 160.278L118.64 160.278ZM111.373 126.844L111.373 123.573L122.707 127.005L122.707 131.035L117.246 132.693L115.624 132.854L117.246 133.038L122.707 134.697L122.707 138.704L111.373 142.135L111.373 138.865L119.577 136.493L111.373 134.19L111.373 131.542L119.623 129.239L111.373 126.844ZM111.054 102.361C111.054 101.547 111.213 100.78 111.533 100.058C111.838 99.336 112.265 98.7073 112.813 98.1695C113.346 97.6318 113.978 97.2103 114.71 96.9029C115.426 96.5805 116.195 96.4193 117.018 96.4193C117.84 96.4193 118.617 96.5805 119.348 96.9029C120.065 97.2103 120.697 97.6318 121.245 98.1695C121.779 98.7073 122.205 99.336 122.525 100.058C122.83 100.78 122.982 101.547 122.982 102.361C122.982 103.19 122.83 103.965 122.525 104.687C122.205 105.409 121.779 106.038 121.245 106.575C120.697 107.113 120.065 107.543 119.348 107.865C118.617 108.172 117.84 108.326 117.018 108.326C116.195 108.326 115.426 108.172 114.71 107.865C113.978 107.543 113.346 107.113 112.813 106.575C112.265 106.038 111.838 105.409 111.533 104.687C111.213 103.965 111.054 103.19 111.054 102.361ZM120.217 102.361C120.217 101.977 120.14 101.624 119.988 101.302C119.836 100.964 119.631 100.672 119.371 100.426C119.097 100.165 118.777 99.9658 118.411 99.8277C118.031 99.6745 117.612 99.5974 117.155 99.5974C116.698 99.5974 116.271 99.6745 115.875 99.8277C115.479 99.9658 115.136 100.165 114.847 100.426C114.542 100.672 114.306 100.964 114.138 101.302C113.956 101.624 113.864 101.977 113.864 102.361C113.864 102.744 113.956 103.106 114.138 103.443C114.306 103.781 114.542 104.08 114.847 104.341C115.136 104.587 115.479 104.787 115.875 104.94C116.271 105.078 116.698 105.147 117.155 105.147C117.612 105.147 118.031 105.078 118.411 104.94C118.777 104.787 119.097 104.587 119.371 104.341C119.631 104.08 119.836 103.781 119.988 103.443C120.14 103.106 120.217 102.744 120.217 102.361ZM112.95 77.8069C112.706 77.6526 112.478 77.4764 112.265 77.2772C112.036 77.0768 111.838 76.8396 111.67 76.5633C111.488 76.2869 111.343 75.9714 111.236 75.619C111.13 75.2656 111.076 74.866 111.076 74.4215C111.076 73.8988 111.168 73.2931 111.351 72.6022L114.161 72.9016C114.13 73.0697 114.093 73.239 114.047 73.4083C114.016 73.5464 113.993 73.6996 113.978 73.8688C113.948 74.037 113.933 74.1912 113.933 74.3294C113.933 74.8199 114.001 75.2805 114.138 75.7112C114.275 76.1257 114.466 76.4861 114.71 76.7936C114.953 77.0999 115.25 77.3463 115.601 77.5305C115.936 77.7148 116.301 77.8069 116.698 77.8069L122.707 77.8069L122.707 80.9849L111.373 80.9849L111.373 78.1062L112.95 77.8069ZM116.081 51.2965L122.707 46.4833L122.707 50.2832L118.183 53.3L119.394 54.4285L122.707 54.4285L122.707 57.6066L106.026 57.6066L106.026 54.4285L115.281 54.4285L111.373 50.7208L111.373 46.8518L116.081 51.2965Z" fill="#2C2C95"/>
</g>
</g>
<defs>
<filter id="filter0_dddddd" x="26.0264" y="46.4834" width="181.205" height="476.447" filterUnits="userSpaceOnUse" color-interpolation-filters="sRGB">
<feFlood flood-opacity="0" result="BackgroundImageFix"/>
<feColorMatrix in="SourceAlpha" type="matrix" values="0 0 0 0 0 0 0 0 0 0 0 0 0 0 0 0 0 0 127 0"/>
<feOffset dy="2.76726"/>
<feGaussianBlur stdDeviation="1.1069"/>
<feColorMatrix type="matrix" values="0 0 0 0 0 0 0 0 0 0 0 0 0 0 0 0 0 0 0.0196802 0"/>
<feBlend mode="normal" in2="BackgroundImageFix" result="effect1_dropShadow"/>
<feColorMatrix in="SourceAlpha" type="matrix" values="0 0 0 0 0 0 0 0 0 0 0 0 0 0 0 0 0 0 127 0"/>
<feOffset dy="6.6501"/>
<feGaussianBlur stdDeviation="2.66004"/>
<feColorMatrix type="matrix" values="0 0 0 0 0 0 0 0 0 0 0 0 0 0 0 0 0 0 0.0282725 0"/>
<feBlend mode="normal" in2="effect1_dropShadow" result="effect2_dropShadow"/>
<feColorMatrix in="SourceAlpha" type="matrix" values="0 0 0 0 0 0 0 0 0 0 0 0 0 0 0 0 0 0 127 0"/>
<feOffset dy="12.5216"/>
<feGaussianBlur stdDeviation="5.00862"/>
<feColorMatrix type="matrix" values="0 0 0 0 0 0 0 0 0 0 0 0 0 0 0 0 0 0 0.035 0"/>
<feBlend mode="normal" in2="effect2_dropShadow" result="effect3_dropShadow"/>
<feColorMatrix in="SourceAlpha" type="matrix" values="0 0 0 0 0 0 0 0 0 0 0 0 0 0 0 0 0 0 127 0"/>
<feOffset dy="22.3363"/>
<feGaussianBlur stdDeviation="8.93452"/>
<feColorMatrix type="matrix" values="0 0 0 0 0 0 0 0 0 0 0 0 0 0 0 0 0 0 0.0417275 0"/>
<feBlend mode="normal" in2="effect3_dropShadow" result="effect4_dropShadow"/>
<feColorMatrix in="SourceAlpha" type="matrix" values="0 0 0 0 0 0 0 0 0 0 0 0 0 0 0 0 0 0 127 0"/>
<feOffset dy="41.7776"/>
<feGaussianBlur stdDeviation="16.711"/>
<feColorMatrix type="matrix" values="0 0 0 0 0 0 0 0 0 0 0 0 0 0 0 0 0 0 0.0503198 0"/>
<feBlend mode="normal" in2="effect4_dropShadow" result="effect5_dropShadow"/>
<feColorMatrix in="SourceAlpha" type="matrix" values="0 0 0 0 0 0 0 0 0 0 0 0 0 0 0 0 0 0 127 0"/>
<feOffset dy="100"/>
<feGaussianBlur stdDeviation="40"/>
<feColorMatrix type="matrix" values="0 0 0 0 0 0 0 0 0 0 0 0 0 0 0 0 0 0 0.07 0"/>
<feBlend mode="normal" in2="effect5_dropShadow" result="effect6_dropShadow"/>
<feBlend mode="normal" in="SourceGraphic" in2="effect6_dropShadow" result="shape"/>
</filter>
<clipPath id="clip0">
<rect width="554" height="172" fill="white" transform="translate(0 554) rotate(-90)"/>
</clipPath>
</defs>
</svg>
