<svg width="234" height="73" viewBox="0 0 234 73" fill="none" xmlns="http://www.w3.org/2000/svg">
<g clip-path="url(#clip0)">
<path fill-rule="evenodd" clip-rule="evenodd" d="M69.02 57.0067C70.6337 51.9458 71.0742 45.0111 69.8116 37.0294L70.5272 36.9163C71.8024 44.978 71.3662 52.0314 69.71 57.2265C68.0594 62.403 65.1583 65.8315 61.4387 66.4198C58.6337 66.8634 55.7917 65.3292 53.2383 62.5029L53.7757 62.0171C56.2618 64.7691 58.8766 66.0917 61.3257 65.7046C64.6395 65.1802 67.4007 62.0853 69.02 57.0067Z" fill="url(#paint0_linear)"/>
<path fill-rule="evenodd" clip-rule="evenodd" d="M51.9259 8.55924C49.1817 8.99336 47.1196 11.321 45.7006 15.8338L45.0098 15.6167C46.4549 11.0202 48.6516 8.34407 51.8129 7.84399C53.6234 7.55753 55.5208 8.30709 57.3552 9.76525C59.1939 11.2266 61.0131 13.4319 62.6902 16.1559C66.0457 21.6058 68.8707 29.1945 70.1463 37.2584L69.4312 37.3715C68.1686 29.3919 65.3736 21.8956 62.0737 16.5356C60.4231 13.8546 58.6556 11.7237 56.9046 10.3322C55.1497 8.93743 53.4548 8.3174 51.9259 8.55924Z" fill="url(#paint1_linear)"/>
<path fill-rule="evenodd" clip-rule="evenodd" d="M10.7726 53.8605C12.8137 54.4223 13.6823 54.4223 15.4723 54.4223H15.4776V55.1466C13.6532 55.1466 12.711 55.1461 10.5707 54.5557L10.5613 54.5531L10.552 54.55C8.65115 53.9139 7.08949 53.138 5.96309 52.2277C4.83509 51.3162 4.12109 50.2495 3.97656 49.0377L4.69562 48.9521C4.81089 49.9184 5.38467 50.8291 6.4183 51.6646C7.45185 52.4997 8.92249 53.2401 10.7726 53.8605Z" fill="url(#paint2_linear)"/>
<path d="M38.2875 67.4568C53.5348 67.4568 65.8953 55.0964 65.8953 39.849C65.8953 24.6016 53.5348 12.2412 38.2875 12.2412C23.0401 12.2412 10.6797 24.6016 10.6797 39.849C10.6797 55.0964 23.0401 67.4568 38.2875 67.4568Z" fill="url(#paint3_linear)"/>
<path fill-rule="evenodd" clip-rule="evenodd" d="M68.949 43.6609C68.2512 44.8724 66.956 46.0996 64.6907 47.284C64.5134 47.3766 64.4447 47.5954 64.5373 47.7726C64.6298 47.9498 64.8488 48.0184 65.0261 47.9257C67.3684 46.7012 68.7883 45.3908 69.5764 44.0224C70.3685 42.648 70.501 41.2536 70.3407 39.9088C70.3168 39.7103 70.1369 39.5685 69.9383 39.5922C69.7398 39.6159 69.5977 39.796 69.6216 39.9946C69.7684 41.2277 69.6437 42.4554 68.949 43.6609Z" fill="url(#paint4_linear)"/>
<path fill-rule="evenodd" clip-rule="evenodd" d="M46.6314 17.4507C57.6051 23.0911 66.1796 30.8084 69.6368 38.9045L70.3025 38.6201C66.7523 30.3052 58.0105 22.4853 46.9625 16.8066C42.1769 14.3468 37.2176 11.9566 32.5629 10.5696C27.9149 9.18459 23.5071 8.77996 19.8594 10.37L20.1487 11.0338C23.5614 9.54624 27.7651 9.89552 32.3561 11.2636C36.9403 12.6296 41.8473 14.9916 46.6314 17.4507Z" fill="url(#paint5_linear)"/>
<path fill-rule="evenodd" clip-rule="evenodd" d="M18.2654 15.2512C18.4196 13.7445 18.8741 12.5321 19.6452 11.8639L19.1709 11.3167C18.1921 12.1649 17.7061 13.6036 17.545 15.1774C17.3826 16.7648 17.9774 19.4294 18.3605 21.0772L19.0658 20.9132C18.6971 19.3274 18.1127 16.7443 18.2654 15.2512Z" fill="url(#paint6_linear)"/>
<path fill-rule="evenodd" clip-rule="evenodd" d="M66.8792 36.6777C68.6419 37.6098 69.6008 38.736 69.7542 40.0235L70.4733 39.9377C70.279 38.3098 69.076 37.0204 67.2181 36.0376C65.3559 35.0527 62.7707 34.3375 59.6611 33.878C53.4367 32.9585 45.0156 33.0502 35.8278 34.1461C26.6321 35.243 18.4339 37.4224 12.6106 40.069C9.70102 41.3913 7.36494 42.839 5.79446 44.3417C4.22957 45.8391 3.37253 47.4445 3.56608 49.0671L4.28512 48.9815C4.1309 47.6884 4.80084 46.2947 6.29507 44.865C7.78374 43.4406 10.039 42.0332 12.9102 40.7282C18.6489 38.1201 26.7709 35.9557 35.9136 34.8651C45.0643 33.7737 53.4163 33.6874 59.5556 34.5944C62.6274 35.0483 65.1209 35.7476 66.8792 36.6777Z" fill="url(#paint7_linear)"/>
<path d="M52.0484 5H52.0484C50.1987 5 48.6992 6.49946 48.6992 8.34914V8.34915C48.6992 10.1988 50.1987 11.6983 52.0484 11.6983H52.0484C53.8981 11.6983 55.3975 10.1988 55.3975 8.34915V8.34914C55.3975 6.49946 53.8981 5 52.0484 5Z" fill="url(#paint8_linear)"/>
<path d="M4.97848 43.9224H4.97844C2.22892 43.9224 0 46.1513 0 48.9008V48.9008C0 51.6504 2.22892 53.8793 4.97844 53.8793H4.97848C7.728 53.8793 9.95692 51.6504 9.95692 48.9008V48.9008C9.95692 46.1513 7.728 43.9224 4.97848 43.9224Z" fill="url(#paint9_linear)"/>
<path d="M64.2667 65.8279C64.2667 64.6281 63.2941 63.6555 62.0943 63.6555C60.8945 63.6555 59.9219 64.6281 59.9219 65.8279C59.9219 67.0277 60.8945 68.0004 62.0943 68.0004C63.2941 68.0004 64.2667 67.0277 64.2667 65.8279Z" fill="url(#paint10_linear)"/>
<path d="M21.9054 10.9742C21.9054 9.77438 20.9328 8.80176 19.733 8.80176C18.5332 8.80176 17.5605 9.77438 17.5605 10.9742C17.5605 12.174 18.5332 13.1466 19.733 13.1466C20.9328 13.1466 21.9054 12.174 21.9054 10.9742Z" fill="url(#paint11_linear)"/>
<path d="M72.7755 38.6729C72.7755 37.0732 71.4787 35.7764 69.879 35.7764C68.2792 35.7764 66.9824 37.0732 66.9824 38.6729C66.9824 40.2726 68.2792 41.5695 69.879 41.5695C71.4787 41.5695 72.7755 40.2726 72.7755 38.6729Z" fill="url(#paint12_linear)"/>
<path d="M92.2383 24.3069H98.9845V30.8517C97.9776 32.1271 96.8614 33.0921 95.6366 33.7466C94.4117 34.401 93.1279 34.7283 91.7852 34.7283C90.5769 34.7283 89.4356 34.485 88.3617 33.9983C87.2879 33.4948 86.3565 32.8236 85.5676 31.9845C84.7787 31.1454 84.1494 30.1721 83.6797 29.0645C83.2266 27.9401 83 26.7486 83 25.49C83 24.2314 83.2266 23.0483 83.6797 21.9407C84.1494 20.8331 84.7787 19.8598 85.5676 19.0207C86.3565 18.1816 87.2879 17.5188 88.3617 17.0321C89.4356 16.5454 90.5769 16.3021 91.7852 16.3021C92.9265 16.3021 94.0003 16.5119 95.0072 16.9314C96.0308 17.3509 97.021 18.0474 97.9776 19.0207L95.7624 21.7141C95.0576 21.0597 94.3945 20.6233 93.7738 20.4052C93.153 20.1702 92.4986 20.0528 91.8103 20.0528C91.1055 20.0528 90.4425 20.1954 89.8217 20.4807C89.2176 20.766 88.689 21.1519 88.2359 21.6386C87.7828 22.1253 87.4218 22.7043 87.1534 23.3755C86.9017 24.03 86.7759 24.7348 86.7759 25.49C86.7759 26.2452 86.9017 26.95 87.1534 27.6045C87.4218 28.259 87.7828 28.8379 88.2359 29.3414C88.689 29.8281 89.2176 30.214 89.8217 30.4993C90.4425 30.7846 91.1055 30.9272 91.8103 30.9272C92.4311 30.9272 93.0438 30.8181 93.6479 30.6C94.2687 30.365 94.8899 29.9875 95.5107 29.4672V27.529H92.2383V24.3069ZM101.079 16H104.553V34.401H101.079V16ZM112.823 21.5631C113.713 21.5631 114.552 21.7393 115.341 22.0917C116.129 22.4274 116.817 22.8972 117.405 23.5014C117.992 24.0888 118.453 24.7852 118.789 25.5907C119.142 26.3794 119.318 27.2269 119.318 28.1331C119.318 29.0393 119.142 29.8952 118.789 30.7007C118.453 31.4894 117.992 32.1859 117.405 32.79C116.817 33.3774 116.129 33.8472 115.341 34.1997C114.552 34.5353 113.713 34.7031 112.823 34.7031C111.917 34.7031 111.07 34.5353 110.281 34.1997C109.492 33.8472 108.804 33.3774 108.217 32.79C107.629 32.1859 107.159 31.4894 106.807 30.7007C106.471 29.8952 106.304 29.0393 106.304 28.1331C106.304 27.2269 106.471 26.3794 106.807 25.5907C107.159 24.7852 107.629 24.0888 108.217 23.5014C108.804 22.8972 109.492 22.4274 110.281 22.0917C111.07 21.7393 111.917 21.5631 112.823 21.5631ZM112.823 31.6572C113.243 31.6572 113.629 31.5733 113.981 31.4055C114.35 31.2377 114.669 31.0112 114.938 30.7259C115.223 30.4238 115.441 30.0714 115.592 29.6686C115.76 29.2491 115.844 28.7876 115.844 28.2841C115.844 27.7807 115.76 27.3108 115.592 26.8745C115.441 26.4381 115.223 26.0606 114.938 25.7417C114.669 25.4061 114.35 25.146 113.981 24.9614C113.629 24.76 113.243 24.6593 112.823 24.6593C112.404 24.6593 112.009 24.76 111.64 24.9614C111.271 25.146 110.944 25.4061 110.658 25.7417C110.39 26.0606 110.172 26.4381 110.004 26.8745C109.853 27.3108 109.777 27.7807 109.777 28.2841C109.777 28.7876 109.853 29.2491 110.004 29.6686C110.172 30.0714 110.39 30.4238 110.658 30.7259C110.944 31.0112 111.271 31.2377 111.64 31.4055C112.009 31.5733 112.404 31.6572 112.823 31.6572ZM128.36 21.5631C129.233 21.5631 130.047 21.7393 130.802 22.0917C131.557 22.4274 132.212 22.8972 132.765 23.5014C133.319 24.0888 133.747 24.7852 134.049 25.5907C134.368 26.3794 134.527 27.2269 134.527 28.1331C134.527 29.0393 134.368 29.8952 134.049 30.7007C133.747 31.4894 133.319 32.1859 132.765 32.79C132.212 33.3774 131.557 33.8472 130.802 34.1997C130.047 34.5353 129.233 34.7031 128.36 34.7031C127.622 34.7031 126.909 34.5772 126.221 34.3255C125.549 34.057 125.021 33.7214 124.635 33.3186L124.131 34.401H121.161V16.0252H124.635V22.9224C125.591 22.0162 126.833 21.5631 128.36 21.5631ZM127.882 31.6069C128.335 31.6069 128.754 31.5146 129.141 31.33C129.543 31.1454 129.896 30.9021 130.198 30.6C130.5 30.2812 130.735 29.9119 130.903 29.4924C131.07 29.0729 131.154 28.6198 131.154 28.1331C131.154 27.6632 131.07 27.2185 130.903 26.799C130.735 26.3626 130.5 25.9935 130.198 25.6914C129.896 25.3725 129.543 25.1208 129.141 24.9362C128.754 24.7516 128.335 24.6593 127.882 24.6593C127.429 24.6593 127.001 24.7264 126.598 24.8607C126.212 24.9781 125.868 25.1795 125.566 25.4648C125.281 25.7333 125.054 26.0941 124.886 26.5472C124.719 26.9836 124.635 27.529 124.635 28.1835C124.635 28.7708 124.719 29.2826 124.886 29.719C125.054 30.1385 125.281 30.4909 125.566 30.7762C125.868 31.0447 126.212 31.2545 126.598 31.4055C127.001 31.5398 127.429 31.6069 127.882 31.6069ZM149.073 21.9155V34.401H146.077L145.725 33.0669C145.238 33.7214 144.651 34.1577 143.963 34.3759C143.291 34.594 142.587 34.7031 141.848 34.7031C140.958 34.7031 140.136 34.5353 139.381 34.1997C138.643 33.8472 137.997 33.3774 137.443 32.79C136.889 32.1859 136.453 31.4894 136.134 30.7007C135.832 29.8952 135.681 29.0393 135.681 28.1331C135.681 27.2269 135.832 26.3794 136.134 25.5907C136.453 24.7852 136.889 24.0888 137.443 23.5014C137.997 22.8972 138.643 22.4274 139.381 22.0917C140.136 21.7393 140.958 21.5631 141.848 21.5631C142.654 21.5631 143.392 21.689 144.063 21.9407C144.734 22.1924 145.288 22.5952 145.725 23.149L146.077 21.9155H149.073ZM145.599 28.1835C145.599 27.529 145.507 26.9836 145.322 26.5472C145.154 26.0941 144.919 25.7333 144.617 25.4648C144.332 25.1795 143.988 24.9781 143.585 24.8607C143.199 24.7264 142.779 24.6593 142.326 24.6593C141.873 24.6593 141.445 24.7516 141.043 24.9362C140.656 25.1208 140.313 25.3725 140.01 25.6914C139.708 25.9935 139.473 26.3626 139.306 26.799C139.138 27.2185 139.054 27.6632 139.054 28.1331C139.054 28.6198 139.138 29.0729 139.306 29.4924C139.473 29.9119 139.708 30.2812 140.01 30.6C140.313 30.9021 140.656 31.1454 141.043 31.33C141.445 31.5146 141.873 31.6069 142.326 31.6069C143.233 31.6069 143.996 31.33 144.617 30.7762C145.255 30.2057 145.582 29.3414 145.599 28.1835ZM151.424 16H154.897V34.401H151.424V16ZM164.034 16.5538H175.185V20.0276H167.86V23.2497H174.304V26.7234H167.86V30.9524H175.185V34.401H164.034V16.5538ZM190.114 16.0252V34.401H187.144L186.64 33.3186C186.254 33.7214 185.717 34.057 185.029 34.3255C184.358 34.5772 183.653 34.7031 182.915 34.7031C182.025 34.7031 181.203 34.5353 180.448 34.1997C179.693 33.8472 179.038 33.3774 178.485 32.79C177.947 32.1859 177.519 31.4894 177.201 30.7007C176.899 29.8952 176.748 29.0393 176.748 28.1331C176.748 27.2269 176.899 26.3794 177.201 25.5907C177.519 24.7852 177.947 24.0888 178.485 23.5014C179.038 22.8972 179.693 22.4274 180.448 22.0917C181.203 21.7393 182.025 21.5631 182.915 21.5631C183.703 21.5631 184.4 21.6554 185.004 21.84C185.625 22.0246 186.17 22.335 186.64 22.7714V16.0252H190.114ZM186.64 28.1835C186.64 27.529 186.556 26.9836 186.389 26.5472C186.22 26.0941 185.986 25.7333 185.684 25.4648C185.382 25.1795 185.029 24.9781 184.627 24.8607C184.24 24.7264 183.821 24.6593 183.368 24.6593C182.915 24.6593 182.487 24.7516 182.084 24.9362C181.698 25.1208 181.354 25.3725 181.052 25.6914C180.767 25.9935 180.54 26.3626 180.372 26.799C180.204 27.2185 180.121 27.6632 180.121 28.1331C180.121 28.6198 180.204 29.0729 180.372 29.4924C180.54 29.9119 180.767 30.2812 181.052 30.6C181.354 30.9021 181.698 31.1454 182.084 31.33C182.487 31.5146 182.915 31.6069 183.368 31.6069C184.274 31.6069 185.037 31.33 185.659 30.7762C186.296 30.2057 186.623 29.3414 186.64 28.1835ZM202.168 21.9155H205.138V30.1721C205.138 31.1286 205.121 31.9845 205.088 32.7397C205.071 33.4781 205.012 34.1409 204.912 34.7283C204.811 35.3324 204.643 35.8694 204.408 36.3393C204.19 36.8092 203.879 37.2455 203.477 37.6483C202.738 38.3699 201.907 38.865 200.985 39.1335C200.078 39.4019 199.122 39.5362 198.115 39.5362C197.259 39.5362 196.454 39.4355 195.698 39.2341C194.943 39.0328 194.264 38.7559 193.659 38.4035V35.1562C193.81 35.3912 194.02 35.6009 194.289 35.7855C194.574 35.9701 194.893 36.1295 195.245 36.2638C195.614 36.3981 196 36.4988 196.403 36.5659C196.823 36.6498 197.242 36.6917 197.662 36.6917C198.216 36.6917 198.736 36.6162 199.223 36.4652C199.709 36.3309 200.129 36.1044 200.481 35.7855C200.85 35.4667 201.136 35.0639 201.337 34.5772C201.555 34.1074 201.664 33.5284 201.664 32.8403V32.5886C201.177 33.025 200.616 33.3774 199.978 33.6459C199.34 33.8976 198.644 34.0235 197.888 34.0235C197.049 34.0235 196.269 33.864 195.547 33.5452C194.843 33.2095 194.23 32.7648 193.71 32.211C193.19 31.6405 192.778 30.9776 192.476 30.2224C192.191 29.4505 192.048 28.6366 192.048 27.7807C192.048 26.9248 192.191 26.1193 192.476 25.3641C192.778 24.609 193.19 23.9545 193.71 23.4007C194.23 22.8301 194.843 22.3854 195.547 22.0666C196.269 21.7309 197.049 21.5631 197.888 21.5631C198.677 21.5631 199.39 21.6722 200.028 21.8903C200.666 22.0917 201.211 22.419 201.664 22.8721L202.168 21.9155ZM198.593 30.9272C199.13 30.9272 199.592 30.835 199.978 30.6503C200.364 30.449 200.683 30.1972 200.934 29.8952C201.186 29.5931 201.371 29.2575 201.488 28.8883C201.605 28.5191 201.664 28.1583 201.664 27.8059C201.664 27.4199 201.597 27.0423 201.463 26.6731C201.346 26.2871 201.161 25.9515 200.909 25.6662C200.657 25.3641 200.339 25.1208 199.953 24.9362C199.566 24.7516 199.113 24.6593 198.593 24.6593C198.157 24.6593 197.754 24.7432 197.385 24.911C197.016 25.0788 196.689 25.3054 196.403 25.5907C196.135 25.876 195.916 26.2116 195.749 26.5976C195.598 26.9668 195.522 27.3695 195.522 27.8059C195.522 28.2422 195.598 28.6533 195.749 29.0393C195.916 29.4085 196.135 29.7357 196.403 30.021C196.689 30.3063 197.016 30.5329 197.385 30.7007C197.754 30.8517 198.157 30.9272 198.593 30.9272ZM213.465 21.5631C214.404 21.5631 215.26 21.7561 216.032 22.1421C216.804 22.5112 217.467 23.0063 218.021 23.6272C218.575 24.2314 219.003 24.9362 219.305 25.7417C219.607 26.5305 219.758 27.3444 219.758 28.1835C219.758 28.6869 219.69 29.2239 219.556 29.7945H210.645C210.981 30.365 211.459 30.8517 212.08 31.2545C212.701 31.6405 213.372 31.8335 214.094 31.8335C214.815 31.8335 215.445 31.7747 215.982 31.6572C216.536 31.5398 217.056 31.3888 217.543 31.2041L218.7 33.3438C218.079 33.7801 217.366 34.1157 216.561 34.3507C215.772 34.5857 214.925 34.7031 214.018 34.7031C213.028 34.7031 212.105 34.5353 211.249 34.1997C210.394 33.8472 209.646 33.3774 209.009 32.79C208.371 32.2026 207.868 31.5062 207.499 30.7007C207.129 29.8952 206.945 29.0393 206.945 28.1331C206.945 27.2437 207.113 26.4046 207.448 25.6159C207.784 24.8103 208.245 24.1139 208.833 23.5266C209.437 22.9224 210.133 22.4441 210.922 22.0917C211.711 21.7393 212.558 21.5631 213.465 21.5631ZM216.309 27.101C216.108 26.3794 215.747 25.7921 215.227 25.339C214.706 24.8859 214.119 24.6593 213.465 24.6593C212.793 24.6593 212.181 24.8859 211.627 25.339C211.09 25.7921 210.721 26.3794 210.519 27.101H216.309Z" fill="#1919C7"/>
<path d="M219.494 42H83.5055C83.2265 42 83 42.2099 83 42.4688V56.5312C83 56.79 83.2265 57 83.5055 57H219.494C219.774 57 220 56.79 220 56.5312V42.4688C220 42.2099 219.774 42 219.494 42Z" fill="#1919C7"/>
<g filter="url(#filter0_dddddd)">
<path d="M92.8842 47.2694H94.3506L91.3111 54H89.8448L91.0392 51.3524L89 47.2694H90.4954L91.7481 49.7813L92.8842 47.2694ZM103.098 47.1336C103.441 47.1336 103.765 47.2015 104.069 47.3373C104.373 47.4666 104.639 47.6476 104.865 47.8804C105.092 48.1067 105.27 48.375 105.399 48.6853C105.535 48.9894 105.603 49.3157 105.603 49.6649C105.603 50.014 105.535 50.3437 105.399 50.6541C105.27 50.9581 105.092 51.2263 104.865 51.4591C104.639 51.6855 104.373 51.8664 104.069 52.0022C103.765 52.1316 103.441 52.1961 103.098 52.1961C102.748 52.1961 102.422 52.1316 102.117 52.0022C101.813 51.8664 101.548 51.6855 101.321 51.4591C101.095 51.2263 100.913 50.9581 100.777 50.6541C100.648 50.3437 100.583 50.014 100.583 49.6649C100.583 49.3157 100.648 48.9894 100.777 48.6853C100.913 48.375 101.095 48.1067 101.321 47.8804C101.548 47.6476 101.813 47.4666 102.117 47.3373C102.422 47.2015 102.748 47.1336 103.098 47.1336ZM103.098 51.0226C103.26 51.0226 103.409 50.9901 103.545 50.9256C103.687 50.8612 103.81 50.7739 103.914 50.6638C104.024 50.5474 104.108 50.4116 104.166 50.2565C104.231 50.095 104.263 49.917 104.263 49.7231C104.263 49.5291 104.231 49.3482 104.166 49.18C104.108 49.0117 104.024 48.8662 103.914 48.7435C103.81 48.6141 103.687 48.5142 103.545 48.4429C103.409 48.3653 103.26 48.3265 103.098 48.3265C102.936 48.3265 102.784 48.3653 102.641 48.4429C102.499 48.5142 102.373 48.6141 102.263 48.7435C102.159 48.8662 102.075 49.0117 102.01 49.18C101.952 49.3482 101.923 49.5291 101.923 49.7231C101.923 49.917 101.952 50.095 102.01 50.2565C102.075 50.4116 102.159 50.5474 102.263 50.6638C102.373 50.7739 102.499 50.8612 102.641 50.9256C102.784 50.9901 102.936 51.0226 103.098 51.0226ZM115.18 47.2694H116.52V52.0797H115.375L115.18 51.7112C115.025 51.8213 114.847 51.9115 114.646 51.9828C114.452 52.0473 114.241 52.0797 114.015 52.0797C113.84 52.0797 113.639 52.054 113.413 52.0022C113.193 51.9503 112.986 51.8533 112.792 51.7112C112.597 51.5691 112.432 51.3718 112.296 51.1196C112.167 50.8675 112.102 50.5411 112.102 50.1401V47.2694H113.452V50.0916C113.452 50.2405 113.474 50.3665 113.52 50.4698C113.571 50.5731 113.636 50.6575 113.714 50.722C113.798 50.7802 113.892 50.8253 113.996 50.8578C114.099 50.8835 114.206 50.8966 114.316 50.8966C114.4 50.8966 114.491 50.8835 114.588 50.8578C114.691 50.8253 114.785 50.7768 114.87 50.7123C114.96 50.6478 115.035 50.5634 115.093 50.4601C115.151 50.3568 115.18 50.2337 115.18 50.0916V47.2694ZM124.551 47.9386C124.615 47.8351 124.69 47.7382 124.774 47.6476C124.858 47.5506 124.958 47.4666 125.075 47.3955C125.191 47.3179 125.324 47.2564 125.473 47.2112C125.622 47.166 125.79 47.1433 125.978 47.1433C126.198 47.1433 126.454 47.1821 126.745 47.2597L126.619 48.4526C126.548 48.4395 126.477 48.4235 126.405 48.4041C126.347 48.391 126.282 48.3813 126.211 48.375C126.14 48.3619 126.075 48.3556 126.017 48.3556C125.81 48.3556 125.615 48.3847 125.434 48.4429C125.259 48.5011 125.108 48.5821 124.978 48.6853C124.848 48.7886 124.745 48.9147 124.667 49.0636C124.589 49.2057 124.551 49.3608 124.551 49.5291V52.0797H123.211V47.2694H124.424L124.551 47.9386ZM144.064 47.2694C144.245 47.2694 144.446 47.2952 144.666 47.347C144.886 47.3987 145.093 47.4957 145.288 47.6379C145.482 47.7802 145.644 47.9774 145.773 48.2295C145.909 48.4817 145.977 48.808 145.977 49.2091V52.0797H144.627V49.2575C144.627 49.1087 144.602 48.9826 144.55 48.8793C144.504 48.776 144.439 48.695 144.355 48.6369C144.278 48.5724 144.187 48.5268 144.084 48.5011C143.98 48.4686 143.876 48.4526 143.773 48.4526C143.689 48.4526 143.595 48.4686 143.491 48.5011C143.394 48.5268 143.3 48.5724 143.21 48.6369C143.126 48.7013 143.054 48.7857 142.996 48.889C142.938 48.9923 142.909 49.1155 142.909 49.2575V52.0797H141.568V47.2694H142.714L142.909 47.6379C143.064 47.528 143.239 47.4407 143.433 47.3761C143.627 47.3049 143.837 47.2694 144.064 47.2694ZM155.018 47.1336C155.38 47.1336 155.711 47.208 156.008 47.3567C156.306 47.4989 156.562 47.6897 156.775 47.9289C156.989 48.1616 157.154 48.4332 157.271 48.7435C157.387 49.0476 157.445 49.3608 157.445 49.6843C157.445 49.8782 157.42 50.0853 157.368 50.305H153.93C154.06 50.5246 154.244 50.7123 154.484 50.8675C154.723 51.0163 154.982 51.0905 155.26 51.0905C155.539 51.0905 155.782 51.0677 155.989 51.0226C156.202 50.9775 156.403 50.9193 156.591 50.8481L157.037 51.6724C156.798 51.8407 156.523 51.9697 156.212 52.0603C155.908 52.151 155.581 52.1961 155.231 52.1961C154.85 52.1961 154.493 52.1316 154.163 52.0022C153.833 51.8664 153.545 51.6855 153.299 51.4591C153.053 51.2326 152.859 50.9644 152.716 50.6541C152.574 50.3437 152.503 50.014 152.503 49.6649C152.503 49.322 152.568 48.9991 152.697 48.695C152.826 48.3847 153.005 48.1164 153.231 47.8901C153.464 47.6573 153.733 47.4731 154.037 47.3373C154.341 47.2015 154.668 47.1336 155.018 47.1336ZM156.115 49.2672C156.037 48.9894 155.898 48.7629 155.697 48.5884C155.497 48.4138 155.27 48.3265 155.018 48.3265C154.759 48.3265 154.522 48.4138 154.309 48.5884C154.102 48.7629 153.959 48.9894 153.882 49.2672H156.115ZM166.017 50.3534C166.017 50.5799 166.085 50.7545 166.221 50.8772C166.364 50.9998 166.548 51.0614 166.775 51.0614C166.956 51.0614 167.137 51.026 167.319 50.9547V52.0797C167.156 52.1316 166.985 52.1733 166.804 52.2058C166.622 52.2446 166.441 52.264 166.26 52.264C166.053 52.264 165.855 52.2383 165.668 52.1864C165.48 52.1345 165.311 52.0473 165.163 51.9246C165.014 51.7951 164.894 51.6273 164.804 51.4203C164.719 51.2069 164.677 50.945 164.677 50.6347V48.4623H163.988V47.5603L164.677 47.2694V46.1929H166.017V47.2694H167.319V48.4623H166.017V50.3534ZM180.115 47.2694H181.494L180.047 52.0797H178.348L177.649 49.7619L177.581 49.0733L177.503 49.7619L176.804 52.0797H175.114L173.667 47.2694H175.046L176.047 50.7511L177.018 47.2694H178.134L179.105 50.7705L180.115 47.2694ZM190.439 47.1336C190.782 47.1336 191.105 47.2015 191.41 47.3373C191.714 47.4666 191.979 47.6476 192.206 47.8804C192.433 48.1067 192.61 48.375 192.74 48.6853C192.876 48.9894 192.944 49.3157 192.944 49.6649C192.944 50.014 192.876 50.3437 192.74 50.6541C192.61 50.9581 192.433 51.2263 192.206 51.4591C191.979 51.6855 191.714 51.8664 191.41 52.0022C191.105 52.1316 190.782 52.1961 190.439 52.1961C190.089 52.1961 189.762 52.1316 189.458 52.0022C189.153 51.8664 188.888 51.6855 188.662 51.4591C188.435 51.2263 188.254 50.9581 188.118 50.6541C187.988 50.3437 187.924 50.014 187.924 49.6649C187.924 49.3157 187.988 48.9894 188.118 48.6853C188.254 48.375 188.435 48.1067 188.662 47.8804C188.888 47.6476 189.153 47.4666 189.458 47.3373C189.762 47.2015 190.089 47.1336 190.439 47.1336ZM190.439 51.0226C190.6 51.0226 190.749 50.9901 190.885 50.9256C191.028 50.8612 191.151 50.7739 191.254 50.6638C191.365 50.5474 191.449 50.4116 191.507 50.2565C191.571 50.095 191.604 49.917 191.604 49.7231C191.604 49.5291 191.571 49.3482 191.507 49.18C191.449 49.0117 191.365 48.8662 191.254 48.7435C191.151 48.6141 191.028 48.5142 190.885 48.4429C190.749 48.3653 190.6 48.3265 190.439 48.3265C190.277 48.3265 190.124 48.3653 189.982 48.4429C189.84 48.5142 189.714 48.6141 189.604 48.7435C189.5 48.8662 189.416 49.0117 189.351 49.18C189.293 49.3482 189.264 49.5291 189.264 49.7231C189.264 49.917 189.293 50.095 189.351 50.2565C189.416 50.4116 189.5 50.5474 189.604 50.6638C189.714 50.7739 189.84 50.8612 189.982 50.9256C190.124 50.9901 190.277 51.0226 190.439 51.0226ZM200.792 47.9386C200.857 47.8351 200.931 47.7382 201.015 47.6476C201.1 47.5506 201.2 47.4666 201.316 47.3955C201.433 47.3179 201.566 47.2564 201.715 47.2112C201.864 47.166 202.032 47.1433 202.22 47.1433C202.44 47.1433 202.695 47.1821 202.987 47.2597L202.86 48.4526C202.79 48.4395 202.718 48.4235 202.647 48.4041C202.589 48.391 202.524 48.3813 202.453 48.375C202.382 48.3619 202.317 48.3556 202.258 48.3556C202.052 48.3556 201.857 48.3847 201.676 48.4429C201.501 48.5011 201.349 48.5821 201.219 48.6853C201.09 48.7886 200.986 48.9147 200.909 49.0636C200.831 49.2057 200.792 49.3608 200.792 49.5291V52.0797H199.452V47.2694H200.666L200.792 47.9386ZM211.97 49.2672L214 52.0797H212.398L211.126 50.1595L210.65 50.6735V52.0797H209.31V45H210.65V48.9278L212.213 47.2694H213.845L211.97 49.2672Z" fill="white"/>
</g>
</g>
<defs>
<filter id="filter0_dddddd" x="9" y="45" width="285" height="189" filterUnits="userSpaceOnUse" color-interpolation-filters="sRGB">
<feFlood flood-opacity="0" result="BackgroundImageFix"/>
<feColorMatrix in="SourceAlpha" type="matrix" values="0 0 0 0 0 0 0 0 0 0 0 0 0 0 0 0 0 0 127 0"/>
<feOffset dy="2.76726"/>
<feGaussianBlur stdDeviation="1.1069"/>
<feColorMatrix type="matrix" values="0 0 0 0 0 0 0 0 0 0 0 0 0 0 0 0 0 0 0.0196802 0"/>
<feBlend mode="normal" in2="BackgroundImageFix" result="effect1_dropShadow"/>
<feColorMatrix in="SourceAlpha" type="matrix" values="0 0 0 0 0 0 0 0 0 0 0 0 0 0 0 0 0 0 127 0"/>
<feOffset dy="6.6501"/>
<feGaussianBlur stdDeviation="2.66004"/>
<feColorMatrix type="matrix" values="0 0 0 0 0 0 0 0 0 0 0 0 0 0 0 0 0 0 0.0282725 0"/>
<feBlend mode="normal" in2="effect1_dropShadow" result="effect2_dropShadow"/>
<feColorMatrix in="SourceAlpha" type="matrix" values="0 0 0 0 0 0 0 0 0 0 0 0 0 0 0 0 0 0 127 0"/>
<feOffset dy="12.5216"/>
<feGaussianBlur stdDeviation="5.00862"/>
<feColorMatrix type="matrix" values="0 0 0 0 0 0 0 0 0 0 0 0 0 0 0 0 0 0 0.035 0"/>
<feBlend mode="normal" in2="effect2_dropShadow" result="effect3_dropShadow"/>
<feColorMatrix in="SourceAlpha" type="matrix" values="0 0 0 0 0 0 0 0 0 0 0 0 0 0 0 0 0 0 127 0"/>
<feOffset dy="22.3363"/>
<feGaussianBlur stdDeviation="8.93452"/>
<feColorMatrix type="matrix" values="0 0 0 0 0 0 0 0 0 0 0 0 0 0 0 0 0 0 0.0417275 0"/>
<feBlend mode="normal" in2="effect3_dropShadow" result="effect4_dropShadow"/>
<feColorMatrix in="SourceAlpha" type="matrix" values="0 0 0 0 0 0 0 0 0 0 0 0 0 0 0 0 0 0 127 0"/>
<feOffset dy="41.7776"/>
<feGaussianBlur stdDeviation="16.711"/>
<feColorMatrix type="matrix" values="0 0 0 0 0 0 0 0 0 0 0 0 0 0 0 0 0 0 0.0503198 0"/>
<feBlend mode="normal" in2="effect4_dropShadow" result="effect5_dropShadow"/>
<feColorMatrix in="SourceAlpha" type="matrix" values="0 0 0 0 0 0 0 0 0 0 0 0 0 0 0 0 0 0 127 0"/>
<feOffset dy="100"/>
<feGaussianBlur stdDeviation="40"/>
<feColorMatrix type="matrix" values="0 0 0 0 0 0 0 0 0 0 0 0 0 0 0 0 0 0 0.07 0"/>
<feBlend mode="normal" in2="effect5_dropShadow" result="effect6_dropShadow"/>
<feBlend mode="normal" in="SourceGraphic" in2="effect6_dropShadow" result="shape"/>
</filter>
<linearGradient id="paint0_linear" x1="54.1494" y1="63.6517" x2="76.295" y2="44.1529" gradientUnits="userSpaceOnUse">
<stop stop-color="#6767E4" stop-opacity="0.42"/>
<stop offset="1" stop-color="#6464E1"/>
</linearGradient>
<linearGradient id="paint1_linear" x1="45.2583" y1="13.9616" x2="59.7826" y2="42.843" gradientUnits="userSpaceOnUse">
<stop stop-color="#6767E4" stop-opacity="0.4"/>
<stop offset="0.260646" stop-color="#5555DD"/>
<stop offset="1" stop-color="#6565E1"/>
</linearGradient>
<linearGradient id="paint2_linear" x1="68.8238" y1="37.7129" x2="50.5299" y2="72.9856" gradientUnits="userSpaceOnUse">
<stop stop-color="#6767E4"/>
<stop offset="0.562381" stop-color="#17179F"/>
<stop offset="1" stop-color="#2323C8"/>
</linearGradient>
<linearGradient id="paint3_linear" x1="51.2687" y1="15.6445" x2="24.5288" y2="63.2026" gradientUnits="userSpaceOnUse">
<stop stop-color="#B4B4FF"/>
<stop offset="1" stop-color="#1919C7"/>
</linearGradient>
<linearGradient id="paint4_linear" x1="63.2708" y1="47.9961" x2="62.613" y2="41.694" gradientUnits="userSpaceOnUse">
<stop stop-color="#6767E4" stop-opacity="0.19"/>
<stop offset="1" stop-color="#2323C8"/>
</linearGradient>
<linearGradient id="paint5_linear" x1="71.7289" y1="32.7739" x2="53.7082" y2="48.6293" gradientUnits="userSpaceOnUse">
<stop stop-color="#7777F0"/>
<stop offset="1" stop-color="#12129A"/>
</linearGradient>
<linearGradient id="paint6_linear" x1="18.2486" y1="20.6415" x2="22.3778" y2="18.1814" gradientUnits="userSpaceOnUse">
<stop stop-color="#6767E4" stop-opacity="0.05"/>
<stop offset="1" stop-color="#2323C8"/>
</linearGradient>
<linearGradient id="paint7_linear" x1="68.4134" y1="37.7423" x2="41.2958" y2="66.0245" gradientUnits="userSpaceOnUse">
<stop stop-color="#7979F1"/>
<stop offset="0.699985" stop-color="#13139B"/>
<stop offset="1" stop-color="#1A1AA1"/>
</linearGradient>
<linearGradient id="paint8_linear" x1="53.6228" y1="5.41286" x2="50.3794" y2="11.1822" gradientUnits="userSpaceOnUse">
<stop stop-color="#B4B4FF"/>
<stop offset="1" stop-color="#1919C7"/>
</linearGradient>
<linearGradient id="paint9_linear" x1="7.3193" y1="44.5361" x2="2.49738" y2="53.1121" gradientUnits="userSpaceOnUse">
<stop stop-color="#B4B4FF"/>
<stop offset="1" stop-color="#1919C7"/>
</linearGradient>
<linearGradient id="paint10_linear" x1="63.1158" y1="63.9232" x2="61.0116" y2="67.6654" gradientUnits="userSpaceOnUse">
<stop stop-color="#B4B4FF"/>
<stop offset="1" stop-color="#1919C7"/>
</linearGradient>
<linearGradient id="paint11_linear" x1="20.7544" y1="9.06956" x2="18.6503" y2="12.8118" gradientUnits="userSpaceOnUse">
<stop stop-color="#B4B4FF"/>
<stop offset="1" stop-color="#1919C7"/>
</linearGradient>
<linearGradient id="paint12_linear" x1="71.2408" y1="36.1334" x2="68.4353" y2="41.1231" gradientUnits="userSpaceOnUse">
<stop stop-color="#B4B4FF"/>
<stop offset="1" stop-color="#1919C7"/>
</linearGradient>
<clipPath id="clip0">
<rect width="233.6" height="73" fill="white"/>
</clipPath>
</defs>
</svg>
