<svg width="20" height="20" viewBox="0 0 20 20" fill="none" xmlns="http://www.w3.org/2000/svg">
<path d="M18.2423 2.38281H1.75797C1.48738 2.38281 1.23406 2.44934 1.00488 2.55898L9.96109 11.5152L11.9685 9.58602C11.9685 9.58602 11.9686 9.58582 11.9687 9.58574C11.9687 9.58566 11.9689 9.58559 11.9689 9.58559L18.9957 2.55914C18.7665 2.44941 18.513 2.38281 18.2423 2.38281Z" fill="#F4F4F3"/>
<path d="M19.8245 3.3877L13.2119 9.99996L19.8243 16.6123C19.9339 16.3832 20.0005 16.1298 20.0005 15.8593V4.14051C20.0005 3.87008 19.9341 3.6168 19.8245 3.3877Z" fill="#F4F4F3"/>
<path d="M0.176172 3.38745C0.0665234 3.61663 0 3.86995 0 4.14054V15.8593C0 16.1297 0.0664453 16.3831 0.176016 16.6122L6.78863 9.99991L0.176172 3.38745Z" fill="#F4F4F3"/>
<path d="M12.3833 10.8287L10.3757 12.7581C10.2612 12.8726 10.1113 12.9298 9.96141 12.9298C9.81152 12.9298 9.66156 12.8726 9.54715 12.7581L7.61762 10.8286L1.00488 17.4409C1.2341 17.5506 1.48758 17.6172 1.75824 17.6172H18.2426C18.5132 17.6172 18.7665 17.5507 18.9957 17.4411L12.3833 10.8287Z" fill="#F4F4F3"/>
</svg>
