<svg width="348" height="264" viewBox="0 0 348 264" fill="none" xmlns="http://www.w3.org/2000/svg">
<path d="M260.15 172.907V235.427C260.15 246.118 251.403 254.865 240.713 254.865H162.312V227.059C164.572 228.226 167.093 228.792 169.634 228.703C172.176 228.613 174.651 227.872 176.823 226.549C178.994 225.226 180.789 223.367 182.035 221.15C183.28 218.933 183.934 216.433 183.934 213.891C183.934 211.348 183.28 208.848 182.035 206.631C180.789 204.414 178.994 202.555 176.823 201.233C174.651 199.91 172.176 199.168 169.634 199.079C167.093 198.99 164.572 199.555 162.312 200.722V172.907H198.067C196.97 170.808 196.4 168.473 196.406 166.104C196.406 163.86 196.916 161.645 197.897 159.626C198.878 157.607 200.305 155.838 202.07 154.451C203.835 153.064 205.891 152.095 208.084 151.619C210.278 151.142 212.551 151.17 214.732 151.7C216.913 152.23 218.945 153.248 220.675 154.678C222.406 156.108 223.789 157.912 224.72 159.954C225.652 161.996 226.107 164.223 226.053 166.467C225.998 168.711 225.435 170.913 224.406 172.907H260.15Z" fill="#FFD3A6"/>
<path d="M279.185 38.9231L296.3 99.0553L261.921 108.841C262.428 106.346 262.285 103.763 261.504 101.34C260.724 98.9163 259.333 96.7346 257.465 95.0046C255.597 93.2746 253.316 92.0546 250.84 91.4621C248.364 90.8695 245.777 90.9243 243.328 91.6212C240.879 92.3181 238.651 93.6336 236.859 95.4411C235.066 97.2487 233.768 99.4873 233.091 101.942C232.414 104.396 232.38 106.983 232.993 109.454C233.606 111.925 234.844 114.197 236.589 116.051L202.2 125.839L194.589 99.0954C192.735 100.84 190.463 102.079 187.992 102.691C185.521 103.304 182.934 103.27 180.48 102.593C178.026 101.916 175.788 100.619 173.98 98.8261C172.173 97.0333 170.857 94.8054 170.16 92.3569C169.463 89.9084 169.408 87.3217 170.001 84.8459C170.593 82.37 171.813 80.0883 173.543 78.2205C175.273 76.3526 177.454 74.9615 179.877 74.1811C182.3 73.4006 184.884 73.257 187.378 73.7642L179.764 47.0124L255.169 25.5496C265.451 22.6243 276.259 28.6425 279.185 38.9231Z" fill="url(#paint0_linear)"/>
<path d="M183.955 213.89C183.954 216.433 183.298 218.933 182.051 221.15C180.805 223.367 179.009 225.226 176.836 226.548C174.664 227.871 172.188 228.612 169.646 228.702C167.104 228.791 164.582 228.225 162.322 227.059V254.864H83.9216C73.2311 254.864 64.4844 246.117 64.4844 235.427V172.906H100.239C99.0724 175.166 98.5065 177.687 98.5958 180.228C98.6852 182.77 99.4268 185.245 100.749 187.417C102.072 189.589 103.931 191.384 106.148 192.629C108.365 193.875 110.865 194.529 113.408 194.529C115.951 194.529 118.451 193.875 120.668 192.629C122.884 191.384 124.744 189.589 126.066 187.417C127.389 185.245 128.131 182.77 128.22 180.228C128.309 177.687 127.743 175.166 126.576 172.906H162.322V200.721C164.582 199.555 167.104 198.989 169.646 199.078C172.187 199.168 174.664 199.909 176.836 201.232C179.009 202.554 180.804 204.413 182.051 206.63C183.298 208.846 183.954 211.347 183.955 213.89V213.89Z" fill="url(#paint1_linear)"/>
<path d="M140.698 131.932C140.698 134.475 141.353 136.975 142.598 139.192C143.844 141.409 145.639 143.268 147.811 144.591C149.983 145.913 152.458 146.655 155 146.744C157.541 146.834 160.063 146.268 162.322 145.101V172.906H126.576C127.743 175.166 128.309 177.687 128.22 180.228C128.13 182.769 127.389 185.245 126.066 187.416C124.743 189.588 122.884 191.383 120.667 192.628C118.451 193.874 115.951 194.528 113.408 194.528C110.865 194.528 108.365 193.874 106.148 192.628C103.931 191.383 102.072 189.588 100.75 187.416C99.4271 185.245 98.6854 182.769 98.596 180.228C98.5066 177.687 99.0725 175.166 100.239 172.906H64.4844V110.386C64.4844 99.6957 73.2311 90.949 83.9216 90.949H162.322V118.764C160.223 117.666 157.888 117.096 155.519 117.102C153.572 117.102 151.644 117.485 149.845 118.23C148.046 118.976 146.411 120.068 145.035 121.446C143.658 122.823 142.567 124.458 141.823 126.257C141.079 128.057 140.696 129.985 140.698 131.932V131.932Z" fill="#FFD3A6"/>
<path d="M288.241 154.382C286.727 153.515 285.145 152.774 283.51 152.165L286.926 144.807L269.387 142.094L265.971 149.455C262.01 149.562 258.079 150.17 254.27 151.264L244.938 145.876L232.1 153.289L241.432 158.676C239.692 160.535 238.594 162.903 238.299 165.431L225.549 167.404L230.248 177.53L242.993 175.557C244.177 176.596 245.463 177.512 246.83 178.292C248.344 179.159 249.927 179.9 251.562 180.509L248.146 187.868L265.683 190.58L269.1 183.218C273.061 183.111 276.993 182.504 280.801 181.41L290.133 186.797L302.972 179.385L293.64 173.997C295.379 172.139 296.477 169.771 296.771 167.242L309.523 165.27L304.824 155.144L292.082 157.116C290.897 156.078 289.61 155.162 288.241 154.382V154.382ZM277.94 172.342C272.194 175.659 262.877 175.659 257.132 172.342C251.386 169.024 251.386 163.646 257.132 160.328C262.877 157.011 272.194 157.011 277.94 160.328C283.685 163.646 283.685 169.024 277.94 172.342V172.342Z" fill="url(#paint2_linear)"/>
<path d="M279.584 171.207C283.615 167.893 283.065 163.289 277.939 160.328C272.193 157.011 262.876 157.011 257.131 160.328C252.549 162.974 251.625 166.928 254.35 170.104C255.144 169.207 256.084 168.45 257.131 167.866C262.876 164.55 272.193 164.55 277.939 167.866C278.985 168.45 279.925 169.207 280.719 170.104C280.374 170.504 279.994 170.873 279.584 171.207V171.207Z" fill="url(#paint3_linear)"/>
<path d="M246.832 178.288C245.464 177.508 244.179 176.591 242.995 175.553L230.249 177.526L225.575 167.473H225.543L225.575 167.543H225.543L225.575 167.613H225.543L225.575 167.682H225.543L225.575 167.752H225.543L225.575 167.821H225.543L225.575 167.891H225.543L225.575 167.961H225.543L225.575 168.03H225.543L225.575 168.1H225.543L225.575 168.17H225.543L225.575 168.239H225.543L225.575 168.309H225.543L225.575 168.378H225.543L225.575 168.448H225.543L225.575 168.518H225.543L225.575 168.587H225.543L225.575 168.657H225.543L225.575 168.726H225.543L225.575 168.796H225.543L225.575 168.866H225.543L225.575 168.935H225.543L225.575 169.005H225.543L225.575 169.074H225.543L225.575 169.144H225.543L225.575 169.214H225.543L225.575 169.283H225.543L225.575 169.354H225.543L225.575 169.423H225.543L225.575 169.493H225.543L225.575 169.564H225.543L225.575 169.633L225.543 169.639L225.575 169.708H225.543L225.575 169.778H225.543L225.575 169.848H225.543L225.575 169.917H225.543L225.575 169.987H225.543L225.575 170.056H225.543L225.575 170.126H225.543L225.575 170.196H225.543L225.575 170.265H225.543L225.575 170.335H225.543L225.575 170.405H225.543L225.575 170.474H225.543L225.575 170.544H225.543L225.575 170.613H225.543L225.575 170.683H225.543L225.575 170.753H225.543L225.575 170.822H225.543L225.575 170.892H225.543L225.575 170.961H225.543L225.575 171.031H225.543L225.575 171.101H225.543L225.575 171.17H225.543L225.575 171.24H225.543L225.575 171.31H225.543L225.575 171.379H225.543L225.575 171.449H225.543L225.575 171.518H225.543L225.575 171.588H225.543L225.575 171.658H225.543L225.575 171.727H225.543L225.575 171.797H225.543L225.575 171.866H225.543L225.575 171.936H225.543L225.575 172.006H225.543L225.575 172.075H225.543L225.575 172.145H225.543L225.575 172.214H225.543L225.575 172.284H225.543L225.575 172.354H225.543L225.575 172.779H225.543L225.575 172.848H225.543L225.575 172.918H225.543L225.575 172.988H225.543L225.575 173.059H225.543L225.575 173.128H225.543L225.575 173.198H225.543L225.575 173.267H225.543L225.575 173.337H225.543L225.575 173.407H225.543L225.575 173.476H225.543L225.575 173.546H225.543L225.575 173.615H225.543L225.575 173.685H225.543L225.575 173.755H225.543L225.575 173.824H225.543L225.575 173.894H225.543L225.575 173.963H225.543L225.575 174.033H225.543L225.575 174.103H225.543L225.575 174.172H225.543L225.575 174.242H225.543L225.575 174.312H225.543L225.575 174.381H225.543L225.575 174.451H225.543L225.575 174.52H225.543L225.575 174.589H225.543L225.575 174.658H225.543L225.575 174.729H225.543L225.575 174.798L225.543 174.804L230.242 184.929L242.991 183.096C244.175 184.134 245.461 185.05 246.828 185.831C247.414 186.169 248.023 186.485 248.644 186.787L248.147 187.867L251.563 180.508C249.928 179.899 248.346 179.156 246.832 178.288V178.288Z" fill="url(#paint4_linear)"/>
<path d="M290.132 186.794L280.8 181.406C276.992 182.5 273.06 183.107 269.099 183.215L265.682 190.576L248.145 187.864H248.177L248.145 187.932L248.177 187.938L248.145 188.008H248.177L248.145 188.078H248.177L248.145 188.147H248.177L248.145 188.217H248.177L248.145 188.286H248.177L248.145 188.356H248.177L248.145 188.426H248.177L248.145 188.495H248.177L248.145 188.565H248.177L248.145 188.635H248.177L248.145 188.704H248.177L248.145 188.774H248.177L248.145 188.843H248.177L248.145 188.913H248.177L248.145 188.983H248.177L248.145 189.052H248.177L248.145 189.122H248.177L248.145 189.191H248.177L248.145 189.261H248.177L248.145 189.331H248.177L248.145 189.4H248.177L248.145 189.47H248.177L248.145 189.539L248.177 189.546L248.145 189.615H248.177L248.145 189.685H248.177L248.145 189.755H248.177L248.145 189.824H248.177L248.145 189.894H248.177L248.145 189.963H248.177L248.145 190.033H248.177L248.145 190.103H248.177L248.145 190.172H248.177L248.145 190.242H248.177L248.145 190.311H248.177L248.145 190.381H248.177L248.145 190.451H248.177L248.145 190.52H248.177L248.145 190.59H248.177L248.145 190.659H248.177L248.145 190.729H248.177L248.145 190.799H248.177L248.145 190.868H248.177L248.145 190.938H248.177L248.145 191.008H248.177L248.145 191.077H248.177L248.145 191.147L248.177 191.153L248.145 191.223H248.177L248.145 191.292H248.177L248.145 191.362H248.177L248.145 191.431H248.177L248.145 191.501H248.177L248.145 191.571H248.177L248.145 191.64H248.177L248.145 191.71H248.177L248.145 191.779H248.177L248.145 191.849H248.177L248.145 191.919H248.177L248.145 191.988H248.177L248.145 192.058H248.177L248.145 192.128H248.177L248.145 192.197H248.177L248.145 192.267H248.177L248.145 192.336H248.177L248.145 192.406H248.177L248.145 192.476H248.177L248.145 192.545H248.177L248.145 192.615H248.177L248.145 192.684L248.177 192.691L248.145 192.759L248.177 192.765L248.145 192.835H248.177L248.145 192.904H248.177L248.145 192.974H248.177L248.145 193.044H248.177L248.145 193.113H248.177L248.145 193.183H248.177L248.145 193.253H248.177L248.145 193.322H248.177L248.145 193.392H248.177L248.145 193.461H248.177L248.145 193.531H248.177L248.145 193.601H248.177L248.145 193.67H248.177L248.145 193.74H248.177L248.145 193.809H248.177L248.145 193.879H248.177L248.145 193.949H248.177L248.145 194.018H248.177L248.145 194.088H248.177L248.145 194.157H248.177L248.145 194.228H248.177L248.145 194.298H248.177L248.145 194.368L248.177 194.374L248.145 194.443H248.177L248.145 194.513H248.177L248.145 194.583H248.177L248.145 194.652H248.177L248.145 194.722H248.177L248.145 194.791H248.177L248.145 194.861H248.177L248.145 194.931L265.682 197.643L269.099 190.282C273.06 190.175 276.992 189.568 280.8 188.474L290.132 193.862L302.97 186.449L302.906 186.412L302.97 186.375L302.906 186.337L302.97 186.3L302.906 186.263L302.97 186.225L302.906 186.188L302.97 186.151L302.906 186.114L302.97 186.076L302.906 186.039L302.97 186.002L302.906 185.963L302.97 185.927L302.906 185.889L302.97 185.851L302.906 185.814L302.97 185.777L302.906 185.739L302.97 185.702L302.906 185.665L302.97 185.627L302.906 185.59L302.97 185.553L302.906 185.516L302.97 185.478L302.906 185.441L302.97 185.404L302.906 185.366L302.97 185.329L302.906 185.292L302.97 185.255L302.906 185.217L302.97 185.18L302.906 185.143L302.97 185.105L302.906 185.068L302.97 185.031L302.906 184.994L302.97 184.956L302.906 184.919L302.97 184.882L302.906 184.844L302.97 184.807L302.906 184.77L302.97 184.732L302.906 184.695L302.97 184.658L302.906 184.621L302.97 184.583L302.906 184.546L302.97 184.509L302.906 184.471L302.97 184.434L302.906 184.397L302.97 184.36L302.906 184.322L302.97 184.285L302.906 184.246L302.97 184.209L302.906 184.172L302.97 184.135L302.906 184.097L302.97 184.06L302.906 184.023L302.97 183.985L302.906 183.948L302.97 183.911L302.906 183.874L302.97 183.836L302.906 183.799L302.97 183.762L302.906 183.724L302.97 183.687L302.906 183.65L302.97 183.612L302.906 183.575L302.97 183.538L302.906 183.501L302.97 183.463L302.906 183.426L302.97 183.389L302.906 183.351L302.97 183.314L302.906 183.277L302.97 183.24L302.906 183.202L302.97 183.165L302.906 183.128L302.97 183.09L302.906 183.053L302.97 183.016L302.906 182.978L302.97 182.941L302.906 182.904L302.97 182.867L302.906 182.829L302.97 182.792L302.906 182.755L302.97 182.717L302.906 182.679L302.97 182.643L302.906 182.606L302.97 182.568L302.906 182.531L302.97 182.492L302.906 182.455L302.97 182.418L302.906 182.381L302.97 182.343L302.906 182.306L302.97 182.269L302.906 182.231L302.97 182.194L302.906 182.157L302.97 182.12L302.906 182.082L302.97 182.045L302.906 182.008L302.97 181.97L302.906 181.933L302.97 181.896L302.906 181.858L302.97 181.821L302.906 181.784L302.97 181.747L302.906 181.709L302.97 181.672L302.906 181.635L302.97 181.597L302.906 181.56L302.97 181.523L302.906 181.486L302.97 181.448L302.906 181.411L302.97 181.374L302.906 181.336L302.97 181.299L302.906 181.262L302.97 181.225L302.906 181.187L302.97 181.15L302.906 181.113L302.97 181.075L302.906 181.038L302.97 181.001L302.906 180.963L302.97 180.926L302.906 180.889L302.97 180.85L302.906 180.813L302.97 180.777L302.906 180.738L302.97 180.701L302.906 180.664L302.97 180.627L302.906 180.589L302.97 180.552L302.906 180.515L302.97 180.477L302.906 180.44L302.97 180.403L302.906 180.366L302.97 180.328L302.906 180.291L302.97 180.254L302.906 180.216L302.97 180.179L302.906 180.142L302.97 180.105L302.906 180.067L302.97 180.03L302.906 179.993L302.97 179.955L302.906 179.918L302.97 179.881L302.906 179.843L302.97 179.806L302.906 179.769L302.97 179.732L302.906 179.694L302.97 179.657L302.906 179.62L302.97 179.582L302.906 179.545L302.97 179.508L302.906 179.471L302.97 179.433L302.906 179.396L302.97 179.359L302.906 179.321L302.97 179.283L302.906 179.247L302.97 179.209L302.906 179.172L302.97 179.135L302.906 179.096L302.97 179.059L302.906 179.022L302.97 178.984L302.906 178.947L302.97 178.91L290.132 186.794Z" fill="url(#paint5_linear)"/>
<path d="M309.483 165.271H309.516L296.764 167.244C296.47 169.773 295.372 172.14 293.633 173.999L296.629 175.728C296.688 175.414 296.736 175.098 296.764 174.782L309.516 172.809L309.483 172.74H309.516L309.483 172.67H309.516L309.483 172.6H309.516L309.483 172.531H309.516L309.483 172.461H309.516L309.483 172.392H309.516L309.483 172.322H309.516L309.483 172.252H309.516L309.483 172.183H309.516L309.483 172.113H309.516L309.483 172.044H309.516L309.483 171.974H309.516L309.483 171.904H309.516L309.483 171.835H309.516L309.483 171.765H309.516L309.483 171.694H309.516L309.483 171.536H309.516L309.483 171.467H309.516L309.483 171.397H309.516L309.483 171.328H309.516L309.483 171.258H309.516L309.483 171.188H309.516L309.483 171.119H309.516L309.483 171.049H309.516L309.483 170.979H309.516L309.483 170.91H309.516L309.483 170.84H309.516L309.483 170.771H309.516L309.483 170.701H309.516L309.483 170.631H309.516L309.483 170.562H309.516L309.483 170.492H309.516L309.483 170.423H309.516L309.483 170.353H309.516L309.483 170.283H309.516L309.483 170.214H309.516L309.483 170.144H309.516L309.483 170.075H309.516L309.483 170.004H309.516L309.483 169.934H309.516L309.483 169.866H309.516L309.483 169.796H309.516L309.483 169.726H309.516L309.483 169.657H309.516L309.483 169.587H309.516L309.483 169.518H309.516L309.483 169.448H309.516L309.483 169.378H309.516L309.483 169.309H309.516L309.483 169.239H309.516L309.483 169.17H309.516L309.483 169.1H309.516L309.483 169.03H309.516L309.483 168.961H309.516L309.483 168.891H309.516L309.483 168.821H309.516L309.483 168.752H309.516L309.483 168.682H309.516L309.483 168.613H309.516L309.483 168.544H309.516L309.483 168.473H309.516L309.483 168.403H309.516L309.483 168.334H309.516L309.483 168.263H309.516L309.483 168.194H309.516L309.483 168.124H309.516L309.483 167.807H309.516L309.483 167.738H309.516L309.483 167.668H309.516L309.483 167.598H309.516L309.483 167.529H309.516L309.483 167.459H309.516L309.483 167.389H309.516L309.483 167.32H309.516L309.483 167.25H309.516L309.483 167.181H309.516L309.483 167.111H309.516L309.483 167.041H309.516L309.483 166.972H309.516L309.483 166.902H309.516L309.483 166.833H309.516L309.483 166.763H309.516L309.483 166.693H309.516L309.483 166.624H309.516L309.483 166.554H309.516L309.483 166.484H309.516L309.483 166.415H309.516L309.483 166.345H309.516L309.483 166.276H309.516L309.483 166.206H309.516L309.483 166.136H309.516L309.483 166.067H309.516L309.483 165.997H309.516L309.483 165.928H309.516L309.483 165.858H309.516L309.483 165.788H309.516L309.483 165.719H309.516L309.483 165.649H309.516L309.483 165.58H309.516L309.483 165.51H309.516L309.483 165.271Z" fill="url(#paint6_linear)"/>
<path d="M286.423 153.425L286.92 152.346H286.888L286.92 152.276H286.888L286.92 152.207H286.888L286.92 152.137H286.888L286.92 152.067H286.888L286.92 151.998H286.888L286.92 151.928H286.888L286.92 151.859H286.888L286.92 151.789H286.888L286.92 151.719H286.888L286.92 151.65L286.888 151.643L286.92 151.574H286.888L286.92 151.503H286.888L286.92 151.433H286.888L286.92 151.364H286.888L286.92 151.294H286.888L286.92 151.225H286.888L286.92 151.155H286.888L286.92 151.085H286.888L286.92 151.016H286.888L286.92 150.946H286.888L286.92 150.876H286.888L286.92 150.807H286.888L286.92 150.737H286.888L286.92 150.668H286.888L286.92 150.598H286.888L286.92 150.528H286.888L286.92 150.459H286.888L286.92 150.389H286.888L286.92 150.32H286.888L286.92 150.25H286.888L286.92 150.18H286.888L286.92 150.111H286.888L286.92 150.041H286.888L286.92 149.97H286.888L286.92 149.902H286.888L286.92 149.832H286.888L286.92 149.763H286.888L286.92 149.693H286.888L286.92 149.623H286.888L286.92 149.554H286.888L286.92 149.484H286.888L286.92 149.415H286.888L286.92 149.345H286.888L286.92 149.275H286.888L286.92 149.206H286.888L286.92 149.136H286.888L286.92 149.067H286.888L286.92 148.997H286.888L286.92 148.927H286.888L286.92 148.858H286.888L286.92 148.788H286.888L286.92 148.719H286.888L286.92 148.649H286.888L286.92 148.579H286.888L286.92 148.51H286.888L286.92 148.44L286.888 148.434L286.92 148.364H286.888L286.92 148.295H286.888L286.92 148.225H286.888L286.92 148.155H286.888L286.92 148.086H286.888L286.92 148.016H286.888L286.92 147.947H286.888L286.92 147.877H286.888L286.92 147.807H286.888L286.92 147.738H286.888L286.92 147.668H286.888L286.92 147.598H286.888L286.92 147.529H286.888L286.92 147.459H286.888L286.92 147.39H286.888L286.92 147.32H286.888L286.92 147.25H286.888L286.92 147.181H286.888L286.92 147.111H286.888L286.92 147.042H286.888L286.92 146.972H286.888L286.92 146.902H286.888L286.92 146.832H286.888L286.92 146.762H286.888L286.92 146.691H286.888L286.92 146.621H286.888L286.92 146.552H286.888L286.92 146.482H286.888L286.92 146.413H286.888L286.92 146.343H286.888L286.92 146.273H286.888L286.92 146.204H286.888L286.92 146.134H286.888L286.92 146.065H286.888L286.92 145.995H286.888L286.92 145.925H286.888L286.92 145.856H286.888L286.92 145.786H286.888L286.92 145.716H286.888L286.92 145.647H286.888L286.92 145.577H286.888L286.92 145.508H286.888L286.92 145.438H286.888L286.92 145.368H286.888L283.504 152.657C284.511 153.029 285.482 153.46 286.42 153.917L286.423 153.425Z" fill="url(#paint7_linear)"/>
<path d="M238.436 164.485C238.892 162.314 239.928 160.307 241.431 158.676L232.1 153.289L232.164 153.326L232.1 153.363L232.164 153.401L232.1 153.438L232.164 153.475L232.1 153.513L232.164 153.55L232.1 153.587L232.164 153.624L232.1 153.662L232.164 153.699L232.1 153.736L232.164 153.774L232.1 153.811L232.164 153.848L232.1 153.885L232.164 153.923L232.1 153.96L232.164 153.997L232.1 154.035L232.164 154.072L232.1 154.109L232.164 154.147L232.1 154.184L232.164 154.221L232.1 154.258L232.164 154.296L232.1 154.333L232.164 154.37L232.1 154.408L232.164 154.445L232.1 154.482L232.164 154.519L232.1 154.557L232.164 154.594L232.1 154.631L232.164 154.669L232.1 154.706L232.164 154.744L232.1 154.781L232.164 154.819L232.1 154.856L232.164 154.892L232.1 154.931L232.164 154.968L232.1 155.006L232.164 155.043L232.1 155.08L232.164 155.117L232.1 155.155L232.164 155.192L232.1 155.229L232.164 155.267L232.1 155.304L232.164 155.341L232.1 155.378L232.164 155.416L232.1 155.453L232.164 155.49L232.1 155.528L232.164 155.565L232.1 155.602L232.164 155.639L232.1 155.677L232.164 155.714L232.1 155.751L232.164 155.789L232.1 155.826L232.164 155.863L232.1 155.901L232.164 155.938L232.1 155.975L232.164 156.012L232.1 156.05L232.164 156.087L232.1 156.124L232.164 156.162L232.1 156.199L232.164 156.236L232.1 156.273L232.164 156.311L232.1 156.348L232.164 156.387L232.1 156.423L232.164 156.46L232.1 156.497L232.164 156.536L232.1 156.573L232.164 156.61L232.1 156.648L232.164 156.685L232.1 156.722L232.164 156.759L232.1 156.797L232.164 156.834L232.1 156.871L232.164 156.909L232.1 156.946L232.164 156.983L232.1 157.021L232.164 157.058L232.1 157.095L232.164 157.132L232.1 157.17L232.164 157.207L232.1 157.244L232.164 157.282L232.1 157.319L232.164 157.356L232.1 157.393L232.164 157.431L232.1 157.468L232.164 157.505L232.1 157.543L232.164 157.58L232.1 157.617L232.164 157.655L232.1 157.692L232.164 157.729L232.1 157.766L232.164 157.804L232.1 157.841L232.164 157.878L232.1 157.916L232.164 157.953L232.1 157.99L232.164 158.027L232.1 158.065L232.164 158.102L232.1 158.141L232.164 158.177L232.1 158.214L232.164 158.252L232.1 158.288L232.164 158.327L232.1 158.364L232.164 158.402L232.1 158.439L232.164 158.476L232.1 158.513L232.164 158.551L232.1 158.588L232.164 158.625L232.1 158.663L232.164 158.7L232.1 158.737L232.164 158.775L232.1 158.812L232.164 158.849L232.1 158.886L232.164 158.924L232.1 158.961L232.164 158.998L232.1 159.036L232.164 159.073L232.1 159.11L232.164 159.147L232.1 159.185L232.164 159.222L232.1 159.259L232.164 159.297L232.1 159.334L232.164 159.371L232.1 159.408L232.164 159.446L232.1 159.483L232.164 159.52L232.1 159.558L232.164 159.595L232.1 159.632L232.164 159.67L232.1 159.707L232.164 159.744L232.1 159.781L232.164 159.819L232.1 159.856L232.164 159.895L232.1 159.931L232.164 159.969L232.1 160.006L232.164 160.044L232.1 160.081L232.164 160.118L232.1 160.156L232.164 160.193L232.1 160.23L232.164 160.267L232.1 160.305L232.164 160.342L232.1 160.379L232.164 160.417L232.1 160.454L232.164 160.491L232.1 160.528L232.164 160.566L232.1 160.603L232.164 160.64L232.1 160.678L232.164 160.715L232.1 160.752L232.164 160.79L232.1 160.827L238.436 164.485Z" fill="url(#paint8_linear)"/>
<path d="M39.4192 244.59C38.7389 244.201 38.0281 243.869 37.2937 243.596L38.8268 240.292L30.9589 239.077L29.4251 242.382C27.647 242.429 25.882 242.702 24.1723 243.193L19.9837 240.774L14.2201 244.102L18.4094 246.52C17.6287 247.355 17.1358 248.418 17.0031 249.553L11.2793 250.439L13.3891 254.984L19.1102 254.099C19.6422 254.564 20.2195 254.974 20.8332 255.325C21.5133 255.714 22.2242 256.046 22.9587 256.319L21.4256 259.622L29.2983 260.84L30.8321 257.536C32.61 257.487 34.3747 257.215 36.0842 256.724L40.2735 259.142L46.0365 255.815L41.8478 253.397C42.6286 252.562 43.1212 251.499 43.2534 250.364L48.9772 249.478L46.8661 244.933L41.1443 245.818C40.612 245.352 40.0341 244.94 39.4192 244.59V244.59ZM34.7986 252.655C33.3513 253.389 31.7512 253.772 30.1283 253.772C28.5053 253.772 26.9053 253.389 25.4579 252.655C22.8785 251.165 22.8785 248.751 25.4579 247.262C26.9053 246.528 28.5053 246.145 30.1283 246.145C31.7512 246.145 33.3513 246.528 34.7986 247.262C37.3746 248.751 37.3746 251.165 34.7986 252.655Z" fill="url(#paint9_linear)"/>
<path d="M35.5352 252.145C37.3439 250.658 37.0984 248.591 34.796 247.262C33.3487 246.527 31.7486 246.145 30.1257 246.145C28.5028 246.145 26.9027 246.527 25.4554 247.262C23.3984 248.449 22.987 250.224 24.2068 251.65C24.5635 251.247 24.9856 250.908 25.4554 250.645C26.9027 249.911 28.5028 249.528 30.1257 249.528C31.7486 249.528 33.3487 249.911 34.796 250.645C35.2657 250.908 35.6878 251.247 36.0446 251.65C35.8892 251.829 35.7187 251.995 35.5352 252.145Z" fill="url(#paint10_linear)"/>
<path d="M20.8312 255.325C20.2175 254.974 19.6403 254.564 19.1082 254.099L13.3871 254.984L11.2917 250.469H11.2773L11.2917 250.501H11.2773L11.2917 250.533H11.2773L11.2917 250.564H11.2773L11.2917 250.596H11.2773L11.2917 250.626H11.2773L11.2917 250.657H11.2773L11.2917 250.688H11.2773L11.2917 250.72H11.2773L11.2917 250.751H11.2773L11.2917 250.783H11.2773L11.2917 250.814H11.2773L11.2917 250.845H11.2773L11.2917 250.876H11.2773L11.2917 250.907H11.2773L11.2917 250.938H11.2773L11.2917 250.969H11.2773L11.2917 251.001H11.2773L11.2917 251.032H11.2773L11.2917 251.064H11.2773L11.2917 251.095H11.2773L11.2917 251.126H11.2773L11.2917 251.157H11.2773L11.2917 251.187H11.2773L11.2917 251.219H11.2773L11.2917 251.25H11.2773L11.2917 251.282H11.2773L11.2917 251.314H11.2773L11.2917 251.345H11.2773L11.2917 251.376H11.2773L11.2917 251.407H11.2773L11.2917 251.438H11.2773L11.2917 251.47H11.2773L11.2917 251.501H11.2773L11.2917 251.533H11.2773L11.2917 251.564H11.2773L11.2917 251.595H11.2773L11.2917 251.625H11.2773L11.2917 251.657H11.2773L11.2917 251.689H11.2773L11.2917 251.72H11.2773L11.2917 251.752H11.2773L11.2917 251.783H11.2773L11.2917 251.814H11.2773L11.2917 251.845H11.2773L11.2917 251.876H11.2773L11.2917 251.907H11.2773L11.2917 251.939H11.2773L11.2917 251.97H11.2773L11.2917 252.002H11.2773L11.2917 252.033H11.2773L11.2917 252.064H11.2773L11.2917 252.094H11.2773L11.2917 252.126H11.2773L11.2917 252.158H11.2773L11.2917 252.189H11.2773L11.2917 252.221H11.2773L11.2917 252.252H11.2773L11.2917 252.283H11.2773L11.2917 252.314H11.2773L11.2917 252.345H11.2773L11.2917 252.376H11.2773L11.2917 252.407H11.2773L11.2917 252.439H11.2773L11.2917 252.47H11.2773L11.2917 252.502H11.2773L11.2917 252.533H11.2773L11.2917 252.563H11.2773L11.2917 252.595H11.2773L11.2917 252.627H11.2773L11.2917 252.658H11.2773L11.2917 252.69H11.2773L11.2917 252.721H11.2773L11.2917 252.752H11.2773L11.2917 252.783H11.2773L11.2917 252.814H11.2773L11.2917 252.845H11.2773L11.2917 252.877H11.2773L11.2917 252.908H11.2773L11.2917 252.94H11.2773L11.2917 252.971H11.2773L11.2917 253.002H11.2773L11.2917 253.032H11.2773L11.2917 253.064H11.2773L11.2917 253.096H11.2773L11.2917 253.127H11.2773L11.2917 253.159H11.2773L11.2917 253.19H11.2773L11.2917 253.221H11.2773L11.2917 253.252H11.2773L11.2917 253.283H11.2773L11.2917 253.314H11.2773L11.2917 253.346H11.2773L11.2917 253.377H11.2773L11.2917 253.409H11.2773L11.2917 253.44H11.2773L11.2917 253.471H11.2773L11.2917 253.501H11.2773L11.2917 253.532H11.2773L11.2917 253.564H11.2773L11.2917 253.595H11.2773L13.3871 258.141L19.1082 257.48C19.6399 257.946 20.2172 258.356 20.8312 258.706C21.0938 258.858 21.3674 259 21.6465 259.136L21.4216 259.62L22.9547 256.317C22.221 256.045 21.5108 255.713 20.8312 255.325V255.325Z" fill="url(#paint11_linear)"/>
<path d="M40.2698 259.142L36.0805 256.724C34.3709 257.214 32.6063 257.487 30.8284 257.536L29.2946 260.84L21.4219 259.622H21.4363L21.4219 259.654H21.4363L21.4219 259.685H21.4363L21.4219 259.717H21.4363L21.4219 259.748H21.4363L21.4219 259.779H21.4363L21.4219 259.81H21.4363L21.4219 259.841H21.4363L21.4219 259.872H21.4363L21.4219 259.903H21.4363L21.4219 259.935H21.4363L21.4219 259.966H21.4363L21.4219 259.998H21.4363L21.4219 260.029H21.4363L21.4219 260.059H21.4363L21.4219 260.091H21.4363L21.4219 260.123H21.4363L21.4219 260.154H21.4363L21.4219 260.186H21.4363L21.4219 260.217H21.4363L21.4219 260.248H21.4363L21.4219 260.279H21.4363L21.4219 260.31H21.4363L21.4219 260.341H21.4363L21.4219 260.373H21.4363L21.4219 260.404H21.4363L21.4219 260.436H21.4363L21.4219 260.467H21.4363L21.4219 260.498H21.4363L21.4219 260.528H21.4363L21.4219 260.56H21.4363L21.4219 260.591H21.4363L21.4219 260.623H21.4363L21.4219 260.655H21.4363L21.4219 260.686H21.4363L21.4219 260.717H21.4363L21.4219 260.748H21.4363L21.4219 260.779H21.4363L21.4219 260.81H21.4363L21.4219 260.842H21.4363L21.4219 260.873H21.4363L21.4219 260.905H21.4363L21.4219 260.936H21.4363L21.4219 260.967H21.4363L21.4219 260.997H21.4363L21.4219 261.029H21.4363L21.4219 261.06H21.4363L21.4219 261.092H21.4363L21.4219 261.124H21.4363L21.4219 261.155H21.4363L21.4219 261.187H21.4363L21.4219 261.217H21.4363L21.4219 261.248H21.4363L21.4219 261.28H21.4363L21.4219 261.311H21.4363L21.4219 261.343H21.4363L21.4219 261.375H21.4363L21.4219 261.405H21.4363L21.4219 261.436H21.4363L21.4219 261.467H21.4363L21.4219 261.499H21.4363L21.4219 261.53H21.4363L21.4219 261.562H21.4363L21.4219 261.593H21.4363L21.4219 261.625H21.4363L21.4219 261.656H21.4363L21.4219 261.686H21.4363L21.4219 261.718H21.4363L21.4219 261.75H21.4363L21.4219 261.781H21.4363L21.4219 261.813H21.4363L21.4219 261.844H21.4363L21.4219 261.875H21.4363L21.4219 261.906H21.4363L21.4219 261.937H21.4363L21.4219 261.968H21.4363L21.4219 262H21.4363L21.4219 262.031H21.4363L21.4219 262.063H21.4363L21.4219 262.094H21.4363L21.4219 262.125H21.4363L21.4219 262.156H21.4363L21.4219 262.187H21.4363L21.4219 262.218H21.4363L21.4219 262.249H21.4363L21.4219 262.281H21.4363L21.4219 262.312H21.4363L21.4219 262.344H21.4363L21.4219 262.375H21.4363L21.4219 262.406H21.4363L21.4219 262.437H21.4363L21.4219 262.469H21.4363L21.4219 262.5H21.4363L21.4219 262.532H21.4363L21.4219 262.563H21.4363L21.4219 262.594H21.4363L21.4219 262.625H21.4363L21.4219 262.656H21.4363L21.4219 262.688H21.4363L21.4219 262.719H21.4363L21.4219 262.751H21.4363L21.4219 262.782L29.2946 264L30.8284 260.695C32.6063 260.647 34.3711 260.375 36.0805 259.883L40.2698 262.302L46.0327 258.975L46.0039 258.958L46.0327 258.941L46.0039 258.924L46.0327 258.908L46.0039 258.891L46.0327 258.874L46.0039 258.857L46.0327 258.84L46.0039 258.824L46.0327 258.807L46.0039 258.79L46.0327 258.773L46.0039 258.757L46.0327 258.74L46.0039 258.723L46.0327 258.707L46.0039 258.689L46.0327 258.673L46.0039 258.656L46.0327 258.639L46.0039 258.623L46.0327 258.606L46.0039 258.589L46.0327 258.572L46.0039 258.556L46.0327 258.539L46.0039 258.522L46.0327 258.506L46.0039 258.489L46.0327 258.472L46.0039 258.455L46.0327 258.439L46.0039 258.421L46.0327 258.405L46.0039 258.388L46.0327 258.371L46.0039 258.355L46.0327 258.338L46.0039 258.321L46.0327 258.304L46.0039 258.288L46.0327 258.271L46.0039 258.254L46.0327 258.238L46.0039 258.22L46.0327 258.204L46.0039 258.187L46.0327 258.17L46.0039 258.153L46.0327 258.137L46.0039 258.12L46.0327 258.103L46.0039 258.087L46.0327 258.07L46.0039 258.053L46.0327 258.036L46.0039 258.02L46.0327 258.003L46.0039 257.986L46.0327 257.97L46.0039 257.952L46.0327 257.936L46.0039 257.919L46.0327 257.902L46.0039 257.885L46.0327 257.869L46.0039 257.852L46.0327 257.835L46.0039 257.819L46.0327 257.802L46.0039 257.785L46.0327 257.768L46.0039 257.752L46.0327 257.735L46.0039 257.718L46.0327 257.701L46.0039 257.684L46.0327 257.668L46.0039 257.651L46.0327 257.634L46.0039 257.618L46.0327 257.601L46.0039 257.584L46.0327 257.567L46.0039 257.551L46.0327 257.533L46.0039 257.517L46.0327 257.501L46.0039 257.483L46.0327 257.467L46.0039 257.45L46.0327 257.433L46.0039 257.416L46.0327 257.4L46.0039 257.383L46.0327 257.366L46.0039 257.35L46.0327 257.333L46.0039 257.316L46.0327 257.299L46.0039 257.283L46.0327 257.265L46.0039 257.249L46.0327 257.232L46.0039 257.215L46.0327 257.199L46.0039 257.182L46.0327 257.165L46.0039 257.148L46.0327 257.132L46.0039 257.115L46.0327 257.098L46.0039 257.082L46.0327 257.064L46.0039 257.048L46.0327 257.031L46.0039 257.014L46.0327 256.998L46.0039 256.981L46.0327 256.964L46.0039 256.947L46.0327 256.931L46.0039 256.914L46.0327 256.897L46.0039 256.88L46.0327 256.864L46.0039 256.847L46.0327 256.83L46.0039 256.814L46.0327 256.796L46.0039 256.78L46.0327 256.763L46.0039 256.746L46.0327 256.73L46.0039 256.713L46.0327 256.696L46.0039 256.679L46.0327 256.663L46.0039 256.646L46.0327 256.629L46.0039 256.613L46.0327 256.596L46.0039 256.579L46.0327 256.562L46.0039 256.545L46.0327 256.528L46.0039 256.512L46.0327 256.495L46.0039 256.478L46.0327 256.462L46.0039 256.445L46.0327 256.428L46.0039 256.411L46.0327 256.395L46.0039 256.378L46.0327 256.361L46.0039 256.345L46.0327 256.327L46.0039 256.311L46.0327 256.294L46.0039 256.277L46.0327 256.26L46.0039 256.244L46.0327 256.227L46.0039 256.21L46.0327 256.194L46.0039 256.177L46.0327 256.16L46.0039 256.143L46.0327 256.127L46.0039 256.11L46.0327 256.093L46.0039 256.076L46.0327 256.059L46.0039 256.043L46.0327 256.026L46.0039 256.009L46.0327 255.993L46.0039 255.976L46.0327 255.959L46.0039 255.942L46.0327 255.926L46.0039 255.908L46.0327 255.892L46.0039 255.875L46.0327 255.858L46.0039 255.842L46.0327 255.825L46.0039 255.808L46.0327 255.791L46.0039 255.775L46.0327 255.758L46.0039 255.741L46.0327 255.725L46.0039 255.708L46.0327 255.691L46.0039 255.674L46.0327 255.658L46.0039 255.64L46.0327 255.624L46.0039 255.607L46.0327 255.59L40.2698 259.142Z" fill="url(#paint12_linear)"/>
<path d="M48.9588 249.48H48.9732L43.2493 250.366C43.1172 251.501 42.6245 252.564 41.8438 253.399L43.1883 254.175C43.2151 254.034 43.2363 253.892 43.2493 253.75L48.9732 252.865L48.9588 252.833H48.9732L48.9588 252.802H48.9732L48.9588 252.771H48.9732L48.9588 252.74H48.9732L48.9588 252.709H48.9732L48.9588 252.677H48.9732L48.9588 252.646H48.9732L48.9588 252.614H48.9732L48.9588 252.583H48.9732L48.9588 252.552H48.9732L48.9588 252.521H48.9732L48.9588 252.49H48.9732L48.9588 252.459H48.9732L48.9588 252.428H48.9732L48.9588 252.396H48.9732L48.9588 252.365H48.9732L48.9588 252.334H48.9732L48.9588 252.303H48.9732L48.9588 252.272H48.9732L48.9588 252.241H48.9732L48.9588 252.21H48.9732L48.9588 252.178H48.9732L48.9588 252.147H48.9732L48.9588 252.115H48.9732L48.9588 252.084H48.9732L48.9588 252.053H48.9732L48.9588 252.023H48.9732L48.9588 251.992H48.9732L48.9588 251.96H48.9732L48.9588 251.929H48.9732L48.9588 251.897H48.9732L48.9588 251.866H48.9732L48.9588 251.835H48.9732L48.9588 251.804H48.9732L48.9588 251.772H48.9732L48.9588 251.741H48.9732L48.9588 251.709H48.9732L48.9588 251.678H48.9732L48.9588 251.646H48.9732L48.9588 251.615H48.9732L48.9588 251.584H48.9732L48.9588 251.553H48.9732L48.9588 251.522H48.9732L48.9588 251.491H48.9732L48.9588 251.459H48.9732L48.9588 251.427H48.9732L48.9588 251.396H48.9732L48.9588 251.365H48.9732L48.9588 251.334H48.9732L48.9588 251.303H48.9732L48.9588 251.272H48.9732L48.9588 251.24H48.9732L48.9588 251.209H48.9732L48.9588 251.177H48.9732L48.9588 251.146H48.9732L48.9588 251.116H48.9732L48.9588 251.085H48.9732L48.9588 251.054H48.9732L48.9588 251.022H48.9732L48.9588 250.991H48.9732L48.9588 250.959H48.9732L48.9588 250.928H48.9732L48.9588 250.897H48.9732L48.9588 250.866H48.9732L48.9588 250.835H48.9732L48.9588 250.804H48.9732L48.9588 250.772H48.9732L48.9588 250.74H48.9732L48.9588 250.709H48.9732L48.9588 250.678H48.9732L48.9588 250.647H48.9732L48.9588 250.616H48.9732L48.9588 250.586H48.9732L48.9588 250.554H48.9732L48.9588 250.522H48.9732L48.9588 250.491H48.9732L48.9588 250.459H48.9732L48.9588 250.428H48.9732L48.9588 250.398H48.9732L48.9588 250.367H48.9732L48.9588 250.335H48.9732L48.9588 250.304H48.9732L48.9588 250.272H48.9732L48.9588 250.241H48.9732L48.9588 250.21H48.9732L48.9588 250.179H48.9732L48.9588 250.148H48.9732L48.9588 250.117H48.9732L48.9588 250.085H48.9732L48.9588 250.053H48.9732L48.9588 250.022H48.9732L48.9588 249.991H48.9732L48.9588 249.96H48.9732L48.9588 249.929H48.9732L48.9588 249.898H48.9732L48.9588 249.867H48.9732L48.9588 249.835H48.9732L48.9588 249.804H48.9732L48.9588 249.772H48.9732L48.9588 249.741H48.9732L48.9588 249.48Z" fill="url(#paint13_linear)"/>
<path d="M38.6051 244.163L38.83 243.679H38.8156L38.83 243.648H38.8156L38.83 243.617H38.8156L38.83 243.586H38.8156L38.83 243.555H38.8156L38.83 243.524H38.8156L38.83 243.492H38.8156L38.83 243.46H38.8156L38.83 243.429H38.8156L38.83 243.398H38.8156L38.83 243.367H38.8156L38.83 243.336H38.8156L38.83 243.305H38.8156L38.83 243.273H38.8156L38.83 243.242H38.8156L38.83 243.21H38.8156L38.83 243.179H38.8156L38.83 243.148H38.8156L38.83 243.117H38.8156L38.83 243.085H38.8156L38.83 243.054H38.8156L38.83 243.022H38.8156L38.83 242.991H38.8156L38.83 242.959H38.8156L38.83 242.928H38.8156L38.83 242.898H38.8156L38.83 242.867H38.8156L38.83 242.835H38.8156L38.83 242.804H38.8156L38.83 242.772H38.8156L38.83 242.741H38.8156L38.83 242.71H38.8156L38.83 242.679H38.8156L38.83 242.648H38.8156L38.83 242.616H38.8156L38.83 242.585H38.8156L38.83 242.553H38.8156L38.83 242.522H38.8156L38.83 242.491H38.8156L38.83 242.46H38.8156L38.83 242.429H38.8156L38.83 242.398H38.8156L38.83 242.367H38.8156L38.83 242.335H38.8156L38.83 242.304H38.8156L38.83 242.272H38.8156L38.83 242.241H38.8156L38.83 242.211H38.8156L38.83 242.18H38.8156L38.83 242.149H38.8156L38.83 242.117H38.8156L38.83 242.086H38.8156L38.83 242.054H38.8156L38.83 242.023H38.8156L38.83 241.992H38.8156L38.83 241.961H38.8156L38.83 241.93H38.8156L38.83 241.899H38.8156L38.83 241.867H38.8156L38.83 241.835H38.8156L38.83 241.804H38.8156L38.83 241.773H38.8156L38.83 241.742H38.8156L38.83 241.711H38.8156L38.83 241.681H38.8156L38.83 241.649H38.8156L38.83 241.617H38.8156L38.83 241.586H38.8156L38.83 241.554H38.8156L38.83 241.524H38.8156L38.83 241.493H38.8156L38.83 241.461H38.8156L38.83 241.43H38.8156L38.83 241.398H38.8156L38.83 241.367H38.8156L38.83 241.335H38.8156L38.83 241.304H38.8156L38.83 241.273H38.8156L38.83 241.242H38.8156L38.83 241.212H38.8156L38.83 241.18H38.8156L38.83 241.148H38.8156L38.83 241.117H38.8156L38.83 241.085H38.8156L38.83 241.055H38.8156L38.83 241.024H38.8156L38.83 240.993H38.8156L38.83 240.961H38.8156L38.83 240.93H38.8156L38.83 240.898H38.8156L38.83 240.867H38.8156L38.83 240.836H38.8156L38.83 240.805H38.8156L38.83 240.774H38.8156L38.83 240.743H38.8156L38.83 240.711H38.8156L38.83 240.679H38.8156L38.83 240.648H38.8156L38.83 240.616H38.8156L38.83 240.586H38.8156L38.83 240.555H38.8156L37.2969 243.827C37.7487 243.997 38.1882 244.187 38.6058 244.392L38.6051 244.163Z" fill="url(#paint14_linear)"/>
<path d="M17.0635 249.128C17.2688 248.154 17.7333 247.254 18.4081 246.522L14.2188 244.104L14.2482 244.12L14.2188 244.138L14.2482 244.154L14.2188 244.171L14.2482 244.188L14.2188 244.205L14.2482 244.221L14.2188 244.238L14.2482 244.255L14.2188 244.271L14.2482 244.288L14.2188 244.305L14.2482 244.321L14.2188 244.338L14.2482 244.355L14.2188 244.372L14.2482 244.389L14.2188 244.406L14.2482 244.422L14.2188 244.439L14.2482 244.456L14.2188 244.472L14.2482 244.489L14.2188 244.506L14.2482 244.523L14.2188 244.539L14.2482 244.557L14.2188 244.573L14.2482 244.589L14.2188 244.607L14.2482 244.623L14.2188 244.64L14.2482 244.657L14.2188 244.674L14.2482 244.69L14.2188 244.707L14.2482 244.724L14.2188 244.74L14.2482 244.757L14.2188 244.774L14.2482 244.791L14.2188 244.807L14.2482 244.824L14.2188 244.841L14.2482 244.858L14.2188 244.875L14.2482 244.891L14.2188 244.908L14.2482 244.925L14.2188 244.941L14.2482 244.958L14.2188 244.975L14.2482 244.992L14.2188 245.008L14.2482 245.026L14.2188 245.042L14.2482 245.058L14.2188 245.076L14.2482 245.092L14.2188 245.109L14.2482 245.126L14.2188 245.143L14.2482 245.159L14.2188 245.176L14.2482 245.193L14.2188 245.209L14.2482 245.226L14.2188 245.243L14.2482 245.26L14.2188 245.276L14.2482 245.294L14.2188 245.31L14.2482 245.327L14.2188 245.344L14.2482 245.36L14.2188 245.377L14.2482 245.394L14.2188 245.411L14.2482 245.427L14.2188 245.444L14.2482 245.461L14.2188 245.477L14.2482 245.495L14.2188 245.511L14.2482 245.528L14.2188 245.545L14.2482 245.562L14.2188 245.578L14.2482 245.595L14.2188 245.612L14.2482 245.628L14.2188 245.645L14.2482 245.662L14.2188 245.679L14.2482 245.695L14.2188 245.712L14.2482 245.729L14.2188 245.745L14.2482 245.763L14.2188 245.779L14.2482 245.796L14.2188 245.813L14.2482 245.83L14.2188 245.846L14.2482 245.863L14.2188 245.88L14.2482 245.896L14.2188 245.913L14.2482 245.93L14.2188 245.946L14.2482 245.964L14.2188 245.98L14.2482 245.997L14.2188 246.014L14.2482 246.031L14.2188 246.047L14.2482 246.064L14.2188 246.081L14.2482 246.097L14.2188 246.114L14.2482 246.131L14.2188 246.148L14.2482 246.164L14.2188 246.182L14.2482 246.198L14.2188 246.214L14.2482 246.232L14.2188 246.248L14.2482 246.265L14.2188 246.282L14.2482 246.299L14.2188 246.315L14.2482 246.332L14.2188 246.349L14.2482 246.365L14.2188 246.382L14.2482 246.399L14.2188 246.416L14.2482 246.432L14.2188 246.449L14.2482 246.466L14.2188 246.483L14.2482 246.5L14.2188 246.516L14.2482 246.533L14.2188 246.55L14.2482 246.566L14.2188 246.583L14.2482 246.6L14.2188 246.617L14.2482 246.633L14.2188 246.651L14.2482 246.667L14.2188 246.684L14.2482 246.701L14.2188 246.717L14.2482 246.734L14.2188 246.751L14.2482 246.768L14.2188 246.784L14.2482 246.801L14.2188 246.818L14.2482 246.834L14.2188 246.851L14.2482 246.868L14.2188 246.885L14.2482 246.901L14.2188 246.919L14.2482 246.935L14.2188 246.952L14.2482 246.969L14.2188 246.985L14.2482 247.002L14.2188 247.019L14.2482 247.036L14.2188 247.052L14.2482 247.069L14.2188 247.086L14.2482 247.102L14.2188 247.12L14.2482 247.136L14.2188 247.153L14.2482 247.17L14.2188 247.187L14.2482 247.203L14.2188 247.22L14.2482 247.237L14.2188 247.253L14.2482 247.27L14.2188 247.287L14.2482 247.304L14.2188 247.32L14.2482 247.337L14.2188 247.354L14.2482 247.37L14.2188 247.388L14.2482 247.404L14.2188 247.421L14.2482 247.438L14.2188 247.454L14.2482 247.471L14.2188 247.488L17.0635 249.128Z" fill="url(#paint15_linear)"/>
<defs>
<linearGradient id="paint0_linear" x1="262.733" y1="31.037" x2="219.982" y2="126.398" gradientUnits="userSpaceOnUse">
<stop stop-color="#B4B4FF"/>
<stop offset="1" stop-color="#1919C7"/>
</linearGradient>
<linearGradient id="paint1_linear" x1="152.305" y1="177.958" x2="121.111" y2="258.833" gradientUnits="userSpaceOnUse">
<stop stop-color="#B4B4FF"/>
<stop offset="1" stop-color="#1919C7"/>
</linearGradient>
<linearGradient id="paint2_linear" x1="31375.1" y1="6212.28" x2="26200.5" y2="6385.37" gradientUnits="userSpaceOnUse">
<stop stop-color="#E8E9FF"/>
<stop offset="1" stop-color="#C0C0F6"/>
</linearGradient>
<linearGradient id="paint3_linear" x1="9828.67" y1="1820.09" x2="10426.7" y2="1820.09" gradientUnits="userSpaceOnUse">
<stop stop-color="#B6B9FE"/>
<stop offset="1" stop-color="#5861D6"/>
</linearGradient>
<linearGradient id="paint4_linear" x1="8811.62" y1="3014.14" x2="8305.46" y2="2852.68" gradientUnits="userSpaceOnUse">
<stop stop-color="#B6B9FE"/>
<stop offset="1" stop-color="#5861D6"/>
</linearGradient>
<linearGradient id="paint5_linear" x1="20334" y1="2868.51" x2="18121.4" y2="2993.47" gradientUnits="userSpaceOnUse">
<stop stop-color="#B6B9FE"/>
<stop offset="1" stop-color="#5861D6"/>
</linearGradient>
<linearGradient id="paint6_linear" x1="6247.46" y1="1495.79" x2="5937.67" y2="1596.86" gradientUnits="userSpaceOnUse">
<stop stop-color="#B6B9FE"/>
<stop offset="1" stop-color="#5861D6"/>
</linearGradient>
<linearGradient id="paint7_linear" x1="1493.94" y1="1102.71" x2="1485.02" y2="1102.78" gradientUnits="userSpaceOnUse">
<stop stop-color="#E8E9FF"/>
<stop offset="1" stop-color="#C0C0F6"/>
</linearGradient>
<linearGradient id="paint8_linear" x1="3043.49" y1="1429.69" x2="3190.98" y2="1491.78" gradientUnits="userSpaceOnUse">
<stop stop-color="#B6B9FE"/>
<stop offset="1" stop-color="#5861D6"/>
</linearGradient>
<linearGradient id="paint9_linear" x1="5872.63" y1="4276.7" x2="3982.02" y2="4339.92" gradientUnits="userSpaceOnUse">
<stop stop-color="#E8E9FF"/>
<stop offset="1" stop-color="#C0C0F6"/>
</linearGradient>
<linearGradient id="paint10_linear" x1="1588.22" y1="1355.25" x2="1806.67" y2="1355.25" gradientUnits="userSpaceOnUse">
<stop stop-color="#B6B9FE"/>
<stop offset="1" stop-color="#5861D6"/>
</linearGradient>
<linearGradient id="paint11_linear" x1="1437.57" y1="2055.3" x2="1252.71" y2="1996.32" gradientUnits="userSpaceOnUse">
<stop stop-color="#B6B9FE"/>
<stop offset="1" stop-color="#5861D6"/>
</linearGradient>
<linearGradient id="paint12_linear" x1="3756.07" y1="1941.55" x2="2947.77" y2="1987.23" gradientUnits="userSpaceOnUse">
<stop stop-color="#B6B9FE"/>
<stop offset="1" stop-color="#5861D6"/>
</linearGradient>
<linearGradient id="paint13_linear" x1="1173.06" y1="1128.27" x2="1059.88" y2="1165.19" gradientUnits="userSpaceOnUse">
<stop stop-color="#B6B9FE"/>
<stop offset="1" stop-color="#5861D6"/>
</linearGradient>
<linearGradient id="paint14_linear" x1="254.965" y1="911.277" x2="251.708" y2="911.302" gradientUnits="userSpaceOnUse">
<stop stop-color="#E8E9FF"/>
<stop offset="1" stop-color="#C0C0F6"/>
</linearGradient>
<linearGradient id="paint15_linear" x1="428.026" y1="1130.37" x2="481.903" y2="1153.07" gradientUnits="userSpaceOnUse">
<stop stop-color="#B6B9FE"/>
<stop offset="1" stop-color="#5861D6"/>
</linearGradient>
</defs>
</svg>
