<svg width="152" height="277" viewBox="0 0 152 277" fill="none" xmlns="http://www.w3.org/2000/svg">
<path d="M68.1619 152.531V99.7119H64.8799V154.574C65.9732 153.89 67.0672 153.209 68.1619 152.531Z" fill="#D6D6FF"/>
<path d="M99.532 136.059L99.58 82.7539H96.297L96.249 137.607C97.3424 137.087 98.4367 136.571 99.532 136.059Z" fill="#D6D6FF"/>
<path d="M79.2088 146.191V95.231H75.9268V147.951C77.0138 147.352 78.1158 146.778 79.2088 146.191Z" fill="#D6D6FF"/>
<path d="M89.4002 140.92V82.6279H86.1172V142.58C87.2122 142.025 88.3002 141.465 89.4002 140.92Z" fill="#D6D6FF"/>
<path d="M118.009 34.565C121.158 36.758 125.318 38.109 129.009 39.053C130.485 39.4306 131.991 39.6825 133.509 39.806C133.928 37.835 134.191 35.8342 134.296 33.822C141.141 33.857 139.772 24.335 139.772 24.335L122.553 14.977C122.1 14.668 121.624 14.3932 121.129 14.155L121.078 14.126C117.366 12.344 112.548 12.562 107.221 15.114C104.443 20.515 113.371 31.333 118.009 34.565Z" fill="url(#paint0_linear)"/>
<path d="M27.2998 120.951L85.1628 87.5439C80.1978 82.8319 75.4188 77.9309 70.3628 73.3059C63.8388 67.3329 56.9977 61.6479 50.8997 55.2279C46.6877 50.7929 37.2628 43.2119 33.2168 38.6279C27.0528 45.8829 22.8428 55.7149 22.8428 64.2489C22.8294 65.9398 23.0212 67.6262 23.4138 69.2709C22.8138 69.5579 22.2138 69.8709 21.5978 70.2239C10.0428 76.8949 0.676758 93.0509 0.676758 106.31C0.676758 112.846 2.95575 117.453 6.64775 119.65H6.63776L6.77475 119.729L6.82675 119.759L24.7548 129.552L27.5547 121.623L25.8788 121.705C26.3538 121.473 26.8248 121.226 27.2998 120.951Z" fill="url(#paint1_linear)"/>
<path d="M87.3718 86.269L88.2068 85.787C85.6068 83.715 83.0131 81.6336 80.4258 79.543C82.7308 81.8 85.0318 84.052 87.3718 86.269Z" fill="#52A5EA"/>
<path d="M127.134 41.041C122.807 39.741 117.95 38.141 114.647 34.92C112.683 32.9155 111.226 30.4712 110.397 27.7902C109.568 25.1093 109.391 22.2691 109.881 19.506C109.499 19.7473 109.119 19.996 108.743 20.252C108.602 18.5507 108.3 16.8666 107.843 15.222C109.681 14.6152 111.372 13.6312 112.808 12.333L95.1127 2.67001C95.0487 2.63201 94.9847 2.59401 94.9197 2.55801L94.8587 2.52201C89.8187 -0.27799 82.9007 0.197009 75.2587 4.60801C66.5857 9.61601 58.8357 18.629 53.7147 28.708C50.4917 27.794 46.4867 28.462 42.1467 30.968C39.4488 32.5659 36.991 34.5382 34.8467 36.826C39.3087 41.863 49.0807 49.956 53.8157 54.751C54.7363 55.6843 55.6697 56.603 56.6157 57.507C56.8835 57.5208 57.1399 57.6196 57.3477 57.789C68.4237 66.631 79.3477 75.673 90.4477 84.489L108.873 73.851V73.745C109.541 73.425 110.215 73.077 110.897 72.683C121.05 66.821 129.697 54.422 132.951 42.183C130.979 41.9961 129.03 41.6135 127.134 41.041V41.041Z" fill="url(#paint2_linear)"/>
<path d="M42.1444 30.968C31.4874 37.121 22.8444 52.022 22.8444 64.251C22.8311 65.9419 23.0228 67.6282 23.4154 69.2729L41.0874 78.927C86.6044 85.635 71.3794 38.359 71.3794 38.359L53.7094 28.708C50.4894 27.794 46.4844 28.462 42.1444 30.968Z" fill="url(#paint3_linear)"/>
<path d="M146.311 39.1939C146.311 54.0519 135.818 72.1529 122.872 79.6269C122.405 79.8959 121.948 80.1439 121.491 80.3719C121.278 80.4819 121.059 80.5859 120.845 80.6899V80.7899L90.7257 98.1809L77.9087 105.581L39.2727 127.888C38.1447 128.546 36.9655 129.113 35.7467 129.582C25.8747 133.361 18.3467 127.839 18.3467 115.96C18.3467 102.701 27.7177 86.5459 39.2687 79.8719C39.8847 79.5189 40.4857 79.2059 41.0867 78.9229C40.6934 77.2773 40.5016 75.5899 40.5157 73.8979C40.5157 62.6739 47.7957 49.1979 57.2307 42.3029C58.0617 41.6957 58.9239 41.1323 59.8137 40.6149C64.1537 38.1149 68.1567 37.4419 71.3787 38.3549C76.4987 28.2789 84.2507 19.2659 92.9217 14.2549C95.4984 12.7253 98.2936 11.5983 101.211 10.9129C104.8 9.98156 108.601 10.3237 111.967 11.8809C116.819 14.2699 120.052 19.5539 120.712 27.1869C121.422 26.7049 122.138 26.2479 122.868 25.8259C127.585 23.0999 131.98 22.1659 135.66 22.8019C142.075 23.8999 146.311 29.7529 146.311 39.1939Z" fill="#DCFFFF"/>
<path d="M143.483 39.188C143.483 45.888 141.177 53.546 137 60.766C133.042 67.59 127.9 73.159 122.424 76.598C122.097 76.798 121.782 76.998 121.455 77.185C121.019 77.4303 120.609 77.6486 120.227 77.84C120.076 77.9253 119.921 78.0027 119.763 78.072L118.016 78.918V79.164L91.6606 94.381L78.8446 101.781L37.8596 125.445C37.4366 125.69 37.0136 125.922 36.6046 126.127C35.9956 126.432 35.3715 126.705 34.7346 126.946C33.1891 127.571 31.5426 127.91 29.8756 127.946C24.4306 127.946 21.1816 123.469 21.1816 115.963C21.1932 113.851 21.4278 111.747 21.8816 109.685C22.7007 105.897 24.0422 102.24 25.8676 98.821C26.1946 98.166 26.5676 97.511 26.9316 96.869C30.6316 90.482 35.5316 85.309 40.6886 82.32C41.2216 82.02 41.7536 81.747 42.2996 81.488L44.3876 80.505L43.8416 78.253C43.5024 76.8316 43.3375 75.3742 43.3506 73.913C43.3506 68.167 45.4656 61.657 48.8916 55.925C50.8537 52.5876 53.2853 49.5496 56.1116 46.904C56.9965 46.0779 57.9316 45.3075 58.9116 44.597C59.6617 44.0463 60.4404 43.5359 61.2446 43.068C63.4207 41.7027 65.9125 40.9225 68.4786 40.803C69.2018 40.8 69.9223 40.8918 70.6216 41.076L72.8596 41.717L73.9106 39.643C78.9876 29.643 86.4396 21.272 94.3416 16.714C96.266 15.5817 98.319 14.6837 100.457 14.039C100.921 13.902 101.371 13.779 101.822 13.684C103.016 13.408 104.238 13.2661 105.465 13.261C107.282 13.2377 109.081 13.6347 110.72 14.421C110.911 14.516 111.102 14.612 111.279 14.721C113.804 16.264 115.7 18.653 116.63 21.463C117.323 23.3891 117.755 25.3998 117.913 27.441L118.322 32.232L120.082 31.032L122.307 29.532C123.017 29.055 123.672 28.645 124.286 28.277C125 27.8609 125.738 27.4873 126.497 27.158C128.646 26.103 130.996 25.5213 133.39 25.452C133.926 25.444 134.461 25.4849 134.99 25.574C135.057 25.5767 135.124 25.5861 135.19 25.602C140.467 26.5 143.483 31.45 143.483 39.188Z" fill="url(#paint4_linear)"/>
<path d="M109.487 14.3299C109.676 14.4239 109.866 14.5229 110.047 14.6299C113.805 16.7749 116.147 21.2599 116.674 27.3469L117.023 31.3879L118.317 32.2329L117.901 27.4329C117.373 21.3459 115.033 16.8609 111.274 14.7159C111.094 14.6089 110.904 14.5099 110.715 14.4159C109.19 13.6789 107.522 13.2857 105.829 13.2639C107.1 13.4071 108.338 13.7677 109.487 14.3299V14.3299Z" fill="#1919C7"/>
<path d="M135.183 25.5919C135.118 25.5799 135.053 25.5689 134.983 25.5629C134.501 25.4873 134.015 25.4475 133.527 25.4438C133.603 25.4548 133.68 25.4638 133.755 25.4758C133.83 25.4878 133.888 25.4928 133.955 25.5048C139.234 26.4048 142.255 31.3599 142.255 39.1049C142.255 45.8049 139.955 53.4618 135.772 60.6738C131.815 67.4958 126.672 73.0739 121.187 76.5139C120.867 76.7139 120.548 76.9058 120.229 77.0928C119.788 77.3438 119.381 77.5649 118.996 77.7569C118.83 77.8419 118.683 77.9118 118.539 77.9828L116.789 78.8369V79.0739L90.4312 94.2919L77.6182 101.692L36.6292 125.357C36.2082 125.6 35.7872 125.829 35.3682 126.035C34.7442 126.349 34.1222 126.623 33.5092 126.858C31.9636 127.481 30.3173 127.817 28.6512 127.85H28.6182C29.036 127.908 29.4573 127.937 29.8792 127.938C31.5453 127.905 33.1916 127.569 34.7372 126.946C35.3502 126.711 35.9722 126.437 36.5962 126.123C37.0142 125.917 37.4362 125.688 37.8572 125.445L78.8462 101.78L91.6592 94.3799L118.017 79.1618V78.9249L119.767 78.0708C119.911 78.0008 120.058 77.9298 120.224 77.8448C120.609 77.6528 121.016 77.4318 121.457 77.1808C121.776 76.9938 122.095 76.8019 122.414 76.6019C127.897 73.1649 133.043 67.5838 137 60.7618C141.179 53.5498 143.483 45.8908 143.483 39.1928C143.486 31.4468 140.462 26.4899 135.183 25.5919Z" fill="#1919C7"/>
<path d="M69.3862 40.991L71.6212 41.624L71.7372 41.396L70.6132 41.078C69.9184 40.887 69.2007 40.7921 68.4802 40.796H68.4512C68.7667 40.8411 69.079 40.9062 69.3862 40.991V40.991Z" fill="#428BD0"/>
<path d="M39.2726 83.0209C39.8886 82.6679 40.4896 82.3549 41.0906 82.0719C40.8595 81.1147 40.7024 80.1412 40.6206 79.1599C40.1746 79.3819 39.7286 79.6149 39.2726 79.8759C27.7216 86.5499 18.3506 102.705 18.3506 115.964C18.3506 116.493 18.3706 117.005 18.4006 117.509C19.1066 104.575 28.1816 89.4289 39.2726 83.0209Z" fill="#DCFFFF"/>
<path d="M57.2346 45.4529C58.0654 44.8451 58.9276 44.2813 59.8176 43.7639C64.1576 41.2639 68.1606 40.5909 71.3826 41.5049C76.5026 31.4279 84.2546 22.4149 92.9256 17.4049C95.5023 15.8753 98.2975 14.7483 101.215 14.0629C104.804 13.1314 108.605 13.4738 111.971 15.0319C116.823 17.4199 120.056 22.7039 120.716 30.3319C121.426 29.8499 122.142 29.3929 122.872 28.9709C127.589 26.2449 131.984 25.3109 135.664 25.9469C141.719 26.9789 145.829 32.2629 146.264 40.7989C146.29 40.2589 146.307 39.7219 146.307 39.1899C146.307 29.7489 142.071 23.8899 135.66 22.8019C131.98 22.1659 127.585 23.1019 122.868 25.8259C122.138 26.2479 121.422 26.7049 120.712 27.1869C120.052 19.5539 116.819 14.2699 111.967 11.8809C108.601 10.3237 104.8 9.98156 101.211 10.9129C98.2935 11.5983 95.4983 12.7253 92.9216 14.2549C84.2506 19.2659 76.4986 28.2789 71.3786 38.3549C68.1566 37.4419 64.1536 38.1119 59.8136 40.6149C58.9238 41.1323 58.0617 41.6957 57.2306 42.3029C47.7956 49.1959 40.5156 62.6739 40.5156 73.9029C40.5156 74.4329 40.5356 74.9449 40.5686 75.4469C41.2146 64.5669 48.2436 52.0209 57.2346 45.4529Z" fill="#DCFFFF"/>
<path d="M135.674 22.808C131.984 22.162 127.581 23.108 122.875 25.829C122.138 26.244 121.423 26.705 120.708 27.189C120.062 19.557 116.808 14.276 111.969 11.879C108.606 10.326 104.81 9.9837 101.224 10.91C98.3024 11.5942 95.5033 12.7216 92.9235 14.253C84.2535 19.28 76.5065 28.273 71.3875 38.353C68.1585 37.453 64.1465 38.1231 59.8125 40.6131C58.922 41.1358 58.0598 41.7052 57.2295 42.319C47.7995 49.219 40.5125 62.679 40.5125 73.909C40.5022 75.6014 40.6956 77.2889 41.0885 78.935C40.4885 79.212 39.8885 79.535 39.2675 79.881C27.7155 86.545 18.3535 102.708 18.3535 115.967C18.3535 127.842 25.8705 133.376 35.7395 129.594C36.9632 129.13 38.1438 128.559 39.2675 127.888L44.7095 124.752L47.4525 123.184L52.9425 120L65.7425 112.621L73.9745 107.848L77.9175 105.589L86.7485 100.489L89.4925 98.898L90.7385 98.183L92.2385 97.33L94.9815 95.739L120.849 80.8V80.685C121.056 80.593 121.287 80.478 121.494 80.362C121.968 80.1431 122.43 79.8967 122.877 79.624C135.813 72.153 146.305 54.053 146.305 39.203C146.305 29.749 142.084 23.892 135.674 22.808ZM122.416 76.608C122.094 76.815 121.794 77.0001 121.448 77.1841C121.01 77.4381 120.618 77.645 120.226 77.853C120.064 77.945 119.903 78.014 119.765 78.083L118.013 78.913V79.1671L94.9765 92.472L92.2335 94.063L91.6565 94.385L89.4885 95.631L86.7445 97.222L78.8365 101.787L73.9705 104.6L68.4835 107.782L65.7385 109.35L52.9385 116.729L44.7065 121.502L37.8575 125.445C37.4425 125.698 37.0045 125.929 36.5895 126.136C35.9665 126.436 35.3445 126.713 34.7215 126.943C33.1845 127.579 31.5425 127.923 29.8795 127.958C24.4145 127.958 21.1865 123.458 21.1865 115.968C21.1962 113.859 21.4282 111.757 21.8785 109.696C22.6902 105.899 24.0331 102.235 25.8675 98.813C26.1905 98.167 26.5595 97.5211 26.9285 96.8761C30.6175 90.4881 35.5285 85.3 40.6705 82.326C41.2245 82.026 41.7545 81.75 42.2845 81.496L44.3845 80.5051L43.8305 78.245C43.4952 76.8248 43.3327 75.3693 43.3465 73.91C43.3465 68.168 45.4685 61.666 48.8805 55.924C50.8465 52.5888 53.2772 49.5503 56.0995 46.9C56.9885 46.0739 57.928 45.3037 58.9125 44.594C59.6735 44.041 60.4575 43.51 61.2415 43.049C63.4215 41.6874 65.915 40.9092 68.4825 40.789C69.1988 40.7841 69.9125 40.8773 70.6035 41.066L72.8625 41.7121L73.9005 39.636C78.9735 29.629 86.4215 21.259 94.3305 16.716C96.2474 15.5728 98.3 14.6744 100.441 14.042C100.926 13.903 101.364 13.765 101.825 13.673C103.02 13.4035 104.241 13.2644 105.467 13.258C107.277 13.2327 109.069 13.6273 110.702 14.411C110.901 14.4968 111.093 14.597 111.278 14.711C113.803 16.2599 115.699 18.6535 116.628 21.467C117.316 23.3919 117.742 25.4006 117.896 27.439L118.311 32.239L120.086 31.017L122.3 29.517C123.015 29.056 123.661 28.641 124.283 28.272C125.021 27.857 125.759 27.465 126.497 27.142C128.648 26.0915 130.998 25.51 133.391 25.436C133.924 25.4363 134.456 25.4825 134.982 25.574C135.052 25.5704 135.122 25.5781 135.19 25.597C140.47 26.497 143.49 31.454 143.49 39.178C143.49 45.888 141.184 53.544 136.99 60.761C133.046 67.587 127.905 73.1671 122.416 76.6001V76.608Z" fill="#B4B4FF"/>
<path d="M73.2024 241.687C74.9756 237.946 76.9487 234.303 79.1133 230.774C79.4182 230.282 80.007 230.243 80.6196 230.594C80.9151 230.774 81.1786 231.002 81.3992 231.268C82.2235 232.246 82.5388 233.605 82.101 234.3C79.9239 237.875 77.9394 241.563 76.156 245.35C73.3905 251.301 72.682 253.918 72.492 255.973C72.3337 256.846 72.4467 257.748 72.8158 258.555C73.1849 259.363 73.7924 260.038 74.5567 260.491C76.4836 261.595 94.7918 272.164 95.7567 272.72C95.969 272.846 96.1638 272.999 96.336 273.176C96.2771 273.12 96.2163 273.059 96.184 273.027L124.251 256.778C124.317 256.837 124.64 257.184 124.686 257.241C124.733 257.298 124.955 257.638 124.983 257.686C125.012 257.733 125.039 257.781 125.063 257.828C125.088 257.876 125.179 258.071 125.205 258.119C125.23 258.166 125.247 258.219 125.267 258.271C125.287 258.324 125.409 258.728 125.424 258.797C125.442 258.874 125.455 258.951 125.463 259.03C125.478 259.139 125.486 259.249 125.486 259.36C125.506 259.567 125.471 259.776 125.384 259.965C125.297 260.155 125.161 260.318 124.991 260.438L96.9552 276.723C96.5499 276.818 96.1247 276.775 95.7462 276.602L72.6041 263.256C71.225 262.416 70.1663 261.139 69.5964 259.629C68.5537 257.051 68.0371 252.693 73.2024 241.687Z" fill="#B7C0EB"/>
<path d="M124.251 255.823C124.317 255.882 124.486 256.048 124.545 256.115C124.605 256.182 124.641 256.228 124.686 256.288C124.732 256.348 124.757 256.383 124.796 256.441C124.835 256.498 124.864 256.535 124.891 256.587C124.923 256.633 124.953 256.681 124.98 256.73C125.008 256.779 125.035 256.826 125.059 256.872C125.086 256.918 125.11 256.965 125.13 257.014C125.154 257.065 125.175 257.115 125.201 257.164C125.226 257.212 125.244 257.259 125.263 257.314C125.283 257.369 125.299 257.42 125.319 257.474C125.338 257.528 125.357 257.586 125.371 257.647C125.385 257.707 125.405 257.772 125.42 257.837C125.438 257.913 125.451 257.991 125.459 258.07C125.474 258.18 125.482 258.29 125.482 258.401C125.502 258.608 125.467 258.817 125.38 259.006C125.293 259.195 125.157 259.358 124.987 259.477L96.9512 275.763C97.1221 275.643 97.2578 275.479 97.3441 275.289C97.4304 275.098 97.4643 274.888 97.4423 274.68C97.4425 274.572 97.4364 274.464 97.4242 274.356C97.4137 274.279 97.4024 274.198 97.3872 274.122C97.372 274.063 97.3568 273.992 97.3378 273.927C97.3188 273.861 97.3064 273.816 97.2855 273.756C97.2646 273.696 97.2494 273.651 97.2266 273.6C97.2038 273.548 97.1858 273.497 97.1659 273.445C97.1459 273.393 97.1213 273.35 97.1004 273.299C97.0795 273.247 97.0509 273.204 97.0253 273.158C96.9996 273.113 96.974 273.063 96.9446 273.016C96.9179 272.965 96.8884 272.916 96.8562 272.868C96.8249 272.822 96.7926 272.773 96.7613 272.724C96.73 272.674 96.6863 272.622 96.6483 272.567C96.6103 272.512 96.5533 272.453 96.5105 272.399C96.4479 272.334 96.2523 272.14 96.1858 272.075L124.251 255.823Z" fill="#EFF1FE"/>
<path d="M100.515 239.938C100.533 240.073 100.581 240.413 100.605 240.542C100.624 240.631 100.649 240.722 100.67 240.813C100.69 240.884 100.715 240.952 100.736 241.022C100.757 241.092 100.778 241.144 100.801 241.204C100.823 241.263 100.842 241.308 100.868 241.36C100.887 241.41 100.908 241.458 100.934 241.505C100.954 241.552 100.978 241.6 101.003 241.643C101.028 241.686 101.048 241.738 101.077 241.779C101.105 241.819 101.127 241.865 101.158 241.912C101.188 241.96 101.217 242.001 101.247 242.044C101.276 242.088 101.319 242.146 101.358 242.195C101.397 242.245 101.447 242.307 101.499 242.36C101.562 242.438 101.892 242.74 101.968 242.813L73.8882 259.067C73.817 258.996 73.5225 258.719 73.4598 258.647L73.3203 258.48C73.2823 258.427 73.2443 258.379 73.2101 258.328L73.1209 258.194C73.0905 258.15 73.0639 258.105 73.0363 258.063C73.0088 258.02 72.9879 257.968 72.967 257.928C72.94 257.882 72.9158 257.835 72.8948 257.786C72.872 257.745 72.8501 257.692 72.8273 257.644C72.8045 257.597 72.7856 257.54 72.7647 257.486C72.7438 257.432 72.7172 257.366 72.6991 257.306C72.6811 257.246 72.6574 257.165 72.6327 257.095C72.6099 257.005 72.5899 256.915 72.569 256.826C72.5405 256.693 72.496 256.369 72.4827 256.233L100.515 239.938Z" fill="url(#paint5_linear)"/>
<path d="M72.5015 256.432L100.538 240.149C100.482 239.676 100.477 239.199 100.524 238.725C100.714 236.676 101.429 234.055 104.194 228.108C105.975 224.322 107.96 220.634 110.138 217.061L82.1 233.34C79.9226 236.915 77.9381 240.604 76.1549 244.391C73.3894 250.34 72.6809 252.959 72.4909 255.011C72.4409 255.482 72.4445 255.957 72.5015 256.427V256.432Z" fill="#EFF1FE"/>
<path d="M80.6128 229.639C80.0003 229.288 79.4114 229.327 79.1066 229.818C76.942 233.348 74.9688 236.991 73.1957 240.732C68.0303 251.74 68.5507 256.1 69.5868 258.668C70.1547 260.18 71.2139 261.457 72.5946 262.296L95.7365 275.641C96.6691 276.182 97.4346 275.753 97.4365 274.68C97.4052 274.095 97.2358 273.525 96.9422 273.018C96.6486 272.51 96.239 272.08 95.747 271.761C94.7821 271.207 76.474 260.635 74.5471 259.531C73.7827 259.078 73.1753 258.403 72.8063 257.595C72.4372 256.787 72.3242 255.886 72.4825 255.013C72.6724 252.96 73.3809 250.341 76.1464 244.392C77.9296 240.605 79.9141 236.916 82.0915 233.341C82.534 232.645 82.214 231.288 81.3897 230.304C81.168 230.042 80.9057 229.818 80.6128 229.639Z" fill="#E4E7FB"/>
<path d="M137.435 113.85C137.53 113.793 137.633 113.74 137.73 113.688C137.803 113.652 137.873 113.622 137.94 113.587C137.964 113.579 137.98 113.566 138 113.561L138.03 113.545C138.125 113.499 138.227 113.455 138.329 113.418C138.377 113.394 138.428 113.376 138.481 113.363C138.508 113.351 138.536 113.34 138.564 113.33C138.587 113.32 138.61 113.312 138.634 113.306C138.735 113.266 138.84 113.235 138.946 113.211C138.971 113.2 138.998 113.192 139.025 113.187C139.059 113.178 139.09 113.167 139.12 113.159L139.262 113.125C139.373 113.103 139.483 113.083 139.595 113.067H139.6C139.613 113.062 139.627 113.059 139.641 113.06C139.744 113.042 139.847 113.03 139.951 113.023C139.989 113.023 140.025 113.023 140.062 113.016C140.113 113.016 140.166 113.016 140.215 113.008C140.264 112.999 140.293 113 140.327 113C140.408 113 140.487 113.008 140.566 113.008C140.608 113.008 140.653 113.008 140.693 113.008H140.736C140.831 113.014 140.921 113.029 141.013 113.042C141.074 113.05 141.138 113.055 141.198 113.066H141.208C141.366 113.092 141.523 113.126 141.677 113.17C142.94 113.51 144.203 113.853 145.464 114.197C145.305 114.151 145.144 114.116 144.98 114.092C144.926 114.084 144.872 114.081 144.819 114.071C144.706 114.058 144.595 114.045 144.484 114.036C144.439 114.036 144.398 114.036 144.354 114.036C144.233 114.029 144.116 114.029 143.997 114.036C143.949 114.036 143.907 114.043 143.856 114.046C143.707 114.052 143.559 114.067 143.412 114.09H143.399C143.233 114.115 143.071 114.149 142.912 114.185C142.879 114.195 142.847 114.199 142.817 114.211C142.67 114.253 142.515 114.297 142.363 114.35C142.325 114.362 142.29 114.377 142.256 114.391C142.098 114.448 141.944 114.51 141.792 114.581C141.768 114.591 141.748 114.602 141.721 114.615C141.553 114.696 141.39 114.78 141.222 114.875L28.0193 175.029L24.231 174.001L137.435 113.85Z" fill="url(#paint6_linear)"/>
<path d="M23.013 187.464L25.1849 266.509C25.2549 266.842 25.3424 267.171 25.447 267.496C25.4526 267.519 25.4599 267.541 25.4688 267.563C25.5662 267.864 25.6811 268.159 25.8127 268.447C25.8174 268.464 25.8307 268.483 25.8374 268.503C25.9612 268.765 26.0988 269.021 26.2495 269.269C26.2675 269.298 26.2884 269.322 26.3046 269.35C26.4242 269.54 26.5572 269.719 26.6911 269.894C26.7424 269.956 26.7928 270.022 26.8469 270.084C26.9514 270.21 27.0653 270.322 27.1802 270.438C27.2638 270.521 27.3493 270.607 27.4357 270.685C27.5554 270.788 27.6826 270.881 27.8041 270.975C27.8924 271.039 27.977 271.112 28.0691 271.17C28.2077 271.258 28.3514 271.338 28.4993 271.409C28.5867 271.456 28.6637 271.504 28.751 271.543C28.985 271.65 29.2273 271.738 29.4756 271.806L25.6845 270.777C25.4361 270.71 25.1936 270.622 24.9598 270.514C24.8867 270.483 24.8145 270.438 24.7385 270.399C24.5818 270.316 24.4299 270.238 24.277 270.14C24.1915 270.084 24.1127 270.019 24.032 269.956C23.8991 269.862 23.7661 269.767 23.6426 269.659C23.56 269.583 23.4821 269.5 23.4043 269.416C23.3264 269.331 23.2218 269.251 23.1354 269.155C23.1079 269.123 23.0852 269.084 23.0576 269.053C23.0054 268.995 22.9626 268.931 22.9095 268.869C22.8458 268.787 22.7765 268.715 22.7138 268.628C22.6511 268.541 22.5866 268.43 22.5239 268.327C22.503 268.296 22.4792 268.267 22.4583 268.232C22.4459 268.214 22.4356 268.2 22.4251 268.182C22.3425 268.047 22.2665 267.909 22.1934 267.768C22.144 267.673 22.0983 267.573 22.0527 267.474L22.0214 267.414C22.0139 267.399 22.01 267.39 21.9977 267.369C21.9454 267.25 21.8942 267.122 21.8448 266.99C21.7954 266.858 21.7498 266.746 21.7061 266.62C21.6985 266.594 21.6928 266.566 21.6805 266.534C21.6733 266.509 21.6645 266.484 21.654 266.459C21.635 266.388 21.6093 266.319 21.5885 266.249C21.5552 266.128 21.5228 266.003 21.4934 265.88C21.4639 265.758 21.4355 265.633 21.4061 265.501V265.477L19.2313 186.431L23.013 187.464Z" fill="#E4E7FB"/>
<path d="M28.0226 175.033C24.3017 177.184 22.0396 182.77 23.014 187.465L25.1859 266.51C26.1603 271.204 29.998 273.275 33.7227 271.131L146.031 206.331C149.755 204.182 152.014 198.594 151.04 193.899L149.759 119.497C148.786 114.807 144.95 112.728 141.224 114.877L28.0226 175.033Z" fill="#EFF1FE"/>
<path d="M146.246 192.931C146.762 192.36 147.145 191.683 147.37 190.947C147.594 190.211 147.653 189.434 147.543 188.673C147.543 188.673 147.543 121.906 147.191 120.298C146.314 116.298 141.309 117.888 141.309 117.888L29.8683 177.099C26.6394 179.267 25.7571 180.739 25.7571 186.442C25.7571 186.442 26.4894 251.23 27.1599 254.211C28.4999 260.154 33.2645 258.115 33.2645 258.115L146.246 192.931Z" fill="url(#paint7_linear)"/>
<path d="M19.0078 184.517C19.0002 184.378 19.0001 184.233 19.0001 184.098C19.0001 183.982 19.0002 183.864 19.0087 183.752V183.657C19.0191 183.505 19.0287 183.353 19.042 183.192C19.0477 183.083 19.06 182.97 19.0733 182.861C19.0737 182.838 19.0763 182.814 19.0809 182.791C19.0823 182.764 19.0823 182.736 19.0809 182.708C19.1047 182.531 19.1283 182.355 19.1587 182.177C19.1692 182.113 19.1796 182.054 19.1929 181.987C19.2062 181.921 19.2148 181.87 19.2243 181.808C19.2395 181.732 19.2518 181.651 19.2679 181.575C19.2993 181.433 19.3316 181.291 19.3705 181.148C19.3838 181.081 19.3981 181.018 19.4142 180.959C19.4218 180.932 19.4256 180.899 19.4332 180.87C19.4589 180.781 19.4873 180.695 19.5139 180.602C19.5785 180.399 19.6383 180.188 19.7038 179.984C19.7181 179.942 19.7296 179.9 19.7438 179.864C19.7704 179.782 19.8055 179.712 19.8302 179.635C19.908 179.429 19.9888 179.223 20.0752 179.025C20.1256 178.901 20.1797 178.781 20.2338 178.663C20.3241 178.464 20.4237 178.27 20.5244 178.077C20.5633 178.002 20.5965 177.925 20.6336 177.857C20.6507 177.826 20.6707 177.796 20.6897 177.768C20.8369 177.5 21.0012 177.239 21.1645 176.984C21.1803 176.957 21.1973 176.931 21.2158 176.905C21.3544 176.699 21.5007 176.496 21.6517 176.302C21.6725 176.275 21.6934 176.252 21.7115 176.227C21.7295 176.201 21.7733 176.156 21.8065 176.119C21.8825 176.024 21.9546 175.929 22.0334 175.841C22.1122 175.754 22.1825 175.68 22.2556 175.598C22.2813 175.573 22.3023 175.549 22.326 175.527C22.3498 175.505 22.3621 175.485 22.3801 175.466C22.4875 175.352 22.6014 175.246 22.7116 175.138C22.7638 175.089 22.816 175.043 22.8702 174.997C22.8892 174.979 22.9147 174.958 22.9375 174.94C22.9603 174.922 22.9927 174.887 23.024 174.861C23.1256 174.776 23.2263 174.689 23.3298 174.607C23.3897 174.561 23.4571 174.512 23.5197 174.468C23.5359 174.46 23.5491 174.445 23.5662 174.435C23.5878 174.418 23.6104 174.402 23.6337 174.388C23.7287 174.319 23.8236 174.255 23.9271 174.186C24.0306 174.118 24.1228 174.064 24.2263 174.005L28.0146 175.033C28.0105 175.035 28.0065 175.037 28.0032 175.04C27.7828 175.169 27.5692 175.308 27.3631 175.458C27.3422 175.473 27.3204 175.487 27.2947 175.505C27.1048 175.646 26.9149 175.8 26.7249 175.961C26.6979 175.983 26.6722 176.006 26.648 176.031C26.4663 176.192 26.2903 176.362 26.12 176.541C26.0868 176.575 26.0563 176.609 26.025 176.645C25.8759 176.797 25.7315 176.969 25.5947 177.137C25.5587 177.184 25.5265 177.218 25.4923 177.262C25.347 177.444 25.2073 177.635 25.0753 177.826C25.0496 177.864 25.0222 177.898 24.9975 177.935C24.8075 178.205 24.6375 178.499 24.4713 178.796C24.4143 178.891 24.3659 178.992 24.3147 179.091C24.2102 179.291 24.1057 179.489 24.0127 179.7C23.9604 179.809 23.9119 179.924 23.8635 180.038C23.777 180.244 23.6935 180.447 23.6156 180.661C23.5738 180.776 23.5283 180.892 23.4903 181.007C23.4153 181.225 23.3545 181.439 23.2909 181.653C23.2624 181.758 23.2301 181.865 23.2025 181.973C23.1779 182.054 23.1608 182.135 23.1427 182.216C23.0943 182.418 23.0477 182.622 23.0098 182.822C22.9984 182.89 22.9879 182.955 22.9756 183.023C22.9281 183.284 22.8892 183.542 22.8597 183.806C22.8597 183.841 22.8597 183.874 22.8502 183.901C22.8208 184.179 22.8027 184.457 22.7923 184.732C22.7947 184.753 22.7947 184.775 22.7923 184.796C22.7837 185.081 22.7837 185.354 22.7923 185.635V185.708C22.8056 185.983 22.8293 186.258 22.8578 186.528C22.8578 186.552 22.8654 186.578 22.8682 186.606C22.9024 186.896 22.9461 187.175 23.0059 187.46L19.2176 186.433C19.1958 186.316 19.173 186.197 19.1512 186.081C19.1293 185.965 19.1103 185.827 19.0941 185.702C19.0875 185.666 19.0819 185.621 19.0762 185.581C19.0756 185.555 19.0736 185.53 19.0704 185.504C19.0637 185.442 19.0524 185.379 19.0477 185.314C19.0344 185.18 19.0267 185.049 19.0162 184.921C19.0115 184.843 19.0096 184.76 19.0049 184.681C19.0049 184.659 19.0049 184.635 19.0049 184.612C19.0049 184.589 19.0078 184.55 19.0078 184.517Z" fill="url(#paint8_linear)"/>
<path d="M96.3215 272.199L124.358 255.921C124.189 255.749 123.997 255.601 123.788 255.48C122.824 254.927 104.516 244.36 102.593 243.25C102.269 243.065 101.97 242.84 101.702 242.581L73.661 258.865C73.9301 259.122 74.2296 259.345 74.5527 259.53C76.4797 260.634 94.7878 271.202 95.7527 271.759C95.9608 271.879 96.1524 272.025 96.3226 272.194L96.3215 272.199Z" fill="url(#paint9_linear)"/>
<defs>
<linearGradient id="paint0_linear" x1="132.221" y1="21.5244" x2="75.9318" y2="42.4649" gradientUnits="userSpaceOnUse">
<stop stop-color="#D1D1F4"/>
<stop offset="0.088" stop-color="#AEAEEB"/>
<stop offset="0.229" stop-color="#8C8CE3"/>
<stop offset="0.373" stop-color="#8C8CE3"/>
<stop offset="0.521" stop-color="#1919C7"/>
<stop offset="0.671" stop-color="#00A69C"/>
<stop offset="0.828" stop-color="#54A600"/>
<stop offset="1" stop-color="#393091"/>
</linearGradient>
<linearGradient id="paint1_linear" x1="65.6546" y1="67.6273" x2="-85.6446" y2="109.929" gradientUnits="userSpaceOnUse">
<stop stop-color="#D1D1F4"/>
<stop offset="0.088" stop-color="#AEAEEB"/>
<stop offset="0.229" stop-color="#8C8CE3"/>
<stop offset="0.373" stop-color="#8C8CE3"/>
<stop offset="0.521" stop-color="#1919C7"/>
<stop offset="0.671" stop-color="#00A69C"/>
<stop offset="0.828" stop-color="#54A600"/>
<stop offset="1" stop-color="#393091"/>
</linearGradient>
<linearGradient id="paint2_linear" x1="110.298" y1="27.4749" x2="-58.1744" y2="86.8809" gradientUnits="userSpaceOnUse">
<stop stop-color="#D1D1F4"/>
<stop offset="0.088" stop-color="#AEAEEB"/>
<stop offset="0.229" stop-color="#8C8CE3"/>
<stop offset="0.373" stop-color="#8C8CE3"/>
<stop offset="0.521" stop-color="#1919C7"/>
<stop offset="0.671" stop-color="#00A69C"/>
<stop offset="0.828" stop-color="#54A600"/>
<stop offset="1" stop-color="#393091"/>
</linearGradient>
<linearGradient id="paint3_linear" x1="62.0537" y1="44.6671" x2="-28.2917" y2="71.7033" gradientUnits="userSpaceOnUse">
<stop stop-color="#D1D1F4"/>
<stop offset="0.088" stop-color="#AEAEEB"/>
<stop offset="0.229" stop-color="#8C8CE3"/>
<stop offset="0.373" stop-color="#8C8CE3"/>
<stop offset="0.521" stop-color="#1919C7"/>
<stop offset="0.671" stop-color="#00A69C"/>
<stop offset="0.828" stop-color="#54A600"/>
<stop offset="1" stop-color="#393091"/>
</linearGradient>
<linearGradient id="paint4_linear" x1="111.082" y1="20.3287" x2="57.4464" y2="122.058" gradientUnits="userSpaceOnUse">
<stop stop-color="#B4B4FF"/>
<stop offset="1" stop-color="#1919C7"/>
</linearGradient>
<linearGradient id="paint5_linear" x1="-38586.4" y1="16655.5" x2="-38456.5" y2="16105.7" gradientUnits="userSpaceOnUse">
<stop stop-color="#F1F4FE"/>
<stop offset="0.58" stop-color="#F7F9FE"/>
<stop offset="1" stop-color="white"/>
</linearGradient>
<linearGradient id="paint6_linear" x1="-142232" y1="10388.6" x2="-157708" y2="10388.6" gradientUnits="userSpaceOnUse">
<stop stop-color="#F1F4FE"/>
<stop offset="0.58" stop-color="#F7F9FE"/>
<stop offset="1" stop-color="white"/>
</linearGradient>
<linearGradient id="paint7_linear" x1="58.0353" y1="126.259" x2="131.012" y2="238.514" gradientUnits="userSpaceOnUse">
<stop stop-color="#B4B4FF"/>
<stop offset="1" stop-color="#1919C7"/>
</linearGradient>
<linearGradient id="paint8_linear" x1="27.1632" y1="173.979" x2="20.0317" y2="186.339" gradientUnits="userSpaceOnUse">
<stop stop-color="white"/>
<stop offset="0.728" stop-color="#ECEEFC"/>
<stop offset="1" stop-color="#E4E7FB"/>
</linearGradient>
<linearGradient id="paint9_linear" x1="-63248.3" y1="8687.23" x2="-60542" y2="8687.23" gradientUnits="userSpaceOnUse">
<stop stop-color="#F1F4FE"/>
<stop offset="0.58" stop-color="#F7F9FE"/>
<stop offset="1" stop-color="white"/>
</linearGradient>
</defs>
</svg>
