<svg width="234" height="308" viewBox="0 0 234 308" fill="none" xmlns="http://www.w3.org/2000/svg">
<path d="M156.516 208.792C153.089 206.832 149.508 205.154 145.809 203.776L153.539 187.119L113.841 180.977L106.107 197.643C97.1406 197.886 88.2407 199.262 79.6195 201.739L58.4963 189.545L29.4353 206.323L50.5577 218.518C46.3225 223.328 43.9533 228.545 43.4692 233.811L14.6055 238.273L25.2427 261.192L54.0939 256.73C56.775 259.076 59.6853 261.147 62.7808 262.911C66.2074 264.872 69.7885 266.55 73.4883 267.927L65.757 284.587L105.456 290.728L113.19 274.064C122.157 273.821 131.057 272.445 139.678 269.968L160.8 282.163L189.862 265.384L168.739 253.188C172.975 248.378 175.343 243.162 175.828 237.896L204.692 233.43L194.055 210.511L165.203 214.974C162.522 212.628 159.612 210.557 156.516 208.792V208.792ZM133.199 249.448C120.192 256.958 99.1042 256.958 86.0977 249.448C73.0912 241.938 73.0912 229.764 86.0977 222.254C99.1042 214.744 120.192 214.745 133.2 222.254C146.207 229.763 146.206 241.938 133.199 249.448Z" fill="url(#paint0_linear)"/>
<path d="M136.922 246.883C146.043 239.382 144.807 228.961 133.196 222.257C120.188 214.748 99.1004 214.748 86.0939 222.257C75.7266 228.24 73.6366 237.194 79.8013 244.384C81.5995 242.352 83.7281 240.64 86.0972 239.318C99.1037 231.809 120.192 231.809 133.199 239.318C135.568 240.64 137.696 242.352 139.494 244.383C138.711 245.289 137.85 246.126 136.922 246.883Z" fill="url(#paint1_linear)"/>
<path d="M62.7808 262.91C59.685 261.146 56.7747 259.075 54.0939 256.728L25.2427 261.191L14.679 238.429L14.6055 238.44L14.679 238.598L14.6055 238.609L14.679 238.767L14.6055 238.778L14.679 238.936L14.6055 238.948L14.679 239.105L14.6055 239.117L14.6782 239.274L14.6055 239.286L14.679 239.443L14.6055 239.454L14.679 239.612L14.6055 239.623L14.679 239.78L14.6055 239.792L14.679 239.949L14.6055 239.961L14.6782 240.119L14.6055 240.13L14.679 240.288L14.6055 240.299L14.679 240.457L14.6055 240.468L14.679 240.626L14.6055 240.636L14.679 240.794L14.6055 240.806L14.6782 240.963L14.6055 240.975L14.679 241.132L14.6055 241.144L14.679 241.301L14.6055 241.313L14.679 241.471L14.6055 241.482L14.679 241.64L14.6055 241.651L14.6782 241.809L14.6055 241.819L14.679 241.977L14.6055 241.988L14.679 242.146L14.6055 242.157L14.679 242.315L14.6055 242.326L14.679 242.484L14.6055 242.495L14.679 242.653L14.6055 242.665L14.6782 242.822L14.6055 242.833L14.679 242.991L14.6055 243.002L14.679 243.16L14.6055 243.171L14.679 243.329L14.6055 243.34L14.679 243.498L14.6055 243.509L14.6782 243.667L14.6055 243.678L14.679 243.836L14.6055 243.847L14.679 244.005L14.6055 244.016L14.679 244.174L14.6055 244.185L14.679 244.342L14.6055 244.354L14.6782 244.511L14.6055 244.523L14.679 244.68L14.6055 244.692L14.679 244.849L14.6055 244.861L14.679 245.018L14.6055 245.03L14.679 245.188L14.6055 245.199L14.679 245.357L14.6055 245.367L14.6782 245.525L14.6055 245.536L14.679 245.694L14.6055 245.705L14.679 245.863L14.6055 245.875L14.679 246.032L14.6055 246.044L14.679 246.201L14.6055 246.213L14.6782 246.37L14.6055 246.381L14.679 246.539L14.6055 246.55L14.679 246.708L14.6055 246.719L14.679 246.876L14.6055 246.888L14.679 247.046L14.6055 247.057L14.6782 247.215L14.6055 247.226L14.679 247.384L14.6055 247.395L14.679 247.553L14.6055 247.564L14.679 247.722L14.6055 247.733L14.679 247.89L14.6055 247.902L14.6782 248.059L14.6055 248.071L14.679 248.228L14.6055 248.24L14.679 248.398L14.6055 248.409L14.679 248.567L14.6055 248.578L14.679 248.736L14.6055 248.747L14.679 248.905L14.6055 248.915L14.6782 249.073L14.6055 249.085L14.679 249.242L14.6055 249.254L14.679 249.411L14.6055 249.423L14.679 249.58L14.6055 249.592L14.679 249.749L14.6055 249.761L14.6782 249.918L14.6055 249.929L14.679 250.087L14.6055 250.098L14.679 250.256L14.6055 250.267L14.679 250.425L14.6055 250.436L14.679 250.594L14.6055 250.605L14.6782 250.763L14.6055 250.774L14.679 250.932L14.6055 250.944L14.679 251.101L14.6055 251.112L14.679 251.27L14.6055 251.281L14.679 251.438L14.6055 251.45L14.6782 251.607L14.6055 251.619L14.679 251.776L14.6055 251.788L14.679 251.945L14.6055 251.957L14.679 252.115L14.6055 252.126L14.679 252.284L14.6055 252.295L14.679 252.453L14.6055 252.463L14.6782 252.621L14.6055 252.632L14.679 252.79L14.6055 252.802L14.679 252.959L14.6055 252.971L14.679 253.128L14.6055 253.14L14.679 253.297L14.6055 253.309L14.6782 253.467L14.6055 253.477L14.679 253.635L14.6055 253.646L14.679 253.804L14.6055 253.815L14.679 253.973L14.6055 253.984L14.679 254.142L14.6055 254.154L14.6782 254.311L14.6055 254.322L14.679 254.48L14.6055 254.491L14.679 254.649L14.6055 254.66L14.679 254.818L14.6055 254.829L14.679 254.986L14.6055 254.998L14.679 255.155L14.6055 255.167L14.6782 255.325L14.6055 255.336L25.2427 278.256L54.0939 273.792C56.7747 276.139 59.685 278.21 62.7808 279.974C64.1058 280.739 65.4852 281.454 66.8906 282.14L65.7569 284.582L73.4883 267.925C69.7885 266.548 66.2074 264.871 62.7808 262.91V262.91Z" fill="#1919C7"/>
<path d="M160.801 282.162L139.682 269.967C131.061 272.444 122.161 273.82 113.194 274.063L105.46 290.727L65.7578 284.587L65.8314 284.598L65.7578 284.755L65.8314 284.767L65.7578 284.925L65.8314 284.936L65.7578 285.094L65.8314 285.105L65.7578 285.262L65.8314 285.274L65.7578 285.432L65.8314 285.443L65.7578 285.601L65.8314 285.612L65.7578 285.77L65.8314 285.78L65.7578 285.938L65.8314 285.95L65.7578 286.107L65.8314 286.119L65.7578 286.276L65.8314 286.288L65.7578 286.445L65.8314 286.457L65.7578 286.614L65.8314 286.626L65.7578 286.784L65.8314 286.794L65.7578 286.953L65.8314 286.963L65.7578 287.121L65.8314 287.132L65.7578 287.29L65.8314 287.301L65.7578 287.459L65.8314 287.471L65.7578 287.628L65.8314 287.64L65.7578 287.797L65.8314 287.809L65.7578 287.966L65.8314 287.977L65.7578 288.135L65.8314 288.146L65.7578 288.303L65.8314 288.315L65.7578 288.472L65.8314 288.484L65.7578 288.642L65.8314 288.653L65.7578 288.811L65.8314 288.822L65.7578 288.98L65.8314 288.991L65.7578 289.149L65.8314 289.16L65.7578 289.318L65.8314 289.329L65.7578 289.486L65.8314 289.498L65.7578 289.655L65.8314 289.667L65.7578 289.824L65.8314 289.836L65.7578 289.993L65.8314 290.005L65.7578 290.162L65.8314 290.174L65.7578 290.332L65.8314 290.342L65.7578 290.5L65.8314 290.511L65.7578 290.669L65.8314 290.68L65.7578 290.838L65.8314 290.849L65.7578 291.007L65.8314 291.019L65.7578 291.176L65.8314 291.188L65.7578 291.345L65.8314 291.357L65.7578 291.514L65.8314 291.525L65.7578 291.683L65.8314 291.694L65.7578 291.852L65.8314 291.863L65.7578 292.021L65.8314 292.032L65.7578 292.19L65.8314 292.201L65.7578 292.359L65.8314 292.37L65.7578 292.528L65.8314 292.539L65.7578 292.697L65.8314 292.708L65.7578 292.866L65.8314 292.877L65.7578 293.034L65.8314 293.046L65.7578 293.203L65.8314 293.215L65.7578 293.372L65.8314 293.384L65.7578 293.541L65.8314 293.553L65.7578 293.711L65.8314 293.722L65.7578 293.88L65.8314 293.89L65.7578 294.048L65.8314 294.059L65.7578 294.217L65.8314 294.228L65.7578 294.386L65.8314 294.398L65.7578 294.555L65.8314 294.567L65.7578 294.724L65.8314 294.736L65.7578 294.893L65.8314 294.905L65.7578 295.062L65.8314 295.073L65.7578 295.231L65.8314 295.242L65.7578 295.4L65.8314 295.411L65.7578 295.569L65.8314 295.58L65.7578 295.738L65.8314 295.749L65.7578 295.907L65.8314 295.918L65.7578 296.076L65.8314 296.087L65.7578 296.245L65.8314 296.256L65.7578 296.414L65.8314 296.425L65.7578 296.582L65.8314 296.594L65.7578 296.751L65.8314 296.763L65.7578 296.921L65.8314 296.932L65.7578 297.09L65.8314 297.101L65.7578 297.259L65.8314 297.27L65.7578 297.428L65.8314 297.438L65.7578 297.596L65.8314 297.607L65.7578 297.765L65.8314 297.776L65.7578 297.934L65.8314 297.946L65.7578 298.103L65.8314 298.115L65.7578 298.272L65.8314 298.284L65.7578 298.441L65.8314 298.453L65.7578 298.61L65.8314 298.621L65.7578 298.779L65.8314 298.79L65.7578 298.948L65.8314 298.959L65.7578 299.117L65.8314 299.128L65.7578 299.286L65.8314 299.297L65.7578 299.455L65.8314 299.467L65.7578 299.624L65.8314 299.635L65.7578 299.793L65.8314 299.804L65.7578 299.961L65.8314 299.973L65.7578 300.13L65.8314 300.142L65.7578 300.299L65.8314 300.311L65.7578 300.468L65.8314 300.48L65.7578 300.638L65.8314 300.649L65.7578 300.807L65.8314 300.818L65.7578 300.976L65.8314 300.986L65.7578 301.144L65.8314 301.155L65.7578 301.313L65.8314 301.324L65.7578 301.482L65.8314 301.494L65.7578 301.651L105.457 307.792L113.191 291.128C122.157 290.885 131.057 289.509 139.679 287.032L160.801 299.227L189.863 282.449L189.716 282.365L189.863 282.282L189.716 282.198L189.863 282.115L189.716 282.031L189.863 281.947L189.716 281.864L189.863 281.78L189.716 281.697L189.863 281.613L189.716 281.529L189.863 281.446L189.716 281.362L189.863 281.279L189.716 281.195L189.863 281.111L189.716 281.028L189.863 280.944L189.716 280.861L189.863 280.777L189.716 280.693L189.863 280.61L189.716 280.526L189.863 280.443L189.716 280.359L189.863 280.275L189.716 280.192L189.863 280.108L189.716 280.025L189.863 279.941L189.716 279.857L189.863 279.774L189.716 279.69L189.863 279.607L189.716 279.523L189.863 279.439L189.716 279.356L189.863 279.272L189.716 279.189L189.863 279.105L189.716 279.021L189.863 278.938L189.716 278.854L189.863 278.771L189.716 278.687L189.863 278.603L189.716 278.52L189.863 278.436L189.716 278.353L189.863 278.269L189.716 278.185L189.863 278.102L189.716 278.018L189.863 277.935L189.716 277.851L189.863 277.767L189.716 277.684L189.863 277.6L189.716 277.517L189.863 277.433L189.716 277.349L189.863 277.266L189.716 277.182L189.863 277.099L189.716 277.015L189.863 276.931L189.716 276.848L189.863 276.764L189.716 276.681L189.863 276.597L189.716 276.513L189.863 276.43L189.716 276.346L189.863 276.263L189.716 276.179L189.863 276.095L189.716 276.012L189.863 275.928L189.716 275.845L189.863 275.761L189.716 275.677L189.863 275.594L189.716 275.51L189.863 275.427L189.716 275.343L189.863 275.259L189.716 275.176L189.863 275.092L189.716 275.009L189.863 274.925L189.716 274.841L189.863 274.758L189.716 274.674L189.863 274.591L189.716 274.507L189.863 274.423L189.716 274.34L189.863 274.256L189.716 274.173L189.863 274.089L189.716 274.005L189.863 273.922L189.716 273.838L189.863 273.755L189.716 273.671L189.863 273.587L189.716 273.504L189.863 273.42L189.716 273.337L189.863 273.253L189.716 273.169L189.863 273.086L189.716 273.002L189.863 272.919L189.716 272.835L189.863 272.751L189.716 272.668L189.863 272.584L189.716 272.501L189.863 272.417L189.716 272.333L189.863 272.25L189.716 272.166L189.863 272.083L189.716 271.999L189.863 271.915L189.716 271.832L189.863 271.748L189.716 271.665L189.863 271.581L189.716 271.497L189.863 271.414L189.716 271.33L189.863 271.247L189.716 271.163L189.863 271.079L189.716 270.996L189.863 270.912L189.716 270.829L189.863 270.745L189.716 270.661L189.863 270.578L189.716 270.494L189.863 270.411L189.716 270.327L189.863 270.243L189.716 270.16L189.863 270.076L189.716 269.993L189.863 269.909L189.716 269.825L189.863 269.742L189.716 269.658L189.863 269.575L189.716 269.491L189.863 269.407L189.716 269.324L189.863 269.24L189.716 269.157L189.863 269.073L189.716 268.989L189.863 268.906L189.716 268.822L189.863 268.739L189.716 268.655L189.863 268.571L189.716 268.488L189.863 268.404L189.716 268.321L189.863 268.237L189.716 268.153L189.863 268.07L189.716 267.986L189.863 267.903L189.716 267.819L189.863 267.735L189.716 267.652L189.863 267.568L189.716 267.485L189.863 267.401L189.716 267.317L189.863 267.234L189.716 267.15L189.863 267.067L189.716 266.983L189.863 266.899L189.716 266.816L189.863 266.732L189.716 266.649L189.863 266.565L189.716 266.481L189.863 266.398L189.716 266.314L189.863 266.231L189.716 266.147L189.863 266.063L189.716 265.98L189.863 265.896L189.716 265.813L189.863 265.729L189.716 265.645L189.863 265.562L160.801 282.162Z" fill="#1919C7"/>
<path d="M204.618 233.442L204.691 233.43L175.828 237.896C175.342 243.163 172.974 248.378 168.738 253.188L175.518 257.102C175.654 256.39 175.761 255.675 175.828 254.961L204.691 250.495L204.618 250.337L204.691 250.326L204.618 250.169L204.691 250.157L204.618 249.999L204.691 249.988L204.618 249.831L204.691 249.819L204.618 249.661L204.691 249.65L204.618 249.492L204.691 249.481L204.618 249.323L204.691 249.313L204.618 249.155L204.691 249.143L204.618 248.986L204.691 248.974L204.618 248.817L204.691 248.805L204.618 248.648L204.691 248.636L204.618 248.479L204.691 248.467L204.618 248.309L204.691 248.298L204.618 248.14L204.691 248.13L204.618 247.972L204.691 247.961L204.618 247.803L204.691 247.792L204.618 247.634L204.691 247.622L204.618 247.465L204.691 247.453L204.618 247.296L204.691 247.284L204.618 247.127L204.691 247.116L204.618 246.958L204.691 246.947L204.618 246.789L204.691 246.778L204.618 246.62L204.691 246.609L204.618 246.451L204.691 246.44L204.618 246.282L204.691 246.271L204.618 246.113L204.691 246.102L204.618 245.944L204.691 245.933L204.618 245.775L204.691 245.765L204.618 245.607L204.691 245.595L204.618 245.438L204.691 245.426L204.618 245.269L204.691 245.257L204.618 245.1L204.691 245.088L204.618 244.931L204.691 244.919L204.618 244.761L204.691 244.75L204.618 244.592L204.691 244.582L204.618 244.424L204.691 244.413L204.618 244.255L204.691 244.244L204.618 244.086L204.691 244.074L204.618 243.917L204.691 243.905L204.618 243.748L204.691 243.736L204.618 243.579L204.691 243.568L204.618 243.41L204.691 243.399L204.618 243.242L204.691 243.23L204.618 243.072L204.691 243.061L204.618 242.903L204.691 242.892L204.618 242.734L204.691 242.723L204.618 242.565L204.691 242.554L204.618 242.396L204.691 242.385L204.618 242.227L204.691 242.216L204.618 242.059L204.691 242.047L204.618 241.89L204.691 241.878L204.618 241.721L204.691 241.709L204.618 241.552L204.691 241.54L204.618 241.382L204.691 241.371L204.618 241.213L204.691 241.202L204.618 241.044L204.691 241.034L204.618 240.876L204.691 240.865L204.618 240.707L204.691 240.696L204.618 240.538L204.691 240.526L204.618 240.369L204.691 240.357L204.618 240.2L204.691 240.188L204.618 240.031L204.691 240.02L204.618 239.862L204.691 239.851L204.618 239.693L204.691 239.682L204.618 239.524L204.691 239.513L204.618 239.355L204.691 239.344L204.618 239.186L204.691 239.175L204.618 239.017L204.691 239.006L204.618 238.848L204.691 238.837L204.618 238.679L204.691 238.668L204.618 238.511L204.691 238.499L204.618 238.342L204.691 238.33L204.618 238.173L204.691 238.161L204.618 238.003L204.691 237.992L204.618 237.834L204.691 237.823L204.618 237.665L204.691 237.654L204.618 237.496L204.691 237.486L204.618 237.328L204.691 237.317L204.618 237.159L204.691 237.147L204.618 236.99L204.691 236.978L204.618 236.821L204.691 236.809L204.618 236.652L204.691 236.64L204.618 236.483L204.691 236.472L204.618 236.314L204.691 236.303L204.618 236.145L204.691 236.134L204.618 235.976L204.691 235.965L204.618 235.807L204.691 235.796L204.618 235.638L204.691 235.627L204.618 235.469L204.691 235.457L204.618 235.3L204.691 235.289L204.618 235.131L204.691 235.12L204.618 234.963L204.691 234.951L204.618 234.794L204.691 234.782L204.618 234.625L204.691 234.613L204.618 234.455L204.691 234.444L204.618 234.286L204.691 234.275L204.618 234.117L204.691 234.106L204.618 233.948L204.691 233.938L204.618 233.78L204.691 233.769L204.618 233.611L204.691 233.599L204.618 233.442Z" fill="#1919C7"/>
<path d="M152.405 206.626L153.539 204.184L153.466 204.173L153.539 204.015L153.466 204.003L153.539 203.846L153.466 203.834L153.539 203.677L153.466 203.665L153.539 203.508L153.466 203.496L153.539 203.339L153.466 203.328L153.539 203.17L153.466 203.16L153.539 203.002L153.466 202.991L153.539 202.833L153.466 202.823L153.539 202.665L153.466 202.654L153.539 202.496L153.466 202.485L153.539 202.327L153.466 202.316L153.539 202.158L153.466 202.146L153.539 201.989L153.466 201.977L153.539 201.82L153.466 201.809L153.539 201.651L153.466 201.64L153.539 201.482L153.466 201.471L153.539 201.313L153.466 201.302L153.539 201.144L153.466 201.133L153.539 200.975L153.466 200.964L153.539 200.806L153.466 200.795L153.539 200.637L153.466 200.626L153.539 200.468L153.466 200.457L153.539 200.3L153.466 200.288L153.539 200.131L153.466 200.119L153.539 199.962L153.466 199.95L153.539 199.793L153.466 199.781L153.539 199.623L153.466 199.612L153.539 199.454L153.466 199.443L153.539 199.285L153.466 199.275L153.539 199.117L153.466 199.106L153.539 198.948L153.466 198.936L153.539 198.779L153.466 198.767L153.539 198.61L153.466 198.598L153.539 198.441L153.466 198.429L153.539 198.272L153.466 198.261L153.539 198.103L153.466 198.092L153.539 197.935L153.466 197.923L153.539 197.765L153.466 197.754L153.539 197.596L153.466 197.585L153.539 197.427L153.466 197.416L153.539 197.258L153.466 197.247L153.539 197.089L153.466 197.078L153.539 196.92L153.466 196.909L153.539 196.752L153.466 196.74L153.539 196.583L153.466 196.571L153.539 196.414L153.466 196.402L153.539 196.244L153.466 196.233L153.539 196.075L153.466 196.064L153.539 195.906L153.466 195.896L153.539 195.738L153.466 195.727L153.539 195.569L153.466 195.558L153.539 195.4L153.466 195.388L153.539 195.231L153.466 195.219L153.539 195.062L153.466 195.05L153.539 194.893L153.466 194.881L153.539 194.724L153.466 194.713L153.539 194.555L153.466 194.544L153.539 194.386L153.466 194.375L153.539 194.217L153.466 194.206L153.539 194.048L153.466 194.037L153.539 193.879L153.466 193.868L153.539 193.71L153.466 193.699L153.539 193.541L153.466 193.53L153.539 193.372L153.466 193.361L153.539 193.204L153.466 193.192L153.539 193.035L153.466 193.023L153.539 192.866L153.466 192.854L153.539 192.696L153.466 192.685L153.539 192.527L153.466 192.516L153.539 192.358L153.466 192.348L153.539 192.19L153.466 192.179L153.539 192.021L153.466 192.009L153.539 191.852L153.466 191.84L153.539 191.683L153.466 191.671L153.539 191.514L153.466 191.502L153.539 191.345L153.466 191.333L153.539 191.176L153.466 191.165L153.539 191.007L153.466 190.996L153.539 190.838L153.466 190.827L153.539 190.669L153.466 190.658L153.539 190.5L153.466 190.488L153.539 190.331L153.466 190.32L153.539 190.162L153.466 190.151L153.539 189.993L153.466 189.982L153.539 189.824L153.466 189.813L153.539 189.656L153.466 189.644L153.539 189.487L153.466 189.475L153.539 189.317L153.466 189.306L153.539 189.148L153.466 189.137L153.539 188.979L153.466 188.968L153.539 188.81L153.466 188.799L153.539 188.642L153.466 188.63L153.539 188.473L153.466 188.461L153.539 188.304L153.466 188.292L153.539 188.135L153.466 188.123L153.539 187.966L153.466 187.954L153.539 187.797L153.466 187.785L153.539 187.627L153.466 187.617L153.539 187.459L153.466 187.448L153.539 187.29L153.466 187.276L145.809 203.776C148.088 204.634 150.286 205.591 152.408 206.627L152.405 206.626Z" fill="#1919C7"/>
<path d="M43.7788 231.668C44.8122 226.754 47.1545 222.21 50.5579 218.517L29.4355 206.323L29.5818 206.406L29.4355 206.49L29.5818 206.574L29.4355 206.657L29.5818 206.741L29.4355 206.824L29.5818 206.908L29.4355 206.992L29.5818 207.075L29.4355 207.159L29.5818 207.242L29.4355 207.326L29.5818 207.41L29.4355 207.493L29.5818 207.577L29.4355 207.66L29.5818 207.744L29.4355 207.828L29.5818 207.911L29.4355 207.995L29.5818 208.078L29.4355 208.162L29.5818 208.246L29.4355 208.329L29.5818 208.413L29.4355 208.496L29.5818 208.58L29.4355 208.664L29.5818 208.747L29.4355 208.831L29.5818 208.914L29.4355 208.998L29.5818 209.082L29.4355 209.165L29.5818 209.249L29.4355 209.332L29.5818 209.416L29.4355 209.5L29.5818 209.583L29.4355 209.667L29.5818 209.75L29.4355 209.834L29.5818 209.918L29.4355 210.001L29.5818 210.085L29.4355 210.168L29.5818 210.252L29.4355 210.336L29.5818 210.419L29.4355 210.503L29.5818 210.586L29.4355 210.67L29.5818 210.754L29.4355 210.837L29.5818 210.921L29.4355 211.004L29.5818 211.088L29.4355 211.172L29.5818 211.255L29.4355 211.339L29.5818 211.422L29.4355 211.506L29.5818 211.59L29.4355 211.673L29.5818 211.757L29.4355 211.84L29.5818 211.924L29.4355 212.008L29.5818 212.091L29.4355 212.175L29.5818 212.258L29.4355 212.342L29.5818 212.426L29.4355 212.509L29.5818 212.593L29.4355 212.676L29.5818 212.76L29.4355 212.844L29.5818 212.927L29.4355 213.011L29.5818 213.094L29.4355 213.178L29.5818 213.262L29.4355 213.345L29.5818 213.429L29.4355 213.512L29.5818 213.596L29.4355 213.68L29.5818 213.763L29.4355 213.847L29.5818 213.93L29.4355 214.014L29.5818 214.098L29.4355 214.181L29.5818 214.265L29.4355 214.348L29.5818 214.432L29.4355 214.516L29.5818 214.599L29.4355 214.683L29.5818 214.766L29.4355 214.85L29.5818 214.934L29.4355 215.017L29.5818 215.101L29.4355 215.184L29.5818 215.268L29.4355 215.352L29.5818 215.435L29.4355 215.519L29.5818 215.602L29.4355 215.686L29.5818 215.77L29.4355 215.853L29.5818 215.937L29.4355 216.02L29.5818 216.104L29.4355 216.188L29.5818 216.271L29.4355 216.355L29.5818 216.438L29.4355 216.522L29.5818 216.606L29.4355 216.689L29.5818 216.773L29.4355 216.856L29.5818 216.94L29.4355 217.024L29.5818 217.107L29.4355 217.191L29.5818 217.274L29.4355 217.358L29.5818 217.442L29.4355 217.525L29.5818 217.609L29.4355 217.692L29.5818 217.776L29.4355 217.86L29.5818 217.943L29.4355 218.027L29.5818 218.11L29.4355 218.194L29.5818 218.278L29.4355 218.361L29.5818 218.445L29.4355 218.528L29.5818 218.612L29.4355 218.696L29.5818 218.779L29.4355 218.863L29.5818 218.946L29.4355 219.03L29.5818 219.114L29.4355 219.197L29.5818 219.281L29.4355 219.364L29.5818 219.448L29.4355 219.532L29.5818 219.615L29.4355 219.699L29.5818 219.782L29.4355 219.866L29.5818 219.95L29.4355 220.033L29.5818 220.117L29.4355 220.2L29.5818 220.284L29.4355 220.368L29.5818 220.451L29.4355 220.535L29.5818 220.618L29.4355 220.702L29.5818 220.786L29.4355 220.869L29.5818 220.953L29.4355 221.036L29.5818 221.12L29.4355 221.204L29.5818 221.287L29.4355 221.371L29.5818 221.454L29.4355 221.538L29.5818 221.622L29.4355 221.705L29.5818 221.789L29.4355 221.872L29.5818 221.956L29.4355 222.04L29.5818 222.123L29.4355 222.207L29.5818 222.29L29.4355 222.374L29.5818 222.458L29.4355 222.541L29.5818 222.625L29.4355 222.708L29.5818 222.792L29.4355 222.876L29.5818 222.959L29.4355 223.043L29.5818 223.126L29.4355 223.21L43.7788 231.668Z" fill="#1919C7"/>
<path d="M129.148 213.131C139.479 219.348 139.124 229.256 128.357 235.26C117.589 241.265 100.484 241.092 90.1516 234.874C79.8195 228.656 80.1748 218.749 90.9433 212.744C101.712 206.739 118.816 206.913 129.148 213.131Z" fill="#00212A"/>
<path d="M128.355 235.263C117.587 241.268 100.482 241.095 90.1501 234.877C85.3105 231.963 82.8159 228.24 82.6387 224.488C82.6487 224.876 82.6679 225.34 82.7039 225.877C82.7097 225.999 82.7147 226.123 82.7198 226.233C82.7306 226.324 82.7423 226.428 82.754 226.525C82.7657 226.622 82.7674 226.721 82.7733 226.809L82.79 226.925C82.8602 227.631 82.948 228.169 83.0065 228.519L83.0617 228.833C83.0333 228.666 83.0057 228.487 82.9781 228.303C82.9931 228.4 83.0082 228.498 83.0249 228.597C83.0416 228.697 83.0575 228.814 83.0742 228.912C83.0801 228.941 83.0884 228.975 83.0951 229.005C83.3209 230.227 83.633 231.432 84.0289 232.61C84.0457 232.663 84.0657 232.714 84.0833 232.766C84.2179 233.159 84.3642 233.557 84.5255 233.963C84.6158 234.191 84.7128 234.417 84.8089 234.643C84.8925 234.844 84.9845 235.045 85.0781 235.248C85.2286 235.576 85.3858 235.901 85.5496 236.223L85.66 236.436C93.9615 253.187 117.094 256.11 129.695 242.044C129.951 241.764 130.197 241.473 130.438 241.181L130.54 241.059C130.791 240.756 131.035 240.449 131.271 240.139C131.372 240.005 131.472 239.863 131.573 239.721L131.638 239.632L131.696 239.548C131.739 239.487 131.785 239.429 131.828 239.367L131.931 239.231L131.959 239.186L132.096 238.986L132.129 238.94C132.259 238.747 132.375 238.557 132.498 238.365L132.568 238.257C132.742 237.983 132.91 237.711 133.07 237.44C133.248 237.142 133.394 236.89 133.534 236.624C133.585 236.529 133.63 236.434 133.68 236.339L133.692 236.315C134.321 235.104 134.853 233.843 135.28 232.546C135.3 232.487 135.32 232.429 135.339 232.371C135.412 232.144 135.481 231.921 135.546 231.697C135.584 231.565 135.623 231.434 135.659 231.303C135.708 231.127 135.754 230.953 135.797 230.78C135.834 230.636 135.869 230.494 135.903 230.353C135.914 230.306 135.925 230.259 135.936 230.213C135.959 230.113 135.982 230.014 136.003 229.917L136.03 229.816L136.034 229.791L136.041 229.767C136.052 229.703 136.062 229.645 136.073 229.583C136.082 229.536 136.09 229.491 136.099 229.444C136.139 229.244 136.178 229.047 136.212 228.853L136.225 228.77C136.259 228.577 136.293 228.383 136.321 228.196C136.347 228.041 136.381 227.89 136.404 227.734L136.327 228.166C136.347 228.031 136.362 227.905 136.379 227.774C136.449 227.312 136.5 226.889 136.541 226.425C136.555 226.305 136.57 226.191 136.584 226.069L136.618 225.233C136.626 225.045 136.633 224.842 136.641 224.629L136.653 224.337C136.488 228.324 133.711 232.274 128.355 235.263Z" fill="url(#paint2_linear)"/>
<path d="M109.693 229.48C124.616 229.438 136.693 222.397 136.669 213.753C136.644 205.11 124.527 198.137 109.604 198.179C94.6814 198.221 82.6038 205.262 82.6282 213.906C82.6527 222.55 94.7699 229.522 109.693 229.48Z" fill="#00212A"/>
<path d="M136.664 213.75C136.664 213.682 136.657 213.614 136.655 213.546C136.761 217.737 133.98 221.946 128.35 225.088C117.582 231.092 100.477 230.919 90.1445 224.701C85.0173 221.615 82.5244 217.62 82.6281 213.645C82.6281 213.673 82.6239 213.701 82.623 213.728C82.623 213.787 82.623 213.847 82.623 213.906V213.912C82.623 215.203 82.6314 216.922 82.6347 218.212C82.6347 218.281 82.6423 218.35 82.6439 218.418C82.6439 218.536 82.6515 218.654 82.659 218.772C82.6665 218.89 82.6791 219.029 82.6933 219.159C82.7058 219.276 82.7192 219.393 82.7367 219.51C82.7543 219.627 82.7785 219.769 82.8028 219.898C82.8245 220.014 82.8471 220.131 82.8738 220.247C82.9031 220.376 82.9374 220.505 82.9725 220.633C83.0076 220.761 83.0352 220.865 83.072 220.98C83.1113 221.108 83.1556 221.236 83.2024 221.364C83.2434 221.479 83.286 221.594 83.3295 221.709C83.3805 221.837 83.4365 221.959 83.4925 222.09C83.5435 222.204 83.5928 222.317 83.648 222.431C83.7032 222.545 83.7767 222.682 83.8436 222.808C83.9038 222.921 83.9623 223.033 84.0267 223.142C84.0994 223.268 84.178 223.393 84.2557 223.516C84.3243 223.626 84.392 223.738 84.4656 223.85C84.5492 223.975 84.6395 224.101 84.7289 224.222C84.8067 224.329 84.8827 224.438 84.9655 224.545C85.06 224.669 85.162 224.79 85.2631 224.913C85.3467 225.018 85.4345 225.124 85.5256 225.228C85.6326 225.351 85.748 225.472 85.86 225.594C85.9545 225.695 86.0456 225.797 86.1443 225.898C86.2655 226.022 86.3951 226.143 86.523 226.265C86.6241 226.361 86.7211 226.458 86.8256 226.553C86.9619 226.677 87.1065 226.799 87.2495 226.921C87.3556 227.012 87.4576 227.104 87.5671 227.194C87.7218 227.32 87.8865 227.444 88.0487 227.568C88.1557 227.652 88.2585 227.735 88.3697 227.819C88.557 227.957 88.7551 228.092 88.9549 228.227C89.0494 228.292 89.1388 228.359 89.2358 228.423C89.5334 228.622 89.8413 228.817 90.1596 229.009C90.7766 229.38 91.4211 229.727 92.0824 230.055C92.1267 230.077 92.166 230.1 92.2136 230.122C92.8507 230.433 93.5094 230.722 94.1824 230.993C94.2585 231.024 94.3321 231.056 94.4081 231.086C94.4641 231.109 94.5185 231.133 94.5753 231.155C95.1831 231.391 95.8076 231.607 96.4396 231.811C96.6068 231.865 96.774 231.914 96.9412 231.965C97.2372 232.057 97.5264 232.153 97.8299 232.237C98.1333 232.322 98.4585 232.404 98.7746 232.482C98.8715 232.506 98.9668 232.533 99.0638 232.557C99.593 232.687 100.127 232.808 100.667 232.918C100.788 232.942 100.918 232.956 101.036 232.98C101.517 233.072 102.005 233.147 102.494 233.23C102.774 233.274 103.047 233.332 103.33 233.371C103.431 233.385 103.535 233.391 103.636 233.404C104.087 233.463 104.542 233.505 104.998 233.55C105.314 233.581 105.626 233.627 105.943 233.651C106.037 233.658 106.131 233.658 106.223 233.665C106.682 233.698 107.143 233.714 107.604 233.733C107.93 233.747 108.256 233.775 108.585 233.781C108.669 233.781 108.752 233.781 108.831 233.781C109.352 233.79 109.874 233.777 110.396 233.769C110.705 233.763 111.015 233.769 111.324 233.76C111.407 233.76 111.483 233.751 111.564 233.748C111.679 233.743 111.793 233.735 111.908 233.729C112.685 233.691 113.46 233.637 114.23 233.562H114.273H114.292C115.045 233.485 115.79 233.383 116.532 233.269C116.718 233.24 116.903 233.21 117.089 233.179C117.274 233.148 117.483 233.12 117.674 233.084C117.95 233.034 118.218 232.966 118.492 232.91C118.895 232.827 119.298 232.747 119.695 232.654C120.108 232.558 120.515 232.45 120.921 232.34C121.312 232.236 121.703 232.131 122.086 232.015C122.216 231.976 122.352 231.945 122.481 231.905C123.009 231.738 123.528 231.561 124.039 231.374L124.079 231.359C124.741 231.114 125.382 230.847 126.013 230.567C126.175 230.495 126.335 230.421 126.495 230.348C127.132 230.052 127.757 229.743 128.356 229.41C128.698 229.219 129.029 229.024 129.349 228.825C129.409 228.788 129.464 228.749 129.523 228.712C129.562 228.688 129.607 228.665 129.643 228.641C129.755 228.569 129.859 228.495 129.968 228.423C130.078 228.351 130.179 228.289 130.279 228.219C130.32 228.192 130.359 228.163 130.399 228.136C130.546 228.033 130.687 227.929 130.828 227.826C130.935 227.748 131.043 227.673 131.146 227.594L131.244 227.519C131.378 227.416 131.504 227.311 131.633 227.206C131.739 227.123 131.848 227.039 131.95 226.949L132.027 226.884C132.149 226.78 132.264 226.673 132.382 226.567C132.485 226.473 132.592 226.381 132.691 226.287C132.71 226.269 132.731 226.251 132.75 226.233L132.76 226.225C132.778 226.207 132.793 226.189 132.811 226.171C132.877 226.108 132.936 226.044 133 225.981C133.124 225.857 133.25 225.73 133.368 225.608C133.424 225.548 133.478 225.488 133.535 225.428C133.603 225.354 133.668 225.28 133.732 225.206C133.815 225.109 133.905 225.012 133.987 224.914C134.069 224.815 134.158 224.698 134.244 224.59C134.284 224.538 134.331 224.488 134.371 224.436C134.387 224.414 134.402 224.391 134.418 224.369C134.459 224.315 134.502 224.261 134.538 224.207C134.621 224.095 134.693 223.983 134.769 223.872L134.799 223.831C134.847 223.759 134.9 223.688 134.947 223.617C134.974 223.575 134.999 223.534 135.026 223.488C135.098 223.375 135.163 223.26 135.23 223.146C135.288 223.048 135.35 222.951 135.404 222.853L135.411 222.84C135.428 222.809 135.441 222.778 135.457 222.748C135.517 222.636 135.571 222.524 135.625 222.413C135.678 222.303 135.727 222.213 135.773 222.112C135.791 222.073 135.807 222.034 135.824 221.995C135.871 221.887 135.914 221.778 135.957 221.669C136.001 221.561 136.041 221.464 136.081 221.36C136.087 221.344 136.095 221.328 136.1 221.312C136.105 221.296 136.117 221.258 136.126 221.229C136.162 221.126 136.193 221.022 136.226 220.919C136.258 220.815 136.293 220.714 136.322 220.611C136.335 220.563 136.347 220.516 136.359 220.47C136.385 220.368 136.407 220.265 136.43 220.163C136.454 220.061 136.48 219.961 136.499 219.859C136.499 219.837 136.51 219.816 136.514 219.794C136.518 219.772 136.522 219.735 136.527 219.706C136.544 219.605 136.558 219.504 136.572 219.404C136.586 219.303 136.603 219.2 136.614 219.099C136.62 219.043 136.625 218.989 136.63 218.931C136.64 218.834 136.644 218.737 136.65 218.64C136.655 218.543 136.663 218.435 136.665 218.333C136.665 218.304 136.67 218.276 136.67 218.249C136.67 218.19 136.67 218.131 136.67 218.071L136.664 213.75Z" fill="url(#paint3_linear)"/>
<path d="M175.842 116.885C175.789 113.52 175.46 110.164 174.859 106.853C174.841 106.758 174.823 106.666 174.804 106.572C174.749 106.286 174.696 106.019 174.645 105.776C174.626 105.684 174.607 105.598 174.588 105.509C174.531 105.247 174.479 105.015 174.431 104.814C174.422 104.771 174.411 104.73 174.402 104.684C174.326 104.342 174.248 104.008 174.171 103.688C174.102 103.404 174.026 103.103 173.945 102.8C173.829 102.349 173.718 101.924 173.61 101.526L173.603 101.498C173.58 101.415 173.558 101.337 173.536 101.258L173.506 101.141L173.474 101.039C173.395 100.762 173.318 100.496 173.242 100.243L173.235 100.22L173.227 100.198C172.947 99.2637 172.686 98.4854 172.444 97.7973C172.437 97.7731 172.428 97.7464 172.42 97.7221C172.071 96.6537 171.555 95.332 171.065 94.1967C170.981 94.0027 170.898 93.8121 170.814 93.624C170.77 93.5229 170.725 93.4242 170.681 93.3231L170.642 93.2395C169.331 90.2355 167.761 87.3513 165.95 84.6195C165.74 84.3026 165.527 83.9858 165.306 83.6673C165.216 83.5368 165.125 83.4165 165.036 83.2844C164.952 83.1724 164.878 83.0595 164.798 82.95C164.719 82.8405 164.658 82.7477 164.584 82.644C164.534 82.5754 164.485 82.5069 164.435 82.4392L164.331 82.2946L164.216 82.1382C164.103 81.9836 163.994 81.8306 163.882 81.6742C163.64 81.344 163.373 80.9962 163.095 80.6426C160.67 77.5084 157.936 74.6257 154.935 72.0377C154.48 71.633 154.015 71.2326 153.566 70.8622C152.647 70.0889 151.553 69.2538 150.667 68.6193C150.467 68.4746 150.254 68.325 150.035 68.172C148.757 67.229 147.724 66.5619 145.777 65.3539L146.568 65.8387C146.281 65.6623 145.899 65.4266 145.611 65.2535C145.226 65.0136 144.793 64.7636 144.343 64.512C142.395 63.3929 140.392 62.3742 138.34 61.4598C137.676 61.1438 136.882 60.816 136.091 60.5034C135.776 60.3763 135.455 60.2495 135.128 60.123L134.862 60.021C134.55 59.9023 134.235 59.7836 133.913 59.6665C132.801 59.2485 131.39 58.767 130.291 58.4577L130.196 58.4309C129.74 58.2938 129.276 58.1601 128.803 58.0288C128.703 58.0004 128.606 57.972 128.505 57.9452C128.024 57.8131 127.533 57.6861 127.035 57.5607L126.919 57.5289L126.857 57.5147L126.745 57.4862C125.978 57.2965 125.218 57.1276 124.461 56.9671L124.108 56.8935C123.85 56.84 123.59 56.7849 123.332 56.7347C122.895 56.6469 122.427 56.56 121.935 56.4755L121.684 56.4337C121.441 56.3936 121.195 56.3538 120.944 56.3142C119.531 56.0912 118.141 55.9112 116.776 55.7741C115.808 55.6738 114.895 55.5977 114.109 55.5568C112.809 55.4773 111.539 55.4389 110.294 55.4297C109.196 55.4063 108.584 55.423 107.22 55.4698H107.214H107.15C106.997 55.4748 106.843 55.4807 106.691 55.4874H106.663H106.614C104.83 55.5593 103.674 55.6546 102.218 55.8142C101.848 55.8527 101.479 55.8928 101.109 55.9371L100.789 55.9731C99.9646 56.065 99.4045 56.1353 98.7416 56.2423C89.787 57.6148 81.1892 60.733 73.4367 65.4199L73.2009 65.5629C72.9259 65.7301 72.6517 65.9048 72.3766 66.0787C72.1777 66.2049 71.9787 66.3295 71.7831 66.4582C71.5691 66.5981 71.3553 66.7391 71.1419 66.8812C70.8888 67.0484 70.638 67.2176 70.3894 67.3887C70.2047 67.5149 70.0208 67.6395 69.8369 67.7707C69.5518 67.9705 69.2734 68.1712 69.0009 68.3726C68.8412 68.488 68.6815 68.6017 68.5218 68.7196C68.1445 68.9983 67.7758 69.2769 67.4158 69.5556C67.1424 69.7671 66.8691 69.9861 66.5957 70.2052L66.3357 70.4142C65.6142 70.9994 64.8953 71.6013 64.1813 72.2333C63.9748 72.4155 63.7633 72.6062 63.5552 72.8001C63.2425 73.0843 62.9307 73.3711 62.6197 73.6645C62.2652 73.9989 61.9082 74.3383 61.5538 74.6886C61.1834 75.0423 60.788 75.441 60.3834 75.8674C59.8818 76.384 59.3802 76.9157 58.9772 77.3831C58.7431 77.6522 58.4907 77.944 58.2332 78.2433C58.0977 78.3996 57.9598 78.5526 57.8269 78.7089L57.5585 79.0183C57.3362 79.2749 57.0987 79.5692 56.858 79.8735C56.2686 80.5916 55.7018 81.3123 55.2445 81.9635C51.8928 86.4871 49.2041 91.4662 47.2598 96.7498C47.0667 97.2723 46.9079 97.7246 46.7892 98.0816C46.4314 99.1057 46.143 100.004 45.99 100.577L45.9824 100.604C45.888 100.919 45.7994 101.224 45.7233 101.505C45.3738 102.79 44.9132 104.51 44.6858 105.822C44.6666 105.932 44.6473 106.05 44.6281 106.162C44.496 106.83 44.3773 107.499 44.2711 108.152L44.2068 108.496L44.1006 109.227L44.0822 109.336L44.073 109.413L44.0312 109.701L44.058 109.547L43.9969 110.093C43.9696 110.312 43.9432 110.531 43.9175 110.749C43.859 111.196 43.8038 111.632 43.7595 112.038C43.1461 117.92 43.4155 123.861 44.5587 129.664L44.5671 129.711C44.5838 129.794 44.6022 129.878 44.6189 129.966C44.6356 130.054 44.6549 130.14 44.6733 130.228C44.7151 130.435 44.7569 130.639 44.8003 130.847C44.9313 131.46 45.0745 132.082 45.23 132.714L45.2894 132.965C45.3011 133.014 45.317 133.071 45.3295 133.121C45.6012 134.223 45.9239 135.449 46.2424 136.41L46.2683 136.493C46.9496 138.833 47.8032 141.12 48.8223 143.333L48.8399 143.372C49.3674 144.61 50.1248 146.138 50.7334 147.29C50.8354 147.483 50.9541 147.697 51.0678 147.906C51.1339 148.031 51.2049 148.168 51.2693 148.287C51.546 148.803 51.8963 149.395 52.2474 149.98C52.5434 150.482 52.8326 150.976 53.1018 151.409V151.415L68.5937 176.157V176.162C68.8144 176.523 69.0184 176.89 69.2266 177.255C69.3503 177.472 69.4832 177.686 69.6028 177.905C69.77 178.216 69.928 178.533 70.0893 178.848C70.2323 179.126 70.3836 179.402 70.5199 179.684C70.6561 179.965 70.7866 180.269 70.9195 180.563C71.0624 180.877 71.2121 181.187 71.3475 181.505C71.4779 181.811 71.5933 182.126 71.7162 182.436C71.8391 182.747 71.972 183.061 72.0899 183.379C72.2178 183.728 72.3323 184.088 72.4519 184.442C72.5505 184.734 72.6558 185.02 72.7495 185.316C72.8665 185.688 72.9693 186.068 73.078 186.451C73.1616 186.743 73.2519 187.028 73.3288 187.325C73.4174 187.659 73.496 188.003 73.5754 188.341C73.659 188.698 73.7544 189.049 73.8346 189.414C73.8898 189.665 73.9349 189.924 73.9868 190.176C74.0821 190.641 74.1799 191.102 74.2651 191.579V191.596C74.7785 194.643 75.292 197.69 75.8059 200.737V200.742L75.8151 200.792L75.8076 200.748C75.8402 200.926 75.8803 201.13 75.9229 201.348V201.36C75.948 201.486 75.9748 201.616 76.0065 201.755C76.0208 201.823 76.0358 201.891 76.05 201.955C76.0592 201.999 76.0692 202.039 76.0793 202.085C76.0893 202.131 76.1002 202.178 76.1119 202.225L76.1177 202.252L76.1436 202.375L76.1654 202.451C76.2022 202.606 76.2406 202.75 76.2799 202.895C76.31 203.011 76.3418 203.125 76.3744 203.237V203.245L76.3869 203.287C76.5996 204.027 76.853 204.755 77.146 205.467L77.1569 205.496L77.1485 205.472C77.1577 205.494 77.1644 205.514 77.1736 205.536C77.2413 205.699 77.3107 205.853 77.3801 206.009C77.4286 206.123 77.4746 206.231 77.5306 206.359C77.6142 206.57 77.8558 207.063 78.1826 207.67L78.2278 207.754L78.2596 207.814L78.2955 207.885L78.3323 207.946L78.3983 208.063C78.4125 208.089 78.4276 208.117 78.4426 208.147C78.5421 208.325 78.6424 208.499 78.7444 208.671C78.7662 208.706 78.7879 208.744 78.8088 208.779L78.9509 209.011L78.9835 209.064C79.0889 209.231 79.1942 209.398 79.3004 209.559C79.3355 209.612 79.3714 209.665 79.4074 209.719C79.4433 209.772 79.4651 209.802 79.491 209.846C79.8193 210.329 80.1484 210.78 80.4783 211.198C80.5243 211.258 80.5686 211.313 80.6137 211.365C80.7865 211.582 80.9573 211.788 81.1262 211.986C81.1697 212.038 81.2098 212.089 81.2574 212.14C81.5141 212.435 81.7641 212.711 82.004 212.962C82.1461 213.113 82.2933 213.262 82.4421 213.412C82.5257 213.496 82.6134 213.579 82.6979 213.663C82.7823 213.746 82.8793 213.843 82.9738 213.934L83.0641 214.025C83.0891 214.05 83.1217 214.078 83.1476 214.103C83.212 214.164 83.2739 214.225 83.3399 214.286C84.1813 215.084 85.0811 215.818 86.0318 216.482L86.128 216.547C86.2233 216.615 86.3169 216.682 86.4089 216.746C86.4666 216.788 86.5276 216.83 86.5844 216.871L86.6062 216.887L86.6279 216.901C87.0041 217.164 87.3887 217.411 87.9304 217.748L88.0224 217.809C88.1645 217.899 88.3091 217.982 88.4512 218.069L88.5156 218.109L88.5775 218.145C88.9331 218.358 89.2973 218.563 89.6701 218.758L89.7537 218.804L89.8064 218.832C89.8992 218.879 89.9861 218.93 90.0806 218.976L90.15 219.011C90.2419 219.058 90.3373 219.106 90.4351 219.155L90.5371 219.21L90.6708 219.273C90.8071 219.341 90.9475 219.409 91.0938 219.48C91.1707 219.517 91.2468 219.552 91.3237 219.589C91.526 219.684 91.7417 219.782 91.9566 219.882C92.7311 220.247 93.5238 220.572 94.3317 220.856L94.3567 220.866L94.4036 220.882C94.4579 220.902 94.5122 220.923 94.5708 220.942H94.5565L94.5741 220.948L94.5891 220.954L94.6042 220.959H94.6117C97.2419 221.92 99.9654 222.602 102.738 222.995C103.522 223.115 104.288 223.212 105.006 223.278H105.017C105.368 223.322 105.782 223.355 106.192 223.384C106.541 223.412 106.888 223.436 107.188 223.446C107.828 223.485 108.68 223.523 109.32 223.515C109.691 223.515 110.131 223.515 110.563 223.505L110.803 223.5L111.439 223.49H111.456C112.121 223.482 112.815 223.437 113.546 223.373H113.581C114.213 223.337 114.845 223.268 115.588 223.169H115.599L115.705 223.159H115.717H115.731C115.743 223.159 116.597 223.058 117.798 222.852H117.815C118.413 222.762 118.926 222.662 119.585 222.512L119.919 222.439H119.929H119.94L120.016 222.422C121.027 222.193 121.419 222.104 122.18 221.879C122.708 221.737 123.319 221.537 123.852 221.37L123.725 221.414L123.881 221.361L124.103 221.29C124.382 221.207 124.649 221.115 124.915 221.02C126.197 220.575 127.45 220.049 128.667 219.447C128.828 219.369 128.986 219.29 129.146 219.21L129.251 219.157L129.342 219.11C130.774 218.384 132.151 217.554 133.461 216.625C133.537 216.572 133.61 216.517 133.686 216.463C133.853 216.339 134.029 216.217 134.197 216.09C135.127 215.398 136.008 214.644 136.834 213.832C136.928 213.742 137.017 213.649 137.109 213.557C137.162 213.502 137.22 213.449 137.276 213.39L137.322 213.341C137.35 213.314 137.379 213.285 137.406 213.257L137.414 213.25L137.422 213.241L137.483 213.177C137.58 213.078 137.678 212.979 137.773 212.878C138.044 212.59 138.268 212.338 138.457 212.115C138.499 212.068 138.541 212.019 138.58 211.971L138.629 211.914L138.68 211.85C138.741 211.777 138.801 211.702 138.861 211.628C138.978 211.489 139.09 211.354 139.196 211.217C139.25 211.148 139.302 211.078 139.356 211.008C139.444 210.893 139.541 210.774 139.619 210.665C139.698 210.555 139.792 210.431 139.88 210.305C140.131 209.958 140.368 209.608 140.598 209.25C140.729 209.06 140.866 208.832 141.001 208.598L141.127 208.381C141.139 208.362 141.154 208.34 141.165 208.321C141.253 208.177 141.343 208.011 141.434 207.842L141.464 207.787L141.473 207.773C141.64 207.493 141.802 207.161 141.963 206.82L141.969 206.808C142.354 206.059 142.68 205.28 142.946 204.48L142.964 204.423C143.036 204.219 143.103 204.02 143.165 203.826C143.178 203.786 143.193 203.743 143.207 203.703C143.29 203.46 143.389 203.133 143.448 202.883L143.63 202.178L143.659 202.033C143.708 201.819 143.752 201.615 143.789 201.431L143.829 201.264L143.954 200.565V200.55V200.545L145.444 191.393C145.444 191.368 145.453 191.346 145.457 191.322C145.583 190.596 145.726 189.894 145.869 189.191C145.945 188.836 146.037 188.495 146.115 188.148C146.194 187.801 146.271 187.455 146.358 187.119C146.446 186.783 146.551 186.436 146.648 186.095C146.741 185.767 146.827 185.432 146.927 185.11C147.032 184.767 147.152 184.437 147.261 184.101C147.366 183.791 147.463 183.475 147.573 183.169C147.699 182.823 147.838 182.487 147.971 182.146C148.083 181.862 148.187 181.572 148.305 181.292C148.449 180.948 148.608 180.612 148.761 180.273C148.882 180.005 148.996 179.732 149.122 179.467C149.272 179.154 149.437 178.847 149.595 178.537C149.739 178.253 149.876 177.966 150.028 177.686C150.161 177.44 150.307 177.199 150.446 176.956C150.64 176.615 150.828 176.27 151.032 175.932L152.718 173.205L152.9 172.909L154.075 171.01L156.124 167.694L158.703 163.521L161.282 159.35C161.976 158.226 162.659 157.12 163.331 156.033L164.501 154.134L164.684 153.839L166.368 151.113L166.948 150.155L166.996 150.072L167.002 150.062C167.163 149.792 167.31 149.542 167.447 149.305C167.914 148.506 168.373 147.687 168.719 146.973L168.727 146.956C169.081 146.287 169.39 145.658 169.779 144.826L169.827 144.73C170.388 143.595 171.022 142.08 171.508 140.821C171.567 140.667 171.626 140.516 171.68 140.371C171.729 140.242 171.784 140.092 171.835 139.953C171.945 139.66 172.055 139.368 172.163 139.063C172.257 138.806 172.35 138.546 172.447 138.269C172.47 138.2 172.492 138.134 172.516 138.064C172.61 137.791 172.702 137.518 172.792 137.24C172.824 137.143 172.851 137.052 172.881 136.956C173.07 136.363 173.248 135.776 173.383 135.258C173.408 135.164 173.434 135.063 173.459 134.967C173.494 134.842 173.531 134.716 173.564 134.591C173.628 134.356 173.692 134.117 173.755 133.876C173.768 133.826 173.783 133.774 173.795 133.725C173.9 133.336 174.001 132.954 174.08 132.611C174.094 132.553 174.108 132.485 174.122 132.426C174.165 132.246 174.206 132.08 174.242 131.909L174.271 131.794L174.288 131.705C174.441 131.029 174.566 130.426 174.67 129.885L174.675 129.855C174.723 129.609 174.767 129.374 174.807 129.151C174.816 129.104 174.823 129.059 174.833 129.012C174.878 128.757 174.92 128.51 174.96 128.284L174.966 128.252L174.976 128.185C175.007 128.003 175.038 127.805 175.069 127.6C175.081 127.525 175.093 127.449 175.103 127.373C175.118 127.277 175.131 127.185 175.144 127.091C175.173 126.904 175.203 126.714 175.228 126.527C175.288 126.099 175.34 125.678 175.389 125.256C175.405 125.124 175.421 124.992 175.435 124.86C175.488 124.391 175.535 123.926 175.577 123.466V123.458C175.577 123.406 175.585 123.355 175.589 123.303C175.596 123.219 175.602 123.151 175.608 123.072C175.667 122.354 175.713 121.649 175.745 120.955C175.771 120.546 175.789 120.107 175.801 119.65C175.867 118.753 175.863 117.779 175.842 116.885Z" fill="#FFD3A6"/>
<path d="M138.484 138.09C152.632 134.702 161.355 120.486 157.967 106.338C154.579 92.1899 140.363 83.4672 126.215 86.8552C112.067 90.2432 103.344 104.459 106.732 118.607C110.12 132.755 124.336 141.478 138.484 138.09Z" fill="url(#paint4_linear)"/>
<g style="mix-blend-mode:screen">
<g style="mix-blend-mode:screen">
<path d="M163.078 223.849C130.976 239.414 83.0161 238.479 52.8164 221.043" stroke="#01C8BB" stroke-linecap="round" stroke-linejoin="round"/>
</g>
<g style="mix-blend-mode:screen">
<path d="M160.051 220.689L168.379 221.044L163.907 228.08L160.051 220.689Z" fill="#01C8BB"/>
</g>
</g>
<defs>
<linearGradient id="paint0_linear" x1="154.334" y1="187.742" x2="117.796" y2="300.294" gradientUnits="userSpaceOnUse">
<stop stop-color="#B4B4FF"/>
<stop offset="1" stop-color="#1919C7"/>
</linearGradient>
<linearGradient id="paint1_linear" x1="72.3091" y1="231.751" x2="129.505" y2="231.751" gradientUnits="userSpaceOnUse">
<stop stop-color="#B6B9FE"/>
<stop offset="1" stop-color="#5861D6"/>
</linearGradient>
<linearGradient id="paint2_linear" x1="130.247" y1="237.676" x2="82.4046" y2="237.676" gradientUnits="userSpaceOnUse">
<stop stop-color="#405C67"/>
<stop offset="0.448" stop-color="#1D3E47"/>
<stop offset="0.969" stop-color="#053036"/>
</linearGradient>
<linearGradient id="paint3_linear" x1="15597" y1="6983.67" x2="11927.2" y2="6983.67" gradientUnits="userSpaceOnUse">
<stop stop-color="#405C67"/>
<stop offset="0.448" stop-color="#1D3E47"/>
<stop offset="0.969" stop-color="#053036"/>
</linearGradient>
<linearGradient id="paint4_linear" x1="128.274" y1="72.3899" x2="134.127" y2="129.95" gradientUnits="userSpaceOnUse">
<stop stop-color="white"/>
<stop offset="0.114" stop-color="white" stop-opacity="0.832"/>
<stop offset="0.297" stop-color="white" stop-opacity="0.582"/>
<stop offset="0.473" stop-color="white" stop-opacity="0.374"/>
<stop offset="0.636" stop-color="white" stop-opacity="0.212"/>
<stop offset="0.783" stop-color="white" stop-opacity="0.096"/>
<stop offset="0.909" stop-color="white" stop-opacity="0.025"/>
<stop offset="1" stop-color="white" stop-opacity="0"/>
</linearGradient>
</defs>
</svg>
