<svg width="180" height="257" viewBox="0 0 180 257" fill="none" xmlns="http://www.w3.org/2000/svg">
<path d="M83.866 129.783L78.2405 140.055C77.7768 140.948 77.0777 141.697 76.219 142.222C75.3602 142.746 74.3744 143.026 73.3682 143.031L19.2319 143.064C15.7384 143.066 13.1896 146.266 13.5398 150.211L20.5583 229.328C20.9085 233.273 24.0236 236.469 27.518 236.467L156.391 236.391C159.884 236.389 162.433 233.189 162.083 229.244L153.628 133.911C153.278 129.966 150.162 126.77 146.669 126.772L88.7373 126.807C87.7312 126.812 86.7456 127.092 85.8871 127.617C85.0285 128.141 84.3296 128.89 83.866 129.783Z" fill="#4E4EE3"/>
<path opacity="0.3" d="M83.866 129.783L78.2405 140.055C77.7768 140.948 77.0777 141.697 76.219 142.222C75.3602 142.746 74.3744 143.026 73.3682 143.031L19.2319 143.064C15.7384 143.066 13.1896 146.266 13.5398 150.211L20.5583 229.328C20.9085 233.273 24.0236 236.469 27.518 236.467L156.391 236.391C159.884 236.389 162.433 233.189 162.083 229.244L153.628 133.911C153.278 129.966 150.162 126.77 146.669 126.772L88.7373 126.807C87.7312 126.812 86.7456 127.092 85.8871 127.617C85.0285 128.141 84.3296 128.89 83.866 129.783Z" fill="black"/>
<path d="M48.6619 18.5396C49.9164 18.5401 51.1699 18.6054 52.4176 18.7354C57.1708 12.1515 63.6105 6.97029 71.0593 3.73674C78.5081 0.503185 86.6906 -0.663161 94.7462 0.360378C102.802 1.38392 110.433 4.55951 116.836 9.55312C123.24 14.5467 128.179 21.1738 131.135 28.7371C138.801 30.0542 145.693 34.2004 150.449 40.3556C155.204 46.5109 157.477 54.2268 156.816 61.977C156.156 69.7273 152.61 76.9474 146.882 82.209C141.153 87.4707 133.658 90.3907 125.88 90.3914H48.6619C39.1346 90.3914 29.9976 86.6067 23.2608 79.8699C16.524 73.1331 12.7393 63.996 12.7393 54.4687C12.7393 44.9414 16.524 35.8044 23.2608 29.0676C29.9976 22.3308 39.1346 18.546 48.6619 18.546V18.5396Z" fill="#4E4EE3"/>
<path d="M51.9941 77.8264V167.392H117.681V97.3231L98.184 77.8264H51.9941Z" fill="#4E4EE3"/>
<path opacity="0.6" d="M51.9941 77.8264V167.392H117.681V97.3231L98.184 77.8264H51.9941Z" fill="white"/>
<path opacity="0.4" d="M98.1826 97.3231V77.8264L117.679 97.3231H98.1826Z" fill="#4E4EE3"/>
<path d="M105.718 141.976L98.2172 151.076C97.5619 151.885 96.7375 152.539 95.8019 152.995C94.8664 153.45 93.8424 153.695 92.802 153.712L38.6657 153.745C36.9339 153.784 35.2739 154.445 33.9894 155.608C32.7049 156.77 31.8816 158.355 31.67 160.075L24.2441 230.146C24.1368 230.944 24.2038 231.757 24.4405 232.528C24.6773 233.298 25.0781 234.008 25.6155 234.609C26.1529 235.21 26.8141 235.687 27.5535 236.008C28.293 236.329 29.0932 236.486 29.899 236.468L158.777 236.384C160.509 236.345 162.169 235.684 163.453 234.522C164.738 233.36 165.561 231.774 165.773 230.055L174.72 145.625C174.827 144.826 174.76 144.014 174.524 143.243C174.287 142.472 173.886 141.762 173.349 141.161C172.811 140.561 172.15 140.083 171.41 139.763C170.671 139.442 169.871 139.285 169.065 139.303L111.134 139.338C110.093 139.356 109.069 139.601 108.134 140.057C107.198 140.512 106.374 141.167 105.718 141.976Z" fill="url(#paint0_linear)"/>
<path d="M101.424 64.8383C101.196 64.8382 100.974 64.7705 100.784 64.6438C100.594 64.5171 100.447 64.3371 100.36 64.1265C100.272 63.9159 100.25 63.6842 100.294 63.4606C100.338 63.237 100.448 63.0316 100.609 62.8704C103.728 59.7514 105.852 55.7776 106.713 51.4515C107.573 47.1254 107.132 42.6413 105.444 38.5662C103.756 34.4911 100.897 31.008 97.2297 28.5575C93.5622 26.1069 89.2504 24.7989 84.8395 24.7989C80.4286 24.7989 76.1168 26.1069 72.4493 28.5575C68.7818 31.008 65.9234 34.4911 64.2354 38.5662C62.5474 42.6413 62.1058 47.1254 62.9663 51.4515C63.8268 55.7776 65.9508 59.7514 69.0697 62.8704C69.2859 63.0864 69.4074 63.3795 69.4075 63.6851C69.4075 63.9907 69.2862 64.2838 69.0702 64.4999C68.8542 64.7161 68.5611 64.8375 68.2555 64.8376C67.9499 64.8377 67.6568 64.7164 67.4407 64.5004C63.9993 61.0591 61.6557 56.6746 60.7063 51.9014C59.7568 47.1282 60.244 42.1806 62.1064 37.6843C63.9688 33.188 67.1227 29.345 71.1692 26.6411C75.2158 23.9373 79.9732 22.4941 84.84 22.4941C89.7067 22.4941 94.4642 23.9373 98.5107 26.6411C102.557 29.345 105.711 33.188 107.574 37.6843C109.436 42.1806 109.923 47.1282 108.974 51.9014C108.024 56.6746 105.681 61.0591 102.239 64.5004C102.132 64.6077 102.005 64.6928 101.866 64.7508C101.726 64.8088 101.576 64.8385 101.424 64.8383Z" fill="white"/>
<path d="M91.5335 60.7731V40.9998C91.5335 40.1443 91.1967 39.3238 90.597 38.7188C89.9974 38.1137 89.184 37.7737 88.3359 37.7736H79.6668C78.8186 37.7736 78.0051 38.1135 77.4053 38.7185C76.8055 39.3235 76.4685 40.1441 76.4685 40.9998V60.7731H73.21L84.0021 70.151L94.7949 60.7731H91.5335Z" fill="white"/>
<defs>
<linearGradient id="paint0_linear" x1="140.699" y1="142.233" x2="74.5834" y2="242.978" gradientUnits="userSpaceOnUse">
<stop stop-color="#B4B4FF"/>
<stop offset="1" stop-color="#1919C7"/>
</linearGradient>
</defs>
</svg>
