<svg width="1906" height="1585" viewBox="0 0 1906 1585" fill="none" xmlns="http://www.w3.org/2000/svg">
<path d="M911.772 514.332C911.772 514.332 969.271 207.748 1203.39 207.748C1491.44 240.899 1387.83 116.273 1525.68 50.9945C1525.68 50.9945 1730.63 -41.5685 1907.27 22.7215V501.685L911.772 514.332Z" fill="#F0F2FE"/>
<path d="M1907.27 501.685L911.772 514.332C886.772 680.332 670.845 746.985 397.772 664.332C218.272 610.002 86.0605 744.118 33.7716 823.832C-29.2283 919.875 -11.7284 1181.88 151.772 1227.88C605.916 1285.5 815.613 1278.16 1008.42 1459.83C1161.42 1604 1852.42 1646 1907.27 1459.83V501.685Z" fill="#F0F2FE"/>
<g opacity="0.8">
<g opacity="0.4">
<mask id="mask0" mask-type="alpha" maskUnits="userSpaceOnUse" x="0" y="0" width="1908" height="1585">
<path d="M911.772 514.332C911.772 514.332 969.271 207.748 1203.39 207.748C1491.44 240.899 1387.83 116.273 1525.68 50.9945C1525.68 50.9945 1730.63 -41.5685 1907.27 22.7215V501.685L911.772 514.332Z" fill="#F0F2FE"/>
<path d="M1907.27 501.685L911.772 514.332C886.772 680.332 670.845 746.985 397.772 664.332C218.272 610.002 86.0605 744.118 33.7716 823.832C-29.2283 919.875 -11.7284 1181.88 151.772 1227.88C605.916 1285.5 815.613 1278.16 1008.42 1459.83C1161.42 1604 1852.42 1646 1907.27 1459.83V501.685Z" fill="#F0F2FE"/>
</mask>
<g mask="url(#mask0)">
<g opacity="0.26" filter="url(#filter0_f)">
<ellipse rx="264" ry="228" transform="matrix(-1 0 0 1 1302.86 517.875)" fill="#80FF00"/>
</g>
<g opacity="0.26" filter="url(#filter1_f)">
<ellipse rx="264" ry="187.5" transform="matrix(-1 0 0 1 399.856 1235.38)" fill="#80FF00"/>
</g>
<g opacity="0.3" filter="url(#filter2_f)">
<ellipse rx="294.271" ry="421.704" transform="matrix(-0.896746 0.442546 0.442546 0.896746 1668.35 1028.94)" fill="#FF8000"/>
</g>
<g opacity="0.3" filter="url(#filter3_f)">
<ellipse rx="340.425" ry="342.285" transform="matrix(-0.707107 0.707107 0.707107 0.707107 745.075 1012.41)" fill="#4747D2"/>
</g>
</g>
</g>
</g>
<defs>
<filter id="filter0_f" x="838.856" y="89.875" width="928" height="856" filterUnits="userSpaceOnUse" color-interpolation-filters="sRGB">
<feFlood flood-opacity="0" result="BackgroundImageFix"/>
<feBlend mode="normal" in="SourceGraphic" in2="BackgroundImageFix" result="shape"/>
<feGaussianBlur stdDeviation="100" result="effect1_foregroundBlur"/>
</filter>
<filter id="filter1_f" x="-64.1436" y="847.875" width="928" height="775" filterUnits="userSpaceOnUse" color-interpolation-filters="sRGB">
<feFlood flood-opacity="0" result="BackgroundImageFix"/>
<feBlend mode="normal" in="SourceGraphic" in2="BackgroundImageFix" result="shape"/>
<feGaussianBlur stdDeviation="100" result="effect1_foregroundBlur"/>
</filter>
<filter id="filter2_f" x="967.837" y="270.546" width="1401.02" height="1516.78" filterUnits="userSpaceOnUse" color-interpolation-filters="sRGB">
<feFlood flood-opacity="0" result="BackgroundImageFix"/>
<feBlend mode="normal" in="SourceGraphic" in2="BackgroundImageFix" result="shape"/>
<feGaussianBlur stdDeviation="125" result="effect1_foregroundBlur"/>
</filter>
<filter id="filter3_f" x="62.3262" y="329.658" width="1365.5" height="1365.5" filterUnits="userSpaceOnUse" color-interpolation-filters="sRGB">
<feFlood flood-opacity="0" result="BackgroundImageFix"/>
<feBlend mode="normal" in="SourceGraphic" in2="BackgroundImageFix" result="shape"/>
<feGaussianBlur stdDeviation="100" result="effect1_foregroundBlur"/>
</filter>
</defs>
</svg>
