<svg width="48" height="48" viewBox="0 0 48 48" fill="none" xmlns="http://www.w3.org/2000/svg">
<path d="M14.25 30H15.75V31.5H14.25V30Z" fill="url(#paint0_linear)"/>
<path d="M17.25 30H18.75V31.5H17.25V30Z" fill="url(#paint1_linear)"/>
<path d="M20.25 30H24.75V31.5H20.25V30Z" fill="url(#paint2_linear)"/>
<path d="M14.25 24H15.75V25.5H14.25V24Z" fill="url(#paint3_linear)"/>
<path d="M17.25 24H18.75V25.5H17.25V24Z" fill="url(#paint4_linear)"/>
<path d="M20.25 24H24.75V25.5H20.25V24Z" fill="url(#paint5_linear)"/>
<path d="M21.9236 39.75H11.25C11.0511 39.75 10.8603 39.829 10.7197 39.9697C10.579 40.1103 10.5 40.3011 10.5 40.5V46.5H12V41.25H21.9236C22.0344 41.5545 22.2106 41.8311 22.4397 42.0603C22.6689 42.2894 22.9455 42.4656 23.25 42.5764V46.5H24.75V42.5764C25.0545 42.4656 25.3311 42.2894 25.5603 42.0603C25.7894 41.8311 25.9656 41.5545 26.0764 41.25H36V46.5H37.5V40.5C37.5 40.3011 37.421 40.1103 37.2803 39.9697C37.1397 39.829 36.9489 39.75 36.75 39.75H26.0764C25.9656 39.4455 25.7894 39.1689 25.5603 38.9397C25.3311 38.7106 25.0545 38.5344 24.75 38.4236V34.5H36.75C36.9489 34.5 37.1397 34.421 37.2803 34.2803C37.421 34.1397 37.5 33.9489 37.5 33.75V21.75C37.5 21.5511 37.421 21.3603 37.2803 21.2197C37.1397 21.079 36.9489 21 36.75 21H11.25C11.0511 21 10.8603 21.079 10.7197 21.2197C10.579 21.3603 10.5 21.5511 10.5 21.75V33.75C10.5 33.9489 10.579 34.1397 10.7197 34.2803C10.8603 34.421 11.0511 34.5 11.25 34.5H23.25V38.4236C22.9455 38.5344 22.6689 38.7106 22.4397 38.9397C22.2106 39.1689 22.0344 39.4455 21.9236 39.75ZM36 33H31.5V28.5H36V33ZM36 27H31.5V22.5H36V27ZM12 22.5H30V27H12V22.5ZM12 28.5H30V33H12V28.5ZM24 41.2078C23.86 41.2078 23.7232 41.1663 23.6068 41.0885C23.4904 41.0107 23.3997 40.9002 23.3461 40.7709C23.2925 40.6415 23.2785 40.4992 23.3058 40.3619C23.3331 40.2246 23.4005 40.0985 23.4995 39.9995C23.5985 39.9005 23.7246 39.8331 23.8619 39.8058C23.9992 39.7785 24.1415 39.7925 24.2709 39.8461C24.4002 39.8997 24.5107 39.9904 24.5885 40.1068C24.6663 40.2232 24.7078 40.36 24.7078 40.5C24.7076 40.6877 24.6329 40.8676 24.5003 41.0003C24.3676 41.1329 24.1877 41.2076 24 41.2078Z" fill="url(#paint6_linear)"/>
<path d="M39.75 18H38.9534C38.8461 17.1488 38.5575 16.3304 38.107 15.6002C37.6566 14.87 37.0548 14.2449 36.3422 13.767C35.6297 13.2891 34.8229 12.9696 33.9764 12.83C33.1298 12.6904 32.2632 12.7339 31.4349 12.9577C30.7851 6.53196 25.3442 1.5 18.75 1.5C11.7197 1.5 6.00001 7.21962 6.00001 14.25C6.00041 15.1762 6.10141 16.0996 6.30124 17.004C4.66755 17.6339 3.30577 18.8156 2.45198 20.3443C1.59819 21.8729 1.30622 23.6522 1.62669 25.3735C1.94716 27.0949 2.85986 28.6498 4.20657 29.7688C5.55328 30.8878 7.24909 31.5002 9.00001 31.5V30C7.61109 30.0001 6.26516 29.5183 5.19183 28.6367C4.11849 27.7552 3.38426 26.5286 3.11437 25.1662C2.84448 23.8037 3.05566 22.3898 3.71189 21.1657C4.36811 19.9416 5.42872 18.983 6.71279 18.4536C6.94962 19.1357 7.24451 19.7962 7.59422 20.4278L8.90581 19.7C8.03299 18.1196 7.55343 16.3523 7.50765 14.5474C7.46188 12.7426 7.85123 10.9533 8.6428 9.33063C9.43437 7.708 10.6049 6.29975 12.0555 5.22489C13.5061 4.15003 15.1941 3.44014 16.9769 3.15521C18.7597 2.87028 20.5849 3.01869 22.2982 3.58789C24.0116 4.15709 25.5627 5.13035 26.8206 6.42544C28.0785 7.72053 29.0061 9.29938 29.5252 11.0286C30.0442 12.7578 30.1394 14.5865 29.8026 16.3602L31.2763 16.6398C31.4091 15.9366 31.483 15.2235 31.497 14.508C32.1759 14.2677 32.9025 14.1938 33.6158 14.2925C34.3292 14.3912 35.0084 14.6596 35.5965 15.0751C36.1846 15.4907 36.6645 16.0414 36.9957 16.6808C37.3269 17.3203 37.4999 18.0299 37.5 18.75C37.5 18.9489 37.579 19.1397 37.7197 19.2803C37.8603 19.421 38.0511 19.5 38.25 19.5H39.75C41.1424 19.5 42.4778 20.0531 43.4623 21.0377C44.4469 22.0223 45 23.3576 45 24.75C45 26.1424 44.4469 27.4777 43.4623 28.4623C42.4778 29.4469 41.1424 30 39.75 30H39V31.5H39.75C41.5402 31.5 43.2571 30.7888 44.523 29.523C45.7889 28.2571 46.5 26.5402 46.5 24.75C46.5 22.9598 45.7889 21.2429 44.523 19.977C43.2571 18.7112 41.5402 18 39.75 18Z" fill="url(#paint7_linear)"/>
<defs>
<linearGradient id="paint0_linear" x1="15.3526" y1="30.0925" x2="14.6262" y2="31.3844" gradientUnits="userSpaceOnUse">
<stop stop-color="#B4B4FF"/>
<stop offset="1" stop-color="#1919C7"/>
</linearGradient>
<linearGradient id="paint1_linear" x1="18.3526" y1="30.0925" x2="17.6262" y2="31.3844" gradientUnits="userSpaceOnUse">
<stop stop-color="#B4B4FF"/>
<stop offset="1" stop-color="#1919C7"/>
</linearGradient>
<linearGradient id="paint2_linear" x1="23.5578" y1="30.0925" x2="23.25" y2="31.7352" gradientUnits="userSpaceOnUse">
<stop stop-color="#B4B4FF"/>
<stop offset="1" stop-color="#1919C7"/>
</linearGradient>
<linearGradient id="paint3_linear" x1="15.3526" y1="24.0925" x2="14.6262" y2="25.3844" gradientUnits="userSpaceOnUse">
<stop stop-color="#B4B4FF"/>
<stop offset="1" stop-color="#1919C7"/>
</linearGradient>
<linearGradient id="paint4_linear" x1="18.3526" y1="24.0925" x2="17.6262" y2="25.3844" gradientUnits="userSpaceOnUse">
<stop stop-color="#B4B4FF"/>
<stop offset="1" stop-color="#1919C7"/>
</linearGradient>
<linearGradient id="paint5_linear" x1="23.5578" y1="24.0925" x2="23.25" y2="25.7352" gradientUnits="userSpaceOnUse">
<stop stop-color="#B4B4FF"/>
<stop offset="1" stop-color="#1919C7"/>
</linearGradient>
<linearGradient id="paint6_linear" x1="30.3471" y1="22.5717" x2="18.3734" y2="45.1204" gradientUnits="userSpaceOnUse">
<stop stop-color="#B4B4FF"/>
<stop offset="1" stop-color="#1919C7"/>
</linearGradient>
<linearGradient id="paint7_linear" x1="34.5785" y1="3.34905" x2="23.4015" y2="33.1676" gradientUnits="userSpaceOnUse">
<stop stop-color="#B4B4FF"/>
<stop offset="1" stop-color="#1919C7"/>
</linearGradient>
</defs>
</svg>
