<svg width="46" height="38" viewBox="0 0 46 38" fill="none" xmlns="http://www.w3.org/2000/svg">
<path d="M43.25 21H28.25C27.6535 21.0007 27.0816 21.238 26.6598 21.6598C26.238 22.0816 26.0007 22.6535 26 23.25V30H23.75V19.5H35.75C35.9489 19.5 36.1397 19.421 36.2803 19.2803C36.421 19.1397 36.5 18.9489 36.5 18.75V10.5H35V12H30.5V9.75H29V12H11V7.5H26.75V6H11V1.5H25.25V0H10.25C10.0511 1.98909e-06 9.86032 0.0790204 9.71967 0.219672C9.57902 0.360324 9.5 0.551088 9.5 0.75V18.75C9.5 18.9489 9.57902 19.1397 9.71967 19.2803C9.86032 19.421 10.0511 19.5 10.25 19.5H22.25V30H19.9562V23.25C19.9555 22.6535 19.7182 22.0816 19.2964 21.6598C18.8746 21.2379 18.3027 21.0007 17.7062 21H2.75C2.15347 21.0007 1.58157 21.2379 1.15975 21.6598C0.737944 22.0816 0.500674 22.6535 0.5 23.25V31.5C0.500674 32.0965 0.737944 32.6684 1.15975 33.0902C1.58157 33.5121 2.15347 33.7493 2.75 33.75H8.34863L9.37791 35.2939C9.42351 35.3623 9.44968 35.4418 9.45364 35.5239C9.45761 35.606 9.43921 35.6877 9.40042 35.7602C9.36163 35.8326 9.30389 35.8932 9.23337 35.9355C9.16285 35.9777 9.08219 36 8.99998 36C8.80107 36 8.61031 36.079 8.46965 36.2197C8.329 36.3603 8.24998 36.5511 8.24998 36.75C8.24998 36.9489 8.329 37.1397 8.46965 37.2803C8.61031 37.421 8.80107 37.5 8.99998 37.5H13.5C13.8537 37.5 14.2008 37.404 14.5042 37.2223C14.8076 37.0405 15.056 36.7798 15.2229 36.468C15.3898 36.1561 15.469 35.8048 15.4519 35.4515C15.4348 35.0982 15.3222 34.7562 15.126 34.4619L14.6514 33.75H17.7062C18.3027 33.7493 18.8746 33.5121 19.2964 33.0902C19.7183 32.6684 19.9555 32.0965 19.9562 31.5H26C26.0007 32.0965 26.238 32.6684 26.6598 33.0902C27.0816 33.512 27.6535 33.7493 28.25 33.75H32.8486L33.8779 35.294C33.9235 35.3624 33.9497 35.4419 33.9536 35.524C33.9576 35.6061 33.9392 35.6877 33.9004 35.7602C33.8616 35.8327 33.8039 35.8933 33.7334 35.9355C33.6629 35.9777 33.5822 36 33.5 36C33.3011 36 33.1103 36.079 32.9697 36.2197C32.829 36.3603 32.75 36.5511 32.75 36.75C32.75 36.9489 32.829 37.1397 32.9697 37.2803C33.1103 37.421 33.3011 37.5 33.5 37.5H38C38.3537 37.5 38.7008 37.404 39.0042 37.2222C39.3076 37.0405 39.556 36.7798 39.7229 36.4679C39.8898 36.1561 39.9689 35.8048 39.9519 35.4515C39.9348 35.0982 39.8222 34.7562 39.626 34.4619L39.1514 33.75H43.25C43.8465 33.7493 44.4184 33.5121 44.8402 33.0902C45.2621 32.6684 45.4993 32.0965 45.5 31.5V23.25C45.4993 22.6535 45.2621 22.0816 44.8402 21.6598C44.4184 21.2379 43.8465 21.0007 43.25 21ZM35 18H30.5V13.5H35V18ZM11 13.5H29V18H11V13.5ZM13.8779 35.2939C13.9235 35.3623 13.9497 35.4418 13.9536 35.5239C13.9576 35.606 13.9392 35.6877 13.9004 35.7602C13.8616 35.8326 13.8039 35.8932 13.7334 35.9355C13.6628 35.9777 13.5822 36 13.5 36H10.901C10.9636 35.7385 10.9715 35.4669 10.9242 35.2022C10.8769 34.9375 10.7753 34.6855 10.626 34.4619L10.1514 33.75H12.8486L13.8779 35.2939ZM2.75 32.25C2.55116 32.2498 2.36052 32.1707 2.21992 32.0301C2.07932 31.8895 2.00023 31.6988 2 31.5V23.25C2.00023 23.0512 2.07932 22.8605 2.21992 22.7199C2.36052 22.5793 2.55116 22.5002 2.75 22.5H14.7062C14.905 22.5002 15.0957 22.5793 15.2363 22.7199C15.3769 22.8605 15.456 23.0512 15.4562 23.25V31.5C15.456 31.6988 15.3769 31.8895 15.2363 32.0301C15.0957 32.1707 14.905 32.2498 14.7062 32.25H2.75ZM18.4562 31.5C18.456 31.6988 18.3769 31.8895 18.2363 32.0301C18.0957 32.1707 17.905 32.2498 17.7062 32.25H16.8272C16.9127 32.0092 16.9563 31.7555 16.9562 31.5V23.25C16.9563 22.9945 16.9127 22.7408 16.8272 22.5H17.7062C17.905 22.5002 18.0957 22.5793 18.2363 22.7199C18.3769 22.8605 18.456 23.0512 18.4562 23.25V31.5ZM38.3779 35.294C38.4235 35.3624 38.4497 35.4419 38.4536 35.524C38.4576 35.6061 38.4392 35.6877 38.4004 35.7602C38.3616 35.8327 38.3039 35.8933 38.2334 35.9355C38.1629 35.9777 38.0822 36 38 36H35.401C35.4636 35.7385 35.4715 35.4669 35.4242 35.2022C35.3769 34.9375 35.2753 34.6855 35.126 34.4619L34.6514 33.75H37.3486L38.3779 35.294ZM28.25 32.25C28.0512 32.2498 27.8605 32.1707 27.7199 32.0301C27.5793 31.8895 27.5002 31.6988 27.5 31.5V23.25C27.5002 23.0512 27.5793 22.8605 27.7199 22.7199C27.8605 22.5793 28.0512 22.5002 28.25 22.5H40.25C40.4488 22.5002 40.6395 22.5793 40.7801 22.7199C40.9207 22.8605 40.9998 23.0512 41 23.25V31.5C40.9998 31.6988 40.9207 31.8895 40.7801 32.0301C40.6395 32.1707 40.4488 32.2498 40.25 32.25H28.25ZM44 31.5C43.9998 31.6988 43.9207 31.8895 43.7801 32.0301C43.6395 32.1707 43.4488 32.2498 43.25 32.25H42.371C42.4565 32.0092 42.5001 31.7555 42.5 31.5V23.25C42.5001 22.9945 42.4565 22.7408 42.371 22.5H43.25C43.4488 22.5002 43.6395 22.5793 43.7801 22.7199C43.9207 22.8605 43.9998 23.0512 44 23.25V31.5Z" fill="url(#paint0_linear)"/>
<defs>
<linearGradient id="paint0_linear" x1="33.5785" y1="2.31132" x2="17.2462" y2="37.169" gradientUnits="userSpaceOnUse">
<stop stop-color="#B4B4FF"/>
<stop offset="1" stop-color="#1919C7"/>
</linearGradient>
</defs>
</svg>
