<svg width="48" height="48" viewBox="0 0 48 48" fill="none" xmlns="http://www.w3.org/2000/svg">
<path d="M44.25 1.5H21C20.4035 1.50067 19.8316 1.73794 19.4098 2.15975C18.9879 2.58157 18.7507 3.15347 18.75 3.75V17.25C18.7507 17.8465 18.9879 18.4184 19.4098 18.8402C19.8316 19.2621 20.4035 19.4993 21 19.5H30.7627L32.6317 22.2413C32.747 22.4103 32.814 22.6076 32.8255 22.8119C32.8369 23.0162 32.7925 23.2198 32.6969 23.4007C32.6013 23.5816 32.4581 23.733 32.2829 23.8386C32.1076 23.9442 31.9069 24 31.7022 24H31.5C31.3011 24 31.1103 24.079 30.9697 24.2197C30.829 24.3603 30.75 24.5511 30.75 24.75C30.75 24.9489 30.829 25.1397 30.9697 25.2803C31.1103 25.421 31.3011 25.5 31.5 25.5H37.7022C38.1797 25.5 38.6481 25.3698 39.057 25.1234C39.466 24.877 39.8 24.5237 40.023 24.1016C40.2461 23.6794 40.3499 23.2045 40.3231 22.7278C40.2963 22.2511 40.14 21.7907 39.8711 21.3962L38.5782 19.5H42V30.75C41.9998 30.9488 41.9207 31.1395 41.7801 31.2801C41.6395 31.4207 41.4488 31.4998 41.25 31.5H36.75C36.1533 31.5 35.581 31.7371 35.159 32.159C34.7371 32.581 34.5 33.1533 34.5 33.75C34.5 34.3467 34.7371 34.919 35.159 35.341C35.581 35.7629 36.1533 36 36.75 36H39.75C39.9489 36 40.1397 36.079 40.2803 36.2197C40.421 36.3603 40.5 36.5511 40.5 36.75C40.5 36.9489 40.421 37.1397 40.2803 37.2803C40.1397 37.421 39.9489 37.5 39.75 37.5H33C32.4033 37.5 31.831 37.7371 31.409 38.159C30.9871 38.581 30.75 39.1533 30.75 39.75C30.75 40.3467 30.9871 40.919 31.409 41.341C31.831 41.7629 32.4033 42 33 42H37.5C37.6989 42 37.8897 42.079 38.0303 42.2197C38.171 42.3603 38.25 42.5511 38.25 42.75C38.25 42.9489 38.171 43.1397 38.0303 43.2803C37.8897 43.421 37.6989 43.5 37.5 43.5H27C26.8012 43.4998 26.6105 43.4207 26.4699 43.2801C26.3293 43.1395 26.2502 42.9488 26.25 42.75V40.5H27C27.5965 40.4993 28.1684 40.262 28.5902 39.8402C29.012 39.4184 29.2493 38.8465 29.25 38.25V24.75C29.2493 24.1535 29.012 23.5816 28.5902 23.1598C28.1684 22.738 27.5965 22.5007 27 22.5H3.75C3.15347 22.5007 2.58157 22.7379 2.15975 23.1598C1.73794 23.5816 1.50067 24.1535 1.5 24.75V38.25C1.50067 38.8465 1.73794 39.4184 2.15975 39.8402C2.58157 40.2621 3.15347 40.4993 3.75 40.5H13.5127L15.3817 43.2413C15.497 43.4103 15.564 43.6076 15.5755 43.8119C15.5869 44.0162 15.5425 44.2198 15.4469 44.4007C15.3513 44.5816 15.2081 44.733 15.0329 44.8386C14.8576 44.9442 14.6569 45 14.4522 45H14.25C14.0511 45 13.8603 45.079 13.7197 45.2197C13.579 45.3603 13.5 45.5511 13.5 45.75C13.5 45.9489 13.579 46.1397 13.7197 46.2803C13.8603 46.421 14.0511 46.5 14.25 46.5H20.4522C20.9297 46.5 21.3981 46.3698 21.807 46.1234C22.216 45.877 22.55 45.5237 22.773 45.1016C22.9961 44.6794 23.0999 44.2045 23.0731 43.7278C23.0463 43.2511 22.89 42.7907 22.6211 42.3962L21.3282 40.5H24.75V42.75C24.7507 43.3465 24.988 43.9184 25.4098 44.3402C25.8316 44.762 26.4035 44.9993 27 45H37.5C38.0967 45 38.669 44.7629 39.091 44.341C39.5129 43.919 39.75 43.3467 39.75 42.75C39.75 42.1533 39.5129 41.581 39.091 41.159C38.669 40.7371 38.0967 40.5 37.5 40.5H33C32.8011 40.5 32.6103 40.421 32.4697 40.2803C32.329 40.1397 32.25 39.9489 32.25 39.75C32.25 39.5511 32.329 39.3603 32.4697 39.2197C32.6103 39.079 32.8011 39 33 39H39.75C40.3467 39 40.919 38.7629 41.341 38.341C41.7629 37.919 42 37.3467 42 36.75C42 36.1533 41.7629 35.581 41.341 35.159C40.919 34.7371 40.3467 34.5 39.75 34.5H36.75C36.5511 34.5 36.3603 34.421 36.2197 34.2803C36.079 34.1397 36 33.9489 36 33.75C36 33.5511 36.079 33.3603 36.2197 33.2197C36.3603 33.079 36.5511 33 36.75 33H41.25C41.8465 32.9993 42.4184 32.762 42.8402 32.3402C43.262 31.9184 43.4993 31.3465 43.5 30.75V19.5H44.25C44.8465 19.4993 45.4184 19.262 45.8402 18.8402C46.262 18.4184 46.4993 17.8465 46.5 17.25V3.75C46.4993 3.15347 46.262 2.58157 45.8402 2.15976C45.4184 1.73795 44.8465 1.50068 44.25 1.5ZM27.75 24.75V38.25C27.7498 38.4488 27.6707 38.6395 27.5301 38.7801C27.3895 38.9207 27.1988 38.9998 27 39H26.121C26.2065 38.7592 26.2501 38.5055 26.25 38.25V24.75C26.2501 24.4945 26.2065 24.2408 26.121 24H27C27.1988 24.0002 27.3895 24.0793 27.5301 24.2199C27.6707 24.3605 27.7498 24.5512 27.75 24.75ZM21.3817 43.2413C21.497 43.4103 21.564 43.6076 21.5755 43.8119C21.5869 44.0162 21.5425 44.2198 21.4469 44.4007C21.3513 44.5816 21.2081 44.733 21.0329 44.8386C20.8576 44.9442 20.6569 45 20.4522 45H16.824C17.0461 44.5334 17.1251 44.0115 17.0512 43.5H18.75V42H16.3509L15.3282 40.5H19.5127L21.3817 43.2413ZM3.75 39C3.55116 38.9998 3.36052 38.9207 3.21992 38.7801C3.07932 38.6395 3.00023 38.4488 3 38.25V24.75C3.00023 24.5512 3.07932 24.3605 3.21992 24.2199C3.36052 24.0793 3.55116 24.0002 3.75 24H24C24.1988 24.0002 24.3895 24.0793 24.5301 24.2199C24.6707 24.3605 24.7498 24.5512 24.75 24.75V38.25C24.7498 38.4488 24.6707 38.6395 24.5301 38.7801C24.3895 38.9207 24.1988 38.9998 24 39H3.75ZM38.6317 22.2413C38.747 22.4103 38.814 22.6076 38.8255 22.8119C38.8369 23.0162 38.7925 23.2198 38.6969 23.4007C38.6013 23.5816 38.4581 23.733 38.2829 23.8386C38.1076 23.9442 37.9069 24 37.7022 24H34.074C34.2961 23.5334 34.3751 23.0115 34.3012 22.5H36V21H33.6009L32.5782 19.5H36.7627L38.6317 22.2413ZM21 18C20.8012 17.9998 20.6105 17.9207 20.4699 17.7801C20.3293 17.6395 20.2502 17.4488 20.25 17.25V3.75C20.2502 3.55116 20.3293 3.36052 20.4699 3.21992C20.6105 3.07932 20.8012 3.00023 21 3H41.25C41.4488 3.00023 41.6395 3.07932 41.7801 3.21992C41.9207 3.36052 41.9998 3.55116 42 3.75V17.25C41.9998 17.4488 41.9207 17.6395 41.7801 17.7801C41.6395 17.9207 41.4488 17.9998 41.25 18H21ZM45 17.25C44.9998 17.4488 44.9207 17.6395 44.7801 17.7801C44.6395 17.9207 44.4488 17.9998 44.25 18H43.371C43.4565 17.7592 43.5001 17.5055 43.5 17.25V3.75C43.5001 3.49447 43.4565 3.24081 43.371 3H44.25C44.4488 3.00023 44.6395 3.07932 44.7801 3.21992C44.9207 3.36052 44.9998 3.55116 45 3.75V17.25Z" fill="url(#paint0_linear)"/>
<defs>
<linearGradient id="paint0_linear" x1="34.5785" y1="4.27358" x2="12.786" y2="43.0329" gradientUnits="userSpaceOnUse">
<stop stop-color="#B4B4FF"/>
<stop offset="1" stop-color="#1919C7"/>
</linearGradient>
</defs>
</svg>
