<svg width="46" height="46" viewBox="0 0 46 46" fill="none" xmlns="http://www.w3.org/2000/svg">
<path d="M1.25 45.5H44.75C44.9489 45.5 45.1397 45.421 45.2803 45.2803C45.421 45.1397 45.5 44.9489 45.5 44.75V38C45.5 37.8011 45.421 37.6103 45.2803 37.4697C45.1397 37.329 44.9489 37.25 44.75 37.25H44C43.8011 37.25 43.6103 37.171 43.4697 37.0303C43.329 36.8897 43.25 36.6989 43.25 36.5C43.25 36.3011 43.329 36.1103 43.4697 35.9697C43.6103 35.829 43.8011 35.75 44 35.75H44.75C44.9489 35.75 45.1397 35.671 45.2803 35.5303C45.421 35.3897 45.5 35.1989 45.5 35V11C45.5 10.8011 45.421 10.6103 45.2803 10.4697C45.1397 10.329 44.9489 10.25 44.75 10.25H44C43.8011 10.25 43.6103 10.171 43.4697 10.0303C43.329 9.88968 43.25 9.69891 43.25 9.5C43.25 9.30109 43.329 9.11032 43.4697 8.96967C43.6103 8.82902 43.8011 8.75 44 8.75H44.75C44.9489 8.75 45.1397 8.67098 45.2803 8.53033C45.421 8.38968 45.5 8.19891 45.5 8V1.25C45.5 1.05109 45.421 0.860324 45.2803 0.719672C45.1397 0.57902 44.9489 0.500002 44.75 0.5H1.25C1.05109 0.500002 0.860324 0.57902 0.719672 0.719672C0.57902 0.860324 0.500002 1.05109 0.5 1.25V14C0.500002 14.1989 0.57902 14.3897 0.719672 14.5303C0.860324 14.671 1.05109 14.75 1.25 14.75H2C2.19891 14.75 2.38968 14.829 2.53033 14.9697C2.67098 15.1103 2.75 15.3011 2.75 15.5C2.75 15.6989 2.67098 15.8897 2.53033 16.0303C2.38968 16.171 2.19891 16.25 2 16.25H1.25C1.05109 16.25 0.860324 16.329 0.719672 16.4697C0.57902 16.6103 0.500002 16.8011 0.5 17V34.25C0.500002 34.4489 0.57902 34.6397 0.719672 34.7803C0.860324 34.921 1.05109 35 1.25 35H2C2.19891 35 2.38968 35.079 2.53033 35.2197C2.67098 35.3603 2.75 35.5511 2.75 35.75C2.75 35.9489 2.67098 36.1397 2.53033 36.2803C2.38968 36.421 2.19891 36.5 2 36.5H1.25C1.05109 36.5 0.860324 36.579 0.719672 36.7197C0.57902 36.8603 0.500002 37.0511 0.5 37.25V44.75C0.500002 44.9489 0.57902 45.1397 0.719672 45.2803C0.860324 45.421 1.05109 45.5 1.25 45.5ZM2 38C2.59674 38 3.16903 37.7629 3.59099 37.341C4.01295 36.919 4.25 36.3467 4.25 35.75C4.25 35.1533 4.01295 34.581 3.59099 34.159C3.16903 33.7371 2.59674 33.5 2 33.5V17.75C2.29547 17.75 2.58805 17.6918 2.86104 17.5787C3.13402 17.4657 3.38206 17.2999 3.59099 17.091C3.79992 16.8821 3.96566 16.634 4.07873 16.361C4.1918 16.0881 4.25 15.7955 4.25 15.5C4.25 15.2045 4.1918 14.9119 4.07873 14.639C3.96566 14.366 3.79992 14.1179 3.59099 13.909C3.38206 13.7001 3.13402 13.5343 2.86104 13.4213C2.58805 13.3082 2.29547 13.25 2 13.25V2H44V7.25C43.7046 7.24926 43.412 7.30697 43.139 7.41981C42.866 7.53265 42.618 7.69839 42.4094 7.90749L42.4074 7.90936C42.0932 8.2243 41.8794 8.6253 41.7929 9.0617C41.7065 9.4981 41.7513 9.95034 41.9217 10.3613C42.0921 10.7723 42.3804 11.1235 42.7503 11.3707C43.1203 11.6178 43.5551 11.7498 44 11.75V34.25C43.7045 34.25 43.4119 34.3082 43.139 34.4213C42.866 34.5343 42.6179 34.7001 42.409 34.909C42.2001 35.1179 42.0343 35.366 41.9213 35.639C41.8082 35.9119 41.75 36.2045 41.75 36.5C41.75 36.7955 41.8082 37.0881 41.9213 37.361C42.0343 37.634 42.2001 37.8821 42.409 38.091C42.6179 38.2999 42.866 38.4657 43.139 38.5787C43.4119 38.6918 43.7045 38.75 44 38.75V44H2V38Z" fill="url(#paint0_linear)"/>
<path d="M4.25 8.75H8C8.19891 8.75 8.38968 8.67098 8.53033 8.53033C8.67098 8.38968 8.75 8.19891 8.75 8V4.25C8.75 4.05109 8.67098 3.86032 8.53033 3.71967C8.38968 3.57902 8.19891 3.5 8 3.5H4.25C4.05109 3.5 3.86032 3.57902 3.71967 3.71967C3.57902 3.86032 3.5 4.05109 3.5 4.25V8C3.5 8.19891 3.57902 8.38968 3.71967 8.53033C3.86032 8.67098 4.05109 8.75 4.25 8.75ZM5 5H7.25V7.25H5V5Z" fill="url(#paint1_linear)"/>
<path d="M3.5 10.25H5V11.75H3.5V10.25Z" fill="url(#paint2_linear)"/>
<path d="M3.5 23.75H5V25.25H3.5V23.75Z" fill="url(#paint3_linear)"/>
<path d="M5.75 23.75H7.25V25.25H5.75V23.75Z" fill="url(#paint4_linear)"/>
<path d="M3.5 26H5V27.5H3.5V26Z" fill="url(#paint5_linear)"/>
<path d="M5.75 26H7.25V27.5H5.75V26Z" fill="url(#paint6_linear)"/>
<path d="M3.5 28.25H5V29.75H3.5V28.25Z" fill="url(#paint7_linear)"/>
<path d="M5.75 28.25H7.25V29.75H5.75V28.25Z" fill="url(#paint8_linear)"/>
<path d="M38.75 18.5H40.25V20H38.75V18.5Z" fill="url(#paint9_linear)"/>
<path d="M41 18.5H42.5V20H41V18.5Z" fill="url(#paint10_linear)"/>
<path d="M38.75 20.75H40.25V22.25H38.75V20.75Z" fill="url(#paint11_linear)"/>
<path d="M41 20.75H42.5V22.25H41V20.75Z" fill="url(#paint12_linear)"/>
<path d="M38.75 23H40.25V24.5H38.75V23Z" fill="url(#paint13_linear)"/>
<path d="M41 23H42.5V24.5H41V23Z" fill="url(#paint14_linear)"/>
<path d="M6.5 10.25H8.75V11.75H6.5V10.25Z" fill="url(#paint15_linear)"/>
<path d="M30.5 9.5H17C16.0058 9.50113 15.0526 9.89658 14.3496 10.5996C13.6466 11.3026 13.2511 12.2558 13.25 13.25V32.75C13.2511 33.7442 13.6466 34.6974 14.3496 35.4004C15.0526 36.1034 16.0058 36.4989 17 36.5H30.5C31.4942 36.4989 32.4474 36.1034 33.1504 35.4004C33.8534 34.6974 34.2489 33.7442 34.25 32.75V13.25C34.2489 12.2558 33.8534 11.3026 33.1504 10.5996C32.4474 9.89658 31.4942 9.50113 30.5 9.5ZM32.75 32.75C32.7493 33.3465 32.512 33.9184 32.0902 34.3402C31.6684 34.762 31.0965 34.9993 30.5 35H17C16.4035 34.9993 15.8316 34.762 15.4098 34.3402C14.988 33.9184 14.7507 33.3465 14.75 32.75V13.25C14.7507 12.6535 14.988 12.0816 15.4098 11.6598C15.8316 11.238 16.4035 11.0007 17 11H30.5C31.0965 11.0007 31.6684 11.238 32.0902 11.6598C32.512 12.0816 32.7493 12.6535 32.75 13.25V32.75Z" fill="url(#paint16_linear)"/>
<path d="M38 3.5H34.25C33.6535 3.50067 33.0816 3.73794 32.6598 4.15975C32.2379 4.58157 32.0007 5.15347 32 5.75C31.9998 5.94884 31.9207 6.13948 31.7801 6.28008C31.6395 6.42068 31.4488 6.49977 31.25 6.5H29V5.75C28.9993 5.15347 28.7621 4.58157 28.3402 4.15975C27.9184 3.73794 27.3465 3.50067 26.75 3.5H19.25C18.6535 3.50067 18.0816 3.73794 17.6598 4.15975C17.2379 4.58157 17.0007 5.15347 17 5.75V6.5H12.5C11.9035 6.50067 11.3316 6.73794 10.9098 7.15975C10.4879 7.58157 10.2507 8.15347 10.25 8.75V12.5C10.2498 12.6988 10.1707 12.8895 10.0301 13.0301C9.88948 13.1707 9.69884 13.2498 9.5 13.25H8C7.40347 13.2507 6.83157 13.4879 6.40975 13.9098C5.98794 14.3316 5.75067 14.9035 5.75 15.5V20C5.75067 20.5965 5.98794 21.1684 6.40975 21.5902C6.83157 22.0121 7.40347 22.2493 8 22.25C8.19884 22.2502 8.38948 22.3293 8.53008 22.4699C8.67068 22.6105 8.74977 22.8012 8.75 23V32.75C8.74977 32.9488 8.67068 33.1395 8.53008 33.2801C8.38948 33.4207 8.19884 33.4998 8 33.5C7.40347 33.5007 6.83157 33.7379 6.40975 34.1598C5.98794 34.5816 5.75067 35.1535 5.75 35.75V40.25C5.75067 40.8465 5.98794 41.4184 6.40975 41.8402C6.83157 42.2621 7.40347 42.4993 8 42.5H11.75C12.3465 42.4993 12.9184 42.2621 13.3402 41.8402C13.7621 41.4184 13.9993 40.8465 14 40.25C14.0002 40.0512 14.0793 39.8605 14.2199 39.7199C14.3605 39.5793 14.5512 39.5002 14.75 39.5H17V40.25C17.0007 40.8465 17.2379 41.4184 17.6598 41.8402C18.0816 42.2621 18.6535 42.4993 19.25 42.5H26.75C27.3465 42.4993 27.9184 42.2621 28.3402 41.8402C28.7621 41.4184 28.9993 40.8465 29 40.25V39.5H31.25C31.4488 39.5002 31.6395 39.5793 31.7801 39.7199C31.9207 39.8605 31.9998 40.0512 32 40.25C32.0007 40.8465 32.2379 41.4184 32.6598 41.8402C33.0816 42.2621 33.6535 42.4993 34.25 42.5H38C38.5965 42.4993 39.1684 42.2621 39.5902 41.8402C40.0121 41.4184 40.2493 40.8465 40.25 40.25V30.5C40.2493 29.9035 40.0121 29.3316 39.5902 28.9098C39.1684 28.4879 38.5965 28.2507 38 28.25C37.8012 28.2498 37.6105 28.1707 37.4699 28.0301C37.3293 27.8895 37.2502 27.6988 37.25 27.5V17.75C37.2502 17.5512 37.3293 17.3605 37.4699 17.2199C37.6105 17.0793 37.8012 17.0002 38 17C38.5965 16.9993 39.1684 16.7621 39.5902 16.3402C40.0121 15.9184 40.2493 15.3465 40.25 14.75V5.75C40.2493 5.15347 40.0121 4.58157 39.5902 4.15975C39.1684 3.73794 38.5965 3.50067 38 3.5ZM38.75 14.75C38.7498 14.9488 38.6707 15.1395 38.5301 15.2801C38.3895 15.4207 38.1988 15.4998 38 15.5C37.4035 15.5007 36.8316 15.7379 36.4098 16.1598C35.9879 16.5816 35.7507 17.1535 35.75 17.75V27.5C35.7507 28.0965 35.9879 28.6684 36.4098 29.0902C36.8316 29.5121 37.4035 29.7493 38 29.75C38.1988 29.7502 38.3895 29.8293 38.5301 29.9699C38.6707 30.1105 38.7498 30.3012 38.75 30.5V40.25C38.7498 40.4488 38.6707 40.6395 38.5301 40.7801C38.3895 40.9207 38.1988 40.9998 38 41H34.25C34.0512 40.9998 33.8605 40.9207 33.7199 40.7801C33.5793 40.6395 33.5002 40.4488 33.5 40.25C33.4993 39.6535 33.2621 39.0816 32.8402 38.6598C32.4184 38.2379 31.8465 38.0007 31.25 38H24.5V39.5H27.5V40.25C27.4998 40.4488 27.4207 40.6395 27.2801 40.7801C27.1395 40.9207 26.9488 40.9998 26.75 41H19.25C19.0512 40.9998 18.8605 40.9207 18.7199 40.7801C18.5793 40.6395 18.5002 40.4488 18.5 40.25V39.5H22.25V38H14.75C14.1535 38.0007 13.5816 38.2379 13.1598 38.6598C12.7379 39.0816 12.5007 39.6535 12.5 40.25C12.4998 40.4488 12.4207 40.6395 12.2801 40.7801C12.1395 40.9207 11.9488 40.9998 11.75 41H8C7.80116 40.9998 7.61052 40.9207 7.46992 40.7801C7.32932 40.6395 7.25023 40.4488 7.25 40.25V35.75C7.25023 35.5512 7.32932 35.3605 7.46992 35.2199C7.61052 35.0793 7.80116 35.0002 8 35C8.59653 34.9993 9.16843 34.7621 9.59025 34.3402C10.0121 33.9184 10.2493 33.3465 10.25 32.75V23C10.2493 22.4035 10.0121 21.8316 9.59025 21.4098C9.16843 20.9879 8.59653 20.7507 8 20.75C7.80116 20.7498 7.61052 20.6707 7.46992 20.5301C7.32932 20.3895 7.25023 20.1988 7.25 20V15.5C7.25023 15.3012 7.32932 15.1105 7.46992 14.9699C7.61052 14.8293 7.80116 14.7502 8 14.75H9.5C10.0965 14.7493 10.6684 14.5121 11.0902 14.0902C11.5121 13.6684 11.7493 13.0965 11.75 12.5V8.75C11.7502 8.55116 11.8293 8.36052 11.9699 8.21992C12.1105 8.07932 12.3012 8.00023 12.5 8H17.75C17.9489 8 18.1397 7.92098 18.2803 7.78033C18.421 7.63968 18.5 7.44891 18.5 7.25V5.75C18.5002 5.55116 18.5793 5.36052 18.7199 5.21992C18.8605 5.07932 19.0512 5.00023 19.25 5H26.75C26.9488 5.00023 27.1395 5.07932 27.2801 5.21992C27.4207 5.36052 27.4998 5.55116 27.5 5.75V6.5H24.5V8H31.25C31.8465 7.99933 32.4184 7.76206 32.8402 7.34025C33.2621 6.91843 33.4993 6.34653 33.5 5.75C33.5002 5.55116 33.5793 5.36052 33.7199 5.21992C33.8605 5.07932 34.0512 5.00023 34.25 5H38C38.1988 5.00023 38.3895 5.07932 38.5301 5.21992C38.6707 5.36052 38.7498 5.55116 38.75 5.75V14.75Z" fill="url(#paint17_linear)"/>
<defs>
<linearGradient id="paint0_linear" x1="33.5785" y1="3.27358" x2="11.786" y2="42.0329" gradientUnits="userSpaceOnUse">
<stop stop-color="#B4B4FF"/>
<stop offset="1" stop-color="#1919C7"/>
</linearGradient>
<linearGradient id="paint1_linear" x1="7.35915" y1="3.82358" x2="4.8167" y2="8.3455" gradientUnits="userSpaceOnUse">
<stop stop-color="#B4B4FF"/>
<stop offset="1" stop-color="#1919C7"/>
</linearGradient>
<linearGradient id="paint2_linear" x1="4.60262" y1="10.3425" x2="3.8762" y2="11.6344" gradientUnits="userSpaceOnUse">
<stop stop-color="#B4B4FF"/>
<stop offset="1" stop-color="#1919C7"/>
</linearGradient>
<linearGradient id="paint3_linear" x1="4.60262" y1="23.8425" x2="3.8762" y2="25.1344" gradientUnits="userSpaceOnUse">
<stop stop-color="#B4B4FF"/>
<stop offset="1" stop-color="#1919C7"/>
</linearGradient>
<linearGradient id="paint4_linear" x1="6.85262" y1="23.8425" x2="6.1262" y2="25.1344" gradientUnits="userSpaceOnUse">
<stop stop-color="#B4B4FF"/>
<stop offset="1" stop-color="#1919C7"/>
</linearGradient>
<linearGradient id="paint5_linear" x1="4.60262" y1="26.0925" x2="3.8762" y2="27.3844" gradientUnits="userSpaceOnUse">
<stop stop-color="#B4B4FF"/>
<stop offset="1" stop-color="#1919C7"/>
</linearGradient>
<linearGradient id="paint6_linear" x1="6.85262" y1="26.0925" x2="6.1262" y2="27.3844" gradientUnits="userSpaceOnUse">
<stop stop-color="#B4B4FF"/>
<stop offset="1" stop-color="#1919C7"/>
</linearGradient>
<linearGradient id="paint7_linear" x1="4.60262" y1="28.3425" x2="3.8762" y2="29.6344" gradientUnits="userSpaceOnUse">
<stop stop-color="#B4B4FF"/>
<stop offset="1" stop-color="#1919C7"/>
</linearGradient>
<linearGradient id="paint8_linear" x1="6.85262" y1="28.3425" x2="6.1262" y2="29.6344" gradientUnits="userSpaceOnUse">
<stop stop-color="#B4B4FF"/>
<stop offset="1" stop-color="#1919C7"/>
</linearGradient>
<linearGradient id="paint9_linear" x1="39.8526" y1="18.5925" x2="39.1262" y2="19.8844" gradientUnits="userSpaceOnUse">
<stop stop-color="#B4B4FF"/>
<stop offset="1" stop-color="#1919C7"/>
</linearGradient>
<linearGradient id="paint10_linear" x1="42.1026" y1="18.5925" x2="41.3762" y2="19.8844" gradientUnits="userSpaceOnUse">
<stop stop-color="#B4B4FF"/>
<stop offset="1" stop-color="#1919C7"/>
</linearGradient>
<linearGradient id="paint11_linear" x1="39.8526" y1="20.8425" x2="39.1262" y2="22.1344" gradientUnits="userSpaceOnUse">
<stop stop-color="#B4B4FF"/>
<stop offset="1" stop-color="#1919C7"/>
</linearGradient>
<linearGradient id="paint12_linear" x1="42.1026" y1="20.8425" x2="41.3762" y2="22.1344" gradientUnits="userSpaceOnUse">
<stop stop-color="#B4B4FF"/>
<stop offset="1" stop-color="#1919C7"/>
</linearGradient>
<linearGradient id="paint13_linear" x1="39.8526" y1="23.0925" x2="39.1262" y2="24.3844" gradientUnits="userSpaceOnUse">
<stop stop-color="#B4B4FF"/>
<stop offset="1" stop-color="#1919C7"/>
</linearGradient>
<linearGradient id="paint14_linear" x1="42.1026" y1="23.0925" x2="41.3762" y2="24.3844" gradientUnits="userSpaceOnUse">
<stop stop-color="#B4B4FF"/>
<stop offset="1" stop-color="#1919C7"/>
</linearGradient>
<linearGradient id="paint15_linear" x1="8.15392" y1="10.3425" x2="7.59507" y2="11.8334" gradientUnits="userSpaceOnUse">
<stop stop-color="#B4B4FF"/>
<stop offset="1" stop-color="#1919C7"/>
</linearGradient>
<linearGradient id="paint16_linear" x1="28.6866" y1="11.1641" x2="14.1548" y2="31.2664" gradientUnits="userSpaceOnUse">
<stop stop-color="#B4B4FF"/>
<stop offset="1" stop-color="#1919C7"/>
</linearGradient>
<linearGradient id="paint17_linear" x1="31.1101" y1="5.90377" x2="11.0958" y2="37.3933" gradientUnits="userSpaceOnUse">
<stop stop-color="#B4B4FF"/>
<stop offset="1" stop-color="#1919C7"/>
</linearGradient>
</defs>
</svg>
