<svg width="48" height="48" viewBox="0 0 48 48" fill="none" xmlns="http://www.w3.org/2000/svg">
<path d="M39 18C38.7494 18 38.4989 18.014 38.2498 18.042C38.25 18.028 38.25 18.014 38.25 18C38.2501 17.1768 38.0566 16.3651 37.6851 15.6304C37.3136 14.8958 36.7746 14.2588 36.1115 13.771C35.4484 13.2832 34.6798 12.9581 33.8679 12.8221C33.056 12.6861 32.2235 12.743 31.4376 12.9881C31.1242 9.84071 29.6523 6.9221 27.3076 4.79912C24.963 2.67613 21.913 1.50031 18.75 1.5C11.7196 1.5 6.00002 7.21962 6.00002 14.25C5.99972 15.1759 6.09986 16.0991 6.2987 17.0034C4.66543 17.634 3.30423 18.8161 2.45098 20.3449C1.59773 21.8737 1.30621 23.6528 1.62693 25.374C1.94765 27.0951 2.8604 28.6498 4.20702 29.7687C5.55363 30.8875 7.24924 31.5 9.00002 31.5V30C7.61135 30.0001 6.26566 29.5184 5.19242 28.6372C4.11918 27.756 3.38486 26.5298 3.11467 25.1676C2.84449 23.8055 3.05517 22.3918 3.7108 21.1677C4.36643 19.9435 5.4264 18.9847 6.70996 18.4548C6.97314 19.208 7.30667 19.9348 7.70614 20.6255L9.00463 19.8745C8.53642 19.0652 8.17147 18.2003 7.91833 17.3001C7.91774 17.298 7.91745 17.2958 7.91685 17.2937C7.44862 15.6212 7.3737 13.863 7.69793 12.1567C8.02217 10.4504 8.73677 8.84231 9.78584 7.45812C10.8349 6.07393 12.19 4.95123 13.7451 4.17783C15.3002 3.40443 17.0132 3.00131 18.75 3C24.8794 3 29.9254 7.98551 29.9982 14.1135C29.9993 14.1594 30.0045 14.2051 30.0139 14.25H30C30.0002 14.958 29.9341 15.6645 29.8025 16.3602L31.2763 16.6398C31.4056 15.956 31.479 15.2628 31.4959 14.567C32.1297 14.2889 32.8281 14.1917 33.5137 14.2862C34.1993 14.3807 34.8454 14.6632 35.3803 15.1024C35.9152 15.5416 36.3181 16.1203 36.5442 16.7744C36.7704 17.4285 36.8111 18.1324 36.6617 18.8082C36.6339 18.9345 36.6393 19.0658 36.6773 19.1894C36.7153 19.313 36.7846 19.4247 36.8784 19.5136C36.9723 19.6025 37.0876 19.6656 37.2131 19.6969C37.3385 19.7281 37.4699 19.7264 37.5945 19.6918C38.3165 19.4912 39.0731 19.4475 39.8134 19.5636C40.5537 19.6796 41.2606 19.9529 41.8865 20.3649C42.5124 20.7768 43.0429 21.3181 43.4423 21.9521C43.8417 22.5862 44.1007 23.2984 44.2019 24.0409C44.3031 24.7833 44.2443 25.5389 44.0292 26.2567C43.8142 26.9745 43.4479 27.638 42.9552 28.2025C42.4624 28.7671 41.8544 29.2195 41.1722 29.5296C40.49 29.8396 39.7494 30 39 30H36V31.5H39C40.7902 31.5 42.5071 30.7888 43.773 29.523C45.0389 28.2571 45.75 26.5402 45.75 24.75C45.75 22.9598 45.0389 21.2429 43.773 19.977C42.5071 18.7112 40.7902 18 39 18Z" fill="url(#paint0_linear)"/>
<path d="M12 12.75H20.25V18.75C20.25 18.8485 20.2694 18.946 20.3071 19.037C20.3448 19.128 20.4 19.2107 20.4697 19.2803C20.5393 19.35 20.622 19.4052 20.713 19.4429C20.804 19.4806 20.9015 19.5 21 19.5H27V24.75H28.5V18.75C28.5001 18.6514 28.4807 18.5538 28.443 18.4627C28.4052 18.3716 28.3498 18.2889 28.28 18.2193L26.25 16.1894V12.75H24.75V14.6894L23.25 13.1894V9H21.75V11.6894L21.5307 11.47C21.4611 11.4002 21.3784 11.3448 21.2873 11.307C21.1962 11.2692 21.0986 11.2499 21 11.25H20.25V9.75H18.75V11.25H17.25V8.25H15.75V11.25H14.25V9.75H12.75V11.25H11.25C11.1515 11.25 11.054 11.2694 10.963 11.3071C10.872 11.3448 10.7893 11.4 10.7197 11.4697C10.65 11.5393 10.5948 11.622 10.5571 11.713C10.5194 11.804 10.5 11.9015 10.5 12V36C10.5 36.0985 10.5194 36.196 10.5571 36.287C10.5948 36.378 10.65 36.4607 10.7197 36.5303C10.7893 36.6 10.872 36.6552 10.963 36.6929C11.054 36.7306 11.1515 36.75 11.25 36.75H15.75V35.25H12V12.75ZM21.75 13.8106L25.9394 18H21.75V13.8106Z" fill="url(#paint1_linear)"/>
<path d="M35.25 42H33.3033C34.076 41.1564 34.5032 40.053 34.5 38.909V30C34.5003 29.607 34.3975 29.2208 34.202 28.8799C34.0065 28.5389 33.725 28.2552 33.3857 28.057C33.0463 27.8587 32.661 27.7529 32.268 27.7501C31.875 27.7472 31.4881 27.8474 31.1459 28.0407C30.8371 27.5551 30.3538 27.2066 29.7955 27.0671C29.2373 26.9275 28.6468 27.0075 28.1459 27.2907C27.873 26.8618 27.4628 26.5381 26.9822 26.3726C26.5016 26.207 25.9791 26.2092 25.5 26.379V23.25C25.5 22.6533 25.2629 22.081 24.841 21.659C24.419 21.2371 23.8467 21 23.25 21C22.6533 21 22.081 21.2371 21.659 21.659C21.237 22.081 21 22.6533 21 23.25V32.7215C20.5267 32.3648 19.9358 32.2009 19.3464 32.2628C18.7571 32.3247 18.2131 32.6079 17.8243 33.0551C17.4355 33.5023 17.2308 34.0804 17.2514 34.6726C17.2721 35.2649 17.5166 35.8273 17.9357 36.2463L21.0197 39.3303C21.1084 40.3253 21.522 41.2634 22.1967 42H21.75C21.6515 42 21.554 42.0194 21.463 42.0571C21.372 42.0948 21.2893 42.15 21.2197 42.2197C21.15 42.2893 21.0948 42.372 21.0571 42.463C21.0194 42.554 21 42.6515 21 42.75V46.5H22.5V43.5H34.5V46.5H36V42.75C36 42.6515 35.9806 42.554 35.9429 42.463C35.9052 42.372 35.85 42.2893 35.7803 42.2197C35.7107 42.15 35.628 42.0948 35.537 42.0571C35.446 42.0194 35.3485 42 35.25 42ZM18.75 34.591C18.75 34.4247 18.7993 34.2621 18.8917 34.1238C18.9841 33.9855 19.1155 33.8777 19.2692 33.814C19.4228 33.7504 19.5919 33.7337 19.7551 33.7662C19.9182 33.7986 20.0681 33.8787 20.1857 33.9963L21 34.8106V37.1894L18.9963 35.1857C18.918 35.1078 18.8559 35.0151 18.8136 34.913C18.7713 34.8109 18.7497 34.7015 18.75 34.591ZM25.591 42C25.1851 42 24.7831 41.9201 24.4081 41.7647C24.0331 41.6094 23.6923 41.3817 23.4053 41.0947C23.1183 40.8077 22.8906 40.4669 22.7353 40.0919C22.5799 39.7169 22.5 39.3149 22.5 38.909V23.25C22.5 23.0511 22.579 22.8603 22.7197 22.7197C22.8603 22.579 23.0511 22.5 23.25 22.5C23.4489 22.5 23.6397 22.579 23.7803 22.7197C23.921 22.8603 24 23.0511 24 23.25V32.25H25.5V28.5C25.5 28.3011 25.579 28.1103 25.7197 27.9697C25.8603 27.829 26.0511 27.75 26.25 27.75C26.4489 27.75 26.6397 27.829 26.7803 27.9697C26.921 28.1103 27 28.3011 27 28.5V32.25H28.5V29.25C28.5 29.0511 28.579 28.8603 28.7197 28.7197C28.8603 28.579 29.0511 28.5 29.25 28.5C29.4489 28.5 29.6397 28.579 29.7803 28.7197C29.921 28.8603 30 29.0511 30 29.25V32.25H31.5V30C31.5 29.8011 31.579 29.6103 31.7197 29.4697C31.8603 29.329 32.0511 29.25 32.25 29.25C32.4489 29.25 32.6397 29.329 32.7803 29.4697C32.921 29.6103 33 29.8011 33 30V38.909C33 39.3149 32.92 39.7169 32.7647 40.0919C32.6094 40.4669 32.3817 40.8077 32.0947 41.0947C31.8076 41.3817 31.4669 41.6094 31.0919 41.7647C30.7168 41.9201 30.3149 42 29.909 42H25.591Z" fill="url(#paint2_linear)"/>
<path d="M15 21H16.5V22.5H15V21Z" fill="url(#paint3_linear)"/>
<path d="M18 21H19.5V22.5H18V21Z" fill="url(#paint4_linear)"/>
<path d="M13.5 24H15V25.5H13.5V24Z" fill="url(#paint5_linear)"/>
<path d="M16.5 24H19.5V25.5H16.5V24Z" fill="url(#paint6_linear)"/>
<path d="M13.5 27H18V28.5H13.5V27Z" fill="url(#paint7_linear)"/>
<path d="M18.75 6.75H20.25V8.25H18.75V6.75Z" fill="url(#paint8_linear)"/>
<path d="M21.75 6H23.25V7.5H21.75V6Z" fill="url(#paint9_linear)"/>
<path d="M24.75 9.75H26.25V11.25H24.75V9.75Z" fill="url(#paint10_linear)"/>
<path d="M15.75 5.25H17.25V6.75H15.75V5.25Z" fill="url(#paint11_linear)"/>
<path d="M12.75 6.75H14.25V8.25H12.75V6.75Z" fill="url(#paint12_linear)"/>
<defs>
<linearGradient id="paint0_linear" x1="34.0272" y1="3.34905" x2="22.7084" y2="33.0425" gradientUnits="userSpaceOnUse">
<stop stop-color="#B4B4FF"/>
<stop offset="1" stop-color="#1919C7"/>
</linearGradient>
<linearGradient id="paint1_linear" x1="23.7314" y1="10.0066" x2="7.68614" y2="28.0303" gradientUnits="userSpaceOnUse">
<stop stop-color="#B4B4FF"/>
<stop offset="1" stop-color="#1919C7"/>
</linearGradient>
<linearGradient id="paint2_linear" x1="31.0327" y1="22.5717" x2="17.0844" y2="40.8128" gradientUnits="userSpaceOnUse">
<stop stop-color="#B4B4FF"/>
<stop offset="1" stop-color="#1919C7"/>
</linearGradient>
<linearGradient id="paint3_linear" x1="16.1026" y1="21.0925" x2="15.3762" y2="22.3844" gradientUnits="userSpaceOnUse">
<stop stop-color="#B4B4FF"/>
<stop offset="1" stop-color="#1919C7"/>
</linearGradient>
<linearGradient id="paint4_linear" x1="19.1026" y1="21.0925" x2="18.3762" y2="22.3844" gradientUnits="userSpaceOnUse">
<stop stop-color="#B4B4FF"/>
<stop offset="1" stop-color="#1919C7"/>
</linearGradient>
<linearGradient id="paint5_linear" x1="14.6026" y1="24.0925" x2="13.8762" y2="25.3844" gradientUnits="userSpaceOnUse">
<stop stop-color="#B4B4FF"/>
<stop offset="1" stop-color="#1919C7"/>
</linearGradient>
<linearGradient id="paint6_linear" x1="18.7052" y1="24.0925" x2="18.2622" y2="25.6683" gradientUnits="userSpaceOnUse">
<stop stop-color="#B4B4FF"/>
<stop offset="1" stop-color="#1919C7"/>
</linearGradient>
<linearGradient id="paint7_linear" x1="16.8078" y1="27.0925" x2="16.5" y2="28.7352" gradientUnits="userSpaceOnUse">
<stop stop-color="#B4B4FF"/>
<stop offset="1" stop-color="#1919C7"/>
</linearGradient>
<linearGradient id="paint8_linear" x1="19.8526" y1="6.84245" x2="19.1262" y2="8.13443" gradientUnits="userSpaceOnUse">
<stop stop-color="#B4B4FF"/>
<stop offset="1" stop-color="#1919C7"/>
</linearGradient>
<linearGradient id="paint9_linear" x1="22.8526" y1="6.09245" x2="22.1262" y2="7.38443" gradientUnits="userSpaceOnUse">
<stop stop-color="#B4B4FF"/>
<stop offset="1" stop-color="#1919C7"/>
</linearGradient>
<linearGradient id="paint10_linear" x1="25.8526" y1="9.84245" x2="25.1262" y2="11.1344" gradientUnits="userSpaceOnUse">
<stop stop-color="#B4B4FF"/>
<stop offset="1" stop-color="#1919C7"/>
</linearGradient>
<linearGradient id="paint11_linear" x1="16.8526" y1="5.34245" x2="16.1262" y2="6.63443" gradientUnits="userSpaceOnUse">
<stop stop-color="#B4B4FF"/>
<stop offset="1" stop-color="#1919C7"/>
</linearGradient>
<linearGradient id="paint12_linear" x1="13.8526" y1="6.84245" x2="13.1262" y2="8.13443" gradientUnits="userSpaceOnUse">
<stop stop-color="#B4B4FF"/>
<stop offset="1" stop-color="#1919C7"/>
</linearGradient>
</defs>
</svg>
