<svg width="46" height="44" viewBox="0 0 46 44" fill="none" xmlns="http://www.w3.org/2000/svg">
<path d="M1.25 43.75H44.75C44.8485 43.75 44.946 43.7306 45.037 43.6929C45.128 43.6552 45.2107 43.6 45.2803 43.5303C45.35 43.4607 45.4052 43.378 45.4429 43.287C45.4806 43.196 45.5 43.0985 45.5 43V31C45.5 30.9015 45.4806 30.804 45.4429 30.713C45.4052 30.622 45.35 30.5393 45.2803 30.4697C45.2107 30.4 45.128 30.3448 45.037 30.3071C44.946 30.2694 44.8485 30.25 44.75 30.25H40.25V28.75H44.75C44.8485 28.75 44.946 28.7306 45.037 28.6929C45.128 28.6552 45.2107 28.6 45.2803 28.5303C45.35 28.4607 45.4052 28.378 45.4429 28.287C45.4806 28.196 45.5 28.0985 45.5 28V16C45.5 15.9015 45.4806 15.804 45.4429 15.713C45.4052 15.622 45.35 15.5393 45.2803 15.4697C45.2107 15.4 45.128 15.3448 45.037 15.3071C44.946 15.2694 44.8485 15.25 44.75 15.25H40.25V13.75H44.75C44.8485 13.75 44.946 13.7306 45.037 13.6929C45.128 13.6552 45.2107 13.6 45.2803 13.5303C45.35 13.4607 45.4052 13.378 45.4429 13.287C45.4806 13.196 45.5 13.0985 45.5 13V1C45.5 0.901508 45.4806 0.80398 45.4429 0.712984C45.4052 0.621989 45.35 0.539308 45.2803 0.469664C45.2107 0.400019 45.128 0.344775 45.037 0.307085C44.946 0.269395 44.8485 0.249997 44.75 0.25H1.25C1.15151 0.249997 1.05398 0.269395 0.962984 0.307085C0.871989 0.344775 0.789308 0.400019 0.719664 0.469664C0.650019 0.539308 0.594775 0.621989 0.557085 0.712984C0.519395 0.80398 0.499997 0.901508 0.5 1V13C0.499997 13.0985 0.519395 13.196 0.557085 13.287C0.594775 13.378 0.650019 13.4607 0.719664 13.5303C0.789308 13.6 0.871989 13.6552 0.962984 13.6929C1.05398 13.7306 1.15151 13.75 1.25 13.75H5V15.25H1.25C1.15151 15.25 1.05398 15.2694 0.962984 15.3071C0.871989 15.3448 0.789308 15.4 0.719664 15.4697C0.650019 15.5393 0.594775 15.622 0.557085 15.713C0.519395 15.804 0.499997 15.9015 0.5 16V28C0.499997 28.0985 0.519395 28.196 0.557085 28.287C0.594775 28.378 0.650019 28.4607 0.719664 28.5303C0.789308 28.6 0.871989 28.6552 0.962984 28.6929C1.05398 28.7306 1.15151 28.75 1.25 28.75H5V30.25H1.25C1.15151 30.25 1.05398 30.2694 0.962984 30.3071C0.871989 30.3448 0.789308 30.4 0.719664 30.4697C0.650019 30.5393 0.594775 30.622 0.557085 30.713C0.519395 30.804 0.499997 30.9015 0.5 31V43C0.499997 43.0985 0.519395 43.196 0.557085 43.287C0.594775 43.378 0.650019 43.4607 0.719664 43.5303C0.789308 43.6 0.871989 43.6552 0.962984 43.6929C1.05398 43.7306 1.15151 43.75 1.25 43.75ZM38.75 30.25H37.25V28.75H38.75V30.25ZM9.5 30.25V28.75H35.75V30.25H9.5ZM38.75 15.25H37.25V13.75H38.75V15.25ZM9.5 15.25V13.75H35.75V15.25H9.5ZM2 10.75H32V9.25H2V4.75H32V3.25H2V1.75H44V3.25H36.5V4.75H44V9.25H36.5V10.75H44V12.25H2V10.75ZM6.5 13.75H8V15.25H6.5V13.75ZM2 25.75H32V24.25H2V19.75H32V18.25H2V16.75H44V18.25H36.5V19.75H44V24.25H36.5V25.75H44V27.25H2V25.75ZM6.5 28.75H8V30.25H6.5V28.75ZM44 31.75V33.25H36.5V34.75H44V39.25H36.5V40.75H44V42.25H2V40.75H32V39.25H2V34.75H32V33.25H2V31.75H44Z" fill="url(#paint0_linear)"/>
<defs>
<linearGradient id="paint0_linear" x1="33.5785" y1="2.93113" x2="12.8889" y2="40.9978" gradientUnits="userSpaceOnUse">
<stop stop-color="#B4B4FF"/>
<stop offset="1" stop-color="#1919C7"/>
</linearGradient>
</defs>
</svg>
