<svg width="48" height="48" viewBox="0 0 48 48" fill="none" xmlns="http://www.w3.org/2000/svg">
<path d="M21.75 19.5H24.75V21H21.75V19.5Z" fill="url(#paint0_linear)"/>
<path d="M15.75 21H17.25V19.5H15.75C14.9165 19.5001 14.1068 19.2226 13.4487 18.7111C12.7906 18.1997 12.3217 17.4836 12.116 16.6759C11.9103 15.8682 11.9796 15.015 12.3129 14.2511C12.6462 13.4872 13.2246 12.8562 13.9566 12.4576C14.1269 12.9498 14.3437 13.4246 14.6042 13.8755L15.9026 13.1244C15.3578 12.1781 15.0508 11.1137 15.0079 10.0226C14.965 8.93152 15.1875 7.84632 15.6563 6.86014C16.1251 5.87396 16.8262 5.01626 17.6994 4.36066C18.5726 3.70505 19.5919 3.27112 20.6697 3.09611C21.7475 2.9211 22.8517 3.01023 23.8875 3.35586C24.9233 3.70149 25.8597 4.29329 26.6165 5.08047C27.3732 5.86765 27.9277 6.8267 28.2322 7.8753C28.5368 8.92391 28.5823 10.0307 28.365 11.1008L29.835 11.3991C29.9355 10.899 29.9896 10.3907 29.9967 9.88066C30.388 9.74155 30.8101 9.71344 31.2163 9.79944C31.6226 9.88545 31.9971 10.0822 32.2984 10.3679C32.5997 10.6537 32.816 11.0172 32.9234 11.4183C33.0309 11.8194 33.0252 12.2424 32.907 12.6405C32.8696 12.7666 32.8661 12.9004 32.8968 13.0284C32.9275 13.1563 32.9913 13.2739 33.0819 13.3694C33.1724 13.4649 33.2864 13.5349 33.4126 13.5724C33.5387 13.6099 33.6725 13.6135 33.8005 13.5829C34.2125 13.4841 34.6407 13.4737 35.057 13.5523C35.4734 13.631 35.8683 13.797 36.2158 14.0393C36.5634 14.2816 36.8557 14.5948 37.0734 14.9582C37.2912 15.3217 37.4295 15.7271 37.4792 16.1479C37.529 16.5686 37.489 16.9951 37.362 17.3993C37.235 17.8036 37.0238 18.1763 36.7424 18.493C36.4609 18.8096 36.1156 19.0631 35.7291 19.2367C35.3426 19.4103 34.9237 19.5 34.5 19.5H29.25V21H34.5C35.6935 21 36.8381 20.5259 37.682 19.682C38.5259 18.838 39 17.6935 39 16.5C39 15.3065 38.5259 14.1619 37.682 13.318C36.8381 12.4741 35.6935 12 34.5 12C34.5012 11.4333 34.3737 10.8738 34.1272 10.3636C33.8806 9.85339 33.5214 9.40586 33.0766 9.05476C32.6318 8.70367 32.1131 8.45817 31.5596 8.3368C31.0061 8.21543 30.4322 8.22136 29.8813 8.35414C29.5153 6.21221 28.3189 4.30121 26.552 3.03623C24.7852 1.77125 22.5906 1.25446 20.445 1.59811C18.2993 1.94176 16.3759 3.1181 15.0925 4.87161C13.8091 6.62512 13.2694 8.81418 13.5906 10.9633C12.4963 11.4572 11.6043 12.3113 11.0633 13.3831C10.5223 14.455 10.3649 15.6798 10.6175 16.8536C10.87 18.0274 11.5172 19.0792 12.4511 19.8337C13.3851 20.5882 14.5494 20.9998 15.75 21Z" fill="url(#paint1_linear)"/>
<path d="M21.75 22.5H24.75V24H21.75V22.5Z" fill="url(#paint2_linear)"/>
<path d="M36 22.5H29.25V24H33C33.1988 24.0002 33.3895 24.0793 33.5301 24.2199C33.6707 24.3605 33.7498 24.5512 33.75 24.75V38.25C33.7498 38.4488 33.6707 38.6395 33.5301 38.7801C33.3895 38.9207 33.1988 38.9998 33 39H13.5C13.3012 38.9998 13.1105 38.9207 12.9699 38.7801C12.8293 38.6395 12.7502 38.4488 12.75 38.25V24.75C12.7502 24.5512 12.8293 24.3605 12.9699 24.2199C13.1105 24.0793 13.3012 24.0002 13.5 24H17.25V22.5H13.5C12.9035 22.5007 12.3316 22.7379 11.9098 23.1598C11.4879 23.5816 11.2507 24.1535 11.25 24.75V38.25C11.2507 38.8465 11.4879 39.4184 11.9098 39.8402C12.3316 40.2621 12.9035 40.4993 13.5 40.5H21.0127L22.8817 43.2413C22.997 43.4103 23.064 43.6076 23.0755 43.8119C23.0869 44.0162 23.0425 44.2198 22.9469 44.4007C22.8513 44.5816 22.7081 44.733 22.5329 44.8386C22.3576 44.9442 22.1569 45 21.9522 45H19.5C19.3011 45 19.1103 45.079 18.9697 45.2197C18.829 45.3603 18.75 45.5511 18.75 45.75C18.75 45.9489 18.829 46.1397 18.9697 46.2803C19.1103 46.421 19.3011 46.5 19.5 46.5H30.2022C30.6797 46.5 31.1481 46.3698 31.557 46.1234C31.966 45.877 32.3 45.5237 32.5231 45.1016C32.7461 44.6794 32.8499 44.2045 32.8231 43.7278C32.7963 43.2511 32.64 42.7907 32.3711 42.3962L31.0782 40.5H36C36.5965 40.4993 37.1684 40.262 37.5902 39.8402C38.012 39.4184 38.2493 38.8465 38.25 38.25V24.75C38.2493 24.1535 38.012 23.5816 37.5902 23.1598C37.1684 22.738 36.5965 22.5007 36 22.5ZM31.1317 43.2413C31.247 43.4103 31.314 43.6076 31.3255 43.8119C31.3369 44.0162 31.2925 44.2198 31.1969 44.4007C31.1013 44.5816 30.9581 44.733 30.7829 44.8386C30.6076 44.9442 30.4069 45 30.2022 45H24.324C24.5461 44.5334 24.6251 44.0115 24.5512 43.5H27.75V42H23.8509L22.8282 40.5H29.2627L31.1317 43.2413ZM36.75 38.25C36.7498 38.4488 36.6707 38.6395 36.5301 38.7801C36.3895 38.9207 36.1988 38.9998 36 39H35.121C35.2065 38.7592 35.2501 38.5055 35.25 38.25V24.75C35.2501 24.4945 35.2065 24.2408 35.121 24H36C36.1988 24.0002 36.3895 24.0793 36.5301 24.2199C36.6707 24.3605 36.7498 24.5512 36.75 24.75V38.25Z" fill="url(#paint3_linear)"/>
<path d="M20.2491 16.0607L21.9688 17.7804L23.0294 16.7197L20.0294 13.7197C19.8887 13.579 19.698 13.5001 19.4991 13.5001C19.3002 13.5001 19.1094 13.579 18.9688 13.7197L15.9688 16.7197L17.0294 17.7804L18.7491 16.0607V25.5H20.2491V16.0607Z" fill="url(#paint4_linear)"/>
<path d="M18.75 27H20.25V28.5H18.75V27Z" fill="url(#paint5_linear)"/>
<path d="M18.75 30H20.25V31.5H18.75V30Z" fill="url(#paint6_linear)"/>
<path d="M26.25 15H27.75V16.5H26.25V15Z" fill="url(#paint7_linear)"/>
<path d="M26.25 12H27.75V13.5H26.25V12Z" fill="url(#paint8_linear)"/>
<path d="M26.9991 30C27.0976 30.0001 27.1951 29.9808 27.2861 29.9431C27.3772 29.9054 27.4598 29.8501 27.5294 29.7804L30.5294 26.7804L29.4688 25.7196L27.7491 27.4394V18H26.2491V27.4394L24.5294 25.7196L23.4688 26.7804L26.4688 29.7804C26.5383 29.8501 26.621 29.9054 26.712 29.9431C26.803 29.9808 26.9006 30.0001 26.9991 30Z" fill="url(#paint9_linear)"/>
<defs>
<linearGradient id="paint0_linear" x1="23.9552" y1="19.5925" x2="23.5122" y2="21.1683" gradientUnits="userSpaceOnUse">
<stop stop-color="#B4B4FF"/>
<stop offset="1" stop-color="#1919C7"/>
</linearGradient>
<linearGradient id="paint1_linear" x1="31.4497" y1="2.6965" x2="24.0383" y2="21.9562" gradientUnits="userSpaceOnUse">
<stop stop-color="#B4B4FF"/>
<stop offset="1" stop-color="#1919C7"/>
</linearGradient>
<linearGradient id="paint2_linear" x1="23.9552" y1="22.5925" x2="23.5122" y2="24.1683" gradientUnits="userSpaceOnUse">
<stop stop-color="#B4B4FF"/>
<stop offset="1" stop-color="#1919C7"/>
</linearGradient>
<linearGradient id="paint3_linear" x1="31.0971" y1="23.9792" x2="20.2174" y2="45.7483" gradientUnits="userSpaceOnUse">
<stop stop-color="#B4B4FF"/>
<stop offset="1" stop-color="#1919C7"/>
</linearGradient>
<linearGradient id="paint4_linear" x1="21.1589" y1="14.2397" x2="14.3643" y2="21.3501" gradientUnits="userSpaceOnUse">
<stop stop-color="#B4B4FF"/>
<stop offset="1" stop-color="#1919C7"/>
</linearGradient>
<linearGradient id="paint5_linear" x1="19.8526" y1="27.0925" x2="19.1262" y2="28.3844" gradientUnits="userSpaceOnUse">
<stop stop-color="#B4B4FF"/>
<stop offset="1" stop-color="#1919C7"/>
</linearGradient>
<linearGradient id="paint6_linear" x1="19.8526" y1="30.0925" x2="19.1262" y2="31.3844" gradientUnits="userSpaceOnUse">
<stop stop-color="#B4B4FF"/>
<stop offset="1" stop-color="#1919C7"/>
</linearGradient>
<linearGradient id="paint7_linear" x1="27.3526" y1="15.0925" x2="26.6262" y2="16.3844" gradientUnits="userSpaceOnUse">
<stop stop-color="#B4B4FF"/>
<stop offset="1" stop-color="#1919C7"/>
</linearGradient>
<linearGradient id="paint8_linear" x1="27.3526" y1="12.0925" x2="26.6262" y2="13.3844" gradientUnits="userSpaceOnUse">
<stop stop-color="#B4B4FF"/>
<stop offset="1" stop-color="#1919C7"/>
</linearGradient>
<linearGradient id="paint9_linear" x1="28.6589" y1="18.7396" x2="21.8643" y2="25.8501" gradientUnits="userSpaceOnUse">
<stop stop-color="#B4B4FF"/>
<stop offset="1" stop-color="#1919C7"/>
</linearGradient>
</defs>
</svg>
