<svg width="48" height="48" viewBox="0 0 48 48" fill="none" xmlns="http://www.w3.org/2000/svg">
<path d="M12.3745 20.2972L13.1256 18.9988C12.5486 18.6658 12.0707 18.1851 11.7411 17.6061C11.4115 17.0271 11.2421 16.3707 11.2503 15.7045C11.2586 15.0383 11.4442 14.3864 11.788 13.8157C12.1319 13.2451 12.6216 12.7763 13.2067 12.4577C13.3769 12.9498 13.5938 13.4246 13.8542 13.8755L15.1526 13.1244C14.6079 12.1781 14.3008 11.1137 14.2579 10.0226C14.215 8.93154 14.4375 7.84633 14.9063 6.86014C15.3751 5.87396 16.0762 5.01625 16.9494 4.36064C17.8226 3.70503 18.8419 3.2711 19.9197 3.09608C20.9975 2.92106 22.1017 3.01019 23.1375 3.35582C24.1733 3.70145 25.1098 4.29325 25.8665 5.08043C26.6233 5.86761 27.1777 6.82666 27.4823 7.87527C27.7868 8.92388 27.8324 10.0307 27.615 11.1008L29.0851 11.3992C29.1855 10.8991 29.2396 10.3908 29.2468 9.88071C29.638 9.74161 30.0601 9.7135 30.4663 9.7995C30.8726 9.8855 31.2471 10.0822 31.5484 10.368C31.8497 10.6537 32.066 11.0172 32.1734 11.4183C32.2809 11.8193 32.2752 12.2423 32.1571 12.6404C32.1197 12.7666 32.1162 12.9003 32.1468 13.0283C32.1775 13.1562 32.2413 13.2739 32.3318 13.3694C32.4223 13.4649 32.5364 13.5349 32.6625 13.5724C32.7886 13.6099 32.9224 13.6135 33.0504 13.5829C33.7797 13.4081 34.5482 13.5128 35.2042 13.8764C35.8602 14.24 36.3562 14.8362 36.5946 15.5473C36.8329 16.2585 36.7962 17.0331 36.4918 17.7186C36.1873 18.4041 35.6372 18.9506 34.9498 19.2506L35.5504 20.6252C36.4978 20.2115 37.274 19.4842 37.7484 18.5656C38.2227 17.647 38.3663 16.5931 38.1551 15.5811C37.9439 14.569 37.3906 13.6605 36.5884 13.0084C35.7862 12.3562 34.7839 12.0001 33.7501 12C33.7513 11.4333 33.6238 10.8738 33.3772 10.3636C33.1307 9.8534 32.7714 9.40586 32.3266 9.05477C31.8819 8.70367 31.3631 8.45818 30.8096 8.33681C30.2561 8.21545 29.6823 8.22139 29.1314 8.35418C28.7653 6.21224 27.5689 4.30122 25.8021 3.03623C24.0353 1.77123 21.8407 1.25443 19.695 1.59808C17.5494 1.94172 15.626 3.11806 14.3426 4.87158C13.0592 6.62509 12.5195 8.81416 12.8407 10.9633C11.9167 11.3754 11.1326 12.0473 10.5838 12.8972C10.0351 13.7471 9.74537 14.7383 9.75006 15.75C9.75185 16.6712 9.99513 17.5759 10.4556 18.3737C10.9161 19.1716 11.5777 19.8348 12.3745 20.2972Z" fill="url(#paint0_linear)"/>
<path d="M17.25 24H18.75V25.5H17.25V24Z" fill="url(#paint1_linear)"/>
<path d="M20.25 24H21.75V25.5H20.25V24Z" fill="url(#paint2_linear)"/>
<path d="M23.25 24H26.25V25.5H23.25V24Z" fill="url(#paint3_linear)"/>
<path d="M17.25 18H18.75V19.5H17.25V18Z" fill="url(#paint4_linear)"/>
<path d="M20.25 18H21.75V19.5H20.25V18Z" fill="url(#paint5_linear)"/>
<path d="M23.25 18H26.25V19.5H23.25V18Z" fill="url(#paint6_linear)"/>
<path d="M45.75 36H40.5V32.25C40.5 32.1515 40.4806 32.054 40.4429 31.963C40.4052 31.872 40.35 31.7893 40.2803 31.7197C40.2107 31.65 40.128 31.5948 40.037 31.5571C39.946 31.5194 39.8485 31.5 39.75 31.5H26.121C26.0085 31.1841 25.8271 30.8972 25.5899 30.6601C25.3528 30.4229 25.0659 30.2415 24.75 30.129V28.5H32.25C32.3485 28.5 32.446 28.4806 32.537 28.4429C32.628 28.4052 32.7107 28.35 32.7803 28.2803C32.85 28.2107 32.9052 28.128 32.9429 28.037C32.9806 27.946 33 27.8485 33 27.75V15.75C33 15.6515 32.9806 15.554 32.9429 15.463C32.9052 15.372 32.85 15.2893 32.7803 15.2197C32.7107 15.15 32.628 15.0948 32.537 15.0571C32.446 15.0194 32.3485 15 32.25 15H15C14.9015 15 14.804 15.0194 14.713 15.0571C14.622 15.0948 14.5393 15.15 14.4697 15.2197C14.4 15.2893 14.3448 15.372 14.3071 15.463C14.2694 15.554 14.25 15.6515 14.25 15.75V27.75C14.25 27.8485 14.2694 27.946 14.3071 28.037C14.3448 28.128 14.4 28.2107 14.4697 28.2803C14.5393 28.35 14.622 28.4052 14.713 28.4429C14.804 28.4806 14.9015 28.5 15 28.5H23.25V30.129C22.9341 30.2415 22.6472 30.4229 22.4101 30.6601C22.1729 30.8972 21.9915 31.1841 21.879 31.5H8.25C8.15151 31.5 8.05398 31.5194 7.96298 31.5571C7.87199 31.5948 7.78931 31.65 7.71966 31.7197C7.65002 31.7893 7.59477 31.872 7.55708 31.963C7.51939 32.054 7.5 32.1515 7.5 32.25V36H2.25C2.15151 36 2.05398 36.0194 1.96298 36.0571C1.87199 36.0948 1.78931 36.15 1.71966 36.2197C1.65002 36.2893 1.59477 36.372 1.55708 36.463C1.51939 36.554 1.5 36.6515 1.5 36.75V44.25C1.50067 44.8465 1.73793 45.4184 2.15975 45.8403C2.58156 46.2621 3.15347 46.4993 3.75 46.5H12.75C13.3465 46.4993 13.9184 46.2621 14.3403 45.8403C14.7621 45.4184 14.9993 44.8465 15 44.25V36.75C15 36.6515 14.9806 36.554 14.9429 36.463C14.9052 36.372 14.85 36.2893 14.7803 36.2197C14.7107 36.15 14.628 36.0948 14.537 36.0571C14.446 36.0194 14.3485 36 14.25 36H9V33H21.879C21.9915 33.3159 22.1729 33.6028 22.4101 33.8399C22.6472 34.0771 22.9341 34.2585 23.25 34.371V36H18C17.9015 36 17.804 36.0194 17.713 36.0571C17.622 36.0948 17.5393 36.15 17.4697 36.2197C17.4 36.2893 17.3448 36.372 17.3071 36.463C17.2694 36.554 17.25 36.6515 17.25 36.75V44.25C17.2507 44.8465 17.4879 45.4184 17.9097 45.8403C18.3316 46.2621 18.9035 46.4993 19.5 46.5H28.5C29.0965 46.4993 29.6684 46.2621 30.0903 45.8403C30.5121 45.4184 30.7493 44.8465 30.75 44.25V36.75C30.75 36.6515 30.7306 36.554 30.6929 36.463C30.6552 36.372 30.6 36.2893 30.5303 36.2197C30.4607 36.15 30.378 36.0948 30.287 36.0571C30.196 36.0194 30.0985 36 30 36H24.75V34.371C25.0659 34.2585 25.3528 34.0771 25.5899 33.8399C25.8271 33.6028 26.0085 33.3159 26.121 33H39V36H33.75C33.6515 36 33.554 36.0194 33.463 36.0571C33.372 36.0948 33.2893 36.15 33.2197 36.2197C33.15 36.2893 33.0948 36.372 33.0571 36.463C33.0194 36.554 33 36.6515 33 36.75V44.25C33.0007 44.8465 33.2379 45.4184 33.6597 45.8403C34.0816 46.2621 34.6535 46.4993 35.25 46.5H44.25C44.8465 46.4993 45.4184 46.2621 45.8403 45.8403C46.2621 45.4184 46.4993 44.8465 46.5 44.25V36.75C46.5 36.6515 46.4806 36.554 46.4429 36.463C46.4052 36.372 46.35 36.2893 46.2803 36.2197C46.2107 36.15 46.128 36.0948 46.037 36.0571C45.946 36.0194 45.8485 36 45.75 36ZM31.5 27H30V22.5H31.5V27ZM31.5 21H30V16.5H31.5V21ZM28.5 16.5V21H15.75V16.5H28.5ZM15.75 22.5H28.5V27H15.75V22.5ZM3 44.25V37.5H4.18936L6.96968 40.2803C7.03932 40.35 7.122 40.4052 7.21299 40.4429C7.30398 40.4806 7.40151 40.5 7.5 40.5H10.5V44.25C10.4999 44.5055 10.5435 44.7592 10.629 45H3.75C3.55116 44.9998 3.36052 44.9207 3.21992 44.7801C3.07932 44.6395 3.00023 44.4488 3 44.25ZM13.5 44.25C13.5 44.4489 13.421 44.6397 13.2803 44.7803C13.1397 44.921 12.9489 45 12.75 45C12.5511 45 12.3603 44.921 12.2197 44.7803C12.079 44.6397 12 44.4489 12 44.25V39.75C12 39.6515 11.9806 39.554 11.9429 39.463C11.9052 39.372 11.85 39.2893 11.7803 39.2197C11.7107 39.15 11.628 39.0948 11.537 39.0571C11.446 39.0194 11.3485 39 11.25 39H7.81064L6.31064 37.5H13.5V44.25ZM18.75 44.25V37.5H19.9394L22.7197 40.2803C22.7893 40.35 22.872 40.4052 22.963 40.4429C23.054 40.4806 23.1515 40.5 23.25 40.5H26.25V44.25C26.2499 44.5055 26.2935 44.7592 26.379 45H19.5C19.3012 44.9998 19.1105 44.9207 18.9699 44.7801C18.8293 44.6395 18.7502 44.4488 18.75 44.25ZM29.25 44.25C29.25 44.4489 29.171 44.6397 29.0303 44.7803C28.8897 44.921 28.6989 45 28.5 45C28.3011 45 28.1103 44.921 27.9697 44.7803C27.829 44.6397 27.75 44.4489 27.75 44.25V39.75C27.75 39.6515 27.7306 39.554 27.6929 39.463C27.6552 39.372 27.6 39.2893 27.5303 39.2197C27.4607 39.15 27.378 39.0948 27.287 39.0571C27.196 39.0194 27.0985 39 27 39H23.5606L22.0606 37.5H29.25V44.25ZM24 33C23.8517 33 23.7067 32.956 23.5833 32.8736C23.46 32.7912 23.3639 32.6741 23.3071 32.537C23.2503 32.4 23.2355 32.2492 23.2644 32.1037C23.2934 31.9582 23.3648 31.8246 23.4697 31.7197C23.5746 31.6148 23.7082 31.5434 23.8537 31.5144C23.9992 31.4855 24.15 31.5003 24.287 31.5571C24.4241 31.6139 24.5412 31.71 24.6236 31.8333C24.706 31.9567 24.75 32.1017 24.75 32.25C24.7498 32.4488 24.6707 32.6395 24.5301 32.7801C24.3895 32.9207 24.1988 32.9998 24 33ZM34.5 44.25V37.5H35.6894L38.4697 40.2803C38.5393 40.35 38.622 40.4052 38.713 40.4429C38.804 40.4806 38.9015 40.5 39 40.5H42V44.25C41.9999 44.5055 42.0435 44.7592 42.129 45H35.25C35.0512 44.9998 34.8605 44.9207 34.7199 44.7801C34.5793 44.6395 34.5002 44.4488 34.5 44.25ZM45 44.25C45 44.4489 44.921 44.6397 44.7803 44.7803C44.6397 44.921 44.4489 45 44.25 45C44.0511 45 43.8603 44.921 43.7197 44.7803C43.579 44.6397 43.5 44.4489 43.5 44.25V39.75C43.5 39.6515 43.4806 39.554 43.4429 39.463C43.4052 39.372 43.35 39.2893 43.2803 39.2197C43.2107 39.15 43.128 39.0948 43.037 39.0571C42.946 39.0194 42.8485 39 42.75 39H39.3106L37.8106 37.5H45V44.25Z" fill="url(#paint7_linear)"/>
<defs>
<linearGradient id="paint0_linear" x1="30.6997" y1="2.67337" x2="23.5352" y2="21.6563" gradientUnits="userSpaceOnUse">
<stop stop-color="#B4B4FF"/>
<stop offset="1" stop-color="#1919C7"/>
</linearGradient>
<linearGradient id="paint1_linear" x1="18.3526" y1="24.0925" x2="17.6262" y2="25.3844" gradientUnits="userSpaceOnUse">
<stop stop-color="#B4B4FF"/>
<stop offset="1" stop-color="#1919C7"/>
</linearGradient>
<linearGradient id="paint2_linear" x1="21.3526" y1="24.0925" x2="20.6262" y2="25.3844" gradientUnits="userSpaceOnUse">
<stop stop-color="#B4B4FF"/>
<stop offset="1" stop-color="#1919C7"/>
</linearGradient>
<linearGradient id="paint3_linear" x1="25.4552" y1="24.0925" x2="25.0122" y2="25.6683" gradientUnits="userSpaceOnUse">
<stop stop-color="#B4B4FF"/>
<stop offset="1" stop-color="#1919C7"/>
</linearGradient>
<linearGradient id="paint4_linear" x1="18.3526" y1="18.0925" x2="17.6262" y2="19.3844" gradientUnits="userSpaceOnUse">
<stop stop-color="#B4B4FF"/>
<stop offset="1" stop-color="#1919C7"/>
</linearGradient>
<linearGradient id="paint5_linear" x1="21.3526" y1="18.0925" x2="20.6262" y2="19.3844" gradientUnits="userSpaceOnUse">
<stop stop-color="#B4B4FF"/>
<stop offset="1" stop-color="#1919C7"/>
</linearGradient>
<linearGradient id="paint6_linear" x1="25.4552" y1="18.0925" x2="25.0122" y2="19.6683" gradientUnits="userSpaceOnUse">
<stop stop-color="#B4B4FF"/>
<stop offset="1" stop-color="#1919C7"/>
</linearGradient>
<linearGradient id="paint7_linear" x1="34.5785" y1="16.9415" x2="22.4095" y2="47.8606" gradientUnits="userSpaceOnUse">
<stop stop-color="#B4B4FF"/>
<stop offset="1" stop-color="#1919C7"/>
</linearGradient>
</defs>
</svg>
