<svg width="48" height="48" viewBox="0 0 48 48" fill="none" xmlns="http://www.w3.org/2000/svg">
<path d="M24 42.75C24.4142 42.75 24.75 42.4142 24.75 42C24.75 41.5858 24.4142 41.25 24 41.25C23.5858 41.25 23.25 41.5858 23.25 42C23.25 42.4142 23.5858 42.75 24 42.75Z" fill="url(#paint0_linear)"/>
<path d="M46.5 39.75H27.8946C27.4988 39.0681 26.9319 38.5012 26.25 38.1054V26.25H24.75V37.5637C24.2536 37.4788 23.7464 37.4788 23.25 37.5637V26.25H21.75V38.1054C21.0681 38.5012 20.5012 39.0681 20.1054 39.75H1.5V41.25H19.5637C19.4788 41.7464 19.4788 42.2536 19.5637 42.75H1.5V44.25H20.1054C20.4998 44.934 21.0674 45.5021 21.7511 45.8971C22.4348 46.292 23.2104 46.5 24 46.5C24.7896 46.5 25.5652 46.292 26.2489 45.8971C26.9326 45.5021 27.5002 44.934 27.8946 44.25H46.5V42.75H28.4363C28.5212 42.2536 28.5212 41.7464 28.4363 41.25H46.5V39.75ZM24 45C23.4067 45 22.8266 44.8241 22.3333 44.4944C21.8399 44.1648 21.4554 43.6962 21.2284 43.1481C21.0013 42.5999 20.9419 41.9967 21.0576 41.4147C21.1734 40.8328 21.4591 40.2982 21.8787 39.8787C22.2982 39.4591 22.8328 39.1734 23.4147 39.0576C23.9967 38.9419 24.5999 39.0013 25.1481 39.2284C25.6962 39.4554 26.1648 39.8399 26.4944 40.3333C26.8241 40.8266 27 41.4067 27 42C26.9991 42.7954 26.6827 43.5579 26.1203 44.1203C25.5579 44.6827 24.7954 44.9991 24 45Z" fill="url(#paint1_linear)"/>
<path d="M21.75 23.25H23.25V24.75H21.75V23.25Z" fill="url(#paint2_linear)"/>
<path d="M21.75 20.25H23.25V21.75H21.75V20.25Z" fill="url(#paint3_linear)"/>
<path d="M24.75 23.25H26.25V24.75H24.75V23.25Z" fill="url(#paint4_linear)"/>
<path d="M24.75 20.25H26.25V21.75H24.75V20.25Z" fill="url(#paint5_linear)"/>
<path d="M39.75 18H38.9534C38.846 17.1488 38.5574 16.3304 38.107 15.6002C37.6565 14.87 37.0547 14.2449 36.3422 13.767C35.6296 13.2891 34.8229 12.9696 33.9763 12.83C33.1298 12.6904 32.2632 12.7339 31.4349 12.9577C30.7851 6.53194 25.3442 1.5 18.75 1.5C11.7196 1.5 6.00001 7.21962 6.00001 14.25C6.00039 15.1762 6.10139 16.0996 6.30123 17.004C4.66754 17.6339 3.30576 18.8156 2.45197 20.3443C1.59819 21.8729 1.30622 23.6522 1.62669 25.3735C1.94716 27.0949 2.85987 28.6498 4.20657 29.7688C5.55328 30.8878 7.24909 31.5002 9.00001 31.5H20.25V30H9.00001C7.61109 30.0001 6.26516 29.5183 5.19183 28.6368C4.1185 27.7552 3.38426 26.5286 3.11437 25.1662C2.84448 23.8037 3.05566 22.3898 3.71188 21.1657C4.3681 19.9416 5.42871 18.9831 6.71277 18.4536C6.94959 19.1357 7.24447 19.7962 7.59417 20.4278L8.90576 19.7C8.03284 18.1196 7.55319 16.3522 7.50734 14.5473C7.4615 12.7424 7.85081 10.953 8.64237 9.33027C9.43394 7.70755 10.6045 6.29923 12.0551 5.2243C13.5057 4.14938 15.1938 3.43945 16.9767 3.15451C18.7595 2.86957 20.5848 3.01798 22.2982 3.58722C24.0116 4.15645 25.5628 5.12978 26.8207 6.42494C28.0786 7.7201 29.0063 9.29904 29.5253 11.0283C30.0443 12.7576 30.1394 14.5864 29.8025 16.3602L31.2763 16.6398C31.4091 15.9366 31.483 15.2235 31.497 14.508C32.1758 14.2677 32.9025 14.1938 33.6158 14.2925C34.3292 14.3911 35.0084 14.6595 35.5965 15.0751C36.1847 15.4907 36.6645 16.0414 36.9957 16.6808C37.3269 17.3203 37.4999 18.0299 37.5 18.75C37.5 18.8485 37.5194 18.946 37.5571 19.037C37.5948 19.128 37.65 19.2107 37.7197 19.2803C37.7893 19.35 37.872 19.4052 37.963 19.4429C38.054 19.4806 38.1515 19.5 38.25 19.5H39.75C41.1424 19.5 42.4778 20.0531 43.4623 21.0377C44.4469 22.0223 45 23.3576 45 24.75C45 26.1424 44.4469 27.4777 43.4623 28.4623C42.4778 29.4469 41.1424 30 39.75 30H27.75V31.5H39.75C41.5402 31.5 43.2571 30.7888 44.523 29.523C45.7889 28.2571 46.5 26.5402 46.5 24.75C46.5 22.9598 45.7889 21.2429 44.523 19.977C43.2571 18.7112 41.5402 18 39.75 18Z" fill="url(#paint6_linear)"/>
<defs>
<linearGradient id="paint0_linear" x1="24.3526" y1="41.3425" x2="23.6262" y2="42.6344" gradientUnits="userSpaceOnUse">
<stop stop-color="#B4B4FF"/>
<stop offset="1" stop-color="#1919C7"/>
</linearGradient>
<linearGradient id="paint1_linear" x1="34.5785" y1="27.4981" x2="29.1199" y2="49.0725" gradientUnits="userSpaceOnUse">
<stop stop-color="#B4B4FF"/>
<stop offset="1" stop-color="#1919C7"/>
</linearGradient>
<linearGradient id="paint2_linear" x1="22.8526" y1="23.3425" x2="22.1262" y2="24.6344" gradientUnits="userSpaceOnUse">
<stop stop-color="#B4B4FF"/>
<stop offset="1" stop-color="#1919C7"/>
</linearGradient>
<linearGradient id="paint3_linear" x1="22.8526" y1="20.3425" x2="22.1262" y2="21.6344" gradientUnits="userSpaceOnUse">
<stop stop-color="#B4B4FF"/>
<stop offset="1" stop-color="#1919C7"/>
</linearGradient>
<linearGradient id="paint4_linear" x1="25.8526" y1="23.3425" x2="25.1262" y2="24.6344" gradientUnits="userSpaceOnUse">
<stop stop-color="#B4B4FF"/>
<stop offset="1" stop-color="#1919C7"/>
</linearGradient>
<linearGradient id="paint5_linear" x1="25.8526" y1="20.3425" x2="25.1262" y2="21.6344" gradientUnits="userSpaceOnUse">
<stop stop-color="#B4B4FF"/>
<stop offset="1" stop-color="#1919C7"/>
</linearGradient>
<linearGradient id="paint6_linear" x1="34.5785" y1="3.34905" x2="23.4015" y2="33.1676" gradientUnits="userSpaceOnUse">
<stop stop-color="#B4B4FF"/>
<stop offset="1" stop-color="#1919C7"/>
</linearGradient>
</defs>
</svg>
