<svg width="20" height="20" viewBox="0 0 20 20" fill="none" xmlns="http://www.w3.org/2000/svg">
<path d="M18.2414 2.38281H1.75699C1.48641 2.38281 1.23309 2.44934 1.00391 2.55898L9.96012 11.5152L11.9675 9.58602C11.9675 9.58602 11.9677 9.58582 11.9677 9.58574C11.9677 9.58566 11.9679 9.58559 11.9679 9.58559L18.9947 2.55914C18.7655 2.44941 18.512 2.38281 18.2414 2.38281Z" fill="#F4F4F3"/>
<path d="M19.8236 3.3877L13.2109 9.99996L19.8233 16.6123C19.933 16.3832 19.9995 16.1298 19.9995 15.8593V4.14051C19.9995 3.87008 19.9331 3.6168 19.8236 3.3877Z" fill="#F4F4F3"/>
<path d="M0.176172 3.38745C0.0665234 3.61663 0 3.86995 0 4.14054V15.8593C0 16.1297 0.0664453 16.3831 0.176016 16.6122L6.78863 9.99991L0.176172 3.38745Z" fill="#F4F4F3"/>
<path d="M12.3823 10.8287L10.3747 12.7581C10.2602 12.8726 10.1103 12.9298 9.96043 12.9298C9.81055 12.9298 9.66058 12.8726 9.54617 12.7581L7.61664 10.8286L1.00391 17.4409C1.23312 17.5506 1.4866 17.6172 1.75727 17.6172H18.2416C18.5122 17.6172 18.7655 17.5507 18.9947 17.4411L12.3823 10.8287Z" fill="#F4F4F3"/>
</svg>
