<svg width="396" height="298" viewBox="0 0 396 298" fill="none" xmlns="http://www.w3.org/2000/svg">
<path style="mix-blend-mode:overlay" opacity="0.6" d="M78.8086 194.264H78.8173C78.9105 198.529 81.5397 202.595 86.8189 205.652L173.678 255.955C185.562 262.837 206.342 262.013 220.092 254.113L293.538 211.919C301.179 207.529 305.032 201.88 304.918 196.541L78.8086 194.264Z" fill="#9C74FF"/>
<g opacity="0.1">
<g style="mix-blend-mode:multiply" opacity="0.032258">
<path d="M169.585 291.306L63.1873 229.688C48.6304 221.257 50.4839 206.577 67.3265 196.903L157.293 145.217C174.136 135.54 199.59 134.529 214.147 142.961L320.544 204.58C335.101 213.01 333.247 227.691 316.405 237.364L226.439 289.05C209.596 298.726 184.142 299.736 169.585 291.306Z" fill="#FBF7FD"/>
</g>
<g style="mix-blend-mode:multiply" opacity="0.064516">
<path d="M169.785 290.637L64.3468 229.575C49.9215 221.221 51.7577 206.674 68.4485 197.085L157.603 145.865C174.294 136.277 199.519 135.276 213.945 143.63L319.383 204.693C333.808 213.047 331.972 227.594 315.281 237.183L226.126 288.403C209.435 297.991 184.21 298.992 169.785 290.637Z" fill="#F7EFFB"/>
</g>
<g style="mix-blend-mode:multiply" opacity="0.096774">
<path d="M169.985 289.969L65.5067 229.461C51.2122 221.183 53.0318 206.77 69.5708 197.268L157.915 146.514C174.454 137.012 199.449 136.021 213.744 144.299L318.222 204.807C332.517 213.085 330.697 227.498 314.158 237L225.814 287.754C209.277 297.255 184.28 298.247 169.985 289.969Z" fill="#F3E6F8"/>
</g>
<g style="mix-blend-mode:multiply" opacity="0.129032">
<path d="M170.186 289.3L66.6684 229.348C52.5055 221.146 54.307 206.865 70.6957 197.45L158.229 147.162C174.616 137.748 199.382 136.762 213.545 144.968L317.06 204.922C331.224 213.124 329.421 227.406 313.033 236.821L225.502 287.105C209.115 296.52 184.349 297.502 170.186 289.3Z" fill="#F0DEF6"/>
</g>
<g style="mix-blend-mode:multiply" opacity="0.16129">
<path d="M170.387 288.631L67.8278 229.235C53.7958 221.109 55.582 206.96 71.8174 197.633L158.54 147.81C174.775 138.484 199.311 137.51 213.343 145.636L315.905 205.033C329.937 213.159 328.15 227.308 311.915 236.635L225.192 286.461C208.956 295.784 184.42 296.758 170.387 288.631Z" fill="#ECD6F4"/>
</g>
<g style="mix-blend-mode:multiply" opacity="0.193548">
<path d="M170.588 287.963L68.9874 229.122C55.0869 221.072 56.8558 207.055 72.9394 197.815L158.851 148.459C174.934 139.219 199.241 138.255 213.14 146.305L314.743 205.146C328.644 213.196 326.875 227.213 310.791 236.453L224.88 285.811C208.796 295.049 184.49 296.013 170.588 287.963Z" fill="#E8CEF2"/>
</g>
<g style="mix-blend-mode:multiply" opacity="0.225806">
<path d="M170.789 287.294L70.1473 229.011C56.3776 221.036 58.1299 207.152 74.0617 197.999L159.162 149.109C175.094 139.956 199.171 138.998 212.941 146.975L313.582 205.258C327.352 213.233 325.599 227.117 309.668 236.27L224.568 285.161C208.636 294.313 184.559 295.272 170.789 287.294Z" fill="#E4C5EF"/>
</g>
<g style="mix-blend-mode:multiply" opacity="0.258065">
<path d="M170.989 286.625L71.3024 228.896C57.6643 220.997 59.4007 207.246 75.18 198.18L159.469 149.755C175.249 140.69 199.097 139.744 212.735 147.642L312.418 205.372C326.057 213.27 324.32 227.022 308.541 236.088L224.255 284.511C208.475 293.578 184.626 294.524 170.989 286.625Z" fill="#E0BDED"/>
</g>
<g style="mix-blend-mode:multiply" opacity="0.290323">
<path d="M171.192 285.955L72.4681 228.782C58.9609 220.96 60.6807 207.34 76.3081 198.362L159.786 150.407C175.414 141.429 199.033 140.491 212.54 148.312L311.264 205.485C324.771 213.308 323.051 226.927 307.424 235.905L223.945 283.861C208.318 292.842 184.7 293.779 171.192 285.955Z" fill="#DCB5EB"/>
</g>
<g style="mix-blend-mode:multiply" opacity="0.322581">
<path d="M171.391 285.288L73.6268 228.669C60.2533 220.923 61.9536 207.436 77.4292 198.545L160.097 151.052C175.573 142.161 198.962 141.23 212.337 148.98L310.102 205.602C323.475 213.348 321.775 226.835 306.3 235.726L223.632 283.215C208.156 292.107 184.771 293.033 171.391 285.288Z" fill="#D9ADE9"/>
</g>
<g style="mix-blend-mode:multiply" opacity="0.354839">
<path d="M171.593 284.619L74.7875 228.556C61.5427 220.885 63.2285 207.531 78.5531 198.728L160.41 151.7C175.735 142.897 198.894 141.978 212.138 149.648L308.942 205.711C322.187 213.382 320.501 226.737 305.177 235.539L223.321 282.567C207.997 291.372 184.837 292.29 171.593 284.619Z" fill="#D5A5E7"/>
</g>
<g style="mix-blend-mode:multiply" opacity="0.387097">
<path d="M171.793 283.951L75.9468 228.443C62.8335 220.849 64.5027 207.625 79.6755 198.909L160.72 152.349C175.892 143.632 198.822 142.723 211.936 150.317L307.782 205.825C320.896 213.419 319.226 226.642 304.054 235.358L223.012 281.919C207.837 290.635 184.907 291.545 171.793 283.951Z" fill="#D19CE4"/>
</g>
<g style="mix-blend-mode:multiply" opacity="0.419355">
<path d="M171.993 283.283L77.1067 228.329C64.1242 220.811 65.7768 207.721 80.7977 199.092L161.031 152.994C176.052 144.365 198.753 143.465 211.734 150.983L306.622 205.935C319.604 213.453 317.952 226.544 302.931 235.173L222.697 281.268C207.676 289.9 184.976 290.8 171.993 283.283Z" fill="#CD94E2"/>
</g>
<g style="mix-blend-mode:multiply" opacity="0.451613">
<path d="M172.193 282.613L78.2682 228.217C65.4173 220.774 67.0525 207.816 81.9217 199.274L161.344 153.644C176.213 145.102 198.685 144.211 211.535 151.653L305.463 206.05C318.314 213.492 316.678 226.45 301.809 234.992L222.387 280.622C207.518 289.164 185.046 290.056 172.193 282.613Z" fill="#C98CE0"/>
</g>
<g style="mix-blend-mode:multiply" opacity="0.483871">
<path d="M172.396 281.945L79.4269 228.105C66.704 220.739 68.3269 207.914 83.0414 199.459L161.655 154.294C176.372 145.839 198.614 144.958 211.334 152.323L304.303 206.165C317.025 213.532 315.403 226.357 300.688 234.812L222.072 279.974C207.357 288.428 185.116 289.311 172.396 281.945Z" fill="#C584DE"/>
</g>
<g style="mix-blend-mode:multiply" opacity="0.516129">
<path d="M172.597 281.276L80.5878 227.99C67.9994 220.7 69.5999 208.006 84.1668 199.639L161.967 154.944C176.533 146.577 198.546 145.7 211.133 152.994L303.143 206.281C315.731 213.571 314.131 226.264 299.564 234.632L221.763 279.326C207.198 287.693 185.186 288.566 172.597 281.276Z" fill="#C27BDB"/>
</g>
<g style="mix-blend-mode:multiply" opacity="0.548387">
<path d="M172.797 280.611L81.7469 227.877C69.2893 220.662 70.8753 208.101 85.2891 199.821L162.277 155.591C176.69 147.31 198.473 146.446 210.928 153.66L301.978 206.39C314.436 213.605 312.849 226.166 298.436 234.447L221.448 278.677C207.036 286.958 185.254 287.822 172.797 280.611Z" fill="#BE73D9"/>
</g>
<g style="mix-blend-mode:multiply" opacity="0.580645">
<path d="M172.998 279.939L82.9059 227.764C70.5806 220.626 72.1493 208.197 86.4105 200.004L162.59 156.237C176.851 148.044 198.404 147.189 210.73 154.328L300.821 206.504C313.147 213.642 311.578 226.071 297.317 234.264L221.138 278.031C206.877 286.222 185.324 287.077 172.998 279.939Z" fill="#BA6BD7"/>
</g>
<g style="mix-blend-mode:multiply" opacity="0.612903">
<path d="M173.2 279.27L84.0675 227.65C71.873 220.588 73.4251 208.295 87.5374 200.186L162.902 156.887C177.012 148.781 198.336 147.932 210.53 154.998L299.663 206.617C311.857 213.679 310.305 225.973 296.193 234.082L220.828 277.381C206.718 285.487 185.394 286.332 173.2 279.27Z" fill="#B663D5"/>
</g>
<g style="mix-blend-mode:multiply" opacity="0.645161">
<path d="M173.4 278.601L85.2288 227.537C73.1638 220.551 74.6992 208.389 88.6568 200.372L163.214 157.539C177.171 149.523 198.266 148.683 210.329 155.67L298.502 206.731C310.566 213.717 309.03 225.881 295.073 233.9L220.516 276.732C206.558 284.751 185.464 285.588 173.4 278.601Z" fill="#B25AD2"/>
</g>
<g style="mix-blend-mode:multiply" opacity="0.677419">
<path d="M173.601 277.933L86.3855 227.424C74.4527 220.514 75.9715 208.482 89.778 200.55L163.525 158.183C177.332 150.252 198.196 149.424 210.129 156.335L297.342 206.843C309.275 213.753 307.755 225.786 293.949 233.717L220.204 276.084C206.399 284.016 185.534 284.843 173.601 277.933Z" fill="#AE52D0"/>
</g>
<g style="mix-blend-mode:multiply" opacity="0.709677">
<path d="M173.803 277.264L87.5481 227.311C75.7476 220.477 77.2498 208.577 90.9038 200.733L163.838 158.832C177.492 150.988 198.127 150.165 209.929 157.003L296.183 206.957C307.984 213.791 306.482 225.69 292.828 233.534L219.894 275.436C206.242 283.283 185.604 284.099 173.803 277.264Z" fill="#AB4ACE"/>
</g>
<g style="mix-blend-mode:multiply" opacity="0.741935">
<path d="M173.999 276.596L88.7041 227.196C77.0345 220.438 78.52 208.671 92.0222 200.913L164.146 159.479C177.648 151.721 198.054 150.912 209.723 157.673L295.019 207.073C306.688 213.831 305.203 225.598 291.701 233.355L219.577 274.79C206.078 282.545 185.672 283.356 173.999 276.596Z" fill="#A742CC"/>
</g>
<g style="mix-blend-mode:multiply" opacity="0.774194">
<path d="M174.204 275.927L89.8679 227.085C78.3291 220.402 79.798 208.767 93.1484 201.098L164.458 160.129C177.808 152.459 197.984 151.658 209.523 158.341L293.862 207.183C305.401 213.865 303.932 225.5 290.582 233.17L219.269 274.139C205.919 281.809 185.743 282.609 174.204 275.927Z" fill="#A33ACA"/>
</g>
<g style="mix-blend-mode:multiply" opacity="0.806452">
<path d="M174.405 275.258L91.0271 226.972C79.6199 220.365 81.0722 208.863 94.2708 201.28L164.772 160.777C177.971 153.194 197.918 152.403 209.325 159.01L292.699 207.296C304.107 213.902 302.654 225.405 289.456 232.988L218.954 273.491C205.759 281.073 185.812 281.865 174.405 275.258Z" fill="#9F31C7"/>
</g>
<g style="mix-blend-mode:multiply" opacity="0.83871">
<path d="M174.606 274.589L92.1873 226.858C80.9102 220.328 82.3466 208.958 95.3933 201.463L165.08 161.426C178.127 153.93 197.844 153.148 209.12 159.679L291.542 207.41C302.819 213.94 301.383 225.31 288.336 232.805L218.649 272.842C205.599 280.337 185.881 281.117 174.606 274.589Z" fill="#9B29C5"/>
</g>
<g style="mix-blend-mode:multiply" opacity="0.870968">
<path d="M174.807 273.921L93.3486 226.745C82.2037 220.291 83.6221 209.05 96.517 201.645L165.398 162.074C178.293 154.666 197.784 153.892 208.926 160.347L290.386 207.522C301.531 213.977 300.113 225.217 287.218 232.623L218.339 272.194C205.44 279.6 185.952 280.375 174.807 273.921Z" fill="#9721C3"/>
</g>
<g style="mix-blend-mode:multiply" opacity="0.903226">
<path d="M175.006 273.252L94.5072 226.632C83.4932 220.254 84.8928 209.148 97.6381 201.828L165.706 162.722C178.449 155.401 197.708 154.638 208.722 161.016L289.221 207.636C300.235 214.014 298.835 225.119 286.09 232.44L218.023 271.546C205.279 278.866 186.02 279.63 175.006 273.252Z" fill="#9419C1"/>
</g>
<g style="mix-blend-mode:multiply" opacity="0.935484">
<path d="M175.208 272.584L95.6675 226.517C84.785 220.214 86.1708 209.241 98.7614 202.007L166.019 163.368C178.61 156.135 197.639 155.38 208.525 161.682L288.065 207.747C298.947 214.049 297.562 225.022 284.971 232.255L217.714 270.894C205.12 278.131 186.09 278.886 175.208 272.584Z" fill="#9010BE"/>
</g>
<g style="mix-blend-mode:multiply" opacity="0.967742">
<path d="M175.409 271.915L96.8309 226.405C86.0801 220.179 87.4485 209.339 99.8873 202.192L166.334 164.019C178.773 156.869 197.572 156.127 208.324 162.353L286.902 207.862C297.653 214.088 296.285 224.929 283.846 232.076L217.399 270.249C204.96 277.396 186.16 278.141 175.409 271.915Z" fill="#8C08BC"/>
</g>
<g style="mix-blend-mode:multiply">
<path d="M175.611 271.246L97.9888 226.293C87.3688 220.142 88.7206 209.434 101.008 202.375L166.647 164.667C178.936 157.608 197.504 156.871 208.124 163.022L285.746 207.975C296.366 214.125 295.014 224.834 282.727 231.893L217.088 269.601C204.801 276.66 186.231 277.396 175.611 271.246Z" fill="#8800BA"/>
</g>
</g>
<path d="M304.922 210.901L304.838 195.403L289.685 195.327L210.057 149.211C198.173 142.329 177.393 143.153 163.647 151.053L90.2017 193.247C89.5995 193.593 89.0298 193.949 88.4747 194.31L78.8125 194.261V208.623H78.8212C78.9144 212.889 81.5436 216.954 86.8229 220.012L173.682 270.315C185.566 277.197 206.346 276.373 220.096 268.473L293.542 226.279C301.183 221.889 305.036 216.24 304.922 210.901Z" fill="#8C8CE3"/>
<path d="M173.677 255.955L86.8192 205.652C74.9356 198.77 76.4479 186.786 90.198 178.887L163.644 136.693C177.393 128.793 198.173 127.969 210.053 134.851L296.913 185.154C308.797 192.037 307.284 204.019 293.534 211.919L220.089 254.113C206.341 262.013 185.562 262.837 173.677 255.955Z" fill="#4E4EE3"/>
<path d="M264.822 228.382H218.113L207.259 230.655L173.753 248.693L169.574 253.611L173.712 256.007L173.719 256.011C185.619 262.832 206.322 261.991 220.031 254.115L264.822 228.382Z" fill="#AEAEEB"/>
<path d="M203.188 220.985L210.633 216.707L218.078 221.087L210.633 225.365L203.188 220.985Z" fill="white"/>
<path d="M210.633 232.608V225.366L218.078 221.087L218.079 228.33L210.633 232.608Z" fill="#4E4EE3"/>
<path d="M203.188 220.985V228.228L210.633 232.608V225.365L203.188 220.985Z" fill="#8C8CE3"/>
<path d="M192.332 218.778L199.778 214.5L207.223 218.88L199.778 223.158L192.332 218.778Z" fill="white"/>
<path d="M199.777 238.836V223.158L207.222 218.88V234.559L199.777 238.836Z" fill="#4E4EE3"/>
<path d="M192.332 218.778V234.457L199.778 238.836V223.158L192.332 218.778Z" fill="#8C8CE3"/>
<path d="M181.164 187.91L188.61 183.632L196.056 188.012L188.61 192.291L181.164 187.91Z" fill="white"/>
<path d="M188.609 245.098V192.291L196.055 188.012V240.82L188.609 245.098Z" fill="#4E4EE3"/>
<path d="M181.164 187.91V240.718L188.61 245.098V192.29L181.164 187.91Z" fill="#8C8CE3"/>
<path d="M169.996 212.134L177.442 207.856L184.888 212.236L177.442 216.515L169.996 212.134Z" fill="white"/>
<path d="M177.441 251.27V216.515L184.887 212.236V246.992L177.441 251.27Z" fill="#4E4EE3"/>
<path d="M169.996 212.135V246.89L177.442 251.27V216.515L169.996 212.135Z" fill="#8C8CE3"/>
<path d="M158.826 239.726L166.272 235.448L173.718 239.828L166.272 244.106L158.826 239.726Z" fill="white"/>
<path d="M166.271 257.454V244.107L173.717 239.828V253.175L166.271 257.454Z" fill="#4E4EE3"/>
<path d="M158.826 239.726L158.827 253.073L166.272 257.454V244.106L158.826 239.726Z" fill="#8C8CE3"/>
<path d="M147.658 252.013L155.104 247.734L162.55 252.114L155.104 256.393L147.658 252.013Z" fill="white"/>
<path d="M155.104 263.636V256.393L162.549 252.115V259.358L155.104 263.636Z" fill="#4E4EE3"/>
<path d="M147.658 252.013L147.659 259.255L155.104 263.636V256.393L147.658 252.013Z" fill="#8C8CE3"/>
<path d="M171.798 163.998H229.044L244.105 154.557L210.078 134.851C198.195 127.969 177.414 128.793 163.669 136.693L144.543 147.671L171.798 163.998Z" fill="#AEAEEB"/>
<path d="M197.825 148.917L190.307 144.58V135.907L197.825 140.244V148.917Z" fill="#8C8CE3"/>
<path d="M205.342 144.58L197.824 148.917V140.244L205.342 135.907V144.58Z" fill="#7676E3"/>
<path d="M205.343 135.907L197.825 140.243L190.307 135.907L197.825 131.571L205.343 135.907Z" fill="#AEAEEB"/>
<path d="M189.204 153.982L181.686 149.645V140.971L189.204 145.308V153.982Z" fill="#8C8CE3"/>
<path d="M196.721 149.645L189.203 153.982V145.308L196.721 140.971V149.645Z" fill="#AEAEEB"/>
<path d="M196.722 140.971L189.204 145.308L181.686 140.971L189.204 136.635L196.722 140.971Z" fill="#AEAEEB"/>
<path d="M180.584 158.985L173.066 154.649V145.976L180.584 150.312V158.985Z" fill="#8C8CE3"/>
<path d="M188.102 154.649L180.584 158.985V150.312L188.102 145.976V154.649Z" fill="#7676E3"/>
<path d="M188.103 145.976L180.584 150.312L173.066 145.976L180.584 141.639L188.103 145.976Z" fill="#AEAEEB"/>
<path d="M146.106 148.776L138.588 144.44V135.767L146.106 140.103V148.776Z" fill="#D1D1F4"/>
<path d="M153.624 144.44L146.105 148.776V140.103L153.624 135.767V144.44Z" fill="#8C8CE3"/>
<path d="M153.624 135.767L146.106 140.103L138.588 135.767L146.106 131.43L153.624 135.767Z" fill="#AEAEEB"/>
<path d="M154.725 153.886L147.207 149.55V140.877L154.725 145.213V153.886Z" fill="#AEAEEB"/>
<path d="M162.245 149.55L154.727 153.886V145.213L162.245 140.877V149.55Z" fill="#8C8CE3"/>
<path d="M162.243 140.877L154.725 145.213L147.207 140.877L154.725 136.54L162.243 140.877Z" fill="#AEAEEB"/>
<path d="M163.345 159.035L155.826 154.698V146.025L163.345 150.362V159.035Z" fill="#7676E3"/>
<path d="M170.864 154.698L163.346 159.035V150.362L170.864 146.025V154.698Z" fill="#7676E3"/>
<path d="M170.863 146.025L163.344 150.362L155.826 146.025L163.345 141.689L170.863 146.025Z" fill="#AEAEEB"/>
<path d="M171.963 163.97L164.445 159.633V150.96L171.963 155.297V163.97Z" fill="#D1D1F4"/>
<path d="M179.482 159.633L171.963 163.97V155.297L179.482 150.96V159.633Z" fill="#D1D1F4"/>
<path d="M179.481 150.96L171.963 155.297L164.445 150.96L171.963 146.624L179.481 150.96Z" fill="#AEAEEB"/>
<path d="M171.963 123.591L164.445 119.254V110.581L171.963 114.918V123.591Z" fill="#AEAEEB"/>
<path d="M179.481 119.254L171.963 123.591V114.918L179.481 110.581V119.254Z" fill="#8C8CE3"/>
<path d="M179.481 110.581L171.963 114.918L164.445 110.581L171.963 106.245L179.481 110.581Z" fill="#AEAEEB"/>
<path d="M171.963 113.523L164.445 109.186V100.513L171.963 104.85V113.523Z" fill="#AEAEEB"/>
<path d="M179.481 109.186L171.963 113.523V104.85L179.481 100.513V109.186Z" fill="#8C8CE3"/>
<path d="M179.481 100.513L171.963 104.85L164.445 100.513L171.963 96.1765L179.481 100.513Z" fill="#AEAEEB"/>
<path d="M171.963 103.424L164.445 99.0877V90.4146L171.963 94.7515V103.424Z" fill="#8C8CE3"/>
<path d="M179.481 99.0877L171.963 103.424V94.7515L179.481 90.4146V99.0877Z" fill="#8C8CE3"/>
<path d="M179.481 90.4146L171.963 94.7515L164.445 90.4146L171.963 86.0784L179.481 90.4146Z" fill="#8C8CE3"/>
<path d="M163.344 128.655L155.826 124.318V115.645L163.344 119.982V128.655Z" fill="#AEAEEB"/>
<path d="M170.863 124.318L163.344 128.655V119.982L170.863 115.645V124.318Z" fill="#8C8CE3"/>
<path d="M170.863 115.645L163.344 119.982L155.826 115.645L163.345 111.309L170.863 115.645Z" fill="#AEAEEB"/>
<path d="M163.344 118.587L155.826 114.251V105.578L163.344 109.914V118.587Z" fill="#AEAEEB"/>
<path d="M170.863 114.251L163.344 118.587V109.914L170.863 105.578V114.251Z" fill="#8C8CE3"/>
<path d="M170.863 105.578L163.344 109.914L155.826 105.578L163.345 101.241L170.863 105.578Z" fill="#AEAEEB"/>
<path d="M163.344 108.489L155.826 104.152V95.4788L163.344 99.8157V108.489Z" fill="#8C8CE3"/>
<path d="M170.863 104.152L163.344 108.489V99.8157L170.863 95.4788V104.152Z" fill="#8C8CE3"/>
<path d="M170.863 95.4788L163.344 99.8157L155.826 95.4788L163.345 91.1426L170.863 95.4788Z" fill="#8C8CE3"/>
<path d="M154.725 133.659L147.207 129.323V120.65L154.725 124.986V133.659Z" fill="#AEAEEB"/>
<path d="M162.243 129.323L154.725 133.659V124.986L162.243 120.65V129.323Z" fill="#8C8CE3"/>
<path d="M162.243 120.65L154.725 124.986L147.207 120.65L154.725 116.313L162.243 120.65Z" fill="#D1D1F4"/>
<path d="M154.725 123.591L147.207 119.254V110.581L154.725 114.918V123.591Z" fill="#D1D1F4"/>
<path d="M162.243 119.254L154.725 123.591V114.918L162.243 110.581V119.254Z" fill="#8C8CE3"/>
<path d="M162.243 110.581L154.725 114.918L147.207 110.581L154.725 106.245L162.243 110.581Z" fill="#AEAEEB"/>
<path d="M154.725 113.493L147.207 109.156V100.483L154.725 104.819V113.493Z" fill="#8C8CE3"/>
<path d="M162.243 109.156L154.725 113.493V104.819L162.243 100.483V109.156Z" fill="#8C8CE3"/>
<path d="M162.243 100.483L154.725 104.819L147.207 100.483L154.725 96.1462L162.243 100.483Z" fill="#D1D1F4"/>
<path d="M180.584 128.701L173.066 124.364V115.691L180.584 120.028V128.701Z" fill="#AEAEEB"/>
<path d="M188.102 124.364L180.584 128.701V120.028L188.102 115.691V124.364Z" fill="#8C8CE3"/>
<path d="M188.103 115.691L180.584 120.028L173.066 115.691L180.584 111.354L188.103 115.691Z" fill="#AEAEEB"/>
<path d="M180.584 118.632L173.066 114.296V105.623L180.584 109.959V118.632Z" fill="#AEAEEB"/>
<path d="M188.102 114.296L180.584 118.632V109.959L188.102 105.623V114.296Z" fill="#8C8CE3"/>
<path d="M188.103 105.623L180.584 109.959L173.066 105.623L180.584 101.286L188.103 105.623Z" fill="#AEAEEB"/>
<path d="M180.584 108.534L173.066 104.197V95.5242L180.584 99.8611V108.534Z" fill="#8C8CE3"/>
<path d="M188.102 104.197L180.584 108.534V99.8611L188.102 95.5242V104.197Z" fill="#8C8CE3"/>
<path d="M188.103 95.5242L180.584 99.8612L173.066 95.5242L180.584 91.188L188.103 95.5242Z" fill="#8C8CE3"/>
<path d="M171.963 133.765L164.445 129.428V120.756L171.963 125.092V133.765Z" fill="#AEAEEB"/>
<path d="M179.481 129.428L171.963 133.765V125.092L179.481 120.756V129.428Z" fill="#8C8CE3"/>
<path d="M179.481 120.756L171.963 125.092L164.445 120.756L171.963 116.419L179.481 120.756Z" fill="#AEAEEB"/>
<path d="M171.963 123.697L164.445 119.36V110.687L171.963 115.024V123.697Z" fill="#AEAEEB"/>
<path d="M179.481 119.36L171.963 123.697V115.024L179.481 110.687V119.36Z" fill="#8C8CE3"/>
<path d="M179.481 110.687L171.963 115.024L164.445 110.687L171.963 106.351L179.481 110.687Z" fill="#AEAEEB"/>
<path d="M171.963 113.598L164.445 109.262V100.589L171.963 104.925V113.598Z" fill="#8C8CE3"/>
<path d="M179.481 109.262L171.963 113.598V104.925L179.481 100.589V109.262Z" fill="#8C8CE3"/>
<path d="M179.481 100.589L171.963 104.925L164.445 100.589L171.963 96.2522L179.481 100.589Z" fill="#D1D1F4"/>
<path d="M163.344 138.769L155.826 134.432V125.759L163.344 130.096V138.769Z" fill="#8C8CE3"/>
<path d="M170.863 134.432L163.344 138.769V130.096L170.863 125.759V134.432Z" fill="#8C8CE3"/>
<path d="M170.863 125.759L163.344 130.096L155.826 125.759L163.345 121.422L170.863 125.759Z" fill="#AEAEEB"/>
<path d="M163.344 128.701L155.826 124.364V115.691L163.344 120.028V128.701Z" fill="#8C8CE3"/>
<path d="M170.863 124.364L163.344 128.701V120.028L170.863 115.691V124.364Z" fill="#8C8CE3"/>
<path d="M170.863 115.691L163.344 120.028L155.826 115.691L163.345 111.354L170.863 115.691Z" fill="#AEAEEB"/>
<path d="M163.344 118.602L155.826 114.266V105.593L163.344 109.929V118.602Z" fill="#8C8CE3"/>
<path d="M170.863 114.266L163.344 118.602V109.929L170.863 105.593V114.266Z" fill="#8C8CE3"/>
<path d="M170.863 105.593L163.344 109.929L155.826 105.593L163.345 101.256L170.863 105.593Z" fill="#AEAEEB"/>
<path d="M189.204 133.849L181.686 129.513V120.84L189.204 125.176V133.849Z" fill="#8C8CE3"/>
<path d="M196.721 129.513L189.203 133.849V125.176L196.721 120.84V129.513Z" fill="#7676E3"/>
<path d="M196.722 120.84L189.204 125.176L181.686 120.84L189.204 116.503L196.722 120.84Z" fill="#AEAEEB"/>
<path d="M189.204 123.781L181.686 119.444V110.771L189.204 115.108V123.781Z" fill="#8C8CE3"/>
<path d="M196.721 119.444L189.203 123.781V115.108L196.721 110.771V119.444Z" fill="#8C8CE3"/>
<path d="M196.722 110.771L189.204 115.108L181.686 110.771L189.204 106.435L196.722 110.771Z" fill="#AEAEEB"/>
<path d="M189.204 113.682L181.686 109.346V100.673L189.204 105.009V113.682Z" fill="#8C8CE3"/>
<path d="M196.721 109.346L189.203 113.682V105.009L196.721 100.673V109.346Z" fill="#8C8CE3"/>
<path d="M196.722 100.673L189.204 105.009L181.686 100.673L189.204 96.3362L196.722 100.673Z" fill="#D1D1F4"/>
<path d="M180.583 138.913L173.064 134.577V125.904L180.583 130.24V138.913Z" fill="#8C8CE3"/>
<path d="M188.1 134.577L180.582 138.913V130.24L188.1 125.904V134.577Z" fill="#AEAEEB"/>
<path d="M188.101 125.904L180.583 130.24L173.064 125.904L180.583 121.568L188.101 125.904Z" fill="#AEAEEB"/>
<path d="M180.583 128.846L173.064 124.509V115.836L180.583 120.172V128.846Z" fill="#8C8CE3"/>
<path d="M188.1 124.509L180.582 128.846V120.172L188.1 115.836V124.509Z" fill="#D1D1F4"/>
<path d="M188.101 115.836L180.583 120.172L173.064 115.836L180.583 111.499L188.101 115.836Z" fill="#AEAEEB"/>
<path d="M180.583 118.747L173.064 114.41V105.737L180.583 110.074V118.747Z" fill="#8C8CE3"/>
<path d="M188.1 114.41L180.582 118.747V110.074L188.1 105.737V114.41Z" fill="#8C8CE3"/>
<path d="M188.101 105.737L180.583 110.074L173.064 105.737L180.583 101.401L188.101 105.737Z" fill="#E2E2F8"/>
<path d="M171.963 143.918L164.445 139.581V130.907L171.963 135.244V143.918Z" fill="#8C8CE3"/>
<path d="M179.481 139.581L171.963 143.918V135.244L179.481 130.907V139.581Z" fill="#8C8CE3"/>
<path d="M179.481 130.908L171.963 135.244L164.445 130.908L171.963 126.571L179.481 130.908Z" fill="#AEAEEB"/>
<path d="M171.963 133.849L164.445 129.513V120.84L171.963 125.176V133.849Z" fill="#8C8CE3"/>
<path d="M179.481 129.513L171.963 133.849V125.176L179.481 120.84V129.513Z" fill="#8C8CE3"/>
<path d="M179.481 120.84L171.963 125.176L164.445 120.84L171.963 116.503L179.481 120.84Z" fill="#AEAEEB"/>
<path d="M171.963 123.751L164.445 119.414V110.741L171.963 115.078V123.751Z" fill="#8C8CE3"/>
<path d="M179.481 119.414L171.963 123.751V115.078L179.481 110.741V119.414Z" fill="#8C8CE3"/>
<path d="M179.481 110.741L171.963 115.078L164.445 110.741L171.963 106.405L179.481 110.741Z" fill="#AEAEEB"/>
<path d="M146.106 138.674L138.588 134.337V125.664L146.106 130.001V138.674Z" fill="#7676E3"/>
<path d="M153.624 134.337L146.105 138.674V130.001L153.624 125.664V134.337Z" fill="#8C8CE3"/>
<path d="M153.624 125.664L146.106 130.001L138.588 125.664L146.106 121.328L153.624 125.664Z" fill="#AEAEEB"/>
<path d="M146.106 128.606L138.588 124.269V115.596L146.106 119.932V128.606Z" fill="#D1D1F4"/>
<path d="M153.624 124.269L146.105 128.606V119.932L153.624 115.596V124.269Z" fill="#8C8CE3"/>
<path d="M153.624 115.596L146.106 119.932L138.588 115.596L146.106 111.259L153.624 115.596Z" fill="#AEAEEB"/>
<path d="M146.106 118.507L138.588 114.17V105.497L146.106 109.834V118.507Z" fill="#AEAEEB"/>
<path d="M153.624 114.17L146.105 118.507V109.834L153.624 105.497V114.17Z" fill="#8C8CE3"/>
<path d="M153.624 105.497L146.106 109.834L138.588 105.497L146.106 101.161L153.624 105.497Z" fill="#8C8CE3"/>
<path d="M154.726 143.784L147.207 139.447V130.774L154.726 135.111V143.784Z" fill="#AEAEEB"/>
<path d="M162.245 139.447L154.727 143.784V135.111L162.245 130.774V139.447Z" fill="#8C8CE3"/>
<path d="M162.243 130.774L154.725 135.111L147.207 130.774L154.725 126.438L162.243 130.774Z" fill="#AEAEEB"/>
<path d="M154.726 133.715L147.207 129.379V120.706L154.726 125.042V133.715Z" fill="#D1D1F4"/>
<path d="M162.245 129.379L154.727 133.715V125.042L162.245 120.706V129.379Z" fill="#8C8CE3"/>
<path d="M162.243 120.706L154.725 125.042L147.207 120.706L154.725 116.369L162.243 120.706Z" fill="#AEAEEB"/>
<path d="M154.726 123.617L147.207 119.28V110.607L154.726 114.944V123.617Z" fill="#D1D1F4"/>
<path d="M162.245 119.28L154.727 123.617V114.944L162.245 110.607V119.28Z" fill="#8C8CE3"/>
<path d="M162.243 110.607L154.725 114.944L147.207 110.607L154.725 106.271L162.243 110.607Z" fill="#8C8CE3"/>
<path d="M163.344 148.932L155.826 144.596V135.923L163.344 140.26V148.932Z" fill="#D1D1F4"/>
<path d="M170.863 144.596L163.344 148.932V140.26L170.863 135.923V144.596Z" fill="#7676E3"/>
<path d="M170.863 135.923L163.344 140.259L155.826 135.923L163.344 131.586L170.863 135.923Z" fill="#AEAEEB"/>
<path d="M163.344 138.864L155.826 134.527V125.854L163.344 130.191V138.864Z" fill="#7676E3"/>
<path d="M170.863 134.527L163.344 138.864V130.191L170.863 125.854V134.527Z" fill="#8C8CE3"/>
<path d="M170.863 125.854L163.344 130.191L155.826 125.854L163.344 121.518L170.863 125.854Z" fill="#AEAEEB"/>
<path d="M163.344 128.765L155.826 124.429V115.756L163.344 120.092V128.765Z" fill="#7676E3"/>
<path d="M170.863 124.429L163.344 128.765V120.092L170.863 115.756V124.429Z" fill="#8C8CE3"/>
<path d="M170.863 115.756L163.344 120.092L155.826 115.756L163.344 111.419L170.863 115.756Z" fill="#D1D1F4"/>
<path d="M197.825 138.814L190.307 134.478V125.805L197.825 130.141V138.814Z" fill="#8C8CE3"/>
<path d="M205.342 134.478L197.824 138.814V130.141L205.342 125.805V134.478Z" fill="#D1D1F4"/>
<path d="M205.343 125.805L197.825 130.141L190.307 125.805L197.825 121.468L205.343 125.805Z" fill="#AEAEEB"/>
<path d="M197.825 128.746L190.307 124.409V115.736L197.825 120.073V128.746Z" fill="#8C8CE3"/>
<path d="M205.342 124.409L197.824 128.746V120.073L205.342 115.736V124.409Z" fill="#8C8CE3"/>
<path d="M205.343 115.736L197.825 120.073L190.307 115.736L197.825 111.4L205.343 115.736Z" fill="#AEAEEB"/>
<path d="M197.825 118.648L190.307 114.311V105.638L197.825 109.974V118.648Z" fill="#8C8CE3"/>
<path d="M205.342 114.311L197.824 118.648V109.974L205.342 105.638V114.311Z" fill="#AEAEEB"/>
<path d="M205.343 105.638L197.825 109.974L190.307 105.638L197.825 101.301L205.343 105.638Z" fill="#D1D1F4"/>
<path d="M189.204 143.878L181.686 139.542V130.869L189.204 135.206V143.878Z" fill="#8C8CE3"/>
<path d="M196.721 139.542L189.203 143.878V135.206L196.721 130.869V139.542Z" fill="#AEAEEB"/>
<path d="M196.722 130.869L189.204 135.205L181.686 130.869L189.204 126.533L196.722 130.869Z" fill="#AEAEEB"/>
<path d="M189.204 133.811L181.686 129.474V120.801L189.204 125.137V133.811Z" fill="#8C8CE3"/>
<path d="M196.721 129.474L189.203 133.811V125.137L196.721 120.801V129.474Z" fill="#D1D1F4"/>
<path d="M196.722 120.801L189.204 125.138L181.686 120.801L189.204 116.464L196.722 120.801Z" fill="#AEAEEB"/>
<path d="M189.204 123.713L181.686 119.376V110.702L189.204 115.039V123.713Z" fill="#8C8CE3"/>
<path d="M196.721 119.376L189.203 123.713V115.039L196.721 110.702V119.376Z" fill="#7676E3"/>
<path d="M196.722 110.702L189.204 115.039L181.686 110.702L189.204 106.366L196.722 110.702Z" fill="#E2E2F8"/>
<path d="M180.584 148.883L173.066 144.546V135.873L180.584 140.21V148.883Z" fill="#8C8CE3"/>
<path d="M188.102 144.546L180.584 148.883V140.21L188.102 135.873V144.546Z" fill="#D1D1F4"/>
<path d="M188.103 135.873L180.584 140.21L173.066 135.873L180.584 131.536L188.103 135.873Z" fill="#AEAEEB"/>
<path d="M180.584 138.814L173.066 134.478V125.805L180.584 130.141V138.814Z" fill="#8C8CE3"/>
<path d="M188.102 134.478L180.584 138.814V130.141L188.102 125.805V134.478Z" fill="#D1D1F4"/>
<path d="M188.103 125.805L180.584 130.141L173.066 125.805L180.584 121.468L188.103 125.805Z" fill="#AEAEEB"/>
<path d="M180.584 128.716L173.066 124.379V115.706L180.584 120.043V128.716Z" fill="#8C8CE3"/>
<path d="M188.102 124.379L180.584 128.716V120.043L188.102 115.706V124.379Z" fill="#7676E3"/>
<path d="M188.103 115.706L180.584 120.043L173.066 115.706L180.584 111.37L188.103 115.706Z" fill="#D1D1F4"/>
<path d="M171.963 153.867L164.445 149.531V140.858L171.963 145.194V153.867Z" fill="#D1D1F4"/>
<path d="M179.481 149.531L171.963 153.867V145.194L179.481 140.858V149.531Z" fill="#7676E3"/>
<path d="M179.481 140.858L171.963 145.194L164.445 140.858L171.963 136.521L179.481 140.858Z" fill="#AEAEEB"/>
<path d="M171.963 143.799L164.445 139.462V130.79L171.963 135.126V143.799Z" fill="#7676E3"/>
<path d="M179.481 139.462L171.963 143.799V135.126L179.481 130.79V139.462Z" fill="#D1D1F4"/>
<path d="M179.481 130.789L171.963 135.126L164.445 130.79L171.963 126.453L179.481 130.789Z" fill="#AEAEEB"/>
<path d="M171.963 133.7L164.445 129.364V120.691L171.963 125.027V133.7Z" fill="#D1D1F4"/>
<path d="M179.481 129.364L171.963 133.7V125.027L179.481 120.691V129.364Z" fill="#7676E3"/>
<path d="M179.481 120.691L171.963 125.027L164.445 120.691L171.963 116.355L179.481 120.691Z" fill="#E2E2F8"/>
<path d="M225.883 175.222C215.704 182.754 215.734 193.515 225.96 200.986C237.775 209.617 261.345 212.641 279.555 205.351C292.616 200.122 297.935 191.961 295.543 184.359L265.734 167.097C250.646 165.177 234.843 168.595 225.883 175.222ZM270.348 200.183C257.811 205.767 240.536 204.155 231.395 197.886C223.204 192.27 223.18 183.948 231.335 178.282C240.431 171.961 257.683 170.236 270.254 175.73C284.674 182.032 284.72 193.782 270.348 200.183Z" fill="#AEAEEB"/>
<path d="M272.513 146.523L267.843 139.691L264.846 141.736C264.797 141.721 264.746 141.71 264.697 141.696L267.213 150.524L266.194 151.219L266.067 156.426L258.054 168.631L243.614 181.009L231.036 187.07L214.451 185.611C214.299 185.286 214.167 184.949 214.046 184.606L206.953 181.048C206.946 181.117 206.936 181.187 206.93 181.256L203.883 183.335L209.17 191.069C209.233 191.165 209.298 191.259 209.364 191.352L209.997 192.28L210.051 192.243C213.47 196.308 219.505 198.484 227.563 197.876C244.994 196.557 265.262 182.726 272.834 166.985C276.335 159.708 276.502 153.301 273.956 148.641L273.939 148.615C273.533 147.873 273.055 147.173 272.513 146.523Z" fill="#4E4EE3"/>
<path d="M206.868 182.497C209.224 183.307 211.914 184.225 214.193 185.003C212.742 181.352 213.109 176.616 215.661 171.309C221.806 158.536 238.252 147.314 252.396 146.244C258.212 145.803 262.729 147.151 265.609 149.775L265.205 141.853C264.563 141.65 263.894 141.473 263.198 141.326C264.19 141.131 264.881 141.003 265.16 140.965V140.951C263.453 140.67 247.259 134.757 247.259 134.757L225.704 143.109L210.178 157.357L205.361 174.241L207.073 178.339L207.489 177.887C207.118 179.397 206.91 180.943 206.868 182.497Z" fill="#4E4EE3"/>
<path d="M280.467 167.825L279.443 156.147L271.321 156.454C271.276 156.454 271.229 156.454 271.184 156.459C270.68 156.553 270.21 156.776 269.82 157.107C269.43 157.438 269.134 157.866 268.96 158.347C268.407 159.678 268.175 161.121 268.284 162.558C268.393 163.996 268.84 165.387 269.588 166.62C269.818 167.025 270.138 167.373 270.521 167.637C270.905 167.902 271.343 168.078 271.804 168.15C271.942 168.16 272.081 168.155 272.218 168.135L280.467 167.825Z" fill="#8C8CE3"/>
<path d="M279.442 156.147C278.953 156.252 278.498 156.48 278.121 156.808C277.743 157.137 277.455 157.555 277.282 158.025C276.729 159.356 276.497 160.799 276.606 162.236C276.715 163.673 277.162 165.065 277.91 166.298C278.667 167.406 279.591 167.907 280.467 167.824L297.948 169.562L296.917 152.472L279.442 156.147Z" fill="#4E4EE3"/>
<path d="M328.368 152.212C328.209 152.213 328.05 152.232 327.895 152.267V152.258L296.917 152.475C295.616 152.528 294.373 153.454 293.514 155.242C291.838 158.725 292.248 164.136 294.429 167.328C295.473 168.854 296.733 169.588 297.948 169.566C298.192 169.563 298.435 169.529 298.671 169.464L329.09 165.131V165.126C329.254 165.122 329.416 165.1 329.575 165.059L338.335 163.709L337.163 152.055L328.368 152.212Z" fill="#8C8CE3"/>
<path d="M345.205 151.774L337.31 152.046C337.261 152.046 337.212 152.046 337.162 152.051C336.659 152.145 336.189 152.369 335.799 152.7C335.409 153.031 335.113 153.459 334.939 153.94C334.385 155.271 334.154 156.714 334.263 158.151C334.371 159.589 334.818 160.98 335.566 162.213C336.384 163.41 337.397 163.898 338.334 163.706L346.446 163.417L345.205 151.774Z" fill="#4E4EE3"/>
<path d="M348.042 153.256C348.79 154.489 349.237 155.88 349.346 157.317C349.455 158.755 349.223 160.198 348.67 161.529C347.522 163.912 345.382 164.075 343.888 161.89C343.14 160.657 342.694 159.266 342.585 157.828C342.476 156.391 342.707 154.948 343.261 153.617C344.408 151.234 346.549 151.071 348.042 153.256Z" fill="#8C8CE3"/>
<path d="M352.715 152.922L346.954 153.121C346.918 153.121 346.882 153.121 346.846 153.125C346.479 153.193 346.136 153.356 345.851 153.598C345.567 153.839 345.35 154.151 345.223 154.502C344.82 155.474 344.651 156.527 344.73 157.576C344.81 158.624 345.135 159.64 345.681 160.539C345.868 160.903 346.161 161.202 346.522 161.397C346.882 161.591 347.293 161.672 347.701 161.629L353.62 161.418L352.715 152.922Z" fill="#4E4EE3"/>
<path d="M354.786 154.005C355.332 154.905 355.658 155.92 355.738 156.969C355.817 158.018 355.648 159.071 355.244 160.042C354.407 161.782 352.845 161.899 351.756 160.305C351.21 159.406 350.884 158.391 350.804 157.342C350.725 156.293 350.894 155.24 351.298 154.269C352.135 152.526 353.697 152.409 354.786 154.005Z" fill="#8C8CE3"/>
<path d="M310.873 152.286V152.281H310.688C310.749 152.281 310.811 152.284 310.873 152.286Z" fill="#6318FF"/>
<path d="M308.47 165.621C307.489 164.004 306.903 162.179 306.76 160.293C306.617 158.408 306.921 156.515 307.648 154.769C308.397 153.211 309.469 152.378 310.599 152.286L307.979 152.336L307.974 152.342C306.737 152.332 305.545 153.179 304.729 154.875C303.988 156.656 303.678 158.587 303.824 160.51C303.97 162.434 304.568 164.296 305.569 165.946C306.602 167.456 307.865 168.122 309.058 167.977V167.983L311.929 167.613V167.607C310.748 167.768 309.494 167.119 308.47 165.621Z" fill="#4E4EE3"/>
<path style="mix-blend-mode:lighten" d="M248.14 179.635C262.01 170.17 268.821 156.012 263.352 148.011C257.882 140.011 242.204 141.197 228.334 150.662C214.463 160.126 207.653 174.285 213.122 182.285C218.591 190.286 234.269 189.099 248.14 179.635Z" fill="#4E4EE3"/>
<path d="M204.212 163.718C196.639 179.462 204.632 191.151 222.063 189.832C239.494 188.513 259.762 174.682 267.335 158.941C274.907 143.2 266.915 131.508 249.483 132.828C232.052 134.147 211.784 147.977 204.212 163.718ZM261.383 159.392C255.238 172.164 238.792 183.387 224.648 184.457C210.504 185.528 204.019 176.041 210.163 163.268C216.308 150.496 232.754 139.272 246.898 138.202C261.042 137.132 267.528 146.619 261.383 159.392Z" fill="#8C8CE3"/>
<g style="mix-blend-mode:overlay" opacity="0.5">
<path d="M230.242 157.662C235.122 157.292 237.359 160.566 235.239 164.973C233.119 169.38 227.444 173.252 222.564 173.622C217.684 173.992 215.446 170.718 217.566 166.31C219.686 161.902 225.36 158.031 230.242 157.662Z" fill="#FDFEFF"/>
</g>
<path d="M137.581 219.918C134.703 219.795 131.902 218.954 129.435 217.47L118.601 211.096C115.113 209.133 112.206 206.285 110.173 202.839C108.14 199.394 107.054 195.474 107.023 191.474V150.501C107.023 149.831 107.29 149.188 107.764 148.714C108.239 148.24 108.883 147.973 109.554 147.973C110.225 147.973 110.868 148.24 111.343 148.714C111.817 149.188 112.084 149.831 112.084 150.501V191.642C112.069 192.019 111.834 201.248 121.173 206.736L132.095 213.164C133.371 213.959 137.233 215.728 139.661 214.378C141.72 213.234 142.854 209.651 142.854 204.29V194.822C142.854 194.776 142.854 194.736 142.854 194.69C142.764 193.086 142.655 183.055 153.32 176.779L163.441 170.82L183.822 159.13C183.868 159.104 183.912 159.081 183.959 159.058C186.736 157.731 190.585 154.931 190.687 153.053C190.744 152.042 189.299 150.998 188.434 150.467C182.621 146.894 178.828 144.664 176.702 143.439C176.13 143.109 175.711 142.57 175.532 141.936C175.354 141.301 175.431 140.623 175.747 140.044C175.907 139.749 176.126 139.488 176.388 139.278C176.651 139.067 176.954 138.912 177.277 138.819C177.601 138.727 177.94 138.701 178.275 138.741C178.609 138.782 178.932 138.889 179.224 139.055C181.385 140.3 185.195 142.542 191.08 146.158C195.12 148.64 195.841 151.43 195.735 153.334C195.428 158.795 188.104 162.669 186.21 163.581C186.156 163.607 186.108 163.633 186.056 163.662L165.98 175.187L155.884 181.131C147.354 186.154 147.877 194.109 147.904 194.444L147.912 194.661V204.292C147.912 211.798 145.955 216.683 142.095 218.813C140.709 219.56 139.155 219.94 137.581 219.918Z" fill="url(#paint0_linear)"/>
<path d="M110.083 180.452C115.647 180.452 120.158 176.985 120.158 172.708C120.158 168.431 115.647 164.964 110.083 164.964C104.519 164.964 100.008 168.431 100.008 172.708C100.008 176.985 104.519 180.452 110.083 180.452Z" fill="url(#paint1_linear)"/>
<path d="M110.083 174.881C120.119 174.881 128.256 170.175 128.256 164.37C128.256 158.565 120.119 153.859 110.083 153.859C100.046 153.859 91.9102 158.565 91.9102 164.37C91.9102 170.175 100.046 174.881 110.083 174.881Z" fill="url(#paint2_linear)"/>
<path d="M110.083 168.001C120.119 168.001 128.256 163.295 128.256 157.489C128.256 151.684 120.119 146.978 110.083 146.978C100.046 146.978 91.9102 151.684 91.9102 157.489C91.9102 163.295 100.046 168.001 110.083 168.001Z" fill="url(#paint3_linear)"/>
<path d="M110.083 160.739C120.119 160.739 128.256 156.033 128.256 150.228C128.256 144.422 120.119 139.716 110.083 139.716C100.046 139.716 91.9102 144.422 91.9102 150.228C91.9102 156.033 100.046 160.739 110.083 160.739Z" fill="url(#paint4_linear)"/>
<path d="M110.083 153.858C120.119 153.858 128.256 149.152 128.256 143.347C128.256 137.542 120.119 132.836 110.083 132.836C100.046 132.836 91.9102 137.542 91.9102 143.347C91.9102 149.152 100.046 153.858 110.083 153.858Z" fill="url(#paint5_linear)"/>
<path d="M110.083 146.596C120.119 146.596 128.256 141.89 128.256 136.085C128.256 130.28 120.119 125.574 110.083 125.574C100.046 125.574 91.9102 130.28 91.9102 136.085C91.9102 141.89 100.046 146.596 110.083 146.596Z" fill="url(#paint6_linear)"/>
<path d="M319 102.597C318.999 103.26 319.195 103.908 319.563 104.459C319.931 105.01 320.454 105.44 321.066 105.694C321.679 105.948 322.352 106.014 323.002 105.885C323.652 105.756 324.249 105.437 324.718 104.968C325.187 104.5 325.506 103.903 325.635 103.253C325.764 102.603 325.697 101.929 325.444 101.317C325.19 100.705 324.76 100.182 324.209 99.8138C323.657 99.446 323.009 99.2499 322.347 99.2505C321.907 99.2505 321.472 99.337 321.066 99.5052C320.66 99.6734 320.291 99.9199 319.98 100.231C319.669 100.541 319.423 100.91 319.255 101.317C319.087 101.723 319 102.158 319 102.597Z" fill="#7676E3"/>
<path d="M5.5 253.847C5.49946 254.51 5.6955 255.158 6.06334 255.709C6.43118 256.26 6.95425 256.69 7.5664 256.944C8.17856 257.198 8.85227 257.264 9.50226 257.135C10.1523 257.006 10.7493 256.687 11.2179 256.218C11.6866 255.75 12.0056 255.153 12.1348 254.503C12.2639 253.853 12.1974 253.179 11.9435 252.567C11.6897 251.955 11.2599 251.431 10.7087 251.064C10.1574 250.696 9.50944 250.5 8.84674 250.5C8.40724 250.5 7.97203 250.587 7.56598 250.755C7.15994 250.923 6.791 251.17 6.48023 251.48C6.16945 251.791 5.92294 252.16 5.75475 252.566C5.58656 252.972 5.5 253.407 5.5 253.847Z" fill="#7676E3"/>
<path d="M157.533 65.6101C157.494 63.1677 157.253 60.7326 156.813 58.3292C156.8 58.2606 156.786 58.1939 156.773 58.1253C156.732 57.9178 156.694 57.7242 156.656 57.5477C156.642 57.4809 156.628 57.4184 156.614 57.3535C156.573 57.1636 156.535 56.9949 156.5 56.8493C156.493 56.8184 156.485 56.7886 156.478 56.7553C156.423 56.5065 156.366 56.2644 156.309 56.032C156.258 55.8257 156.203 55.6073 156.143 55.3877C156.059 55.06 155.977 54.7518 155.898 54.463L155.893 54.443C155.876 54.3823 155.86 54.3258 155.844 54.2682L155.822 54.1833L155.799 54.1092C155.74 53.9084 155.684 53.7155 155.628 53.5322L155.623 53.5152L155.618 53.4989C155.412 52.8211 155.221 52.2562 155.044 51.7569C155.039 51.7393 155.032 51.7199 155.026 51.7023C154.771 50.9269 154.392 49.9676 154.034 49.1436C153.972 49.0029 153.911 48.8645 153.85 48.728C153.818 48.6546 153.785 48.583 153.752 48.5096L153.724 48.4489C152.763 46.2687 151.613 44.1754 150.287 42.1928C150.133 41.9628 149.977 41.7328 149.815 41.5017C149.749 41.407 149.682 41.3197 149.617 41.2238C149.556 41.1425 149.501 41.0606 149.443 40.9811C149.385 40.9016 149.34 40.8342 149.286 40.759C149.249 40.7093 149.214 40.6595 149.177 40.6104L149.101 40.5054L149.017 40.3919C148.934 40.2797 148.854 40.1687 148.772 40.0552C148.595 39.8155 148.399 39.5631 148.196 39.3065C146.419 37.0318 144.416 34.9395 142.218 33.0612C141.885 32.7676 141.544 32.4769 141.215 32.2081C140.542 31.6469 139.741 31.0408 139.092 30.5802C138.945 30.4753 138.789 30.3667 138.629 30.2556C137.692 29.5712 136.936 29.0871 135.509 28.2103L136.089 28.5622C135.878 28.4342 135.599 28.2631 135.388 28.1375C135.106 27.9634 134.789 27.7819 134.459 27.5993C133.032 26.7871 131.564 26.0478 130.062 25.3841C129.575 25.1547 128.993 24.9169 128.414 24.69C128.183 24.5977 127.948 24.5057 127.709 24.4139L127.513 24.3399C127.285 24.2537 127.054 24.1676 126.818 24.0826C126.004 23.7792 124.97 23.4297 124.165 23.2053L124.096 23.1858C123.762 23.0863 123.422 22.9893 123.075 22.894C123.002 22.8734 122.931 22.8527 122.857 22.8333C122.505 22.7375 122.144 22.6452 121.78 22.5542L121.695 22.5312L121.65 22.5208L121.568 22.5002C121.005 22.3625 120.449 22.2399 119.895 22.1234L119.636 22.07C119.447 22.0312 119.256 21.9912 119.068 21.9548C118.748 21.891 118.405 21.8279 118.044 21.7667L117.86 21.7363C117.683 21.7072 117.502 21.6783 117.318 21.6496C116.283 21.4878 115.265 21.3571 114.265 21.2576C113.556 21.1848 112.887 21.1296 112.311 21.0998C111.359 21.0422 110.429 21.0143 109.517 21.0076C108.712 20.9906 108.264 21.0028 107.265 21.0367H107.261H107.213C107.101 21.0404 106.989 21.0446 106.877 21.0495H106.856H106.821C105.514 21.1017 104.667 21.1708 103.601 21.2867C103.33 21.3146 103.059 21.3438 102.788 21.3759L102.554 21.402C101.95 21.4687 101.54 21.5197 101.054 21.5974C94.4944 22.5935 88.1962 24.8566 82.5171 28.2582L82.3444 28.362C82.1429 28.4833 81.9421 28.6101 81.7406 28.7363C81.5948 28.828 81.4491 28.9184 81.3058 29.0118C81.149 29.1133 80.9924 29.2157 80.8361 29.3188C80.6507 29.4402 80.467 29.5629 80.2849 29.6871C80.1496 29.7787 80.0148 29.8691 79.8801 29.9644C79.6713 30.1094 79.4674 30.255 79.2677 30.4013C79.1507 30.485 79.0338 30.5675 78.9168 30.6531C78.6404 30.8553 78.3703 31.0576 78.1066 31.2598C77.9063 31.4133 77.7061 31.5723 77.5058 31.7312L77.3154 31.8829C76.7869 32.3077 76.2602 32.7445 75.7372 33.2032C75.5859 33.3355 75.431 33.4738 75.2785 33.6146C75.0495 33.8209 74.8211 34.029 74.5932 34.242C74.3336 34.4847 74.0721 34.731 73.8124 34.9852C73.5411 35.2419 73.2515 35.5313 72.9551 35.8407C72.5876 36.2157 72.2202 36.6016 71.925 36.9408C71.7535 37.1361 71.5686 37.3479 71.38 37.5651C71.2807 37.6786 71.1797 37.7896 71.0823 37.9031L70.8858 38.1276C70.7229 38.3138 70.5489 38.5274 70.3726 38.7483C69.9408 39.2695 69.5256 39.7925 69.1906 40.2651C66.7353 43.5483 64.7658 47.1619 63.3416 50.9966C63.2001 51.3759 63.0837 51.7041 62.9968 51.9632C62.7347 52.7064 62.5234 53.3587 62.4113 53.7743L62.4058 53.7937C62.3366 54.0225 62.2717 54.2439 62.216 54.4478C61.96 55.3804 61.6225 56.6285 61.456 57.581C61.4419 57.6605 61.4278 57.7461 61.4137 57.8274C61.3169 58.3128 61.23 58.7982 61.1522 59.272L61.1051 59.522L61.0273 60.0523L61.0138 60.1312L61.0071 60.187L60.9765 60.3963L60.9961 60.2847L60.9513 60.6809C60.9313 60.8399 60.9119 60.9986 60.8932 61.1572C60.8503 61.4812 60.8099 61.7979 60.7774 62.0922C60.3281 66.3615 60.5254 70.6733 61.3629 74.8848L61.369 74.9188C61.3812 74.9795 61.3947 75.0402 61.407 75.1039C61.4192 75.1676 61.4333 75.2301 61.4468 75.2944C61.4774 75.4442 61.508 75.5923 61.5399 75.7434C61.6358 76.1883 61.7407 76.6399 61.8546 77.0982L61.8981 77.2803C61.9067 77.3161 61.9183 77.3573 61.9275 77.3937C62.1265 78.1934 62.3629 79.0835 62.5963 79.7807L62.6152 79.8413C63.1143 81.5396 63.7396 83.199 64.4861 84.8057L64.499 84.8336C64.8854 85.7322 65.4403 86.8414 65.8861 87.6775C65.9608 87.8176 66.0478 87.9729 66.131 88.124C66.1794 88.215 66.2315 88.3145 66.2786 88.4007C66.4813 88.7751 66.7379 89.2052 66.9952 89.63C67.2119 89.994 67.4238 90.3526 67.621 90.6669V90.6711L78.9695 108.628V108.632C79.1311 108.894 79.2806 109.16 79.4331 109.425C79.5237 109.583 79.6211 109.738 79.7086 109.896C79.8311 110.122 79.9469 110.353 80.0651 110.581C80.1698 110.783 80.2806 110.983 80.3804 111.188C80.4803 111.392 80.5758 111.612 80.6732 111.826C80.7779 112.053 80.8875 112.279 80.9867 112.51C81.0823 112.732 81.1668 112.961 81.2568 113.186C81.3468 113.411 81.4442 113.639 81.5305 113.87C81.6242 114.123 81.7081 114.384 81.7957 114.641C81.868 114.853 81.9451 115.06 82.0137 115.275C82.0995 115.545 82.1748 115.821 82.2544 116.099C82.3156 116.311 82.3818 116.518 82.4381 116.733C82.503 116.976 82.5606 117.225 82.6188 117.471C82.68 117.73 82.7498 117.985 82.8086 118.25C82.849 118.432 82.8821 118.62 82.9201 118.803C82.9899 119.14 83.0615 119.475 83.124 119.821V119.833C83.5 122.045 83.8762 124.256 84.2527 126.467V126.471L84.2594 126.507L84.2539 126.476C84.2778 126.605 84.3072 126.753 84.3384 126.911V126.92C84.3568 127.012 84.3764 127.106 84.3997 127.206C84.4101 127.255 84.4211 127.305 84.4315 127.352C84.4382 127.383 84.4456 127.413 84.4529 127.446C84.4603 127.479 84.4682 127.513 84.4768 127.548L84.4811 127.567L84.5001 127.657L84.516 127.712C84.543 127.824 84.5711 127.929 84.5999 128.034C84.622 128.118 84.6452 128.201 84.6691 128.282V128.288L84.6783 128.318C84.8341 128.856 85.0197 129.384 85.2344 129.9L85.2423 129.922L85.2362 129.905C85.2429 129.92 85.2478 129.935 85.2546 129.951C85.3042 130.069 85.355 130.181 85.4058 130.294C85.4413 130.377 85.475 130.455 85.5161 130.548C85.5773 130.701 85.7543 131.059 85.9937 131.5L86.0268 131.56L86.0501 131.604L86.0764 131.656L86.1034 131.7L86.1517 131.785C86.1621 131.804 86.1732 131.824 86.1842 131.845C86.2571 131.975 86.3306 132.101 86.4053 132.226C86.4212 132.251 86.4371 132.279 86.4524 132.304L86.5565 132.473L86.5804 132.511C86.6576 132.632 86.7347 132.754 86.8125 132.87C86.8382 132.909 86.8646 132.947 86.8909 132.986C86.9172 133.025 86.9332 133.047 86.9521 133.078C87.1926 133.429 87.4337 133.756 87.6754 134.06C87.7091 134.103 87.7415 134.143 87.7746 134.181C87.9012 134.338 88.0263 134.488 88.15 134.632C88.1818 134.669 88.2112 134.706 88.2461 134.743C88.4342 134.957 88.6173 135.158 88.793 135.34C88.8971 135.45 89.0049 135.558 89.1139 135.667C89.1752 135.727 89.2395 135.788 89.3013 135.849C89.3632 135.909 89.4342 135.98 89.5034 136.045L89.5696 136.112C89.5879 136.13 89.6118 136.15 89.6308 136.169C89.6779 136.213 89.7233 136.257 89.7716 136.301C90.388 136.88 91.0471 137.413 91.7436 137.895L91.814 137.942C91.8838 137.991 91.9524 138.04 92.0198 138.086C92.062 138.117 92.1067 138.147 92.1484 138.177L92.1643 138.189L92.1802 138.199C92.4558 138.39 92.7375 138.569 93.1344 138.814L93.2017 138.858C93.3058 138.923 93.4118 138.984 93.5159 139.047L93.563 139.075L93.6084 139.102C93.8688 139.257 94.1356 139.405 94.4088 139.547L94.47 139.58L94.5086 139.6C94.5766 139.634 94.6403 139.672 94.7095 139.705L94.7603 139.73C94.8277 139.765 94.8975 139.799 94.9691 139.835L95.0438 139.875L95.1418 139.921C95.2416 139.97 95.3445 140.02 95.4517 140.071C95.508 140.098 95.5638 140.123 95.6201 140.15C95.7683 140.219 95.9263 140.29 96.0837 140.362C96.651 140.627 97.2317 140.863 97.8235 141.069L97.8419 141.077L97.8762 141.088C97.916 141.103 97.9558 141.118 97.9987 141.132H97.9883L98.0011 141.136L98.0121 141.14L98.0232 141.144H98.0287C99.9554 141.841 101.95 142.337 103.981 142.622C104.556 142.709 105.117 142.78 105.643 142.828H105.651C105.908 142.859 106.211 142.883 106.512 142.904C106.768 142.925 107.022 142.942 107.241 142.95C107.71 142.977 108.334 143.005 108.803 142.999C109.075 142.999 109.397 142.999 109.713 142.992L109.889 142.988L110.355 142.981H110.368C110.855 142.976 111.363 142.943 111.899 142.896H111.925C112.388 142.87 112.85 142.82 113.394 142.748H113.402L113.48 142.741H113.489H113.499C113.508 142.741 114.134 142.667 115.014 142.518H115.026C115.464 142.453 115.84 142.38 116.322 142.271L116.567 142.218H116.575H116.583L116.638 142.206C117.379 142.04 117.666 141.975 118.224 141.812C118.61 141.709 119.058 141.564 119.449 141.442L119.356 141.475L119.47 141.436L119.632 141.385C119.836 141.324 120.032 141.257 120.227 141.189C121.166 140.865 122.084 140.484 122.976 140.047C123.093 139.99 123.209 139.933 123.326 139.875L123.404 139.836L123.47 139.802C124.519 139.276 125.528 138.673 126.487 137.998C126.543 137.96 126.597 137.92 126.652 137.881C126.774 137.791 126.903 137.702 127.027 137.61C127.707 137.109 128.353 136.561 128.958 135.972C129.027 135.906 129.092 135.839 129.16 135.772C129.199 135.732 129.241 135.693 129.282 135.651L129.316 135.615C129.336 135.596 129.357 135.575 129.377 135.555L129.383 135.549L129.389 135.542L129.434 135.496C129.504 135.424 129.577 135.352 129.646 135.279C129.844 135.07 130.008 134.887 130.147 134.726C130.178 134.691 130.209 134.656 130.237 134.621L130.273 134.579L130.31 134.533C130.355 134.48 130.399 134.426 130.443 134.372C130.529 134.271 130.611 134.173 130.688 134.074C130.728 134.024 130.766 133.973 130.806 133.922C130.87 133.839 130.941 133.752 130.999 133.673C131.056 133.594 131.125 133.503 131.19 133.412C131.373 133.16 131.547 132.906 131.716 132.646C131.811 132.508 131.912 132.343 132.01 132.173L132.103 132.015C132.112 132.001 132.122 131.986 132.131 131.972C132.195 131.867 132.261 131.747 132.328 131.624L132.35 131.585L132.356 131.574C132.479 131.371 132.598 131.13 132.715 130.883L132.719 130.874C133.002 130.33 133.241 129.765 133.435 129.184L133.449 129.143C133.502 128.995 133.551 128.851 133.596 128.71C133.606 128.681 133.617 128.649 133.626 128.62C133.688 128.444 133.76 128.206 133.803 128.025L133.936 127.513L133.958 127.408C133.994 127.253 134.026 127.105 134.053 126.972L134.082 126.85L134.174 126.343V126.332V126.328L135.265 119.686C135.265 119.668 135.272 119.652 135.275 119.635C135.368 119.107 135.472 118.598 135.577 118.088C135.632 117.83 135.699 117.583 135.757 117.331C135.815 117.079 135.871 116.828 135.935 116.584C136 116.34 136.076 116.088 136.147 115.841C136.215 115.603 136.279 115.36 136.352 115.126C136.429 114.877 136.516 114.638 136.597 114.394C136.673 114.169 136.744 113.939 136.825 113.717C136.917 113.466 137.019 113.222 137.117 112.974C137.199 112.769 137.275 112.558 137.362 112.355C137.467 112.105 137.583 111.862 137.695 111.615C137.784 111.421 137.867 111.223 137.96 111.03C138.069 110.803 138.19 110.58 138.306 110.355C138.412 110.149 138.512 109.941 138.624 109.738C138.72 109.559 138.828 109.384 138.93 109.208C139.071 108.96 139.209 108.71 139.359 108.465L140.594 106.485L140.727 106.271L141.588 104.893L143.089 102.486L144.978 99.4574L146.867 96.4298C147.375 95.6143 147.876 94.812 148.368 94.0228L149.226 92.6443L149.359 92.4301L150.593 90.4521L151.018 89.7568L151.053 89.6961L151.057 89.6888C151.175 89.4934 151.283 89.3114 151.384 89.1397C151.725 88.5597 152.062 87.9657 152.315 87.4469L152.321 87.4348C152.58 86.9494 152.807 86.4925 153.092 85.8888L153.127 85.8196C153.538 84.9956 154.002 83.8962 154.358 82.9825C154.402 82.8708 154.444 82.761 154.484 82.656C154.52 82.562 154.56 82.4534 154.598 82.3526C154.678 82.1397 154.759 81.9279 154.838 81.7065C154.907 81.5202 154.975 81.3315 155.046 81.1301C155.063 81.0803 155.079 81.0318 155.097 80.9814C155.165 80.783 155.233 80.5852 155.299 80.3831C155.322 80.3128 155.342 80.2466 155.364 80.1775C155.503 79.7467 155.633 79.3207 155.732 78.9446C155.75 78.8766 155.769 78.8032 155.787 78.7334C155.813 78.643 155.84 78.5514 155.865 78.461C155.912 78.2899 155.958 78.1168 156.004 77.9416C156.013 77.9058 156.024 77.8676 156.034 77.8324C156.111 77.5497 156.184 77.2724 156.242 77.0236C156.252 76.9817 156.263 76.9326 156.273 76.8895C156.304 76.7591 156.334 76.6383 156.361 76.5145L156.382 76.4308L156.395 76.3659C156.507 75.8756 156.598 75.4376 156.674 75.045L156.679 75.0238C156.713 74.845 156.745 74.6745 156.775 74.5123C156.781 74.4783 156.787 74.4455 156.794 74.4116C156.827 74.2265 156.858 74.0475 156.887 73.8831L156.891 73.86L156.899 73.8115C156.922 73.6792 156.944 73.5354 156.967 73.3868C156.976 73.3322 156.984 73.2776 156.992 73.2217C157.002 73.1526 157.012 73.0858 157.022 73.0173C157.043 72.8813 157.065 72.7436 157.083 72.6083C157.127 72.2977 157.165 71.9919 157.201 71.6855C157.213 71.5896 157.225 71.4937 157.235 71.3985C157.274 71.0575 157.308 70.7201 157.339 70.3864V70.3809C157.339 70.3427 157.345 70.3057 157.348 70.2681C157.353 70.2074 157.357 70.1577 157.361 70.1006C157.405 69.5796 157.439 69.0676 157.462 68.5644C157.481 68.2671 157.494 67.9485 157.503 67.6172C157.551 66.9656 157.548 66.2587 157.533 65.6101Z" fill="#FFD3A6"/>
<path d="M130.313 80.89C140.64 78.417 147.007 68.0405 144.534 57.7134C142.061 47.3864 131.684 41.0194 121.357 43.4924C111.03 45.9654 104.663 56.3419 107.136 66.669C109.609 76.9961 119.986 83.363 130.313 80.89Z" fill="url(#paint7_linear)"/>
<path style="mix-blend-mode:color-dodge" d="M107.273 74.9335C140.473 74.4131 167.127 57.4277 166.807 36.9956C166.486 16.5635 139.313 0.421899 106.113 0.942283C72.9137 1.46267 46.2596 18.448 46.5799 38.8801C46.9001 59.3122 74.0735 75.4538 107.273 74.9335Z" fill="url(#paint8_radial)"/>
<defs>
<linearGradient id="paint0_linear" x1="172.24" y1="143.727" x2="134.793" y2="216.502" gradientUnits="userSpaceOnUse">
<stop stop-color="#B4B4FF"/>
<stop offset="1" stop-color="#1919C7"/>
</linearGradient>
<linearGradient id="paint1_linear" x1="114.82" y1="165.919" x2="108.426" y2="180.713" gradientUnits="userSpaceOnUse">
<stop stop-color="#B4B4FF"/>
<stop offset="1" stop-color="#1919C7"/>
</linearGradient>
<linearGradient id="paint2_linear" x1="118.627" y1="155.155" x2="111.618" y2="176.706" gradientUnits="userSpaceOnUse">
<stop stop-color="#B4B4FF"/>
<stop offset="1" stop-color="#1919C7"/>
</linearGradient>
<linearGradient id="paint3_linear" x1="118.627" y1="148.274" x2="111.618" y2="169.826" gradientUnits="userSpaceOnUse">
<stop stop-color="#B4B4FF"/>
<stop offset="1" stop-color="#1919C7"/>
</linearGradient>
<linearGradient id="paint4_linear" x1="118.627" y1="141.012" x2="111.618" y2="162.564" gradientUnits="userSpaceOnUse">
<stop stop-color="#B4B4FF"/>
<stop offset="1" stop-color="#1919C7"/>
</linearGradient>
<linearGradient id="paint5_linear" x1="118.627" y1="134.131" x2="111.618" y2="155.683" gradientUnits="userSpaceOnUse">
<stop stop-color="#B4B4FF"/>
<stop offset="1" stop-color="#1919C7"/>
</linearGradient>
<linearGradient id="paint6_linear" x1="118.627" y1="126.869" x2="111.618" y2="148.421" gradientUnits="userSpaceOnUse">
<stop stop-color="#B4B4FF"/>
<stop offset="1" stop-color="#1919C7"/>
</linearGradient>
<linearGradient id="paint7_linear" x1="122.86" y1="32.9338" x2="127.133" y2="74.9487" gradientUnits="userSpaceOnUse">
<stop stop-color="white"/>
<stop offset="0.114" stop-color="white" stop-opacity="0.832"/>
<stop offset="0.297" stop-color="white" stop-opacity="0.582"/>
<stop offset="0.473" stop-color="white" stop-opacity="0.374"/>
<stop offset="0.636" stop-color="white" stop-opacity="0.212"/>
<stop offset="0.783" stop-color="white" stop-opacity="0.096"/>
<stop offset="0.909" stop-color="white" stop-opacity="0.025"/>
<stop offset="1" stop-color="white" stop-opacity="0"/>
</linearGradient>
<radialGradient id="paint8_radial" cx="0" cy="0" r="1" gradientUnits="userSpaceOnUse" gradientTransform="translate(37099.8 10374.4) rotate(2.27418) scale(11347 4291.14)">
<stop offset="0.021" stop-color="#C0C0F6"/>
<stop offset="0.958" stop-opacity="0"/>
</radialGradient>
</defs>
</svg>
